<svg width="1224" height="241" viewBox="0 0 1224 241" fill="none" xmlns="http://www.w3.org/2000/svg">
<path d="M239.29 228.125C240.13 228.125 240.655 228.545 240.865 229.385C241.075 230.225 241.18 231.17 241.18 232.22C241.18 234.74 240.55 236 239.29 236L140.065 236C138.595 236 137.86 234.74 137.86 232.22C137.86 229.49 138.595 228.125 140.065 228.125C159.175 227.705 168.73 222.77 168.73 213.32C168.73 211.01 167.785 207.23 165.895 201.98L149.83 155.36L68.2449 155.36L53.4399 197.57C51.9699 202.61 51.2349 206.39 51.2349 208.91C51.2349 221.72 61.5249 228.125 82.1049 228.125C83.5749 228.125 84.3099 229.49 84.3099 232.22C84.3099 234.74 83.5749 236 82.1049 236L3.03993 236C1.56993 236 0.834926 234.74 0.834926 232.22C0.834927 229.49 1.56993 228.125 3.03993 228.125C9.75993 228.125 16.2699 226.025 22.5699 221.825C28.8699 217.415 33.9099 210.275 37.6899 200.405C42.0999 189.695 64.7799 129.845 105.73 20.855L111.4 5.73502L129.985 0.380015C132.295 0.380015 133.765 1.43001 134.395 3.53001L146.995 40.07C154.765 62.12 165.37 92.675 178.81 131.735C192.25 170.585 200.23 193.37 202.75 200.09C205.9 208.07 209.155 214.055 212.515 218.045C215.875 222.035 219.55 224.765 223.54 226.235C227.74 227.495 232.99 228.125 239.29 228.125ZM145.735 143.705L110.455 41.015C105.205 54.035 92.5 88.265 72.3399 143.705L145.735 143.705ZM262.964 236C261.494 236 260.759 234.74 260.759 232.22C260.759 229.49 261.494 228.125 262.964 228.125L267.374 228.125C275.984 228.125 282.494 226.445 286.904 223.085C291.524 219.725 293.834 213.53 293.834 204.5L293.834 36.605C293.834 27.575 291.524 21.38 286.904 18.02C282.284 14.66 275.774 12.98 267.374 12.98L262.964 12.98C261.494 12.98 260.759 11.72 260.759 9.20004C260.759 6.47003 261.494 5.10503 262.964 5.10503L328.169 4.79005C350.849 4.79005 366.809 4.89505 376.049 5.10505C390.119 5.31505 402.929 7.62506 414.479 12.0351C426.239 16.4451 435.479 22.7451 442.199 30.9351C449.129 39.1251 452.594 48.5751 452.594 59.2851C452.594 73.5651 446.819 85.0101 435.269 93.6201C423.719 102.23 409.229 108.53 391.799 112.52C412.589 116.72 430.124 123.755 444.404 133.625C458.684 143.285 465.824 156.2 465.824 172.37C465.824 185.39 461.834 196.73 453.854 206.39C445.874 216.05 435.269 223.4 422.039 228.44C408.809 233.48 394.319 236 378.569 236L328.169 236L262.964 236ZM337.934 108.11C366.494 108.11 385.919 103.595 396.209 94.5651C406.709 85.5351 411.959 73.3551 411.959 58.0251C411.959 45.2151 407.234 34.7151 397.784 26.5251C388.334 18.3351 374.264 14.24 355.574 14.24C346.544 14.24 340.034 15.815 336.044 18.9651C332.054 21.9051 330.059 26.9451 330.059 34.085L330.059 108.11L337.934 108.11ZM361.244 226.865C380.144 226.865 395.474 222.245 407.234 213.005C418.994 203.765 424.874 190.115 424.874 172.055C424.874 155.465 418.469 142.235 405.659 132.365C393.059 122.285 370.484 117.245 337.934 117.245L330.059 117.245L330.059 207.02C330.059 214.58 332.054 219.83 336.044 222.77C340.244 225.5 347.069 226.865 356.519 226.865L361.244 226.865ZM604.461 240.41C587.241 240.41 570.336 235.79 553.746 226.55C537.156 217.31 523.401 203.66 512.481 185.6C501.771 167.54 496.416 146.015 496.416 121.025C496.416 96.0351 501.771 74.6151 512.481 56.7651C523.401 38.7051 537.156 25.0551 553.746 15.8151C570.336 6.57509 587.241 1.95509 604.461 1.9551C621.471 1.9551 638.271 6.5751 654.861 15.8151C671.661 25.0551 685.416 38.7051 696.126 56.7651C706.836 74.6151 712.191 96.0351 712.191 121.025C712.191 146.015 706.836 167.54 696.126 185.6C685.416 203.66 671.661 217.31 654.861 226.55C638.271 235.79 621.471 240.41 604.461 240.41ZM604.461 230.33C616.851 230.33 628.191 226.235 638.481 218.045C648.981 209.855 657.276 197.57 663.366 181.19C669.666 164.81 672.816 144.755 672.816 121.025C672.816 97.5051 669.666 77.5551 663.366 61.1751C657.276 44.7951 648.981 32.6151 638.481 24.6351C628.191 16.4451 616.851 12.3501 604.461 12.3501C592.071 12.3501 580.626 16.4451 570.126 24.6351C559.836 32.6151 551.541 44.7951 545.241 61.1751C539.151 77.5551 536.106 97.5051 536.106 121.025C536.106 144.755 539.151 164.81 545.241 181.19C551.541 197.57 559.836 209.855 570.126 218.045C580.626 226.235 592.071 230.33 604.461 230.33ZM865.923 240.41C835.053 240.41 812.268 233.795 797.568 220.565C782.868 207.335 775.518 188.54 775.518 164.18L775.518 36.2901C775.518 27.2601 773.103 21.1701 768.273 18.0201C763.653 14.6601 757.143 12.9801 748.743 12.9801L744.648 12.9801C743.178 12.9801 742.443 11.7201 742.443 9.20012C742.443 6.47012 743.178 5.10512 744.648 5.10512L841.983 5.10513C843.453 5.10514 844.188 6.47014 844.188 9.20014C844.188 11.7201 843.453 12.9801 841.983 12.9801L837.888 12.9801C829.488 12.9801 822.873 14.6601 818.043 18.0201C813.423 21.1701 811.113 27.2601 811.113 36.2901L811.113 151.265C811.113 172.685 814.788 190.85 822.138 205.76C829.698 220.67 845.028 228.125 868.128 228.125C892.278 228.125 908.658 220.565 917.268 205.445C926.088 190.115 930.498 170.585 930.498 146.855L930.498 40.3851C930.498 31.9852 927.663 25.3702 921.993 20.5402C916.323 15.5002 910.233 12.9802 903.723 12.9802L899.628 12.9802C898.158 12.9802 897.423 11.7202 897.423 9.20015C897.423 6.47015 898.158 5.10514 899.628 5.10515L974.283 5.10516C975.333 5.10516 975.963 5.42016 976.173 6.05017C976.593 6.68016 976.803 7.73016 976.803 9.20016C976.803 11.7202 975.963 12.9802 974.283 12.9802L970.503 12.9802C963.783 12.9802 957.588 15.5002 951.918 20.5402C946.248 25.3702 943.413 31.9852 943.413 40.3851L942.783 155.99C942.783 182.66 936.063 203.45 922.623 218.36C909.183 233.06 890.283 240.41 865.923 240.41ZM1061 236C1059.74 236 1059.11 234.635 1059.11 231.905C1059.11 229.385 1059.74 228.125 1061 228.125L1065.41 228.125C1073.81 228.125 1080.32 226.445 1084.94 223.085C1089.77 219.515 1092.18 213.32 1092.18 204.5L1092.18 34.0852C1092.18 26.5252 1090.08 21.2752 1085.88 18.3352C1081.68 15.3952 1075.91 13.9252 1068.56 13.9252C1067.3 13.9252 1064.99 14.1352 1061.63 14.5552C1052.18 15.6052 1041.78 19.9102 1030.44 27.4702C1019.1 34.8202 1010.39 42.8002 1004.3 51.4102C1003.25 52.6702 1002.2 53.3002 1001.15 53.3002C1000.73 53.3002 1000.1 53.0902 999.259 52.6702C997.369 51.8302 996.424 50.9902 996.424 50.1502C996.424 49.5202 996.634 48.6802 997.054 47.6302C998.524 43.4302 1000.83 37.0252 1003.98 28.4152C1007.34 19.8052 1010.39 12.0352 1013.12 5.10516L1207.16 5.1052L1217.24 31.5652L1223.54 47.6302L1223.85 50.1502C1223.85 50.9902 1223.01 51.8302 1221.33 52.6702C1220.49 53.0902 1219.76 53.3002 1219.13 53.3002C1217.87 53.3002 1216.82 52.6702 1215.98 51.4102C1209.89 42.8002 1201.17 34.8202 1189.83 27.4702C1178.49 19.9102 1168.1 15.6052 1158.65 14.5552C1155.29 14.1352 1152.98 13.9252 1151.72 13.9252C1144.16 13.9252 1138.28 15.5002 1134.08 18.6502C1130.09 21.5902 1128.09 26.7352 1128.09 34.0852L1128.09 204.5C1128.09 213.53 1130.51 219.725 1135.34 223.085C1140.17 226.445 1146.68 228.125 1154.87 228.125L1158.96 228.125C1160.43 228.125 1161.17 229.385 1161.17 231.905C1161.17 234.635 1160.43 236 1158.96 236L1061 236Z" fill="#422B1A" fill-opacity="0.04"/>
</svg>
