<svg width="694" height="277" viewBox="0 0 694 277" fill="none" xmlns="http://www.w3.org/2000/svg">
<path d="M198.255 43.535C198.675 44.375 198.885 45.005 198.885 45.425C198.885 46.475 198.045 47.42 196.365 48.26C195.735 48.68 195 48.89 194.16 48.89C192.9 48.89 191.955 48.575 191.325 47.945C182.085 38.705 170.325 30.83 156.045 24.32C141.765 17.6 126.96 14.24 111.63 14.24L105.015 14.24C96.405 14.24 89.79 14.66 85.17 15.5C80.55 16.13 76.875 17.81 74.145 20.54C71.415 23.27 70.05 27.68 70.05 33.77L70.05 110.945L96.5099 110.945C108.48 110.945 116.46 110.84 120.45 110.63C129.27 110.42 136.2 107.375 141.24 101.495C146.49 95.405 149.115 88.265 149.115 80.075C149.115 78.605 150.375 77.87 152.895 77.87C154.365 77.87 155.415 78.08 156.045 78.5C156.675 78.71 156.99 79.235 156.99 80.075L156.99 153.155C156.99 153.995 156.675 154.625 156.045 155.045C155.415 155.255 154.365 155.36 152.895 155.36C150.375 155.36 149.115 154.625 149.115 153.155C149.115 144.965 146.49 137.825 141.24 131.735C136.2 125.645 129.27 122.495 120.45 122.285C116.46 122.075 108.48 121.97 96.5099 121.97L70.0499 121.97L70.0499 204.5C70.0499 213.32 72.3599 219.41 76.9799 222.77C81.5999 226.13 88.2149 227.81 96.8249 227.81L101.235 227.81C102.705 227.81 103.44 229.175 103.44 231.905C103.44 234.635 102.705 236 101.235 236L2.95493 236C1.48493 236 0.749926 234.635 0.749926 231.905C0.749927 229.385 1.48493 228.125 2.95493 228.125L7.36493 228.125C15.7649 228.125 22.2749 226.445 26.8949 223.085C31.7249 219.725 34.1399 213.53 34.1399 204.5L34.14 36.605C34.14 27.575 31.725 21.38 26.895 18.02C22.065 14.66 15.555 12.98 7.36497 12.98L2.95497 12.98C1.48496 12.98 0.749965 11.615 0.749965 8.885C0.749966 6.36499 1.48497 5.10499 2.95497 5.10499L177.15 5.10502C190.17 28.205 197.205 41.015 198.255 43.535ZM449.312 228.125C450.152 228.125 450.677 228.545 450.887 229.385C451.097 230.225 451.202 231.17 451.202 232.22C451.202 234.74 450.572 236 449.312 236L350.087 236C348.617 236 347.882 234.74 347.882 232.22C347.882 229.49 348.617 228.125 350.087 228.125C369.197 227.705 378.752 222.77 378.752 213.32C378.752 211.01 377.807 207.23 375.917 201.98L359.852 155.36L278.267 155.36L263.462 197.57C261.992 202.61 261.257 206.39 261.257 208.91C261.257 221.72 271.547 228.125 292.127 228.125C293.597 228.125 294.332 229.49 294.332 232.22C294.332 234.74 293.597 236 292.127 236L213.062 236C211.592 236 210.857 234.74 210.857 232.22C210.857 229.49 211.592 228.125 213.062 228.125C219.782 228.125 226.292 226.025 232.592 221.825C238.892 217.415 243.932 210.275 247.712 200.405C252.122 189.695 274.802 129.845 315.752 20.855L321.422 5.73506L340.007 0.380054C342.317 0.380054 343.787 1.43005 344.417 3.53005L357.017 40.0701C364.787 62.1201 375.392 92.6751 388.832 131.735C402.272 170.585 410.252 193.37 412.772 200.09C415.922 208.07 419.177 214.055 422.537 218.045C425.897 222.035 429.572 224.765 433.562 226.235C437.762 227.495 443.012 228.125 449.312 228.125ZM355.757 143.705L320.477 41.0151C315.227 54.035 302.522 88.265 282.362 143.705L355.757 143.705ZM692.542 249.86C693.382 250.49 693.802 251.33 693.802 252.38C693.802 253.22 693.382 254.06 692.542 254.9C688.972 259.52 683.722 264.245 676.792 269.075C670.072 273.905 661.777 276.32 651.907 276.32C638.887 276.32 628.597 273.065 621.037 266.555C613.477 260.045 608.017 250.28 604.657 237.26C596.467 239.36 588.172 240.41 579.772 240.41C562.552 240.41 545.647 235.79 529.057 226.55C512.467 217.31 498.712 203.66 487.792 185.6C477.082 167.54 471.727 146.015 471.727 121.025C471.727 96.0351 477.082 74.5101 487.792 56.4501C498.712 38.3901 512.467 24.7401 529.057 15.5001C545.647 6.26009 562.552 1.6401 579.772 1.6401C596.782 1.6401 613.582 6.2601 630.172 15.5001C646.972 24.7401 660.727 38.3901 671.437 56.4501C682.147 74.5101 687.502 96.0351 687.502 121.025C687.502 145.175 682.462 166.07 672.382 183.71C662.302 201.35 649.177 215.105 633.007 224.975C639.517 237.155 645.607 245.345 651.277 249.545C657.157 253.745 663.457 255.845 670.177 255.845C676.057 255.845 681.622 253.745 686.872 249.545C688.132 248.705 689.077 248.285 689.707 248.285C690.547 248.285 691.492 248.81 692.542 249.86ZM530.632 201.035C531.472 192.005 535.147 184.445 541.657 178.355C548.377 172.055 556.777 168.905 566.857 168.905C590.167 168.905 609.277 181.82 624.187 207.65C631.747 198.2 637.627 186.23 641.827 171.74C646.027 157.25 648.127 140.345 648.127 121.025C648.127 97.7151 644.977 77.8701 638.677 61.4901C632.377 45.1101 623.977 32.8251 613.477 24.6351C603.187 16.4451 591.952 12.3501 579.772 12.3501C567.382 12.3501 555.937 16.4451 545.437 24.6351C535.147 32.8251 526.852 45.1101 520.552 61.4901C514.462 77.8701 511.417 97.7151 511.417 121.025C511.417 154.625 517.822 181.295 530.632 201.035ZM540.712 203.555C540.712 207.125 542.497 211.115 546.067 215.525C549.637 219.725 554.362 223.295 560.242 226.235C566.332 228.965 572.842 230.33 579.772 230.33C587.332 230.33 594.577 228.755 601.507 225.605C596.887 208.805 591.742 197.045 586.072 190.325C580.402 183.395 573.367 179.93 564.967 179.93C557.197 179.93 551.212 182.345 547.012 187.175C542.812 192.005 540.712 197.465 540.712 203.555Z" fill="#422B1A" fill-opacity="0.04"/>
</svg>
