<svg width="1440" height="241" viewBox="0 0 1440 241" fill="none" xmlns="http://www.w3.org/2000/svg">
<path d="M42.4249 240.41C25.2049 240.41 8.29993 235.79 -8.29007 226.55C-24.8801 217.31 -38.6351 203.66 -49.5551 185.6C-60.2651 167.54 -65.6201 146.015 -65.6201 121.025C-65.62 96.035 -60.265 74.615 -49.555 56.765C-38.635 38.705 -24.88 25.055 -8.29003 15.815C8.29997 6.575 25.205 1.95501 42.425 1.95501C59.435 1.95502 76.235 6.57501 92.825 15.815C109.625 25.055 123.38 38.705 134.09 56.765C144.8 74.615 150.155 96.035 150.155 121.025C150.155 146.015 144.8 167.54 134.09 185.6C123.38 203.66 109.625 217.31 92.8249 226.55C76.2349 235.79 59.4349 240.41 42.4249 240.41ZM42.4249 230.33C54.8149 230.33 66.1549 226.235 76.4449 218.045C86.9449 209.855 95.2399 197.57 101.33 181.19C107.63 164.81 110.78 144.755 110.78 121.025C110.78 97.505 107.63 77.555 101.33 61.175C95.24 44.795 86.945 32.615 76.445 24.635C66.155 16.445 54.815 12.35 42.425 12.35C30.035 12.35 18.59 16.445 8.08997 24.635C-2.20003 32.615 -10.495 44.795 -16.795 61.175C-22.885 77.555 -25.93 97.505 -25.9301 121.025C-25.9301 144.755 -22.8851 164.81 -16.7951 181.19C-10.4951 197.57 -2.20006 209.855 8.08993 218.045C18.5899 226.235 30.0349 230.33 42.4249 230.33ZM406.577 228.125C408.047 228.125 408.782 229.385 408.782 231.905C408.782 234.635 408.047 236 406.577 236L341.372 236C332.972 220.04 322.367 200.72 309.557 178.04C296.747 155.36 285.932 137.72 277.112 125.12L271.757 125.12L250.967 125.12L250.967 204.5C250.967 213.53 253.382 219.725 258.212 223.085C263.042 226.445 269.552 228.125 277.742 228.125L282.152 228.125C283.622 228.125 284.357 229.385 284.357 231.905C284.357 234.635 283.622 236 282.152 236L184.502 236C183.032 236 182.297 234.635 182.297 231.905C182.297 229.385 183.032 228.125 184.502 228.125L188.912 228.125C197.312 228.125 203.822 226.445 208.442 223.085C213.272 219.725 215.687 213.53 215.687 204.5L215.687 36.605C215.687 27.575 213.272 21.38 208.442 18.02C203.612 14.66 197.102 12.98 188.912 12.98L184.502 12.98C183.032 12.98 182.297 11.72 182.297 9.20004C182.297 6.47003 183.032 5.10503 184.502 5.10503C210.752 4.68504 236.057 4.47505 260.417 4.47506C276.377 4.47506 287.822 4.58006 294.752 4.79006C308.612 5.00006 321.527 7.52006 333.497 12.3501C345.677 17.1801 355.442 24.1101 362.792 33.1401C370.142 41.9601 373.817 52.2501 373.817 64.0101C373.817 78.5001 368.147 90.3651 356.807 99.6051C345.467 108.845 331.082 115.565 313.652 119.765C319.532 127.325 329.402 142.76 343.262 166.07C346.412 170.9 350.822 178.04 356.492 187.49C362.372 196.94 367.307 204.5 371.297 210.17C374.447 214.58 377.177 217.94 379.487 220.25C382.007 222.56 385.367 224.45 389.567 225.92C393.977 227.39 399.647 228.125 406.577 228.125ZM260.732 116.3C309.662 116.3 334.127 98.3451 334.127 62.4351C334.127 47.5251 328.772 35.7651 318.062 27.1551C307.352 18.5451 293.807 14.24 277.427 14.24C269.027 14.24 262.517 15.605 257.897 18.335C253.277 21.065 250.967 26.315 250.967 34.085L250.967 116.3L260.732 116.3ZM538.949 240.095C527.399 240.095 513.014 236.735 495.794 230.015C478.784 223.085 463.454 211.115 449.804 194.105C436.364 177.095 429.644 154.415 429.644 126.065C429.644 108.845 433.529 90.5751 441.299 71.2551C449.279 51.9351 461.354 35.5551 477.524 22.1151C493.694 8.67509 513.539 1.95509 537.059 1.9551C544.409 1.9551 551.024 2.6901 556.904 4.16009C562.784 5.6301 569.189 7.8351 576.119 10.7751C582.209 13.2951 586.934 14.5551 590.294 14.5551C596.384 14.5551 602.369 11.5101 608.249 5.4201L620.849 58.6551C621.059 59.7051 621.164 60.8601 621.164 62.1201C621.164 62.7501 620.954 63.2751 620.534 63.6951C620.324 63.9051 619.904 64.1151 619.274 64.3251C618.644 64.7451 617.909 64.9551 617.069 64.9551C615.809 64.9551 614.654 64.3251 613.604 63.0651C606.674 52.9851 600.059 44.5851 593.759 37.8651C587.459 31.1451 579.584 25.3701 570.134 20.5401C560.894 15.7101 550.079 13.2951 537.689 13.2951C518.369 13.2951 503.564 20.7501 493.274 35.6601C482.984 50.5701 476.264 66.6351 473.114 83.8551C469.964 101.075 468.389 115.67 468.389 127.64C468.389 147.8 472.274 165.65 480.044 181.19C487.814 196.52 497.264 208.385 508.394 216.785C519.524 225.185 529.919 229.385 539.579 229.385C553.439 229.385 563.939 226.445 571.079 220.565C578.429 214.475 583.154 206.915 585.254 197.885C587.144 189.905 588.089 182.66 588.089 176.15C588.089 173.84 587.879 170.585 587.459 166.385C586.829 161.135 584.519 156.83 580.529 153.47C576.539 149.9 568.349 148.115 555.959 148.115C554.279 148.115 553.439 146.75 553.439 144.02C553.439 142.55 553.544 141.5 553.754 140.87C554.174 140.24 554.909 139.925 555.959 139.925L648.254 139.925C649.934 139.925 650.774 141.29 650.774 144.02C650.774 146.75 649.934 148.115 648.254 148.115C640.904 148.115 634.604 149.795 629.354 153.155C624.314 156.305 621.374 161.03 620.534 167.33C620.114 170.27 619.904 175.31 619.904 182.45C619.904 193.58 620.219 208.07 620.849 225.92C619.589 225.71 617.699 225.605 615.179 225.605C608.249 225.605 601.949 226.235 596.279 227.495C590.609 228.755 584.204 230.54 577.064 232.85C569.924 235.16 563.519 236.945 557.849 238.205C552.179 239.465 545.879 240.095 538.949 240.095ZM895.418 228.125C896.258 228.125 896.783 228.545 896.993 229.385C897.203 230.225 897.308 231.17 897.308 232.22C897.308 234.74 896.678 236 895.418 236L796.193 236C794.723 236 793.988 234.74 793.988 232.22C793.988 229.49 794.723 228.125 796.193 228.125C815.303 227.705 824.858 222.77 824.858 213.32C824.858 211.01 823.913 207.23 822.023 201.98L805.958 155.36L724.373 155.36L709.568 197.57C708.098 202.61 707.363 206.39 707.363 208.91C707.363 221.72 717.653 228.125 738.233 228.125C739.703 228.125 740.438 229.49 740.438 232.22C740.438 234.74 739.703 236 738.233 236L659.168 236C657.698 236 656.963 234.74 656.963 232.22C656.963 229.49 657.698 228.125 659.168 228.125C665.888 228.125 672.398 226.025 678.698 221.825C684.998 217.415 690.038 210.275 693.818 200.405C698.228 189.695 720.908 129.845 761.858 20.8551L767.528 5.73515L786.113 0.380144C788.423 0.380144 789.893 1.43014 790.523 3.53014L803.123 40.0701C810.893 62.1201 821.498 92.6752 834.938 131.735C848.378 170.585 856.358 193.37 858.878 200.09C862.028 208.07 865.283 214.055 868.643 218.045C872.003 222.035 875.678 224.765 879.668 226.235C883.868 227.495 889.118 228.125 895.418 228.125ZM801.863 143.705L766.583 41.0151C761.333 54.0351 748.628 88.2651 728.468 143.705L801.863 143.705ZM915.942 236C914.682 236 914.052 234.635 914.052 231.905C914.052 229.385 914.682 228.125 915.942 228.125L920.037 228.125C926.757 228.125 932.847 225.605 938.307 220.565C943.977 215.525 946.812 208.91 946.812 200.72L946.812 34.4002C944.922 27.4702 941.877 22.4302 937.677 19.2802C933.687 15.9202 927.912 13.9252 920.352 13.2952L915.942 12.9802C914.472 12.7702 913.737 11.5102 913.737 9.20017C913.737 6.47016 914.472 5.10516 915.942 5.10516L977.997 5.10517L1098.64 177.725L1098.64 40.3852C1098.64 32.1952 1095.7 25.5802 1089.82 20.5402C1084.15 15.5002 1078.06 12.9802 1071.55 12.9802L1067.46 12.9802C1065.99 12.9802 1065.25 11.7202 1065.25 9.20019C1065.25 6.47019 1065.99 5.10519 1067.46 5.10519L1141.8 5.1052C1142.85 5.1052 1143.48 5.4202 1143.69 6.05021C1144.11 6.6802 1144.32 7.7302 1144.32 9.20021C1144.32 11.7202 1143.48 12.9802 1141.8 12.9802L1138.02 12.9802C1131.09 12.9802 1124.89 15.5002 1119.43 20.5402C1113.97 25.3702 1111.24 31.9852 1111.24 40.3852L1111.24 236L1095.18 236L959.412 40.3852L959.412 200.72C959.412 209.12 962.247 215.84 967.917 220.88C973.797 225.71 980.097 228.125 986.817 228.125L990.597 228.125C992.067 228.125 992.802 229.385 992.802 231.905C992.802 234.635 992.067 236 990.597 236L915.942 236ZM1174.41 236C1172.94 236 1172.21 234.635 1172.21 231.905C1172.21 229.175 1172.94 227.81 1174.41 227.81L1178.82 227.81C1187.43 227.81 1193.94 226.13 1198.35 222.77C1202.97 219.41 1205.28 213.32 1205.28 204.5L1205.6 36.6052C1205.6 27.5752 1203.18 21.3802 1198.35 18.0202C1193.73 14.6602 1187.22 12.9802 1178.82 12.9802L1174.41 12.9802C1172.94 12.9802 1172.21 11.7202 1172.21 9.20021C1172.21 6.47021 1172.94 5.10521 1174.41 5.10521L1272.38 5.10522C1273.43 5.10522 1274.06 5.42023 1274.27 6.05023C1274.69 6.68022 1274.9 7.73022 1274.9 9.20023C1274.9 11.7202 1274.06 12.9802 1272.38 12.9802L1268.28 12.9802C1259.67 12.9802 1253.06 14.6602 1248.44 18.0202C1244.03 21.3802 1241.82 27.5752 1241.82 36.6052L1241.51 204.5C1241.51 213.53 1243.82 219.725 1248.44 223.085C1253.06 226.235 1259.67 227.81 1268.28 227.81L1272.38 227.81C1274.06 227.81 1274.9 229.175 1274.9 231.905C1274.9 234.635 1274.06 236 1272.38 236L1174.41 236ZM1420.38 240.41C1403.16 240.41 1385.83 236.315 1368.4 228.125C1350.97 219.725 1336.27 206.915 1324.3 189.695C1312.54 172.475 1306.66 151.055 1306.66 125.435C1306.66 103.595 1311.49 83.2252 1321.15 64.3252C1330.81 45.4252 1343.83 30.3052 1360.21 18.9652C1376.59 7.62525 1394.44 1.95525 1413.76 1.95525C1420.27 1.95525 1426.47 2.69025 1432.35 4.16025C1438.44 5.63025 1444.84 7.62526 1451.56 10.1453C1454.71 11.1953 1457.65 12.1403 1460.38 12.9803C1463.32 13.8203 1465.74 14.2403 1467.63 14.2403C1474.14 14.2403 1480.23 11.4053 1485.9 5.73527C1492.62 34.0853 1496.71 51.5153 1498.18 58.0253L1498.81 61.1753C1498.81 62.4353 1497.97 63.5903 1496.29 64.6403C1495.87 64.8503 1495.35 64.9553 1494.72 64.9553C1493.67 64.9553 1492.51 64.2203 1491.25 62.7503C1490.41 61.4903 1486.63 56.0303 1479.91 46.3703C1473.4 36.7103 1464.58 28.8353 1453.45 22.7453C1442.32 16.4453 1430.04 13.2953 1416.6 13.2953C1397.07 13.2953 1382.05 20.3302 1371.55 34.4002C1361.26 48.4702 1354.44 63.6952 1351.08 80.0752C1347.93 96.2452 1346.35 110 1346.35 121.34C1346.35 144.23 1350.24 163.55 1358.01 179.3C1365.78 194.84 1375.65 206.39 1387.62 213.95C1399.8 221.51 1412.29 225.29 1425.1 225.29C1441.9 225.29 1455.87 220.985 1467 212.375C1478.13 203.555 1488.52 191.69 1498.18 176.78C1499.23 175.52 1500.18 174.89 1501.02 174.89C1501.65 174.89 1502.59 175.415 1503.85 176.465C1505.11 177.305 1505.74 178.355 1505.74 179.615L1505.11 181.505C1497.13 196.835 1486.32 210.485 1472.67 222.455C1459.02 234.425 1441.59 240.41 1420.38 240.41Z" fill="#422B1A" fill-opacity="0.04"/>
</svg>
