<svg width="1413" height="241" viewBox="0 0 1413 241" fill="none" xmlns="http://www.w3.org/2000/svg">
<path d="M224.715 228.125C226.185 228.125 226.92 229.385 226.92 231.905C226.92 234.635 226.185 236 224.715 236L159.51 236C151.11 220.04 140.505 200.72 127.695 178.04C114.885 155.36 104.07 137.72 95.25 125.12L89.8949 125.12L69.105 125.12L69.1049 204.5C69.1049 213.53 71.5199 219.725 76.3499 223.085C81.1799 226.445 87.6899 228.125 95.8799 228.125L100.29 228.125C101.76 228.125 102.495 229.385 102.495 231.905C102.495 234.635 101.76 236 100.29 236L2.63993 236C1.16993 236 0.434926 234.635 0.434927 231.905C0.434927 229.385 1.16993 228.125 2.63993 228.125L7.04993 228.125C15.4499 228.125 21.9599 226.445 26.5799 223.085C31.4099 219.725 33.8249 213.53 33.8249 204.5L33.825 36.605C33.825 27.575 31.41 21.38 26.58 18.02C21.75 14.66 15.24 12.98 7.04996 12.98L2.63996 12.98C1.16997 12.98 0.434965 11.72 0.434966 9.19999C0.434966 6.46999 1.16997 5.10499 2.63997 5.10499C28.89 4.685 54.195 4.47501 78.555 4.47501C94.515 4.47501 105.96 4.58002 112.89 4.79001C126.75 5.00001 139.665 7.52001 151.635 12.35C163.815 17.18 173.58 24.11 180.93 33.14C188.28 41.96 191.955 52.25 191.955 64.01C191.955 78.5 186.285 90.365 174.945 99.605C163.605 108.845 149.22 115.565 131.79 119.765C137.67 127.325 147.54 142.76 161.4 166.07C164.55 170.9 168.96 178.04 174.63 187.49C180.51 196.94 185.445 204.5 189.435 210.17C192.585 214.58 195.315 217.94 197.625 220.25C200.145 222.56 203.505 224.45 207.705 225.92C212.115 227.39 217.785 228.125 224.715 228.125ZM78.8699 116.3C127.8 116.3 152.265 98.345 152.265 62.435C152.265 47.525 146.91 35.765 136.2 27.155C125.49 18.545 111.945 14.24 95.565 14.24C87.165 14.24 80.655 15.605 76.035 18.335C71.415 21.065 69.105 26.315 69.105 34.085L69.105 116.3L78.8699 116.3ZM450.326 175.52C452.006 176.15 452.846 177.305 452.846 178.985C452.846 179.825 452.321 181.505 451.271 184.025C444.971 199.985 438.566 217.31 432.056 236L249.356 236C247.676 236 246.836 234.635 246.836 231.905C246.836 229.385 247.676 228.125 249.356 228.125L253.451 228.125C261.851 228.125 268.361 226.445 272.981 223.085C277.811 219.725 280.226 213.53 280.226 204.5L280.226 36.605C280.226 27.575 277.811 21.38 272.981 18.02C268.151 14.66 261.641 12.98 253.451 12.98L249.356 12.98C247.676 12.98 246.836 11.615 246.836 8.88504C246.836 6.36504 247.676 5.10503 249.356 5.10503L423.551 5.10506C427.541 12.0351 431.951 20.0151 436.781 29.0451C441.821 38.0751 444.446 43.1151 444.656 44.1651C444.866 44.5851 444.971 45.1101 444.971 45.7401C444.971 46.7901 444.236 47.6301 442.766 48.2601C442.136 48.6801 441.296 48.8901 440.246 48.8901C438.986 48.8901 438.041 48.5751 437.411 47.9451C428.381 38.7051 416.726 30.8301 402.446 24.3201C388.166 17.6001 373.361 14.2401 358.031 14.24L351.416 14.24C342.806 14.24 336.191 14.66 331.571 15.5C326.951 16.13 323.276 17.8101 320.546 20.5401C317.816 23.2701 316.451 27.6801 316.451 33.7701L316.451 110.945L342.596 110.945C354.776 110.945 362.861 110.84 366.851 110.63C375.671 110.42 382.601 107.375 387.641 101.495C392.891 95.4051 395.516 88.2651 395.516 80.0751C395.516 79.2351 395.831 78.7101 396.461 78.5001C397.091 78.0801 398.036 77.8701 399.296 77.8701C402.026 77.8701 403.391 78.6051 403.391 80.0751L403.391 153.155C403.391 154.625 402.026 155.36 399.296 155.36C398.036 155.36 397.091 155.255 396.461 155.045C395.831 154.625 395.516 153.995 395.516 153.155C395.516 144.965 392.891 137.825 387.641 131.735C382.601 125.645 375.671 122.495 366.851 122.285C362.861 122.075 354.776 121.97 342.596 121.97L316.451 121.97L316.451 207.02C316.451 214.37 318.551 219.41 322.751 222.14C327.161 224.66 334.196 226.235 343.856 226.865C346.376 227.075 350.156 227.18 355.196 227.18C359.816 227.18 363.491 227.075 366.221 226.865C379.241 226.025 390.686 222.98 400.556 217.73C410.426 212.48 418.616 206.6 425.126 200.09C431.636 193.37 438.356 185.39 445.286 176.15C445.916 175.31 446.861 174.89 448.121 174.89C448.751 174.89 449.486 175.1 450.326 175.52ZM707.403 228.125C708.243 228.125 708.768 228.545 708.978 229.385C709.188 230.225 709.293 231.17 709.293 232.22C709.293 234.74 708.663 236 707.403 236L608.178 236C606.708 236 605.973 234.74 605.973 232.22C605.973 229.49 606.708 228.125 608.178 228.125C627.288 227.705 636.843 222.77 636.843 213.32C636.843 211.01 635.898 207.23 634.008 201.98L617.943 155.36L536.358 155.36L521.553 197.57C520.083 202.61 519.348 206.39 519.348 208.91C519.348 221.72 529.638 228.125 550.218 228.125C551.688 228.125 552.423 229.49 552.423 232.22C552.423 234.74 551.688 236 550.218 236L471.153 236C469.683 236 468.948 234.74 468.948 232.22C468.948 229.49 469.683 228.125 471.153 228.125C477.873 228.125 484.383 226.025 490.683 221.825C496.983 217.415 502.023 210.275 505.803 200.405C510.213 189.695 532.893 129.845 573.843 20.8551L579.513 5.7351L598.098 0.380099C600.408 0.380099 601.878 1.4301 602.508 3.5301L615.108 40.0701C622.878 62.1201 633.483 92.6751 646.923 131.735C660.363 170.585 668.343 193.37 670.863 200.09C674.013 208.07 677.268 214.055 680.628 218.045C683.988 222.035 687.663 224.765 691.653 226.235C695.853 227.495 701.103 228.125 707.403 228.125ZM613.848 143.705L578.568 41.0151C573.318 54.0351 560.613 88.2651 540.453 143.705L613.848 143.705ZM826.522 240.095C818.332 240.095 809.407 238.94 799.747 236.63C790.087 234.53 781.057 231.8 772.657 228.44C770.137 227.6 767.512 227.18 764.782 227.18C761.632 227.18 758.587 228.125 755.647 230.015C752.917 231.695 749.137 234.635 744.307 238.835L729.817 177.41L729.187 174.89C729.187 174.47 729.397 174.05 729.817 173.63C730.447 173.21 730.972 172.895 731.392 172.685C732.022 172.475 732.442 172.265 732.652 172.055C733.072 171.845 733.702 171.74 734.542 171.74C735.802 171.74 736.957 172.58 738.007 174.26C760.477 209.96 788.827 227.81 823.057 227.81C836.707 227.81 848.467 224.345 858.337 217.415C868.417 210.485 873.457 199.775 873.457 185.285C873.457 177.515 871.252 170.48 866.842 164.18C862.642 157.67 856.342 152.525 847.942 148.745C839.332 144.755 826.942 140.135 810.772 134.885C797.542 130.895 786.937 127.01 778.957 123.23C765.097 116.51 755.122 108.425 749.032 98.9751C743.152 89.5251 740.212 78.9201 740.212 67.1601C740.212 58.3401 742.312 48.9951 746.512 39.1251C750.712 29.0451 758.062 20.3301 768.562 12.9801C779.062 5.63013 793.237 1.95513 811.087 1.95513C817.807 1.95514 824.317 2.69013 830.617 4.16013C837.127 5.63014 844.372 7.83514 852.352 10.7751C856.132 11.8251 859.072 12.3501 861.172 12.3501C864.322 12.3501 867.262 11.6151 869.992 10.1452C872.722 8.46515 875.662 5.73515 878.812 1.95515L894.562 55.8202L895.192 58.3402C895.192 59.3902 894.247 60.3352 892.357 61.1752C891.097 61.5952 890.152 61.8051 889.522 61.8051C888.472 61.8051 887.422 61.0702 886.372 59.6002C883.852 55.4001 879.337 49.7301 872.827 42.5901C866.317 35.4502 857.602 28.7301 846.682 22.4301C835.762 16.1301 823.477 12.9801 809.827 12.9801C797.227 12.9801 787.672 15.7101 781.162 21.1701C774.652 26.4201 770.347 32.0901 768.247 38.1801C766.357 44.2701 765.412 49.2051 765.412 52.9851C765.412 66.8451 772.972 77.7651 788.092 85.7451C792.502 88.0551 797.962 90.3651 804.472 92.6751C811.192 94.9851 818.017 97.1901 824.947 99.2901C844.267 105.17 858.442 110.315 867.472 114.725C882.172 122.075 892.357 130.895 898.027 141.185C903.907 151.475 906.847 162.185 906.847 173.315C906.847 185.915 903.592 197.255 897.082 207.335C890.782 217.415 881.542 225.395 869.362 231.275C857.392 237.155 843.112 240.095 826.522 240.095ZM1045.5 240.41C1028.28 240.41 1011.38 235.79 994.789 226.55C978.199 217.31 964.444 203.66 953.524 185.6C942.814 167.54 937.459 146.015 937.459 121.025C937.459 96.0352 942.814 74.6152 953.524 56.7652C964.444 38.7052 978.199 25.0552 994.789 15.8152C1011.38 6.57517 1028.28 1.95517 1045.5 1.95518C1062.51 1.95518 1079.31 6.57518 1095.9 15.8152C1112.7 25.0552 1126.46 38.7052 1137.17 56.7652C1147.88 74.6152 1153.23 96.0352 1153.23 121.025C1153.23 146.015 1147.88 167.54 1137.17 185.6C1126.46 203.66 1112.7 217.31 1095.9 226.55C1079.31 235.79 1062.51 240.41 1045.5 240.41ZM1045.5 230.33C1057.89 230.33 1069.23 226.235 1079.52 218.045C1090.02 209.855 1098.32 197.57 1104.41 181.19C1110.71 164.81 1113.86 144.755 1113.86 121.025C1113.86 97.5052 1110.71 77.5552 1104.41 61.1752C1098.32 44.7952 1090.02 32.6152 1079.52 24.6352C1069.23 16.4452 1057.89 12.3502 1045.5 12.3502C1033.11 12.3502 1021.67 16.4452 1011.17 24.6352C1000.88 32.6152 992.584 44.7952 986.284 61.1752C980.194 77.5552 977.149 97.5052 977.149 121.025C977.149 144.755 980.194 164.81 986.284 181.19C992.584 197.57 1000.88 209.855 1011.17 218.045C1021.67 226.235 1033.11 230.33 1045.5 230.33ZM1184.43 236C1183.17 236 1182.54 234.635 1182.54 231.905C1182.54 229.385 1183.17 228.125 1184.43 228.125L1188.53 228.125C1195.25 228.125 1201.34 225.605 1206.8 220.565C1212.47 215.525 1215.3 208.91 1215.3 200.72L1215.3 34.4002C1213.41 27.4702 1210.37 22.4302 1206.17 19.2802C1202.18 15.9202 1196.4 13.9252 1188.84 13.2952L1184.43 12.9802C1182.96 12.7702 1182.23 11.5102 1182.23 9.2002C1182.23 6.4702 1182.96 5.1052 1184.43 5.1052L1246.49 5.10521L1367.13 177.725L1367.13 40.3852C1367.13 32.1952 1364.19 25.5802 1358.31 20.5402C1352.64 15.5002 1346.55 12.9802 1340.04 12.9802L1335.95 12.9802C1334.48 12.9802 1333.74 11.7202 1333.74 9.20023C1333.74 6.47022 1334.48 5.10522 1335.95 5.10522L1410.29 5.10524C1411.34 5.10524 1411.97 5.42024 1412.18 6.05024C1412.6 6.68024 1412.81 7.73023 1412.81 9.20024C1412.81 11.7202 1411.97 12.9802 1410.29 12.9802L1406.51 12.9802C1399.58 12.9802 1393.38 15.5002 1387.92 20.5402C1382.46 25.3702 1379.73 31.9852 1379.73 40.3852L1379.73 236L1363.67 236L1227.9 40.3852L1227.9 200.72C1227.9 209.12 1230.74 215.84 1236.41 220.88C1242.29 225.71 1248.59 228.125 1255.31 228.125L1259.09 228.125C1260.56 228.125 1261.29 229.385 1261.29 231.905C1261.29 234.635 1260.56 236 1259.09 236L1184.43 236Z" fill="#422B1A" fill-opacity="0.04"/>
</svg>
