<svg width="1544" height="241" viewBox="0 0 1544 241" fill="none" xmlns="http://www.w3.org/2000/svg">
<path d="M98.0849 240.095C89.8949 240.095 80.9699 238.94 71.3099 236.63C61.6499 234.53 52.6199 231.8 44.2199 228.44C41.6999 227.6 39.0749 227.18 36.3449 227.18C33.1949 227.18 30.1499 228.125 27.2099 230.015C24.4799 231.695 20.6999 234.635 15.8699 238.835L1.37994 177.41L0.749936 174.89C0.749936 174.47 0.959936 174.05 1.37994 173.63C2.00994 173.21 2.53494 172.895 2.95494 172.685C3.58494 172.475 4.00494 172.265 4.21494 172.055C4.63494 171.845 5.26494 171.74 6.10494 171.74C7.36494 171.74 8.51994 172.58 9.56994 174.26C32.0399 209.96 60.3899 227.81 94.6199 227.81C108.27 227.81 120.03 224.345 129.9 217.415C139.98 210.485 145.02 199.775 145.02 185.285C145.02 177.515 142.815 170.48 138.405 164.18C134.205 157.67 127.905 152.525 119.505 148.745C110.895 144.755 98.5049 140.135 82.3349 134.885C69.1049 130.895 58.4999 127.01 50.5199 123.23C36.6599 116.51 26.6849 108.425 20.595 98.975C14.715 89.525 11.775 78.92 11.775 67.16C11.775 58.34 13.875 48.995 18.075 39.125C22.275 29.045 29.625 20.33 40.125 12.98C50.625 5.63 64.8 1.955 82.65 1.95501C89.37 1.95501 95.88 2.69001 102.18 4.16C108.69 5.63001 115.935 7.83501 123.915 10.775C127.695 11.825 130.635 12.35 132.735 12.35C135.885 12.35 138.825 11.615 141.555 10.145C144.285 8.46502 147.225 5.73502 150.375 1.95502L166.125 55.82L166.755 58.34C166.755 59.39 165.81 60.335 163.92 61.175C162.66 61.595 161.715 61.805 161.085 61.805C160.035 61.805 158.985 61.07 157.935 59.6C155.415 55.4 150.9 49.73 144.39 42.59C137.88 35.45 129.165 28.73 118.245 22.43C107.325 16.13 95.04 12.98 81.39 12.98C68.79 12.98 59.235 15.71 52.725 21.17C46.215 26.42 41.91 32.09 39.81 38.18C37.92 44.27 36.975 49.205 36.975 52.985C36.975 66.845 44.535 77.765 59.655 85.745C64.065 88.055 69.525 90.365 76.035 92.675C82.755 94.985 89.58 97.19 96.5099 99.29C115.83 105.17 130.005 110.315 139.035 114.725C153.735 122.075 163.92 130.895 169.59 141.185C175.47 151.475 178.41 162.185 178.41 173.315C178.41 185.915 175.155 197.255 168.645 207.335C162.345 217.415 153.105 225.395 140.925 231.275C128.955 237.155 114.675 240.095 98.0849 240.095ZM279.267 240.41C248.397 240.41 225.612 233.795 210.912 220.565C196.212 207.335 188.862 188.54 188.862 164.18L188.862 36.29C188.862 27.26 186.447 21.17 181.617 18.02C176.997 14.66 170.487 12.98 162.087 12.98L157.992 12.98C156.522 12.98 155.787 11.72 155.787 9.20002C155.787 6.47002 156.522 5.10502 157.992 5.10502L255.327 5.10503C256.797 5.10503 257.532 6.47004 257.532 9.20004C257.532 11.72 256.797 12.98 255.327 12.98L251.232 12.98C242.832 12.98 236.217 14.66 231.387 18.02C226.767 21.17 224.457 27.26 224.457 36.29L224.457 151.265C224.457 172.685 228.132 190.85 235.482 205.76C243.042 220.67 258.372 228.125 281.472 228.125C305.622 228.125 322.002 220.565 330.612 205.445C339.432 190.115 343.842 170.585 343.842 146.855L343.842 40.385C343.842 31.9851 341.007 25.3701 335.337 20.5401C329.667 15.5001 323.577 12.9801 317.067 12.9801L312.972 12.9801C311.502 12.9801 310.767 11.7201 310.767 9.20005C310.767 6.47005 311.502 5.10504 312.972 5.10504L387.627 5.10506C388.677 5.10506 389.307 5.42006 389.517 6.05006C389.937 6.68006 390.147 7.73006 390.147 9.20006C390.147 11.7201 389.307 12.9801 387.627 12.9801L383.847 12.9801C377.127 12.9801 370.932 15.5001 365.262 20.5401C359.592 25.3701 356.757 31.9851 356.757 40.385L356.127 155.99C356.127 182.66 349.407 203.45 335.967 218.36C322.527 233.06 303.627 240.41 279.267 240.41ZM476.233 240.095C464.683 240.095 450.298 236.735 433.078 230.015C416.068 223.085 400.738 211.115 387.088 194.105C373.648 177.095 366.928 154.415 366.928 126.065C366.928 108.845 370.813 90.5751 378.583 71.2551C386.563 51.9351 398.638 35.5551 414.808 22.1151C430.978 8.67507 450.823 1.95507 474.343 1.95508C481.693 1.95508 488.308 2.69008 494.188 4.16007C500.068 5.63008 506.473 7.83508 513.403 10.7751C519.493 13.2951 524.218 14.5551 527.578 14.5551C533.668 14.5551 539.653 11.5101 545.533 5.42008L558.133 58.6551C558.343 59.7051 558.448 60.8601 558.448 62.1201C558.448 62.7501 558.238 63.2751 557.818 63.6951C557.608 63.9051 557.188 64.1151 556.558 64.3251C555.928 64.7451 555.193 64.9551 554.353 64.9551C553.093 64.9551 551.938 64.3251 550.888 63.0651C543.958 52.9851 537.343 44.5851 531.043 37.8651C524.743 31.1451 516.868 25.3701 507.418 20.5401C498.178 15.7101 487.363 13.2951 474.973 13.2951C455.653 13.2951 440.848 20.7501 430.558 35.6601C420.268 50.5701 413.548 66.6351 410.398 83.8551C407.248 101.075 405.673 115.67 405.673 127.64C405.673 147.8 409.558 165.65 417.328 181.19C425.098 196.52 434.548 208.385 445.678 216.785C456.808 225.185 467.203 229.385 476.863 229.385C490.723 229.385 501.223 226.445 508.363 220.565C515.713 214.475 520.438 206.915 522.538 197.885C524.428 189.905 525.373 182.66 525.373 176.15C525.373 173.84 525.163 170.585 524.743 166.385C524.113 161.135 521.803 156.83 517.813 153.47C513.823 149.9 505.633 148.115 493.243 148.115C491.563 148.115 490.723 146.75 490.723 144.02C490.723 142.55 490.828 141.5 491.038 140.87C491.458 140.24 492.193 139.925 493.243 139.925L585.538 139.925C587.218 139.925 588.058 141.29 588.058 144.02C588.058 146.75 587.218 148.115 585.538 148.115C578.188 148.115 571.888 149.795 566.638 153.155C561.598 156.305 558.658 161.03 557.818 167.33C557.398 170.27 557.188 175.31 557.188 182.45C557.188 193.58 557.503 208.07 558.133 225.92C556.873 225.71 554.983 225.605 552.463 225.605C545.533 225.605 539.233 226.235 533.563 227.495C527.893 228.755 521.488 230.54 514.348 232.85C507.208 235.16 500.803 236.945 495.133 238.205C489.463 239.465 483.163 240.095 476.233 240.095ZM678.037 240.41C647.167 240.41 624.382 233.795 609.682 220.565C594.982 207.335 587.632 188.54 587.632 164.18L587.632 36.2901C587.632 27.2601 585.217 21.1701 580.387 18.0201C575.767 14.6601 569.257 12.9801 560.857 12.9801L556.762 12.9801C555.292 12.9801 554.557 11.7201 554.557 9.20009C554.557 6.47009 555.292 5.10509 556.762 5.10509L654.097 5.1051C655.567 5.1051 656.302 6.47011 656.302 9.20011C656.302 11.7201 655.567 12.9801 654.097 12.9801L650.002 12.9801C641.602 12.9801 634.987 14.6601 630.157 18.0201C625.537 21.1701 623.227 27.2601 623.227 36.2901L623.227 151.265C623.227 172.685 626.902 190.85 634.252 205.76C641.812 220.67 657.142 228.125 680.242 228.125C704.392 228.125 720.772 220.565 729.382 205.445C738.202 190.115 742.612 170.585 742.612 146.855L742.612 40.3851C742.612 31.9851 739.777 25.3701 734.107 20.5401C728.437 15.5001 722.347 12.9801 715.837 12.9801L711.742 12.9801C710.272 12.9801 709.537 11.7201 709.537 9.20012C709.537 6.47012 710.272 5.10511 711.742 5.10511L786.397 5.10513C787.447 5.10513 788.077 5.42013 788.287 6.05013C788.707 6.68013 788.917 7.73013 788.917 9.20013C788.917 11.7201 788.077 12.9801 786.397 12.9801L782.617 12.9801C775.897 12.9801 769.702 15.5001 764.032 20.5401C758.362 25.3701 755.527 31.9851 755.527 40.3851L754.897 155.99C754.897 182.66 748.177 203.45 734.737 218.36C721.297 233.06 702.397 240.41 678.037 240.41ZM822.713 236C821.453 236 820.823 234.635 820.823 231.905C820.823 229.385 821.453 228.125 822.713 228.125L827.123 228.125C835.523 228.125 842.033 226.445 846.653 223.085C851.483 219.515 853.898 213.32 853.898 204.5L853.898 34.0851C853.898 26.5251 851.798 21.2751 847.598 18.3351C843.398 15.3951 837.623 13.9251 830.273 13.9251C829.013 13.9251 826.703 14.1351 823.343 14.5551C813.893 15.6051 803.498 19.9101 792.158 27.4701C780.818 34.8201 772.103 42.8001 766.013 51.4101C764.963 52.6701 763.913 53.3001 762.863 53.3001C762.443 53.3001 761.813 53.0901 760.973 52.6701C759.083 51.8301 758.138 50.9901 758.138 50.1501C758.138 49.5201 758.348 48.6801 758.768 47.6301C760.238 43.4301 762.548 37.0251 765.698 28.4151C769.058 19.8051 772.103 12.0351 774.833 5.10513L968.873 5.10516L978.953 31.5652L985.253 47.6302L985.568 50.1502C985.568 50.9902 984.728 51.8302 983.048 52.6702C982.208 53.0902 981.473 53.3002 980.843 53.3002C979.583 53.3002 978.533 52.6702 977.693 51.4102C971.603 42.8002 962.888 34.8202 951.548 27.4702C940.208 19.9102 929.813 15.6052 920.363 14.5552C917.003 14.1352 914.693 13.9251 913.433 13.9251C905.873 13.9251 899.993 15.5001 895.793 18.6501C891.803 21.5901 889.808 26.7351 889.808 34.0851L889.808 204.5C889.808 213.53 892.223 219.725 897.053 223.085C901.883 226.445 908.393 228.125 916.583 228.125L920.678 228.125C922.148 228.125 922.883 229.385 922.883 231.905C922.883 234.635 922.148 236 920.678 236L822.713 236ZM1182.61 228.125C1183.45 228.125 1183.98 228.545 1184.19 229.385C1184.4 230.225 1184.5 231.17 1184.5 232.22C1184.5 234.74 1183.87 236 1182.61 236L1083.39 236C1081.92 236 1081.18 234.74 1081.18 232.22C1081.18 229.49 1081.92 228.125 1083.39 228.125C1102.5 227.705 1112.05 222.77 1112.05 213.32C1112.05 211.01 1111.11 207.23 1109.22 201.98L1093.15 155.36L1011.57 155.36L996.76 197.57C995.29 202.61 994.555 206.39 994.555 208.91C994.555 221.72 1004.85 228.125 1025.43 228.125C1026.9 228.125 1027.63 229.49 1027.63 232.22C1027.63 234.74 1026.9 236 1025.43 236L946.36 236C944.89 236 944.155 234.74 944.155 232.22C944.155 229.49 944.89 228.125 946.36 228.125C953.08 228.125 959.59 226.025 965.89 221.825C972.19 217.415 977.23 210.275 981.01 200.405C985.42 189.695 1008.1 129.845 1049.05 20.8552L1054.72 5.73519L1073.31 0.380182C1075.62 0.380183 1077.09 1.43018 1077.72 3.53018L1090.32 40.0702C1098.09 62.1202 1108.69 92.6752 1122.13 131.735C1135.57 170.585 1143.55 193.37 1146.07 200.09C1149.22 208.07 1152.48 214.055 1155.84 218.045C1159.2 222.035 1162.87 224.765 1166.86 226.235C1171.06 227.495 1176.31 228.125 1182.61 228.125ZM1089.06 143.705L1053.78 41.0152C1048.53 54.0352 1035.82 88.2652 1015.66 143.705L1089.06 143.705ZM1155.88 236C1154.41 236 1153.68 234.74 1153.68 232.22C1153.68 229.49 1154.41 228.125 1155.88 228.125L1160.29 228.125C1168.9 228.125 1175.41 226.445 1179.82 223.085C1184.44 219.725 1186.75 213.53 1186.75 204.5L1186.75 36.6052C1186.75 27.5752 1184.44 21.3802 1179.82 18.0202C1175.2 14.6602 1168.69 12.9802 1160.29 12.9802L1155.88 12.9802C1154.41 12.9802 1153.68 11.7202 1153.68 9.2002C1153.68 6.47019 1154.41 5.10519 1155.88 5.10519L1221.09 4.79021C1243.77 4.79021 1259.73 4.89521 1268.97 5.10521C1283.04 5.31521 1295.85 7.62522 1307.4 12.0352C1319.16 16.4452 1328.4 22.7452 1335.12 30.9352C1342.05 39.1252 1345.51 48.5752 1345.51 59.2852C1345.51 73.5652 1339.74 85.0102 1328.19 93.6202C1316.64 102.23 1302.15 108.53 1284.72 112.52C1305.51 116.72 1323.04 123.755 1337.32 133.625C1351.6 143.285 1358.74 156.2 1358.74 172.37C1358.74 185.39 1354.75 196.73 1346.77 206.39C1338.79 216.05 1328.19 223.4 1314.96 228.44C1301.73 233.48 1287.24 236 1271.49 236L1221.09 236L1155.88 236ZM1230.85 108.11C1259.41 108.11 1278.84 103.595 1289.13 94.5652C1299.63 85.5352 1304.88 73.3552 1304.88 58.0252C1304.88 45.2152 1300.15 34.7152 1290.7 26.5252C1281.25 18.3352 1267.18 14.2402 1248.49 14.2402C1239.46 14.2402 1232.95 15.8152 1228.96 18.9652C1224.97 21.9052 1222.98 26.9452 1222.98 34.0852L1222.98 108.11L1230.85 108.11ZM1254.16 226.865C1273.06 226.865 1288.39 222.245 1300.15 213.005C1311.91 203.765 1317.79 190.115 1317.79 172.055C1317.79 155.465 1311.39 142.235 1298.58 132.365C1285.98 122.285 1263.4 117.245 1230.85 117.245L1222.98 117.245L1222.98 207.02C1222.98 214.58 1224.97 219.83 1228.96 222.77C1233.16 225.5 1239.99 226.865 1249.44 226.865L1254.16 226.865ZM1541.48 175.52C1543.16 176.15 1544 177.305 1544 178.985C1544 179.825 1543.48 181.505 1542.43 184.025C1536.13 199.985 1529.72 217.31 1523.21 236L1340.51 236C1338.83 236 1337.99 234.635 1337.99 231.905C1337.99 229.385 1338.83 228.125 1340.51 228.125L1344.61 228.125C1353.01 228.125 1359.52 226.445 1364.14 223.085C1368.97 219.725 1371.38 213.53 1371.38 204.5L1371.38 36.6052C1371.38 27.5752 1368.97 21.3802 1364.14 18.0202C1359.31 14.6602 1352.8 12.9802 1344.61 12.9802L1340.51 12.9802C1338.83 12.9802 1337.99 11.6152 1337.99 8.88523C1337.99 6.36523 1338.83 5.10522 1340.51 5.10522L1514.71 5.10525C1518.7 12.0353 1523.11 20.0153 1527.94 29.0453C1532.98 38.0753 1535.6 43.1153 1535.81 44.1653C1536.02 44.5853 1536.13 45.1103 1536.13 45.7403C1536.13 46.7903 1535.39 47.6303 1533.92 48.2603C1533.29 48.6803 1532.45 48.8903 1531.4 48.8903C1530.14 48.8903 1529.2 48.5753 1528.57 47.9453C1519.54 38.7053 1507.88 30.8303 1493.6 24.3202C1479.32 17.6002 1464.52 14.2402 1449.19 14.2402L1442.57 14.2402C1433.96 14.2402 1427.35 14.6602 1422.73 15.5002C1418.11 16.1302 1414.43 17.8102 1411.7 20.5402C1408.97 23.2702 1407.61 27.6802 1407.61 33.7702L1407.61 110.945L1433.75 110.945C1445.93 110.945 1454.02 110.84 1458.01 110.63C1466.83 110.42 1473.76 107.375 1478.8 101.495C1484.05 95.4053 1486.67 88.2653 1486.67 80.0753C1486.67 79.2353 1486.99 78.7103 1487.62 78.5003C1488.25 78.0803 1489.19 77.8703 1490.45 77.8703C1493.18 77.8703 1494.55 78.6053 1494.55 80.0753L1494.55 153.155C1494.55 154.625 1493.18 155.36 1490.45 155.36C1489.19 155.36 1488.25 155.255 1487.62 155.045C1486.99 154.625 1486.67 153.995 1486.67 153.155C1486.67 144.965 1484.05 137.825 1478.8 131.735C1473.76 125.645 1466.83 122.495 1458.01 122.285C1454.02 122.075 1445.93 121.97 1433.75 121.97L1407.61 121.97L1407.61 207.02C1407.61 214.37 1409.71 219.41 1413.91 222.14C1418.32 224.66 1425.35 226.235 1435.01 226.865C1437.53 227.075 1441.31 227.18 1446.35 227.18C1450.97 227.18 1454.65 227.075 1457.38 226.865C1470.4 226.025 1481.84 222.98 1491.71 217.73C1501.58 212.48 1509.77 206.6 1516.28 200.09C1522.79 193.37 1529.51 185.39 1536.44 176.15C1537.07 175.31 1538.02 174.89 1539.28 174.89C1539.91 174.89 1540.64 175.1 1541.48 175.52Z" fill="#422B1A" fill-opacity="0.04"/>
</svg>
