<svg width="1440" height="241" viewBox="0 0 1440 241" fill="none" xmlns="http://www.w3.org/2000/svg">
<path d="M46.0849 240.095C37.8949 240.095 28.9699 238.94 19.3099 236.63C9.64993 234.53 0.61993 231.8 -7.78007 228.44C-10.3001 227.6 -12.9251 227.18 -15.6551 227.18C-18.8051 227.18 -21.8501 228.125 -24.7901 230.015C-27.5201 231.695 -31.3001 234.635 -36.1301 238.835L-50.6201 177.41L-51.2501 174.89C-51.2501 174.47 -51.0401 174.05 -50.6201 173.63C-49.9901 173.21 -49.4651 172.895 -49.0451 172.685C-48.4151 172.475 -47.9951 172.265 -47.7851 172.055C-47.3651 171.845 -46.7351 171.74 -45.8951 171.74C-44.6351 171.74 -43.4801 172.58 -42.4301 174.26C-19.9601 209.96 8.38993 227.81 42.6199 227.81C56.2699 227.81 68.0299 224.345 77.8999 217.415C87.9799 210.485 93.0199 199.775 93.0199 185.285C93.0199 177.515 90.8149 170.48 86.4049 164.18C82.2049 157.67 75.9049 152.525 67.5049 148.745C58.8949 144.755 46.5049 140.135 30.3349 134.885C17.1049 130.895 6.49995 127.01 -1.48005 123.23C-15.3401 116.51 -25.3151 108.425 -31.405 98.975C-37.285 89.525 -40.225 78.92 -40.225 67.16C-40.225 58.34 -38.125 48.995 -33.925 39.125C-29.725 29.045 -22.375 20.33 -11.875 12.98C-1.37503 5.63 12.8 1.955 30.65 1.95501C37.37 1.95501 43.88 2.69001 50.18 4.16C56.69 5.63001 63.935 7.83501 71.915 10.775C75.695 11.825 78.635 12.35 80.735 12.35C83.885 12.35 86.825 11.615 89.555 10.145C92.285 8.46502 95.225 5.73502 98.375 1.95502L114.125 55.82L114.755 58.34C114.755 59.39 113.81 60.335 111.92 61.175C110.66 61.595 109.715 61.805 109.085 61.805C108.035 61.805 106.985 61.07 105.935 59.6C103.415 55.4 98.9 49.73 92.39 42.59C85.88 35.45 77.165 28.73 66.245 22.43C55.325 16.13 43.04 12.98 29.39 12.98C16.79 12.98 7.23497 15.71 0.724964 21.17C-5.78503 26.42 -10.09 32.09 -12.19 38.18C-14.08 44.27 -15.025 49.205 -15.025 52.985C-15.025 66.845 -7.46504 77.765 7.65496 85.745C12.065 88.055 17.525 90.365 24.035 92.675C30.755 94.985 37.58 97.19 44.5099 99.29C63.83 105.17 78.005 110.315 87.035 114.725C101.735 122.075 111.92 130.895 117.59 141.185C123.47 151.475 126.41 162.185 126.41 173.315C126.41 185.915 123.155 197.255 116.645 207.335C110.345 217.415 101.105 225.395 88.9249 231.275C76.9549 237.155 62.6749 240.095 46.0849 240.095ZM227.267 240.41C196.397 240.41 173.612 233.795 158.912 220.565C144.212 207.335 136.862 188.54 136.862 164.18L136.862 36.29C136.862 27.26 134.447 21.17 129.617 18.02C124.997 14.66 118.487 12.98 110.087 12.98L105.992 12.98C104.522 12.98 103.787 11.72 103.787 9.20002C103.787 6.47002 104.522 5.10502 105.992 5.10502L203.327 5.10503C204.797 5.10503 205.532 6.47004 205.532 9.20004C205.532 11.72 204.797 12.98 203.327 12.98L199.232 12.98C190.832 12.98 184.217 14.66 179.387 18.02C174.767 21.17 172.457 27.26 172.457 36.29L172.457 151.265C172.457 172.685 176.132 190.85 183.482 205.76C191.042 220.67 206.372 228.125 229.472 228.125C253.622 228.125 270.002 220.565 278.612 205.445C287.432 190.115 291.842 170.585 291.842 146.855L291.842 40.385C291.842 31.9851 289.007 25.3701 283.337 20.5401C277.667 15.5001 271.577 12.9801 265.067 12.9801L260.972 12.9801C259.502 12.9801 258.767 11.7201 258.767 9.20005C258.767 6.47005 259.502 5.10504 260.972 5.10504L335.627 5.10506C336.677 5.10506 337.307 5.42006 337.517 6.05006C337.937 6.68006 338.147 7.73006 338.147 9.20006C338.147 11.7201 337.307 12.9801 335.627 12.9801L331.847 12.9801C325.127 12.9801 318.932 15.5001 313.262 20.5401C307.592 25.3701 304.757 31.9851 304.757 40.385L304.127 155.99C304.127 182.66 297.407 203.45 283.967 218.36C270.527 233.06 251.627 240.41 227.267 240.41ZM424.233 240.095C412.683 240.095 398.298 236.735 381.078 230.015C364.068 223.085 348.738 211.115 335.088 194.105C321.648 177.095 314.928 154.415 314.928 126.065C314.928 108.845 318.813 90.5751 326.583 71.2551C334.563 51.9351 346.638 35.5551 362.808 22.1151C378.978 8.67507 398.823 1.95507 422.343 1.95508C429.693 1.95508 436.308 2.69008 442.188 4.16007C448.068 5.63008 454.473 7.83508 461.403 10.7751C467.493 13.2951 472.218 14.5551 475.578 14.5551C481.668 14.5551 487.653 11.5101 493.533 5.42008L506.133 58.6551C506.343 59.7051 506.448 60.8601 506.448 62.1201C506.448 62.7501 506.238 63.2751 505.818 63.6951C505.608 63.9051 505.188 64.1151 504.558 64.3251C503.928 64.7451 503.193 64.9551 502.353 64.9551C501.093 64.9551 499.938 64.3251 498.888 63.0651C491.958 52.9851 485.343 44.5851 479.043 37.8651C472.743 31.1451 464.868 25.3701 455.418 20.5401C446.178 15.7101 435.363 13.2951 422.973 13.2951C403.653 13.2951 388.848 20.7501 378.558 35.6601C368.268 50.5701 361.548 66.6351 358.398 83.8551C355.248 101.075 353.673 115.67 353.673 127.64C353.673 147.8 357.558 165.65 365.328 181.19C373.098 196.52 382.548 208.385 393.678 216.785C404.808 225.185 415.203 229.385 424.863 229.385C438.723 229.385 449.223 226.445 456.363 220.565C463.713 214.475 468.438 206.915 470.538 197.885C472.428 189.905 473.373 182.66 473.373 176.15C473.373 173.84 473.163 170.585 472.743 166.385C472.113 161.135 469.803 156.83 465.813 153.47C461.823 149.9 453.633 148.115 441.243 148.115C439.563 148.115 438.723 146.75 438.723 144.02C438.723 142.55 438.828 141.5 439.038 140.87C439.458 140.24 440.193 139.925 441.243 139.925L533.538 139.925C535.218 139.925 536.058 141.29 536.058 144.02C536.058 146.75 535.218 148.115 533.538 148.115C526.188 148.115 519.888 149.795 514.638 153.155C509.598 156.305 506.658 161.03 505.818 167.33C505.398 170.27 505.188 175.31 505.188 182.45C505.188 193.58 505.503 208.07 506.133 225.92C504.873 225.71 502.983 225.605 500.463 225.605C493.533 225.605 487.233 226.235 481.563 227.495C475.893 228.755 469.488 230.54 462.348 232.85C455.208 235.16 448.803 236.945 443.133 238.205C437.463 239.465 431.163 240.095 424.233 240.095ZM626.037 240.41C595.167 240.41 572.382 233.795 557.682 220.565C542.982 207.335 535.632 188.54 535.632 164.18L535.632 36.2901C535.632 27.2601 533.217 21.1701 528.387 18.0201C523.767 14.6601 517.257 12.9801 508.857 12.9801L504.762 12.9801C503.292 12.9801 502.557 11.7201 502.557 9.20009C502.557 6.47009 503.292 5.10509 504.762 5.10509L602.097 5.1051C603.567 5.1051 604.302 6.47011 604.302 9.20011C604.302 11.7201 603.567 12.9801 602.097 12.9801L598.002 12.9801C589.602 12.9801 582.987 14.6601 578.157 18.0201C573.537 21.1701 571.227 27.2601 571.227 36.2901L571.227 151.265C571.227 172.685 574.902 190.85 582.252 205.76C589.812 220.67 605.142 228.125 628.242 228.125C652.392 228.125 668.772 220.565 677.382 205.445C686.202 190.115 690.612 170.585 690.612 146.855L690.612 40.3851C690.612 31.9851 687.777 25.3701 682.107 20.5401C676.437 15.5001 670.347 12.9801 663.837 12.9801L659.742 12.9801C658.272 12.9801 657.537 11.7201 657.537 9.20012C657.537 6.47012 658.272 5.10511 659.742 5.10511L734.397 5.10513C735.447 5.10513 736.077 5.42013 736.287 6.05013C736.707 6.68013 736.917 7.73013 736.917 9.20013C736.917 11.7201 736.077 12.9801 734.397 12.9801L730.617 12.9801C723.897 12.9801 717.702 15.5001 712.032 20.5401C706.362 25.3701 703.527 31.9851 703.527 40.3851L702.897 155.99C702.897 182.66 696.177 203.45 682.737 218.36C669.297 233.06 650.397 240.41 626.037 240.41ZM770.713 236C769.453 236 768.823 234.635 768.823 231.905C768.823 229.385 769.453 228.125 770.713 228.125L775.123 228.125C783.523 228.125 790.033 226.445 794.653 223.085C799.483 219.515 801.898 213.32 801.898 204.5L801.898 34.0851C801.898 26.5251 799.798 21.2751 795.598 18.3351C791.398 15.3951 785.623 13.9251 778.273 13.9251C777.013 13.9251 774.703 14.1351 771.343 14.5551C761.893 15.6051 751.498 19.9101 740.158 27.4701C728.818 34.8201 720.103 42.8001 714.013 51.4101C712.963 52.6701 711.913 53.3001 710.863 53.3001C710.443 53.3001 709.813 53.0901 708.973 52.6701C707.083 51.8301 706.138 50.9901 706.138 50.1501C706.138 49.5201 706.348 48.6801 706.768 47.6301C708.238 43.4301 710.548 37.0251 713.698 28.4151C717.058 19.8051 720.103 12.0351 722.833 5.10513L916.873 5.10516L926.953 31.5652L933.253 47.6302L933.568 50.1502C933.568 50.9902 932.728 51.8302 931.048 52.6702C930.208 53.0902 929.473 53.3002 928.843 53.3002C927.583 53.3002 926.533 52.6702 925.693 51.4102C919.603 42.8002 910.888 34.8202 899.548 27.4702C888.208 19.9102 877.813 15.6052 868.363 14.5552C865.003 14.1352 862.693 13.9251 861.433 13.9251C853.873 13.9251 847.993 15.5001 843.793 18.6501C839.803 21.5901 837.808 26.7351 837.808 34.0851L837.808 204.5C837.808 213.53 840.223 219.725 845.053 223.085C849.883 226.445 856.393 228.125 864.583 228.125L868.678 228.125C870.148 228.125 870.883 229.385 870.883 231.905C870.883 234.635 870.148 236 868.678 236L770.713 236ZM1130.61 228.125C1131.45 228.125 1131.98 228.545 1132.19 229.385C1132.4 230.225 1132.5 231.17 1132.5 232.22C1132.5 234.74 1131.87 236 1130.61 236L1031.39 236C1029.92 236 1029.18 234.74 1029.18 232.22C1029.18 229.49 1029.92 228.125 1031.39 228.125C1050.5 227.705 1060.05 222.77 1060.05 213.32C1060.05 211.01 1059.11 207.23 1057.22 201.98L1041.15 155.36L959.565 155.36L944.76 197.57C943.29 202.61 942.555 206.39 942.555 208.91C942.555 221.72 952.845 228.125 973.425 228.125C974.895 228.125 975.63 229.49 975.63 232.22C975.63 234.74 974.895 236 973.425 236L894.36 236C892.89 236 892.155 234.74 892.155 232.22C892.155 229.49 892.89 228.125 894.36 228.125C901.08 228.125 907.59 226.025 913.89 221.825C920.19 217.415 925.23 210.275 929.01 200.405C933.42 189.695 956.1 129.845 997.05 20.8552L1002.72 5.73519L1021.31 0.380182C1023.62 0.380183 1025.09 1.43018 1025.72 3.53018L1038.32 40.0702C1046.09 62.1202 1056.69 92.6752 1070.13 131.735C1083.57 170.585 1091.55 193.37 1094.07 200.09C1097.22 208.07 1100.48 214.055 1103.84 218.045C1107.2 222.035 1110.87 224.765 1114.86 226.235C1119.06 227.495 1124.31 228.125 1130.61 228.125ZM1037.06 143.705L1001.78 41.0152C996.525 54.0352 983.82 88.2652 963.66 143.705L1037.06 143.705ZM1103.88 236C1102.41 236 1101.68 234.74 1101.68 232.22C1101.68 229.49 1102.41 228.125 1103.88 228.125L1108.29 228.125C1116.9 228.125 1123.41 226.445 1127.82 223.085C1132.44 219.725 1134.75 213.53 1134.75 204.5L1134.75 36.6052C1134.75 27.5752 1132.44 21.3802 1127.82 18.0202C1123.2 14.6602 1116.69 12.9802 1108.29 12.9802L1103.88 12.9802C1102.41 12.9802 1101.68 11.7202 1101.68 9.2002C1101.68 6.47019 1102.41 5.10519 1103.88 5.10519L1169.09 4.79021C1191.77 4.79021 1207.73 4.89521 1216.97 5.10521C1231.04 5.31521 1243.85 7.62522 1255.4 12.0352C1267.16 16.4452 1276.4 22.7452 1283.12 30.9352C1290.05 39.1252 1293.51 48.5752 1293.51 59.2852C1293.51 73.5652 1287.74 85.0102 1276.19 93.6202C1264.64 102.23 1250.15 108.53 1232.72 112.52C1253.51 116.72 1271.04 123.755 1285.32 133.625C1299.6 143.285 1306.74 156.2 1306.74 172.37C1306.74 185.39 1302.75 196.73 1294.77 206.39C1286.79 216.05 1276.19 223.4 1262.96 228.44C1249.73 233.48 1235.24 236 1219.49 236L1169.09 236L1103.88 236ZM1178.85 108.11C1207.41 108.11 1226.84 103.595 1237.13 94.5652C1247.63 85.5352 1252.88 73.3552 1252.88 58.0252C1252.88 45.2152 1248.15 34.7152 1238.7 26.5252C1229.25 18.3352 1215.18 14.2402 1196.49 14.2402C1187.46 14.2402 1180.95 15.8152 1176.96 18.9652C1172.97 21.9052 1170.98 26.9452 1170.98 34.0852L1170.98 108.11L1178.85 108.11ZM1202.16 226.865C1221.06 226.865 1236.39 222.245 1248.15 213.005C1259.91 203.765 1265.79 190.115 1265.79 172.055C1265.79 155.465 1259.39 142.235 1246.58 132.365C1233.98 122.285 1211.4 117.245 1178.85 117.245L1170.98 117.245L1170.98 207.02C1170.98 214.58 1172.97 219.83 1176.96 222.77C1181.16 225.5 1187.99 226.865 1197.44 226.865L1202.16 226.865ZM1489.48 175.52C1491.16 176.15 1492 177.305 1492 178.985C1492 179.825 1491.48 181.505 1490.43 184.025C1484.13 199.985 1477.72 217.31 1471.21 236L1288.51 236C1286.83 236 1285.99 234.635 1285.99 231.905C1285.99 229.385 1286.83 228.125 1288.51 228.125L1292.61 228.125C1301.01 228.125 1307.52 226.445 1312.14 223.085C1316.97 219.725 1319.38 213.53 1319.38 204.5L1319.38 36.6052C1319.38 27.5752 1316.97 21.3802 1312.14 18.0202C1307.31 14.6602 1300.8 12.9802 1292.61 12.9802L1288.51 12.9802C1286.83 12.9802 1285.99 11.6152 1285.99 8.88523C1285.99 6.36523 1286.83 5.10522 1288.51 5.10522L1462.71 5.10525C1466.7 12.0353 1471.11 20.0153 1475.94 29.0453C1480.98 38.0753 1483.6 43.1153 1483.81 44.1653C1484.02 44.5853 1484.13 45.1103 1484.13 45.7403C1484.13 46.7903 1483.39 47.6303 1481.92 48.2603C1481.29 48.6803 1480.45 48.8903 1479.4 48.8903C1478.14 48.8903 1477.2 48.5753 1476.57 47.9453C1467.54 38.7053 1455.88 30.8303 1441.6 24.3202C1427.32 17.6002 1412.52 14.2402 1397.19 14.2402L1390.57 14.2402C1381.96 14.2402 1375.35 14.6602 1370.73 15.5002C1366.11 16.1302 1362.43 17.8102 1359.7 20.5402C1356.97 23.2702 1355.61 27.6802 1355.61 33.7702L1355.61 110.945L1381.75 110.945C1393.93 110.945 1402.02 110.84 1406.01 110.63C1414.83 110.42 1421.76 107.375 1426.8 101.495C1432.05 95.4053 1434.67 88.2653 1434.67 80.0753C1434.67 79.2353 1434.99 78.7103 1435.62 78.5003C1436.25 78.0803 1437.19 77.8703 1438.45 77.8703C1441.18 77.8703 1442.55 78.6053 1442.55 80.0753L1442.55 153.155C1442.55 154.625 1441.18 155.36 1438.45 155.36C1437.19 155.36 1436.25 155.255 1435.62 155.045C1434.99 154.625 1434.67 153.995 1434.67 153.155C1434.67 144.965 1432.05 137.825 1426.8 131.735C1421.76 125.645 1414.83 122.495 1406.01 122.285C1402.02 122.075 1393.93 121.97 1381.75 121.97L1355.61 121.97L1355.61 207.02C1355.61 214.37 1357.71 219.41 1361.91 222.14C1366.32 224.66 1373.35 226.235 1383.01 226.865C1385.53 227.075 1389.31 227.18 1394.35 227.18C1398.97 227.18 1402.65 227.075 1405.38 226.865C1418.4 226.025 1429.84 222.98 1439.71 217.73C1449.58 212.48 1457.77 206.6 1464.28 200.09C1470.79 193.37 1477.51 185.39 1484.44 176.15C1485.07 175.31 1486.02 174.89 1487.28 174.89C1487.91 174.89 1488.64 175.1 1489.48 175.52Z" fill="#F7F7F6"/>
</svg>
