<svg width="1079" height="236" viewBox="0 0 1079 236" fill="none" xmlns="http://www.w3.org/2000/svg">
<path d="M65.3949 236C64.1349 236 63.5049 234.635 63.5049 231.905C63.5049 229.385 64.1349 228.125 65.3949 228.125L69.8049 228.125C78.2049 228.125 84.7149 226.445 89.3349 223.085C94.1649 219.515 96.5799 213.32 96.5799 204.5L96.58 34.085C96.58 26.525 94.48 21.275 90.28 18.335C86.08 15.395 80.305 13.925 72.955 13.925C71.695 13.925 69.385 14.135 66.025 14.555C56.575 15.605 46.18 19.91 34.84 27.47C23.5 34.82 14.785 42.8 8.69496 51.41C7.64496 52.67 6.59496 53.3 5.54496 53.3C5.12496 53.3 4.49496 53.09 3.65496 52.67C1.76496 51.83 0.819958 50.99 0.819958 50.15C0.819958 49.52 1.02996 48.68 1.44996 47.63C2.91996 43.43 5.22996 37.025 8.37996 28.415C11.74 19.805 14.785 12.035 17.515 5.10499L211.555 5.10503L221.635 31.565L227.935 47.63L228.25 50.15C228.25 50.99 227.41 51.83 225.73 52.67C224.89 53.09 224.155 53.3 223.525 53.3C222.265 53.3 221.215 52.67 220.375 51.41C214.285 42.8 205.57 34.82 194.23 27.47C182.89 19.91 172.495 15.605 163.045 14.555C159.685 14.135 157.375 13.925 156.115 13.925C148.555 13.925 142.675 15.5 138.475 18.65C134.485 21.59 132.49 26.735 132.49 34.085L132.49 204.5C132.49 213.53 134.905 219.725 139.735 223.085C144.565 226.445 151.075 228.125 159.265 228.125L163.36 228.125C164.83 228.125 165.565 229.385 165.565 231.905C165.565 234.635 164.83 236 163.36 236L65.3949 236ZM474.117 228.125C475.587 228.125 476.322 229.385 476.322 231.905C476.322 234.635 475.587 236 474.117 236L408.912 236C400.512 220.04 389.907 200.72 377.097 178.04C364.287 155.36 353.472 137.72 344.652 125.12L339.297 125.12L318.507 125.12L318.507 204.5C318.507 213.53 320.922 219.725 325.752 223.085C330.582 226.445 337.092 228.125 345.282 228.125L349.692 228.125C351.162 228.125 351.897 229.385 351.897 231.905C351.897 234.635 351.162 236 349.692 236L252.042 236C250.572 236 249.837 234.635 249.837 231.905C249.837 229.385 250.572 228.125 252.042 228.125L256.452 228.125C264.852 228.125 271.362 226.445 275.982 223.085C280.812 219.725 283.227 213.53 283.227 204.5L283.227 36.605C283.227 27.575 280.812 21.38 275.982 18.02C271.152 14.66 264.642 12.98 256.452 12.98L252.042 12.98C250.572 12.98 249.837 11.72 249.837 9.20004C249.837 6.47003 250.572 5.10503 252.042 5.10503C278.292 4.68504 303.597 4.47505 327.957 4.47505C343.917 4.47506 355.362 4.58006 362.292 4.79006C376.152 5.00006 389.067 7.52006 401.037 12.3501C413.217 17.1801 422.982 24.1101 430.332 33.1401C437.682 41.9601 441.357 52.2501 441.357 64.0101C441.357 78.5001 435.687 90.3651 424.347 99.6051C413.007 108.845 398.622 115.565 381.192 119.765C387.072 127.325 396.942 142.76 410.802 166.07C413.952 170.9 418.362 178.04 424.032 187.49C429.912 196.94 434.847 204.5 438.837 210.17C441.987 214.58 444.717 217.94 447.027 220.25C449.547 222.56 452.907 224.45 457.107 225.92C461.517 227.39 467.187 228.125 474.117 228.125ZM328.272 116.3C377.202 116.3 401.667 98.3451 401.667 62.4351C401.667 47.5251 396.312 35.7651 385.602 27.1551C374.892 18.5451 361.347 14.24 344.967 14.24C336.567 14.24 330.057 15.605 325.437 18.335C320.817 21.065 318.507 26.315 318.507 34.085L318.507 116.3L328.272 116.3ZM498.444 236C496.974 236 496.239 234.635 496.239 231.905C496.239 229.175 496.974 227.81 498.444 227.81L502.854 227.81C511.464 227.81 517.974 226.13 522.384 222.77C527.004 219.41 529.314 213.32 529.314 204.5L529.629 36.6051C529.629 27.5751 527.214 21.3801 522.384 18.0201C517.764 14.6601 511.254 12.9801 502.854 12.9801L498.444 12.9801C496.974 12.9801 496.239 11.7201 496.239 9.20008C496.239 6.47008 496.974 5.10508 498.444 5.10508L596.409 5.10509C597.459 5.10509 598.089 5.4201 598.299 6.0501C598.719 6.68009 598.929 7.73009 598.929 9.2001C598.929 11.7201 598.089 12.9801 596.409 12.9801L592.314 12.9801C583.704 12.9801 577.089 14.6601 572.469 18.0201C568.059 21.3801 565.854 27.5751 565.854 36.6051L565.539 204.5C565.539 213.53 567.849 219.725 572.469 223.085C577.089 226.235 583.704 227.81 592.314 227.81L596.409 227.81C598.089 227.81 598.929 229.175 598.929 231.905C598.929 234.635 598.089 236 596.409 236L498.444 236ZM855.6 228.125C856.44 228.125 856.965 228.545 857.175 229.385C857.385 230.225 857.49 231.17 857.49 232.22C857.49 234.74 856.86 236 855.6 236L756.375 236C754.905 236 754.17 234.74 754.17 232.22C754.17 229.49 754.905 228.125 756.375 228.125C775.485 227.705 785.04 222.77 785.04 213.32C785.04 211.01 784.095 207.23 782.205 201.98L766.14 155.36L684.555 155.36L669.75 197.57C668.28 202.61 667.545 206.39 667.545 208.91C667.545 221.72 677.835 228.125 698.415 228.125C699.885 228.125 700.62 229.49 700.62 232.22C700.62 234.74 699.885 236 698.415 236L619.349 236C617.879 236 617.144 234.74 617.144 232.22C617.144 229.49 617.879 228.125 619.349 228.125C626.069 228.125 632.579 226.025 638.879 221.825C645.179 217.415 650.22 210.275 654 200.405C658.41 189.695 681.09 129.845 722.04 20.8551L727.71 5.73513L746.295 0.380124C748.605 0.380124 750.075 1.43012 750.705 3.53012L763.305 40.0701C771.075 62.1201 781.68 92.6751 795.12 131.735C808.56 170.585 816.54 193.37 819.06 200.09C822.21 208.07 825.465 214.055 828.825 218.045C832.185 222.035 835.86 224.765 839.85 226.235C844.05 227.495 849.3 228.125 855.6 228.125ZM762.045 143.705L726.765 41.0151C721.515 54.0351 708.81 88.2651 688.65 143.705L762.045 143.705ZM879.274 236C877.804 236 877.069 234.635 877.069 231.905C877.069 229.175 877.804 227.81 879.274 227.81L883.684 227.81C892.294 227.81 898.909 226.235 903.529 223.085C908.149 219.725 910.459 213.53 910.459 204.5L910.459 36.6052C910.459 27.5751 908.044 21.3801 903.214 18.0201C898.384 14.6602 891.874 12.9802 883.684 12.9802L879.274 12.9802C877.804 12.9802 877.069 11.6152 877.069 8.88515C877.069 6.36514 877.804 5.10514 879.274 5.10514L977.554 5.10516C978.604 5.10516 979.234 5.42016 979.444 6.05017C979.864 6.68016 980.074 7.73016 980.074 9.20016C980.074 11.7202 979.234 12.9802 977.554 12.9802L973.459 12.9802C965.059 12.9802 958.444 14.6602 953.614 18.0202C948.994 21.3802 946.684 27.5752 946.684 36.6052L946.684 207.02C946.684 214.37 948.784 219.305 952.984 221.825C957.394 224.345 964.429 225.92 974.089 226.55L981.334 226.865L992.044 226.55C1010.52 225.92 1025.85 220.88 1038.03 211.43C1050.42 201.98 1061.55 190.22 1071.42 176.15C1072.26 175.31 1073.1 174.89 1073.94 174.89C1074.15 174.89 1075.1 175.1 1076.78 175.52C1078.25 176.15 1078.98 177.2 1078.98 178.67L1078.67 180.245L1073.63 193.475L1057.88 236L879.274 236Z" fill="#761200" fill-opacity="0.06"/>
</svg>
