<svg width="1077" height="240" viewBox="0 0 1077 240" fill="none" xmlns="http://www.w3.org/2000/svg">
<path d="M38.265 35.605C34.695 26.785 29.97 20.695 24.09 17.335C18.42 13.765 12.96 11.98 7.70996 11.98L2.98496 11.98C1.51496 11.98 0.779965 10.72 0.779965 8.19999C0.779966 5.46999 1.51497 4.10499 2.98497 4.10499L99.375 4.10501C100.845 4.10501 101.58 5.47001 101.58 8.20001C101.58 10.72 100.845 11.98 99.375 11.98L94.965 11.98C88.875 11.98 83.73 13.345 79.53 16.075C75.54 18.595 73.545 22.48 73.545 27.73C73.545 29.2 73.965 31.825 74.805 35.605L109.455 132.625L132.135 196.255L136.86 182.395C166.47 95.245 182.325 47.89 184.425 40.33C185.475 37.39 186 34.135 186 30.565C186 24.475 184.005 19.855 180.015 16.705C176.025 13.555 171.405 11.98 166.155 11.98L162.375 11.98C160.905 11.98 160.17 10.72 160.17 8.20002C160.17 5.47002 160.905 4.10502 162.375 4.10502L237.66 4.10503C239.13 4.10503 239.865 5.47003 239.865 8.20003C239.865 10.72 239.13 11.98 237.66 11.98L233.565 11.98C226.845 11.98 219.915 14.605 212.775 19.855C205.845 25.105 200.805 31.93 197.655 40.33C194.085 49.78 177.495 98.605 147.885 186.805L130.245 239.41L110.4 239.41L38.265 35.605ZM366.596 239.41C349.376 239.41 332.471 234.79 315.881 225.55C299.291 216.31 285.536 202.66 274.616 184.6C263.906 166.54 258.551 145.015 258.551 120.025C258.551 95.035 263.906 73.615 274.616 55.765C285.536 37.705 299.291 24.055 315.881 14.815C332.471 5.57505 349.376 0.955052 366.596 0.955055C383.606 0.955058 400.406 5.57506 416.996 14.8151C433.796 24.0551 447.551 37.7051 458.261 55.7651C468.971 73.6151 474.326 95.0351 474.326 120.025C474.326 145.015 468.971 166.54 458.261 184.6C447.551 202.66 433.796 216.31 416.996 225.55C400.406 234.79 383.606 239.41 366.596 239.41ZM366.596 229.33C378.986 229.33 390.326 225.235 400.616 217.045C411.116 208.855 419.411 196.57 425.501 180.19C431.801 163.81 434.951 143.755 434.951 120.025C434.951 96.5051 431.801 76.5551 425.501 60.1751C419.411 43.7951 411.116 31.6151 400.616 23.6351C390.326 15.4451 378.986 11.3501 366.596 11.3501C354.206 11.3501 342.761 15.4451 332.261 23.6351C321.971 31.6151 313.676 43.7951 307.376 60.1751C301.286 76.555 298.241 96.505 298.241 120.025C298.241 143.755 301.286 163.81 307.376 180.19C313.676 196.57 321.971 208.855 332.261 217.045C342.761 225.235 354.206 229.33 366.596 229.33ZM508.673 235C507.203 235 506.468 233.635 506.468 230.905C506.468 228.175 507.203 226.81 508.673 226.81L513.083 226.81C521.693 226.81 528.203 225.13 532.613 221.77C537.233 218.41 539.543 212.32 539.543 203.5L539.858 35.6051C539.858 26.5751 537.443 20.3801 532.613 17.0201C527.993 13.6601 521.483 11.9801 513.083 11.9801L508.673 11.9801C507.203 11.9801 506.468 10.7201 506.468 8.20008C506.468 5.47008 507.203 4.10508 508.673 4.10508L606.638 4.10509C607.688 4.10509 608.318 4.4201 608.528 5.0501C608.948 5.68009 609.158 6.73009 609.158 8.2001C609.158 10.7201 608.318 11.9801 606.638 11.9801L602.543 11.9801C593.933 11.9801 587.318 13.6601 582.698 17.0201C578.288 20.3801 576.083 26.5751 576.083 35.6051L575.768 203.5C575.768 212.53 578.078 218.725 582.698 222.085C587.318 225.235 593.933 226.81 602.543 226.81L606.638 226.81C608.318 226.81 609.158 228.175 609.158 230.905C609.158 233.635 608.318 235 606.638 235L508.673 235ZM754.634 239.41C737.414 239.41 720.089 235.315 702.659 227.125C685.229 218.725 670.529 205.915 658.559 188.695C646.799 171.475 640.919 150.055 640.919 124.435C640.919 102.595 645.749 82.2251 655.409 63.3251C665.069 44.4251 678.089 29.3051 694.469 17.9651C710.849 6.62512 728.699 0.955118 748.019 0.955122C754.529 0.955123 760.724 1.69012 766.604 3.16012C772.694 4.63012 779.099 6.62513 785.819 9.14514C788.969 10.1951 791.909 11.1401 794.639 11.9801C797.579 12.8201 799.994 13.2401 801.884 13.2401C808.394 13.2401 814.484 10.4051 820.154 4.73514C826.874 33.0851 830.969 50.5151 832.439 57.0251L833.069 60.1751C833.069 61.4351 832.229 62.5901 830.549 63.6401C830.129 63.8501 829.604 63.9551 828.974 63.9551C827.924 63.9551 826.769 63.2201 825.509 61.7501C824.669 60.4901 820.889 55.0301 814.169 45.3701C807.659 35.7101 798.839 27.8351 787.709 21.7451C776.579 15.4451 764.294 12.2951 750.854 12.2951C731.324 12.2951 716.309 19.3301 705.809 33.4001C695.519 47.4701 688.694 62.6951 685.334 79.0751C682.184 95.2451 680.609 109 680.609 120.34C680.609 143.23 684.494 162.55 692.264 178.3C700.034 193.84 709.904 205.39 721.874 212.95C734.054 220.51 746.549 224.29 759.359 224.29C776.159 224.29 790.124 219.985 801.254 211.375C812.384 202.555 822.779 190.69 832.439 175.78C833.489 174.52 834.434 173.89 835.274 173.89C835.904 173.89 836.849 174.415 838.109 175.465C839.369 176.305 839.999 177.355 839.999 178.615L839.369 180.505C831.389 195.835 820.574 209.485 806.924 221.455C793.274 233.425 775.844 239.41 754.634 239.41ZM1073.56 174.52C1075.24 175.15 1076.08 176.305 1076.08 177.985C1076.08 178.825 1075.56 180.505 1074.51 183.025C1068.21 198.985 1061.8 216.31 1055.29 235L872.592 235C870.912 235 870.072 233.635 870.072 230.905C870.072 228.385 870.912 227.125 872.592 227.125L876.687 227.125C885.087 227.125 891.597 225.445 896.217 222.085C901.047 218.725 903.462 212.53 903.462 203.5L903.462 35.6052C903.462 26.5751 901.047 20.3801 896.217 17.0201C891.387 13.6602 884.877 11.9802 876.687 11.9802L872.592 11.9802C870.912 11.9802 870.072 10.6152 870.072 7.88515C870.072 5.36514 870.912 4.10514 872.592 4.10514L1046.79 4.10517C1050.78 11.0352 1055.19 19.0152 1060.02 28.0452C1065.06 37.0752 1067.68 42.1152 1067.89 43.1652C1068.1 43.5852 1068.21 44.1102 1068.21 44.7402C1068.21 45.7902 1067.47 46.6302 1066 47.2602C1065.37 47.6802 1064.53 47.8902 1063.48 47.8902C1062.22 47.8902 1061.28 47.5752 1060.65 46.9452C1051.62 37.7052 1039.96 29.8302 1025.68 23.3202C1011.4 16.6002 996.597 13.2402 981.267 13.2402L974.652 13.2402C966.042 13.2402 959.427 13.6602 954.807 14.5002C950.187 15.1302 946.512 16.8102 943.782 19.5402C941.052 22.2702 939.687 26.6802 939.687 32.7702L939.687 109.945L965.832 109.945C978.012 109.945 986.097 109.84 990.087 109.63C998.907 109.42 1005.84 106.375 1010.88 100.495C1016.13 94.4052 1018.75 87.2652 1018.75 79.0752C1018.75 78.2352 1019.07 77.7102 1019.7 77.5002C1020.33 77.0802 1021.27 76.8702 1022.53 76.8702C1025.26 76.8702 1026.63 77.6052 1026.63 79.0752L1026.63 152.155C1026.63 153.625 1025.26 154.36 1022.53 154.36C1021.27 154.36 1020.33 154.255 1019.7 154.045C1019.07 153.625 1018.75 152.995 1018.75 152.155C1018.75 143.965 1016.13 136.825 1010.88 130.735C1005.84 124.645 998.907 121.495 990.087 121.285C986.097 121.075 978.012 120.97 965.832 120.97L939.687 120.97L939.687 206.02C939.687 213.37 941.787 218.41 945.987 221.14C950.397 223.66 957.432 225.235 967.092 225.865C969.612 226.075 973.392 226.18 978.432 226.18C983.052 226.18 986.727 226.075 989.457 225.865C1002.48 225.025 1013.92 221.98 1023.79 216.73C1033.66 211.48 1041.85 205.6 1048.36 199.09C1054.87 192.37 1061.59 184.39 1068.52 175.15C1069.15 174.31 1070.1 173.89 1071.36 173.89C1071.99 173.89 1072.72 174.1 1073.56 174.52Z" fill="#422B1A" fill-opacity="0.04"/>
</svg>
