<svg width="207" height="207" viewBox="0 0 207 207" fill="none" xmlns="http://www.w3.org/2000/svg">
<circle cx="103.5" cy="103.5" r="102" fill="#EEDEB1" stroke="white" stroke-width="3"/>
<path d="M52.496 79.16C52.6027 79.032 52.72 78.872 52.848 78.68C52.976 78.488 53.0827 78.3493 53.168 78.264C53.2533 78.1573 53.3387 78.104 53.424 78.104C53.552 78.104 53.84 78.2853 54.288 78.648C54.736 79.0107 55.152 79.3947 55.536 79.8C55.92 80.2053 56.112 80.4827 56.112 80.632C56.048 80.9733 55.7813 81.144 55.312 81.144H53.872C53.3173 84.984 52.3147 88.152 50.864 90.648C52.4427 92.504 54.3307 93.912 56.528 94.872L56.432 95.192C55.2373 95.4907 54.48 96.3333 54.16 97.72C52.2827 96.4613 50.7467 94.7867 49.552 92.696C48.016 94.68 46.1067 96.3333 43.824 97.656L43.536 97.272C45.6907 95.416 47.3653 93.2187 48.56 90.68C47.7067 88.5467 47.0667 86.1573 46.64 83.512C45.8933 84.792 45.0187 85.9333 44.016 86.936L43.568 86.616C44.272 85.208 44.9013 83.5013 45.456 81.496C45.2853 81.5387 45.1467 81.56 45.04 81.56H43.216V89.208C43.2587 91.8533 43.344 94.36 43.472 96.728C43.3013 96.9627 43.0133 97.176 42.608 97.368C42.2027 97.5813 41.712 97.688 41.136 97.688C40.9653 97.688 40.8267 97.624 40.72 97.496C40.6133 97.368 40.56 97.2187 40.56 97.048C40.6453 96.344 40.7093 95.4267 40.752 94.296V92.6C38.448 93.4533 36.24 94.2427 34.128 94.968C33.9787 95.3733 33.744 95.608 33.424 95.672L31.824 92.76C32.3787 92.7387 33.3387 92.6533 34.704 92.504V81.56H33.072C33.072 84.888 32.752 87.9067 32.112 90.616C31.4933 93.3253 30.1707 95.6933 28.144 97.72L27.728 97.432C28.7947 95.2773 29.488 92.8987 29.808 90.296C30.1493 87.672 30.32 84.6427 30.32 81.208V76.888C30.32 75.1173 30.224 73.624 30.032 72.408L33.488 74.008H46.768C47.1733 73.0267 47.5147 71.96 47.792 70.808C48.0907 69.6347 48.2613 68.632 48.304 67.8C51.0347 68.5893 52.4 69.1227 52.4 69.4C52.4 69.464 52.304 69.5387 52.112 69.624L51.536 69.848C50.4693 71.2133 49.1573 72.6 47.6 74.008H51.312L52.112 72.92C52.2187 72.7707 52.336 72.6107 52.464 72.44C52.592 72.2693 52.72 72.12 52.848 71.992C52.976 71.864 53.0827 71.8 53.168 71.8C53.296 71.8 53.616 71.992 54.128 72.376C54.64 72.7387 55.1093 73.1333 55.536 73.56C55.984 73.9867 56.208 74.2747 56.208 74.424C56.144 74.744 55.8667 74.904 55.376 74.904H33.072V80.632H37.552V78.04H36.4C35.8027 78.0613 35.184 78.2107 34.544 78.488L33.712 76.856C34.8853 76.984 36.304 77.0693 37.968 77.112H40.688L41.296 76.184C41.3813 76.0773 41.4773 75.9387 41.584 75.768C41.712 75.576 41.8187 75.4373 41.904 75.352C41.9893 75.2667 42.0747 75.224 42.16 75.224C42.288 75.224 42.5547 75.384 42.96 75.704C43.3867 76.024 43.7707 76.376 44.112 76.76C44.4747 77.1227 44.656 77.3787 44.656 77.528C44.592 77.8693 44.3253 78.04 43.856 78.04H40.144V80.632H41.904L43.28 78.744C44.2187 79.512 44.9867 80.2053 45.584 80.824C45.8187 79.928 45.9893 78.968 46.096 77.944C46.2027 76.8987 46.2347 75.9813 46.192 75.192C48.7733 75.7253 50.064 76.1413 50.064 76.44C50.064 76.5467 49.9787 76.632 49.808 76.696L49.264 76.984C48.9227 78.1573 48.5707 79.2347 48.208 80.216H51.792L52.496 79.16ZM40.016 68.088C41.488 68.5147 42.5653 69.08 43.248 69.784C43.9307 70.488 44.272 71.2027 44.272 71.928C44.272 72.4187 44.1333 72.8347 43.856 73.176C43.5787 73.496 43.2267 73.656 42.8 73.656C42.3733 73.656 41.9573 73.4853 41.552 73.144C41.5093 72.376 41.3067 71.5547 40.944 70.68C40.6027 69.784 40.1973 68.984 39.728 68.28L40.016 68.088ZM33.104 68.568C34.6827 68.9307 35.8453 69.4533 36.592 70.136C37.3387 70.7973 37.712 71.4907 37.712 72.216C37.712 72.6853 37.5733 73.08 37.296 73.4C37.0187 73.6987 36.6667 73.848 36.24 73.848C35.856 73.848 35.4827 73.7093 35.12 73.432C34.992 72.6853 34.704 71.896 34.256 71.064C33.808 70.2107 33.3173 69.4427 32.784 68.76L33.104 68.568ZM47.824 81.144C47.5253 81.8267 47.28 82.328 47.088 82.648C47.6853 84.9093 48.464 86.8827 49.424 88.568C50.2133 86.392 50.7253 83.9173 50.96 81.144H47.824ZM37.168 84.344H40.752V81.56H37.168V84.344ZM37.168 88.152H40.752V85.272H37.168V88.152ZM37.168 92.216L40.752 91.768V89.08H37.168V92.216ZM71.856 70.584C70.832 70.6053 69.7653 70.7547 68.656 71.032L67.824 69.432C68.8693 69.56 70.128 69.6453 71.6 69.688H73.36L73.904 68.92C73.9467 68.856 74.0213 68.7493 74.128 68.6C74.2347 68.4507 74.3307 68.344 74.416 68.28C74.5013 68.1947 74.5867 68.152 74.672 68.152C74.8 68.152 75.0667 68.312 75.472 68.632C75.8987 68.9307 76.2827 69.2613 76.624 69.624C76.9867 69.9653 77.168 70.2107 77.168 70.36C76.976 70.5947 76.624 70.776 76.112 70.904V71.896C76.1333 72.1093 76.144 72.3653 76.144 72.664L76.24 73.688C76.1547 73.88 75.8667 74.0827 75.376 74.296C74.8853 74.488 74.4373 74.584 74.032 74.584H73.616V73.784H70.704V75.96C70.704 76.1307 70.7467 76.248 70.832 76.312C70.9173 76.3547 71.12 76.376 71.44 76.376H74.8C75.0133 76.376 75.184 76.3013 75.312 76.152C75.568 75.8533 75.8453 75.2667 76.144 74.392H76.496L76.592 76.152C76.9333 76.3013 77.1573 76.44 77.264 76.568C77.392 76.696 77.456 76.8773 77.456 77.112C77.456 77.4747 77.3173 77.752 77.04 77.944C76.784 78.136 76.336 78.2747 75.696 78.36C75.056 78.4453 74.1493 78.488 72.976 78.488H70.768C70.0427 78.488 69.5093 78.424 69.168 78.296C68.8267 78.168 68.592 77.9653 68.464 77.688C68.3573 77.3893 68.304 76.952 68.304 76.376V74.008C68.304 72.984 68.2613 72.1413 68.176 71.48L71.12 72.856H73.616V70.584H71.856ZM81.744 70.584C80.6773 70.6053 79.568 70.7547 78.416 71.032L77.552 69.432C78.6187 69.56 79.92 69.6453 81.456 69.688H83.312L83.856 68.92C83.92 68.8347 84.0053 68.7173 84.112 68.568C84.24 68.4187 84.336 68.312 84.4 68.248C84.4853 68.184 84.5707 68.152 84.656 68.152C84.784 68.152 85.0507 68.312 85.456 68.632C85.8827 68.9307 86.2667 69.2613 86.608 69.624C86.9707 69.9653 87.152 70.2107 87.152 70.36C87.088 70.4667 86.96 70.5733 86.768 70.68C86.576 70.7867 86.3627 70.8613 86.128 70.904V71.896C86.1493 72.1093 86.16 72.3653 86.16 72.664L86.256 73.688C86.1707 73.88 85.872 74.0827 85.36 74.296C84.8693 74.488 84.4107 74.584 83.984 74.584H83.568V73.784H80.72V75.96C80.72 76.1307 80.7627 76.248 80.848 76.312C80.9333 76.3547 81.136 76.376 81.456 76.376H85.008C85.2427 76.376 85.424 76.3013 85.552 76.152C85.7227 75.96 86 75.3413 86.384 74.296H86.736L86.832 76.152C87.152 76.3013 87.3653 76.4507 87.472 76.6C87.6 76.728 87.664 76.9093 87.664 77.144C87.664 77.5067 87.5253 77.784 87.248 77.976C86.992 78.168 86.5333 78.3067 85.872 78.392C85.2107 78.4773 84.272 78.52 83.056 78.52H80.816C80.0693 78.52 79.5147 78.456 79.152 78.328C78.8107 78.2 78.576 77.9973 78.448 77.72C78.3413 77.4213 78.288 76.9733 78.288 76.376V74.008C78.288 72.984 78.2453 72.1413 78.16 71.48L81.136 72.856H83.568V70.584H81.744ZM64.624 75.608C64.1973 75.608 63.792 75.448 63.408 75.128C63.2587 74.168 62.8747 73.144 62.256 72.056C61.6587 70.9467 60.9867 69.9973 60.24 69.208L60.56 68.984C62.48 69.496 63.888 70.2 64.784 71.096C65.68 71.992 66.128 72.8987 66.128 73.816C66.128 74.3493 65.9787 74.7867 65.68 75.128C65.4027 75.448 65.0507 75.608 64.624 75.608ZM76.272 94.2C81.968 94.2 86.1067 94.1573 88.688 94.072V94.488C87.472 94.744 86.8 95.576 86.672 96.984H76.304C74.2347 96.984 72.5813 96.856 71.344 96.6C70.1067 96.344 69.0507 95.8533 68.176 95.128C67.3013 94.424 66.5013 93.3893 65.776 92.024C65.1787 92.8347 64.4853 93.7093 63.696 94.648C62.928 95.5867 62.2667 96.344 61.712 96.92V97.048C61.712 97.3467 61.584 97.5493 61.328 97.656L59.632 94.296C60.6773 93.848 61.9573 93.208 63.472 92.376V82.776H62.256C61.5947 82.7973 60.912 82.9467 60.208 83.224L59.472 81.592C60.1333 81.72 60.944 81.8053 61.904 81.848H63.024L63.696 80.824C63.76 80.7387 63.856 80.6 63.984 80.408C64.112 80.1947 64.2187 80.0453 64.304 79.96C64.4107 79.8533 64.5067 79.8 64.592 79.8C64.72 79.8 65.04 80.0027 65.552 80.408C66.064 80.792 66.544 81.208 66.992 81.656C67.44 82.104 67.664 82.4027 67.664 82.552C67.4293 82.8507 66.9173 83.064 66.128 83.192V91.448C66.7253 92.0453 67.2267 92.4827 67.632 92.76C68.0587 92.5253 68.4747 92.2693 68.88 91.992C69.7547 91.3733 70.5867 90.648 71.376 89.816C72.1653 88.9627 72.752 88.152 73.136 87.384H72.592C71.0773 87.4053 69.4773 87.5547 67.792 87.832L66.96 86.2C68.0053 86.328 69.264 86.4133 70.736 86.456H72.528V82.808H71.248C70.5227 82.8293 69.776 82.9787 69.008 83.256L68.176 81.624C68.9867 81.752 69.968 81.8373 71.12 81.88H72.528C72.528 80.6427 72.464 79.576 72.336 78.68C74.64 79.2773 75.792 79.7253 75.792 80.024C75.792 80.088 75.728 80.1627 75.6 80.248L75.216 80.536V81.88H79.12C79.12 80.6427 79.056 79.576 78.928 78.68C80.272 79.0213 81.2 79.2987 81.712 79.512C82.224 79.704 82.48 79.8747 82.48 80.024C82.48 80.088 82.416 80.1627 82.288 80.248L81.872 80.536V81.88H82.832L83.504 80.92C83.568 80.8347 83.664 80.7067 83.792 80.536C83.92 80.344 84.0267 80.2053 84.112 80.12C84.2187 80.0133 84.3147 79.96 84.4 79.96C84.528 79.96 84.8053 80.1307 85.232 80.472C85.68 80.792 86.096 81.144 86.48 81.528C86.864 81.8907 87.056 82.1467 87.056 82.296C86.9707 82.6373 86.704 82.808 86.256 82.808H81.872V86.456H83.536L84.272 85.4C84.3573 85.272 84.4747 85.112 84.624 84.92C84.7733 84.7067 84.8907 84.5573 84.976 84.472C85.0827 84.3653 85.1787 84.312 85.264 84.312C85.392 84.312 85.7013 84.4933 86.192 84.856C86.6827 85.2187 87.1413 85.6133 87.568 86.04C87.9947 86.4453 88.208 86.7227 88.208 86.872C88.1227 87.2133 87.8453 87.384 87.376 87.384H73.456C74.608 88.088 75.4187 88.6213 75.888 88.984C76.3573 89.3253 76.592 89.5707 76.592 89.72C76.592 89.8267 76.4427 89.9013 76.144 89.944L75.344 90.008C74.512 90.6267 73.456 91.2133 72.176 91.768C70.896 92.3227 69.5733 92.76 68.208 93.08C69.0613 93.528 70.0747 93.8267 71.248 93.976C72.4427 94.1253 74.1173 94.2 76.272 94.2ZM79.12 82.808H75.216V86.456H79.12V82.808ZM78.704 88.152C81.4987 88.4933 83.5253 89.0267 84.784 89.752C86.064 90.456 86.704 91.1813 86.704 91.928C86.704 92.3333 86.5333 92.6747 86.192 92.952C85.872 93.2293 85.488 93.368 85.04 93.368C84.5067 93.368 84.0373 93.1653 83.632 92.76C83.1627 92.056 82.4907 91.3413 81.616 90.616C80.7627 89.8693 79.728 89.1973 78.512 88.6L78.704 88.152ZM116.208 86.616C116.272 86.5307 116.379 86.392 116.528 86.2C116.677 85.9867 116.795 85.8373 116.88 85.752C116.987 85.6453 117.083 85.592 117.168 85.592C117.296 85.592 117.595 85.7627 118.064 86.104C118.533 86.4453 118.971 86.8187 119.376 87.224C119.781 87.608 119.984 87.8747 119.984 88.024C119.899 88.344 119.621 88.504 119.152 88.504H114.992C116.741 89.5707 117.616 90.232 117.616 90.488C117.616 90.552 117.541 90.584 117.392 90.584H116.912C115.312 91.352 113.701 91.9493 112.08 92.376C114.128 93.464 116.901 94.2 120.4 94.584L120.368 94.936C119.237 95.256 118.501 96.1627 118.16 97.656C115.28 96.888 112.955 95.8107 111.184 94.424C109.413 93.0373 108.069 91.064 107.152 88.504H103.888V93.624L109.136 93.048L109.2 93.496C106.405 94.584 103.067 95.7467 99.184 96.984C99.0347 97.3253 98.7787 97.5493 98.416 97.656L96.88 94.328C98.096 94.2427 99.4933 94.1147 101.072 93.944V88.504H97.776C96.9867 92.4933 95.1093 95.48 92.144 97.464L91.824 97.176C93.168 95.3627 94.0533 93.3893 94.48 91.256C94.928 89.1227 95.152 86.7867 95.152 84.248V79.96L96.016 80.312V75.992C96.016 73.304 95.8773 71.1173 95.6 69.432L98.992 70.872H101.84C101.84 69.592 101.787 68.5893 101.68 67.864C103.045 68.2053 103.984 68.4827 104.496 68.696C105.008 68.9093 105.264 69.0907 105.264 69.24C105.264 69.304 105.189 69.3893 105.04 69.496L104.592 69.784V70.872H107.792C107.792 69.592 107.739 68.5893 107.632 67.864C108.955 68.2053 109.872 68.4933 110.384 68.728C110.896 68.9413 111.152 69.1227 111.152 69.272C111.152 69.336 111.077 69.4213 110.928 69.528L110.448 69.816V70.872H113.424L114.064 70.104C114.149 69.9973 114.277 69.8373 114.448 69.624C114.64 69.4107 114.8 69.304 114.928 69.304C115.056 69.304 115.365 69.4747 115.856 69.816C116.368 70.1573 116.837 70.52 117.264 70.904C117.691 71.2667 117.904 71.5227 117.904 71.672C117.648 71.9493 117.211 72.1733 116.592 72.344V79.192C117.787 80.216 118.715 81.0587 119.376 81.72C119.291 82.0613 119.024 82.232 118.576 82.232H98.096V84.248C98.096 85.5067 98.032 86.6267 97.904 87.608H115.504L116.208 86.616ZM101.84 74.488V71.8H98.736V74.488H101.84ZM107.792 74.488V71.8H104.592V74.488H107.792ZM113.744 74.488V71.8H110.448V74.488H113.744ZM98.736 75.384V78.104H101.84V75.384H98.736ZM107.792 75.384H104.592V78.104H107.792V75.384ZM110.448 78.104H113.744V75.384H110.448V78.104ZM98.576 81.304H114.864L116.08 79.672C115.333 79.9493 114.715 80.088 114.224 80.088H113.744V79.032H98.736V79.64C98.736 79.7893 98.5013 79.9707 98.032 80.184C97.5627 80.3973 97.0827 80.5147 96.592 80.536L98.576 81.304ZM113.136 83.416C113.221 83.3093 113.328 83.1707 113.456 83C113.605 82.808 113.723 82.6693 113.808 82.584C113.893 82.4987 113.979 82.456 114.064 82.456C114.192 82.456 114.469 82.6267 114.896 82.968C115.344 83.288 115.76 83.64 116.144 84.024C116.528 84.3867 116.72 84.6427 116.72 84.792C116.635 85.1333 116.368 85.304 115.92 85.304H104.848C103.333 85.3253 101.733 85.4747 100.048 85.752L99.216 84.12C100.389 84.248 101.808 84.3333 103.472 84.376H112.464L113.136 83.416ZM107.888 88.504C108.635 89.8693 109.765 91.0107 111.28 91.928C111.92 91.416 112.581 90.84 113.264 90.2C113.947 89.5387 114.491 88.9733 114.896 88.504H107.888ZM148.4 71.32C148.507 71.2133 148.667 71.0427 148.88 70.808C149.093 70.5733 149.264 70.456 149.392 70.456C149.52 70.456 149.808 70.6693 150.256 71.096C150.725 71.5013 151.152 71.9387 151.536 72.408C151.941 72.856 152.144 73.1547 152.144 73.304C152.037 73.4107 151.899 73.4853 151.728 73.528C151.579 73.5707 151.323 73.6133 150.96 73.656C150.427 74.104 149.797 74.5733 149.072 75.064C148.368 75.5547 147.707 75.9813 147.088 76.344L148.176 77.304C148.112 77.6453 147.835 77.816 147.344 77.816H140.08C140.699 80.2907 141.637 82.5307 142.896 84.536L143.632 83.8C144.421 82.968 145.157 82.0827 145.84 81.144C146.544 80.184 147.056 79.3093 147.376 78.52C149.659 80.0773 150.8 81.0053 150.8 81.304C150.8 81.368 150.704 81.4213 150.512 81.464L149.936 81.496C149.125 82.1147 148.133 82.7653 146.96 83.448C145.787 84.1093 144.592 84.7067 143.376 85.24C145.595 88.504 148.571 90.9893 152.304 92.696L152.208 93.016C151.589 93.08 151.035 93.3253 150.544 93.752C150.053 94.1787 149.659 94.7547 149.36 95.48C146.693 93.6453 144.549 91.3093 142.928 88.472C141.328 85.6133 140.187 82.0613 139.504 77.816H139.088C138.192 78.6267 137.029 79.48 135.6 80.376C137.392 81.8267 138.725 83.576 139.6 85.624C140.496 87.6507 140.944 89.6667 140.944 91.672C140.944 92.696 140.827 93.6347 140.592 94.488C140.357 95.32 140.037 95.992 139.632 96.504C139.269 96.9307 138.757 97.24 138.096 97.432C137.435 97.6453 136.592 97.752 135.568 97.752C135.547 96.92 135.323 96.28 134.896 95.832C134.704 95.64 134.373 95.448 133.904 95.256C133.435 95.0853 132.891 94.936 132.272 94.808V94.36C132.997 94.424 133.733 94.488 134.48 94.552C135.248 94.5947 135.888 94.616 136.4 94.616C136.635 94.616 136.816 94.5947 136.944 94.552C137.093 94.5093 137.211 94.424 137.296 94.296C137.595 93.8693 137.808 93.2293 137.936 92.376C138.085 91.5013 138.128 90.5307 138.064 89.464C136.187 90.808 133.989 92.024 131.472 93.112C128.955 94.1787 126.395 94.9893 123.792 95.544L123.568 95.064C126.277 94.1253 128.891 92.824 131.408 91.16C133.947 89.496 135.963 87.7253 137.456 85.848C137.371 85.528 137.232 85.1013 137.04 84.568C135.44 85.656 133.531 86.6907 131.312 87.672C129.115 88.632 126.949 89.4 124.816 89.976L124.592 89.528C126.597 88.6747 128.624 87.5333 130.672 86.104C132.741 84.6533 134.416 83.2027 135.696 81.752C135.312 81.1547 135.077 80.8027 134.992 80.696C132.197 82.296 128.912 83.576 125.136 84.536L124.912 84.088C126.768 83.3413 128.56 82.4133 130.288 81.304C132.037 80.1733 133.573 79.0107 134.896 77.816H132.752C131.493 77.8373 130.192 77.9867 128.848 78.264L128.048 76.632C129.221 76.76 130.64 76.8453 132.304 76.888H143.44L145.136 74.68L146.512 75.832C146.981 74.8933 147.376 73.976 147.696 73.08H128.496C128.517 74.1253 128.368 75.032 128.048 75.8C127.728 76.5467 127.301 77.1013 126.768 77.464C126.405 77.7413 125.979 77.88 125.488 77.88C124.784 77.88 124.315 77.592 124.08 77.016C124.016 76.824 123.984 76.6427 123.984 76.472C123.984 76.1307 124.08 75.8107 124.272 75.512C124.485 75.192 124.763 74.936 125.104 74.744C125.744 74.3813 126.309 73.752 126.8 72.856C127.291 71.96 127.515 71.0107 127.472 70.008H127.92C128.219 70.8827 128.379 71.5973 128.4 72.152H136.432C136.432 70.3387 136.347 68.9093 136.176 67.864C137.712 68.2053 138.779 68.4827 139.376 68.696C139.973 68.9093 140.272 69.0907 140.272 69.24C140.272 69.3467 140.187 69.4533 140.016 69.56L139.44 69.912V72.152H147.664L148.4 71.32ZM170.544 72.6C172.421 72.6 174.277 72.9733 176.112 73.72C177.947 74.4667 179.472 75.672 180.688 77.336C181.904 78.9787 182.512 81.0693 182.512 83.608C182.512 86.488 181.669 88.8133 179.984 90.584C178.32 92.3333 176.293 93.5707 173.904 94.296C171.536 95.0213 169.189 95.384 166.864 95.384C166.331 95.384 166.064 95.3307 166.064 95.224C166.064 95.1387 166.256 95.064 166.64 95C167.024 94.9147 167.248 94.8613 167.312 94.84C170.832 94.264 173.723 93.016 175.984 91.096C178.245 89.176 179.376 86.616 179.376 83.416C179.376 80.92 178.853 78.9467 177.808 77.496C176.784 76.024 175.568 75.0107 174.16 74.456C172.752 73.9013 171.419 73.624 170.16 73.624C169.861 73.624 169.637 73.6347 169.488 73.656C169.744 74.2107 169.968 74.904 170.16 75.736C170.352 76.568 170.448 77.3467 170.448 78.072C170.448 78.8613 170.352 79.7787 170.16 80.824C169.989 81.8693 169.691 82.9147 169.264 83.96C168.603 85.688 167.824 87.224 166.928 88.568C166.032 89.912 165.147 90.9467 164.272 91.672C163.419 92.3973 162.704 92.76 162.128 92.76C161.339 92.76 160.581 92.3547 159.856 91.544C159.152 90.712 158.576 89.6667 158.128 88.408C157.701 87.128 157.488 85.848 157.488 84.568C157.488 82.1787 158.117 80.0773 159.376 78.264C160.656 76.4507 162.299 75.0533 164.304 74.072C166.331 73.0907 168.411 72.6 170.544 72.6ZM169.264 76.056C169.264 75.288 169.157 74.4987 168.944 73.688C167.259 73.88 165.723 74.4453 164.336 75.384C162.949 76.3227 161.851 77.528 161.04 79C160.229 80.4507 159.824 82.0187 159.824 83.704C159.824 84.8773 159.973 85.88 160.272 86.712C160.571 87.5227 160.923 88.1307 161.328 88.536C161.733 88.9413 162.064 89.144 162.32 89.144C162.811 89.144 163.408 88.7707 164.112 88.024C164.816 87.2773 165.499 86.3813 166.16 85.336C167.269 83.6507 168.059 82.0827 168.528 80.632C169.019 79.1813 169.264 77.656 169.264 76.056ZM52.432 118.024C52.5387 117.917 52.6987 117.747 52.912 117.512C53.1253 117.277 53.296 117.16 53.424 117.16C53.552 117.16 53.84 117.373 54.288 117.8C54.7573 118.205 55.1947 118.643 55.6 119.112C56.0053 119.581 56.208 119.891 56.208 120.04C56.08 120.168 55.9307 120.253 55.76 120.296C55.5893 120.339 55.344 120.371 55.024 120.392C54.448 120.989 53.744 121.64 52.912 122.344C52.1013 123.048 51.3547 123.613 50.672 124.04L50.352 123.816C50.864 122.579 51.3333 121.245 51.76 119.816H32.56C32.624 120.819 32.5067 121.683 32.208 122.408C31.9093 123.133 31.504 123.688 30.992 124.072C30.5867 124.371 30.1707 124.52 29.744 124.52C29.3387 124.52 28.976 124.392 28.656 124.136C28.3573 123.859 28.208 123.485 28.208 123.016C28.208 122.653 28.304 122.333 28.496 122.056C28.7093 121.757 28.9867 121.501 29.328 121.288C29.9467 120.904 30.48 120.285 30.928 119.432C31.376 118.579 31.5573 117.683 31.472 116.744L31.92 116.712C32.2187 117.523 32.4 118.248 32.464 118.888H40.432C40.432 116.797 40.3253 115.101 40.112 113.8C41.6907 114.141 42.7787 114.419 43.376 114.632C43.9733 114.845 44.272 115.027 44.272 115.176C44.272 115.283 44.1867 115.389 44.016 115.496L43.44 115.848V118.888H51.664L52.432 118.024ZM51.952 125.512C52.0587 125.363 52.176 125.203 52.304 125.032C52.432 124.84 52.56 124.68 52.688 124.552C52.816 124.403 52.9227 124.328 53.008 124.328C53.136 124.328 53.456 124.531 53.968 124.936C54.5013 125.341 54.992 125.768 55.44 126.216C55.9093 126.664 56.144 126.963 56.144 127.112C56.0587 127.453 55.7707 127.624 55.28 127.624H49.584C49.1787 129.437 48.688 131.048 48.112 132.456C47.5573 133.864 46.8747 135.112 46.064 136.2C47.9627 136.819 49.5093 137.501 50.704 138.248C51.92 138.973 52.7947 139.699 53.328 140.424C53.8613 141.128 54.128 141.768 54.128 142.344C54.128 142.749 54 143.069 53.744 143.304C53.5093 143.539 53.2 143.656 52.816 143.656C52.5173 143.656 52.208 143.592 51.888 143.464C51.12 142.653 50.0747 141.789 48.752 140.872C47.4507 139.955 45.9467 139.059 44.24 138.184C42.576 139.656 40.4213 140.829 37.776 141.704C35.152 142.579 31.824 143.229 27.792 143.656L27.664 143.176C31.0133 142.515 33.8293 141.693 36.112 140.712C38.3947 139.709 40.272 138.461 41.744 136.968C40.1653 136.243 38.416 135.571 36.496 134.952C36.3253 135.357 35.9733 136.125 35.44 137.256C35.12 137.384 34.736 137.448 34.288 137.448C33.6053 137.448 32.944 137.309 32.304 137.032C32.88 135.923 33.552 134.515 34.32 132.808C35.088 131.08 35.8133 129.352 36.496 127.624H33.296C31.7813 127.645 30.1813 127.795 28.496 128.072L27.664 126.44C28.8373 126.568 30.256 126.653 31.92 126.696H36.88C37.2853 125.629 37.648 124.52 37.968 123.368C38.3093 122.216 38.5333 121.213 38.64 120.36C40.1333 120.701 41.1787 120.979 41.776 121.192C42.3733 121.384 42.672 121.544 42.672 121.672C42.672 121.779 42.5653 121.864 42.352 121.928L41.744 122.216C41.36 123.283 40.7947 124.776 40.048 126.696H51.12L51.952 125.512ZM39.664 127.624L39.216 128.712C38.0427 131.485 37.2427 133.341 36.816 134.28C38.9493 134.536 41.0613 134.899 43.152 135.368C44.624 133.32 45.648 130.739 46.224 127.624H39.664ZM75.024 116.2C73.552 118.653 71.3867 121.096 68.528 123.528C65.6693 125.96 62.736 127.88 59.728 129.288L59.504 128.872C61.2107 127.741 62.9493 126.291 64.72 124.52C66.512 122.749 68.08 120.915 69.424 119.016C70.768 117.117 71.6747 115.4 72.144 113.864L76.976 115.176C76.9333 115.368 76.8053 115.517 76.592 115.624C76.3787 115.731 76.0373 115.805 75.568 115.848C76.8267 117.725 78.6293 119.4 80.976 120.872C83.3227 122.344 85.9253 123.624 88.784 124.712L88.752 125.16C88.112 125.331 87.5573 125.693 87.088 126.248C86.64 126.803 86.352 127.4 86.224 128.04C83.6853 126.611 81.424 124.893 79.44 122.888C77.4773 120.861 76.0053 118.632 75.024 116.2ZM80.72 132.712C80.8267 132.563 80.944 132.403 81.072 132.232C81.2 132.061 81.328 131.912 81.456 131.784C81.584 131.656 81.6907 131.592 81.776 131.592C81.904 131.592 82.224 131.784 82.736 132.168C83.2693 132.552 83.76 132.957 84.208 133.384C84.656 133.789 84.88 134.067 84.88 134.216C84.7947 134.557 84.5173 134.728 84.048 134.728H75.44V141.64H82.704L83.536 140.424C83.6213 140.317 83.7493 140.147 83.92 139.912C84.0907 139.677 84.2293 139.507 84.336 139.4C84.4427 139.272 84.5387 139.208 84.624 139.208C84.752 139.208 85.0827 139.421 85.616 139.848C86.1707 140.253 86.6827 140.68 87.152 141.128C87.6427 141.597 87.888 141.907 87.888 142.056C87.8453 142.227 87.7493 142.355 87.6 142.44C87.4507 142.525 87.2693 142.568 87.056 142.568H66.032C64.5173 142.589 62.9173 142.739 61.232 143.016L60.368 141.384C61.5413 141.512 62.96 141.597 64.624 141.64H72.368V134.728H69.68C68.1653 134.749 66.5653 134.899 64.88 135.176L64.08 133.576C65.2533 133.704 66.672 133.789 68.336 133.832H72.368V127.752H70C68.6133 127.773 67.1413 127.923 65.584 128.2L64.816 126.568C65.9893 126.696 67.408 126.781 69.072 126.824H78.64L79.408 125.8C79.5147 125.672 79.6213 125.533 79.728 125.384C79.856 125.213 79.9733 125.064 80.08 124.936C80.208 124.808 80.3147 124.744 80.4 124.744C80.528 124.744 80.8373 124.925 81.328 125.288C81.8187 125.629 82.2667 126.003 82.672 126.408C83.0987 126.813 83.312 127.091 83.312 127.24C83.2907 127.411 83.2053 127.539 83.056 127.624C82.9067 127.709 82.7253 127.752 82.512 127.752H75.44V133.832H79.92L80.72 132.712ZM106.256 120.168C105.744 120.509 105.125 120.861 104.4 121.224C103.696 121.565 102.992 121.853 102.288 122.088C101.712 123.667 100.848 125.96 99.696 128.968C98.5653 131.976 97.8507 133.843 97.552 134.568C97.36 134.995 97.0933 135.325 96.752 135.56C96.4107 135.773 96.0693 135.88 95.728 135.88C95.3013 135.88 95.0027 135.667 94.832 135.24C94.6827 134.813 94.608 134.227 94.608 133.48C94.608 133.181 94.64 132.957 94.704 132.808C94.768 132.637 94.9173 132.392 95.152 132.072C95.216 131.965 95.3013 131.837 95.408 131.688C95.536 131.517 95.6853 131.293 95.856 131.016C96.7307 129.608 97.5093 128.243 98.192 126.92C98.8747 125.597 99.472 124.2 99.984 122.728C99.856 122.749 99.6853 122.76 99.472 122.76C98.384 122.76 97.5307 122.472 96.912 121.896C96.2933 121.299 95.8347 120.68 95.536 120.04C95.408 119.805 95.344 119.613 95.344 119.464C95.344 119.357 95.3867 119.304 95.472 119.304C95.5573 119.304 95.7067 119.411 95.92 119.624C96.2187 119.88 96.6133 120.093 97.104 120.264C97.616 120.413 98.1387 120.488 98.672 120.488C99.0347 120.488 99.696 120.392 100.656 120.2C100.741 119.603 100.784 119.165 100.784 118.888C100.784 118.013 100.56 117.363 100.112 116.936C99.92 116.765 99.6853 116.605 99.408 116.456C99.1307 116.307 98.992 116.189 98.992 116.104C98.992 115.997 99.088 115.912 99.28 115.848C99.472 115.763 99.728 115.72 100.048 115.72C100.475 115.72 100.912 115.795 101.36 115.944C102.384 116.285 102.992 116.819 103.184 117.544C103.269 117.523 103.355 117.523 103.44 117.544C103.547 117.544 103.664 117.533 103.792 117.512C104.133 117.512 104.464 117.501 104.784 117.48C105.104 117.437 105.339 117.416 105.488 117.416H105.936C106.192 117.416 106.405 117.459 106.576 117.544C106.789 117.629 106.949 117.757 107.056 117.928C107.184 118.099 107.248 118.291 107.248 118.504C107.248 118.803 107.141 119.101 106.928 119.4C106.736 119.699 106.512 119.955 106.256 120.168ZM103.248 118.216C103.248 118.536 103.195 118.941 103.088 119.432C103.152 119.411 103.312 119.336 103.568 119.208C103.973 118.973 104.176 118.771 104.176 118.6C104.176 118.472 104.048 118.344 103.792 118.216L103.248 117.96V118.216ZM111.984 124.456C111.195 124.456 110.565 124.787 110.096 125.448C109.648 126.088 109.424 126.995 109.424 128.168C109.424 129.32 109.616 131.027 110 133.288C110.128 134.056 110.213 134.621 110.256 134.984C112.304 135.496 113.797 136.115 114.736 136.84C115.12 137.096 115.408 137.395 115.6 137.736C115.792 138.056 115.888 138.365 115.888 138.664C115.888 139.005 115.771 139.304 115.536 139.56C115.323 139.816 115.056 139.944 114.736 139.944C114.437 139.944 114.096 139.848 113.712 139.656C113.328 139.464 112.869 139.187 112.336 138.824C111.845 138.504 111.248 138.173 110.544 137.832V138.088C110.544 139.347 110.053 140.349 109.072 141.096C108.112 141.843 106.949 142.216 105.584 142.216C104.795 142.216 104.027 142.067 103.28 141.768C102.555 141.491 101.957 141.075 101.488 140.52C101.019 139.965 100.784 139.304 100.784 138.536C100.784 137.256 101.392 136.275 102.608 135.592C103.824 134.888 105.275 134.536 106.96 134.536C107.28 134.536 107.536 134.547 107.728 134.568C107.707 133.971 107.696 133.053 107.696 131.816C107.696 130.963 107.707 130.333 107.728 129.928C107.792 128.627 107.973 127.571 108.272 126.76C108.571 125.949 109.072 125.277 109.776 124.744C110.48 124.189 111.493 123.699 112.816 123.272C113.157 123.165 113.328 122.984 113.328 122.728C113.328 122.451 113.189 122.163 112.912 121.864C112.656 121.565 112.272 121.181 111.76 120.712C111.547 120.605 111.44 120.509 111.44 120.424C111.44 120.339 111.557 120.296 111.792 120.296C112.069 120.296 112.443 120.36 112.912 120.488C113.957 120.744 114.917 121.235 115.792 121.96C116.688 122.664 117.136 123.421 117.136 124.232C117.136 124.744 116.976 125.16 116.656 125.48C116.336 125.8 115.952 125.96 115.504 125.96C115.184 125.96 114.907 125.907 114.672 125.8C114.459 125.672 114.149 125.459 113.744 125.16C113.381 124.925 113.061 124.755 112.784 124.648C112.528 124.52 112.261 124.456 111.984 124.456ZM104.944 140.136C106.053 140.136 106.789 139.859 107.152 139.304C107.515 138.749 107.707 137.949 107.728 136.904C106.811 136.733 106.021 136.648 105.36 136.648C104.443 136.648 103.664 136.776 103.024 137.032C102.405 137.288 102.096 137.715 102.096 138.312C102.096 138.888 102.373 139.336 102.928 139.656C103.504 139.976 104.176 140.136 104.944 140.136ZM148.4 115.592C148.485 115.507 148.645 115.347 148.88 115.112C149.115 114.856 149.296 114.728 149.424 114.728C149.552 114.728 149.84 114.941 150.288 115.368C150.757 115.773 151.195 116.211 151.6 116.68C152.005 117.149 152.208 117.459 152.208 117.608C151.995 117.821 151.579 117.939 150.96 117.96C149.765 119.027 148.027 120.211 145.744 121.512C146.213 121.917 146.565 122.344 146.8 122.792C147.035 123.24 147.152 123.667 147.152 124.072C147.152 124.52 147.035 124.893 146.8 125.192C146.565 125.469 146.245 125.608 145.84 125.608C145.541 125.608 145.232 125.523 144.912 125.352C144.571 124.371 143.92 123.357 142.96 122.312C142 121.267 141.008 120.435 139.984 119.816L140.272 119.528C142.171 119.763 143.717 120.232 144.912 120.936C145.915 119.677 146.757 118.483 147.44 117.352H139.056V117.32C138.757 117.597 138.341 117.789 137.808 117.896V126.12H148.464L149.2 125.288C149.285 125.203 149.435 125.043 149.648 124.808C149.883 124.573 150.064 124.456 150.192 124.456C150.32 124.456 150.608 124.659 151.056 125.064C151.504 125.469 151.92 125.907 152.304 126.376C152.709 126.824 152.912 127.123 152.912 127.272C152.784 127.4 152.624 127.485 152.432 127.528C152.261 127.571 152.016 127.603 151.696 127.624C151.205 128.435 150.555 129.32 149.744 130.28C148.933 131.24 148.155 132.051 147.408 132.712L147.056 132.456C147.717 130.6 148.251 128.797 148.656 127.048H145.808V139.592C145.808 140.424 145.701 141.107 145.488 141.64C145.296 142.195 144.891 142.643 144.272 142.984C143.675 143.347 142.789 143.581 141.616 143.688C141.552 142.579 141.307 141.832 140.88 141.448C140.325 140.893 139.344 140.52 137.936 140.328V139.88C140.304 140.029 141.733 140.104 142.224 140.104C142.48 140.104 142.661 140.061 142.768 139.976C142.875 139.869 142.928 139.709 142.928 139.496V127.048H137.808V128.296C137.787 128.381 137.648 128.509 137.392 128.68C137.136 128.851 136.827 129 136.464 129.128C136.101 129.256 135.76 129.32 135.44 129.32H134.992V127.912H132.368V132.36H134.448L135.152 131.304C135.237 131.176 135.344 131.016 135.472 130.824C135.621 130.611 135.739 130.461 135.824 130.376C135.909 130.269 135.995 130.216 136.08 130.216C136.208 130.216 136.485 130.397 136.912 130.76C137.36 131.123 137.776 131.517 138.16 131.944C138.544 132.349 138.736 132.627 138.736 132.776C138.651 133.117 138.384 133.288 137.936 133.288H132.368V137.544L137.968 136.488C138.16 136.445 138.523 136.371 139.056 136.264L139.152 136.712C135.803 138.227 131.419 139.965 126 141.928C125.851 142.312 125.595 142.579 125.232 142.728L123.504 139.048C124.507 138.92 126.576 138.579 129.712 138.024V133.288H127.984C126.96 133.309 125.915 133.459 124.848 133.736L124.016 132.104C125.083 132.232 126.363 132.317 127.856 132.36H129.712V127.912H127.152V129.256C127.152 129.427 126.917 129.619 126.448 129.832C126 130.024 125.52 130.12 125.008 130.12C124.816 130.12 124.656 130.056 124.528 129.928C124.421 129.8 124.368 129.651 124.368 129.48C124.496 127.816 124.581 126.152 124.624 124.488V121.672C124.624 118.984 124.485 116.797 124.208 115.112L127.312 116.456H134.672L136.08 114.888L138.992 117.192L138.768 116.424H147.6L148.4 115.592ZM129.712 121.768V117.384H127.152V121.768H129.712ZM134.992 121.768V117.384H132.368V121.768H134.992ZM127.152 122.664V126.984H129.712V122.664H127.152ZM132.368 122.664V126.984H134.992V122.664H132.368ZM180.24 116.264C180.325 116.136 180.443 115.965 180.592 115.752C180.741 115.539 180.859 115.379 180.944 115.272C181.051 115.165 181.147 115.112 181.232 115.112C181.36 115.112 181.669 115.315 182.16 115.72C182.672 116.104 183.141 116.52 183.568 116.968C184.016 117.395 184.24 117.683 184.24 117.832C184.176 118.173 183.909 118.344 183.44 118.344H175.44V119.88C175.44 120.008 175.184 120.147 174.672 120.296C174.16 120.445 173.637 120.52 173.104 120.52C172.677 120.52 172.464 120.307 172.464 119.88C172.464 119.837 172.507 119.571 172.592 119.08V118.344H166.832V119.112C166.896 119.923 166.939 120.371 166.96 120.456C166.896 120.648 166.608 120.84 166.096 121.032C165.584 121.224 165.072 121.32 164.56 121.32C164.133 121.32 163.92 121.107 163.92 120.68C163.92 120.68 163.963 120.232 164.048 119.336V118.344H161.072C159.557 118.365 157.957 118.515 156.272 118.792L155.472 117.16C156.645 117.288 158.064 117.373 159.728 117.416H164.048C164.048 115.965 163.973 114.781 163.824 113.864C165.253 114.205 166.245 114.493 166.8 114.728C167.355 114.941 167.632 115.123 167.632 115.272C167.632 115.357 167.547 115.453 167.376 115.56L166.832 115.88V117.416H172.592C172.592 115.987 172.517 114.813 172.368 113.896C173.84 114.259 174.853 114.547 175.408 114.76C175.963 114.973 176.24 115.155 176.24 115.304C176.24 115.389 176.155 115.485 175.984 115.592L175.44 115.912V117.416H179.472L180.24 116.264ZM181.2 122.504C181.051 122.653 180.837 122.728 180.56 122.728C180.219 122.728 179.845 122.632 179.44 122.44C176.816 122.888 173.787 123.251 170.352 123.528C166.917 123.805 163.536 123.944 160.208 123.944L157.968 123.912L157.904 123.336C161.424 123.08 165.147 122.621 169.072 121.96C173.019 121.277 176.176 120.563 178.544 119.816L179.856 121.16L181.2 122.504ZM179.12 124.392C180.165 124.819 180.688 125.149 180.688 125.384C180.688 125.491 180.56 125.576 180.304 125.64L179.664 125.768C178.811 126.856 177.84 127.88 176.752 128.84C175.685 129.8 174.619 130.611 173.552 131.272L173.2 130.92C173.499 130.536 173.84 130.045 174.224 129.448C174.779 128.552 175.323 127.496 175.856 126.28C176.389 125.043 176.763 123.997 176.976 123.144L179.12 124.392ZM167.216 124.008C168.603 124.413 169.616 124.947 170.256 125.608C170.917 126.248 171.248 126.909 171.248 127.592C171.248 128.061 171.109 128.456 170.832 128.776C170.555 129.096 170.213 129.256 169.808 129.256C169.381 129.256 168.987 129.085 168.624 128.744C168.581 128.019 168.389 127.24 168.048 126.408C167.707 125.555 167.323 124.819 166.896 124.2L167.216 124.008ZM160.016 124.872C161.595 125.363 162.747 125.992 163.472 126.76C164.219 127.528 164.592 128.296 164.592 129.064C164.592 129.555 164.453 129.971 164.176 130.312C163.899 130.632 163.557 130.792 163.152 130.792C162.747 130.792 162.341 130.621 161.936 130.28C161.893 129.427 161.648 128.52 161.2 127.56C160.773 126.6 160.272 125.768 159.696 125.064L160.016 124.872ZM179.824 131.272C179.931 131.123 180.048 130.963 180.176 130.792C180.304 130.6 180.432 130.44 180.56 130.312C180.688 130.163 180.795 130.088 180.88 130.088C181.008 130.088 181.328 130.291 181.84 130.696C182.373 131.101 182.864 131.528 183.312 131.976C183.781 132.424 184.016 132.723 184.016 132.872C183.931 133.213 183.643 133.384 183.152 133.384H172.432C173.755 134.771 175.504 135.976 177.68 137C179.877 138.024 182.117 138.76 184.4 139.208L184.368 139.56C183.771 139.709 183.259 140.029 182.832 140.52C182.427 141.011 182.139 141.64 181.968 142.408C179.707 141.555 177.691 140.371 175.92 138.856C174.149 137.32 172.72 135.496 171.632 133.384H171.312V136.552C171.376 139.219 171.451 141.277 171.536 142.728C171.429 142.963 171.109 143.187 170.576 143.4C170.043 143.613 169.499 143.72 168.944 143.72C168.688 143.72 168.496 143.656 168.368 143.528C168.24 143.4 168.176 143.251 168.176 143.08C168.261 141.885 168.336 140.264 168.4 138.216V135.464C166.928 137.085 165.125 138.525 162.992 139.784C160.88 141.043 158.512 142.099 155.888 142.952L155.664 142.472C157.84 141.405 159.824 140.072 161.616 138.472C163.429 136.872 164.912 135.176 166.064 133.384H161.456C159.941 133.405 158.341 133.555 156.656 133.832L155.824 132.2C156.997 132.328 158.416 132.413 160.08 132.456H168.4C168.4 131.24 168.336 130.184 168.208 129.288C169.68 129.651 170.693 129.939 171.248 130.152C171.824 130.344 172.112 130.515 172.112 130.664C172.112 130.749 172.027 130.845 171.856 130.952L171.312 131.272V132.456H178.992L179.824 131.272Z" fill="#422B1A"/>
</svg>
