<svg width="207" height="207" viewBox="0 0 207 207" fill="none" xmlns="http://www.w3.org/2000/svg">
<circle cx="103.5" cy="103.5" r="102" fill="#C79167" stroke="white" stroke-width="3"/>
<path d="M44.504 77.632C43.3093 79.2533 42.0613 80.6933 40.76 81.952L40.344 81.664C42.0507 78.9547 43.5973 75.6053 44.984 71.616C45.3467 70.5707 45.688 69.376 46.008 68.032C46.328 66.688 46.5093 65.5893 46.552 64.736C48.1733 65.2693 49.2933 65.6747 49.912 65.952C50.5307 66.2293 50.84 66.432 50.84 66.56C50.84 66.6453 50.7547 66.72 50.584 66.784L50.008 67.008C49.0267 69.5893 47.8427 72.1067 46.456 74.56C47.5867 75.264 48.152 75.7547 48.152 76.032C48.152 76.16 48.0667 76.256 47.896 76.32L47.416 76.544V86.144C47.4587 88.7893 47.544 91.296 47.672 93.664C47.5013 93.8773 47.1493 94.1013 46.616 94.336C46.0827 94.592 45.56 94.72 45.048 94.72C44.792 94.72 44.5787 94.656 44.408 94.528C44.2373 94.4 44.152 94.2507 44.152 94.08C44.2373 92.8213 44.312 91.6053 44.376 90.432C44.44 89.2373 44.4827 87.68 44.504 85.76V77.632ZM65.368 71.712C65.4533 71.584 65.5707 71.4133 65.72 71.2C65.8907 70.9653 66.0187 70.7947 66.104 70.688C66.2107 70.5813 66.3067 70.528 66.392 70.528C66.52 70.528 66.8293 70.7307 67.32 71.136C67.8107 71.5413 68.2693 71.968 68.696 72.416C69.144 72.864 69.368 73.1627 69.368 73.312C69.2827 73.6533 68.9947 73.824 68.504 73.824H60.536C61.3893 76.2773 62.6587 78.4747 64.344 80.416C66.0293 82.3573 67.8747 83.8613 69.88 84.928L69.816 85.28C68.792 86.0053 68.1627 87.0933 67.928 88.544C66.0507 87.0293 64.408 84.9707 63 82.368C61.592 79.744 60.536 76.896 59.832 73.824H59.736V87.136H61.208L61.912 86.048C61.9973 85.92 62.104 85.7493 62.232 85.536C62.3813 85.3227 62.4987 85.1733 62.584 85.088C62.6693 84.9813 62.7547 84.928 62.84 84.928C62.968 84.928 63.2453 85.12 63.672 85.504C64.0987 85.8667 64.4933 86.2613 64.856 86.688C65.24 87.1147 65.432 87.4027 65.432 87.552C65.368 87.8933 65.0907 88.064 64.6 88.064H59.736V89.92L59.768 91.072C59.7893 91.9467 59.832 92.7467 59.896 93.472C59.8107 93.7493 59.5013 94.016 58.968 94.272C58.456 94.5493 57.9333 94.688 57.4 94.688C57.144 94.688 56.952 94.624 56.824 94.496C56.696 94.3893 56.632 94.24 56.632 94.048C56.7173 93.0667 56.7813 91.808 56.824 90.272V88.064H55.224C54.328 88.0853 53.4107 88.2347 52.472 88.512L51.64 86.88C52.6 87.008 53.7733 87.0933 55.16 87.136H56.824V78.592C54.584 82.6027 51.5973 85.888 47.864 88.448L47.512 88.064C49.2827 86.272 50.8507 84.1173 52.216 81.6C53.6027 79.0827 54.6907 76.4907 55.48 73.824H53.176C51.8533 73.8453 50.4453 73.9947 48.952 74.272L48.152 72.64C49.3253 72.768 50.744 72.8533 52.408 72.896H56.824V71.776C56.824 69.088 56.6853 66.9013 56.408 65.216C57.9653 65.6 59.0427 65.9093 59.64 66.144C60.2373 66.3573 60.536 66.5387 60.536 66.688C60.536 66.7947 60.4507 66.9013 60.28 67.008L59.736 67.36V72.896H64.6L65.368 71.712ZM87.896 78.112C90.2427 79.0507 92.0773 80.3307 93.4 81.952C94.7227 83.552 95.384 85.2907 95.384 87.168C95.384 88.512 95.0107 89.6747 94.264 90.656C93.5387 91.616 92.6 92.3413 91.448 92.832C90.3173 93.344 89.144 93.6 87.928 93.6C85.88 93.6 84.3547 92.928 83.352 91.584C82.3707 90.24 81.88 88.3947 81.88 86.048C81.88 85.3013 81.8907 84.7573 81.912 84.416C80.2267 83.7333 79.384 82.816 79.384 81.664C79.384 80.4693 80.4507 78.9867 82.584 77.216C82.6693 76.704 82.744 76.2453 82.808 75.84C82.8933 75.4347 82.968 75.072 83.032 74.752L83.192 73.984C81.72 73.344 80.5467 72.5547 79.672 71.616C79.5653 71.5093 79.48 71.424 79.416 71.36C79.3733 71.2747 79.352 71.2 79.352 71.136C79.352 71.0293 79.4053 70.976 79.512 70.976C79.576 70.976 79.736 71.0293 79.992 71.136C80.9307 71.5627 82.1147 71.872 83.544 72.064C83.7787 70.848 83.896 69.8453 83.896 69.056C83.896 68.352 83.7893 67.7227 83.576 67.168C83.4053 66.72 83.192 66.3893 82.936 66.176C82.68 65.9413 82.52 65.792 82.456 65.728C82.3707 65.6427 82.328 65.568 82.328 65.504C82.328 65.3547 82.4987 65.28 82.84 65.28C83.1813 65.28 83.5867 65.3547 84.056 65.504C84.5253 65.6533 84.9307 65.856 85.272 66.112C86.168 66.7733 86.616 67.5627 86.616 68.48C86.616 69.0987 86.4347 69.8347 86.072 70.688L85.304 72.352C85.9653 72.4373 86.616 72.5973 87.256 72.832C87.768 73.0027 88.1413 73.2693 88.376 73.632C88.6107 73.9947 88.728 74.368 88.728 74.752C88.728 75.5627 88.2373 76.032 87.256 76.16C86.1253 76.288 84.9947 76.64 83.864 77.216C83.48 79.0293 83.2133 80.7253 83.064 82.304L83.512 82.336C83.7253 82.3573 84.056 82.368 84.504 82.368L86.104 82.336C86.7227 82.336 87.2453 82.464 87.672 82.72C88.12 82.976 88.344 83.3707 88.344 83.904C88.344 84.3947 88.1093 84.736 87.64 84.928C87.192 85.0987 86.6693 85.184 86.072 85.184C85.0267 85.184 83.9813 85.0453 82.936 84.768V84.864C82.936 86.8693 83.288 88.48 83.992 89.696C84.7173 90.8907 85.912 91.488 87.576 91.488C88.9413 91.488 90.0613 91.0187 90.936 90.08C91.832 89.12 92.28 87.872 92.28 86.336C92.28 84.928 91.8533 83.552 91 82.208C90.168 80.8427 89.0267 79.5947 87.576 78.464C87.3413 78.2933 87.224 78.1547 87.224 78.048C87.224 77.984 87.2773 77.952 87.384 77.952C87.448 77.952 87.5227 77.9733 87.608 78.016C87.7147 78.0587 87.8107 78.0907 87.896 78.112ZM85.432 74.976C85.432 74.8907 85.3573 74.816 85.208 74.752C85.08 74.688 84.952 74.6453 84.824 74.624C84.7173 74.5813 84.6213 74.5493 84.536 74.528L84.472 74.784C84.408 74.9973 84.3013 75.424 84.152 76.064C84.472 75.872 84.76 75.6693 85.016 75.456C85.2933 75.2427 85.432 75.0827 85.432 74.976ZM80.44 80.864C80.44 81.4613 80.9627 81.888 82.008 82.144C82.1147 80.9067 82.264 79.5627 82.456 78.112C81.8373 78.56 81.3467 79.0293 80.984 79.52C80.6213 80.0107 80.44 80.4587 80.44 80.864ZM111.352 68.896C109.837 68.9173 108.237 69.0667 106.552 69.344L105.688 67.712C106.861 67.84 108.28 67.9253 109.944 67.968H117.4C117.4 66.752 117.336 65.696 117.208 64.8C118.723 65.1413 119.768 65.4293 120.344 65.664C120.941 65.8773 121.24 66.0587 121.24 66.208C121.24 66.2933 121.155 66.3893 120.984 66.496L120.408 66.848V67.968H127.064L127.864 66.848C127.971 66.6987 128.088 66.5387 128.216 66.368C128.344 66.1973 128.472 66.048 128.6 65.92C128.728 65.792 128.835 65.728 128.92 65.728C129.048 65.728 129.379 65.92 129.912 66.304C130.445 66.688 130.936 67.0933 131.384 67.52C131.853 67.9467 132.088 68.2347 132.088 68.384C132.024 68.7253 131.747 68.896 131.256 68.896H120.408V71.712H125.08L125.88 70.72C125.944 70.6347 126.051 70.496 126.2 70.304C126.371 70.0907 126.509 69.9413 126.616 69.856C126.723 69.7493 126.819 69.696 126.904 69.696C127.032 69.696 127.352 69.8773 127.864 70.24C128.376 70.5813 128.845 70.944 129.272 71.328C129.72 71.712 129.944 71.9787 129.944 72.128C129.859 72.4693 129.581 72.64 129.112 72.64H113.752C112.237 72.6613 110.637 72.8107 108.952 73.088L108.152 71.456C109.325 71.584 110.744 71.6693 112.408 71.712H117.4V68.896H111.352ZM129.752 81.824C129.88 81.824 130.2 82.0267 130.712 82.432C131.245 82.816 131.736 83.232 132.184 83.68C132.632 84.1067 132.856 84.3947 132.856 84.544C132.835 84.7147 132.749 84.8427 132.6 84.928C132.451 85.0133 132.269 85.056 132.056 85.056H110.328C108.813 85.0773 107.213 85.2267 105.528 85.504L104.696 83.872C105.869 84 107.288 84.0853 108.952 84.128H115.064C114.851 84.0427 114.637 83.904 114.424 83.712C114.403 83.1573 114.275 82.592 114.04 82.016C113.827 81.44 113.56 80.9493 113.24 80.544L113.528 80.352C114.765 80.5653 115.672 80.9067 116.248 81.376C116.845 81.8453 117.144 82.336 117.144 82.848C117.144 83.1253 117.059 83.3813 116.888 83.616C116.739 83.8507 116.536 84.0213 116.28 84.128H120.728C121.283 82.5707 121.592 81.248 121.656 80.16H113.08V80.736C113.08 80.8853 112.792 81.0773 112.216 81.312C111.64 81.5253 111.085 81.632 110.552 81.632C110.381 81.632 110.243 81.568 110.136 81.44C110.051 81.312 110.008 81.1627 110.008 80.992C110.072 80.5227 110.115 80.064 110.136 79.616C110.136 79.3387 110.147 79.1147 110.168 78.944V77.6C110.168 75.8293 110.083 74.432 109.912 73.408L113.24 74.88H124.472L125.112 74.016C125.197 73.9093 125.293 73.7813 125.4 73.632C125.528 73.4613 125.635 73.3333 125.72 73.248C125.805 73.1627 125.891 73.12 125.976 73.12C126.104 73.12 126.403 73.3013 126.872 73.664C127.363 74.0267 127.811 74.4213 128.216 74.848C128.643 75.2533 128.856 75.5307 128.856 75.68C128.621 75.936 128.248 76.1173 127.736 76.224V80.448C127.715 80.5333 127.416 80.672 126.84 80.864C126.285 81.056 125.795 81.1627 125.368 81.184L125.624 81.248C125.517 81.6747 125.144 81.888 124.504 81.888C123.864 82.528 122.925 83.2747 121.688 84.128H127.864L128.696 82.976C128.803 82.848 128.931 82.6773 129.08 82.464C129.251 82.2507 129.379 82.0907 129.464 81.984C129.571 81.8773 129.667 81.824 129.752 81.824ZM124.76 75.808H113.08V79.232H124.76V75.808ZM126.584 85.568C126.712 85.568 127.011 85.7387 127.48 86.08C127.971 86.4 128.419 86.752 128.824 87.136C129.251 87.4987 129.464 87.7547 129.464 87.904C129.379 88.032 129.229 88.1493 129.016 88.256C128.824 88.3627 128.6 88.4373 128.344 88.48V90.24L128.376 91.328C128.397 92.1387 128.44 92.896 128.504 93.6C128.397 93.7707 128.045 93.9627 127.448 94.176C126.872 94.3893 126.36 94.496 125.912 94.496H125.4V93.056H112.696V93.824C112.696 93.9093 112.557 94.0267 112.28 94.176C112.024 94.3253 111.693 94.4533 111.288 94.56C110.904 94.688 110.531 94.752 110.168 94.752C109.997 94.752 109.859 94.688 109.752 94.56C109.667 94.432 109.624 94.2827 109.624 94.112C109.688 93.5787 109.731 93.0453 109.752 92.512L109.784 91.776V90.272C109.784 88.4587 109.688 86.912 109.496 85.632L112.888 87.136H125.112L125.72 86.368C125.805 86.2613 125.933 86.1013 126.104 85.888C126.296 85.6747 126.456 85.568 126.584 85.568ZM112.696 92.128H125.4V88.064H112.696V92.128ZM160.376 68.576C161.464 68.576 162.499 68.8213 163.48 69.312C164.461 69.7813 164.952 70.4747 164.952 71.392C164.952 71.8187 164.824 72.1493 164.568 72.384C164.333 72.5973 164.056 72.704 163.736 72.704C163.181 72.704 162.723 72.4373 162.36 71.904C161.912 71.2427 161.496 70.7413 161.112 70.4C160.749 70.0587 160.269 69.7493 159.672 69.472C159.459 69.3653 159.267 69.28 159.096 69.216C158.947 69.152 158.829 69.0987 158.744 69.056C158.659 68.992 158.616 68.928 158.616 68.864C158.637 68.7573 158.84 68.6827 159.224 68.64C159.608 68.5973 159.992 68.576 160.376 68.576ZM154.648 82.144C156.013 82.144 157.389 82.4533 158.776 83.072C160.184 83.6693 161.336 84.4907 162.232 85.536C163.149 86.56 163.608 87.6693 163.608 88.864C163.608 89.9307 163.192 90.464 162.36 90.464C161.976 90.464 161.613 90.3253 161.272 90.048C160.931 89.7707 160.696 89.4613 160.568 89.12C159.779 87.1573 158.733 85.6533 157.432 84.608C156.152 83.5627 154.851 83.04 153.528 83.04C152.995 83.04 152.387 83.1467 151.704 83.36C152.045 83.7013 152.216 83.872 152.216 83.872C153.005 84.6187 153.624 85.3653 154.072 86.112C154.541 86.8587 154.776 87.6373 154.776 88.448C154.776 89.3867 154.499 90.1867 153.944 90.848C153.389 91.5093 152.579 91.84 151.512 91.84C150.915 91.84 150.371 91.7867 149.88 91.68C149.411 91.552 148.845 91.3707 148.184 91.136C147.352 90.8587 146.584 90.624 145.88 90.432C145.176 90.24 144.301 90.0693 143.256 89.92C142.467 90.7307 141.816 91.3173 141.304 91.68C140.813 92.0427 140.28 92.224 139.704 92.224C139.064 92.224 138.52 92.0107 138.072 91.584C137.645 91.1573 137.432 90.624 137.432 89.984C137.432 89.6853 137.485 89.3333 137.592 88.928C137.72 88.5013 137.859 88.1707 138.008 87.936C138.541 88.384 139.213 88.608 140.024 88.608C140.92 88.608 141.859 88.3627 142.84 87.872C143.821 87.36 145.059 86.6133 146.552 85.632C147.832 84.7787 148.803 84.1707 149.464 83.808C148.653 82.6987 148.003 81.728 147.512 80.896C147.043 80.0427 146.808 79.3067 146.808 78.688C146.808 78.048 146.989 77.4507 147.352 76.896C147.736 76.3413 148.301 75.776 149.048 75.2C149.56 74.7947 149.944 74.432 150.2 74.112C150.477 73.792 150.616 73.4613 150.616 73.12C150.616 72.7147 150.36 72.2453 149.848 71.712C149.336 71.1573 148.6 70.5707 147.64 69.952C147.235 69.7387 147.032 69.5573 147.032 69.408C147.032 69.3013 147.149 69.248 147.384 69.248C147.683 69.248 148.024 69.3013 148.408 69.408C149.283 69.6213 150.2 69.9733 151.16 70.464C152.141 70.9547 152.963 71.52 153.624 72.16C154.307 72.8 154.648 73.4293 154.648 74.048C154.648 74.752 154.328 75.2213 153.688 75.456C153.069 75.6693 152.28 75.7973 151.32 75.84C150.467 75.8827 149.635 76.1387 148.824 76.608C148.013 77.056 147.608 77.6853 147.608 78.496C147.608 79.0507 147.811 79.5733 148.216 80.064C148.621 80.5333 149.336 81.2267 150.36 82.144L151.224 82.944C152.461 82.4107 153.603 82.144 154.648 82.144ZM156.824 71.968C156.696 71.8827 156.536 71.776 156.344 71.648C156.152 71.52 156.056 71.424 156.056 71.36C156.056 71.2747 156.109 71.2213 156.216 71.2C156.323 71.1787 156.44 71.168 156.568 71.168C157.037 71.168 157.72 71.296 158.616 71.552C159.512 71.7867 160.323 72.1707 161.048 72.704C161.795 73.2373 162.168 73.92 162.168 74.752C162.168 75.2427 162.029 75.6053 161.752 75.84C161.475 76.0533 161.144 76.16 160.76 76.16C160.461 76.16 160.173 76.0747 159.896 75.904C159.619 75.7333 159.405 75.4773 159.256 75.136C158.979 74.4747 158.648 73.8987 158.264 73.408C157.88 72.896 157.4 72.416 156.824 71.968ZM149.816 84.288C148.28 85.184 146.403 86.7413 144.184 88.96C143.885 89.2587 143.736 89.408 143.736 89.408C144.803 89.536 145.784 89.6 146.68 89.6C147.448 89.6 148.184 89.568 148.888 89.504C150.552 89.3547 151.384 88.7893 151.384 87.808C151.384 87.232 151.267 86.7093 151.032 86.24C150.797 85.7493 150.445 85.1733 149.976 84.512L149.816 84.288ZM55.608 120.464C55.672 120.379 55.768 120.251 55.896 120.08C56.0453 119.888 56.1627 119.749 56.248 119.664C56.3333 119.579 56.4187 119.536 56.504 119.536C56.632 119.536 56.9307 119.728 57.4 120.112C57.8907 120.475 58.3493 120.869 58.776 121.296C59.2027 121.723 59.416 122.011 59.416 122.16C59.2027 122.459 58.7867 122.672 58.168 122.8V126.704C58.2107 129.349 58.296 131.856 58.424 134.224C58.2533 134.437 57.88 134.672 57.304 134.928C56.728 135.184 56.2053 135.312 55.736 135.312C55.352 135.312 55.16 135.099 55.16 134.672C55.16 134.672 55.2027 134.459 55.288 134.032V133.36H49.08V134.032C49.1013 134.288 49.112 134.523 49.112 134.736C49.1333 134.928 49.1547 135.067 49.176 135.152C49.1333 135.387 48.8453 135.632 48.312 135.888C47.8 136.144 47.256 136.272 46.68 136.272C46.4667 136.272 46.2853 136.208 46.136 136.08C45.9867 135.952 45.912 135.803 45.912 135.632C45.9973 134.373 46.072 133.157 46.136 131.984C46.2 130.789 46.2427 129.232 46.264 127.312V121.328C44.6213 123.291 42.8933 124.891 41.08 126.128L40.728 125.808C42.584 123.568 44.28 120.763 45.816 117.392C46.264 116.411 46.68 115.248 47.064 113.904C47.448 112.539 47.6827 111.429 47.768 110.576C49.3893 111.173 50.52 111.632 51.16 111.952C51.8 112.251 52.12 112.475 52.12 112.624C52.12 112.688 52.024 112.763 51.832 112.848L51.224 113.04C50.776 114.171 50.2213 115.301 49.56 116.432H64.28L65.048 115.504C65.1333 115.397 65.2933 115.216 65.528 114.96C65.7627 114.704 65.944 114.576 66.072 114.576C66.2 114.576 66.4987 114.768 66.968 115.152C67.4373 115.536 67.8747 115.952 68.28 116.4C68.6853 116.827 68.888 117.115 68.888 117.264C68.5893 117.563 68.152 117.755 67.576 117.84C67.4053 124.176 67.1387 129.061 66.776 132.496C66.4347 135.931 65.8587 138.107 65.048 139.024C64.4933 139.621 63.864 140.059 63.16 140.336C62.456 140.613 61.592 140.752 60.568 140.752C60.568 139.728 60.312 138.971 59.8 138.48C59.48 138.224 58.9467 137.979 58.2 137.744C57.4747 137.509 56.6747 137.317 55.8 137.168L55.832 136.656L57.432 136.784C59.5653 136.997 60.888 137.104 61.4 137.104C61.72 137.104 61.9653 137.072 62.136 137.008C62.3067 136.944 62.4987 136.816 62.712 136.624C63.288 136.069 63.7147 134.117 63.992 130.768C64.2907 127.397 64.4933 122.928 64.6 117.36H49.048C48.4507 118.363 47.768 119.376 47 120.4L49.24 121.392H54.968L55.608 120.464ZM55.288 126.832V122.288H49.08V126.832H55.288ZM49.08 127.76V132.432H55.288V127.76H49.08ZM87.544 115.6C89.4213 115.6 91.2773 115.973 93.112 116.72C94.9467 117.467 96.472 118.672 97.688 120.336C98.904 121.979 99.512 124.069 99.512 126.608C99.512 129.488 98.6693 131.813 96.984 133.584C95.32 135.333 93.2933 136.571 90.904 137.296C88.536 138.021 86.1893 138.384 83.864 138.384C83.3307 138.384 83.064 138.331 83.064 138.224C83.064 138.139 83.256 138.064 83.64 138C84.024 137.915 84.248 137.861 84.312 137.84C87.832 137.264 90.7227 136.016 92.984 134.096C95.2453 132.176 96.376 129.616 96.376 126.416C96.376 123.92 95.8533 121.947 94.808 120.496C93.784 119.024 92.568 118.011 91.16 117.456C89.752 116.901 88.4187 116.624 87.16 116.624C86.8613 116.624 86.6373 116.635 86.488 116.656C86.744 117.211 86.968 117.904 87.16 118.736C87.352 119.568 87.448 120.347 87.448 121.072C87.448 121.861 87.352 122.779 87.16 123.824C86.9893 124.869 86.6907 125.915 86.264 126.96C85.6027 128.688 84.824 130.224 83.928 131.568C83.032 132.912 82.1467 133.947 81.272 134.672C80.4187 135.397 79.704 135.76 79.128 135.76C78.3387 135.76 77.5813 135.355 76.856 134.544C76.152 133.712 75.576 132.667 75.128 131.408C74.7013 130.128 74.488 128.848 74.488 127.568C74.488 125.179 75.1173 123.077 76.376 121.264C77.656 119.451 79.2987 118.053 81.304 117.072C83.3307 116.091 85.4107 115.6 87.544 115.6ZM86.264 119.056C86.264 118.288 86.1573 117.499 85.944 116.688C84.2587 116.88 82.7227 117.445 81.336 118.384C79.9493 119.323 78.8507 120.528 78.04 122C77.2293 123.451 76.824 125.019 76.824 126.704C76.824 127.877 76.9733 128.88 77.272 129.712C77.5707 130.523 77.9227 131.131 78.328 131.536C78.7333 131.941 79.064 132.144 79.32 132.144C79.8107 132.144 80.408 131.771 81.112 131.024C81.816 130.277 82.4987 129.381 83.16 128.336C84.2693 126.651 85.0587 125.083 85.528 123.632C86.0187 122.181 86.264 120.656 86.264 119.056ZM119.928 113.072C119.032 114.203 117.869 115.365 116.44 116.56C115.011 117.733 113.443 118.843 111.736 119.888L114.072 120.912H117.592C117.592 119.248 117.507 117.915 117.336 116.912C118.808 117.253 119.821 117.531 120.376 117.744C120.931 117.957 121.208 118.139 121.208 118.288C121.208 118.352 121.133 118.437 120.984 118.544L120.504 118.864V120.912H123.96L124.568 120.048C124.653 119.941 124.739 119.824 124.824 119.696C124.931 119.568 125.037 119.451 125.144 119.344C125.251 119.237 125.347 119.184 125.432 119.184C125.56 119.184 125.848 119.365 126.296 119.728C126.765 120.069 127.203 120.443 127.608 120.848C128.013 121.253 128.216 121.531 128.216 121.68C127.981 121.915 127.64 122.075 127.192 122.16V124.72C127.256 126.811 127.32 128.411 127.384 129.52C129.453 131.035 130.488 131.941 130.488 132.24C130.488 132.347 130.392 132.4 130.2 132.4L129.624 132.432C128.899 132.837 128.013 133.253 126.968 133.68C125.923 134.085 124.867 134.448 123.8 134.768C126.125 136.133 129.229 137.061 133.112 137.552L133.08 137.936C132.483 138.085 131.981 138.405 131.576 138.896C131.171 139.387 130.883 140.005 130.712 140.752C127.469 139.856 124.845 138.565 122.84 136.88C120.835 135.195 119.352 132.848 118.392 129.84H113.912V136.24C115.384 136.048 117.763 135.717 121.048 135.248L121.112 135.696C118.339 136.848 114.296 138.299 108.984 140.048C108.835 140.411 108.579 140.645 108.216 140.752L106.36 137.168C107.427 137.061 108.973 136.88 111 136.624V120.336C108.931 121.552 106.968 122.491 105.112 123.152L104.888 122.736C106.445 121.904 108.024 120.848 109.624 119.568C111.245 118.267 112.685 116.923 113.944 115.536C115.48 113.851 116.451 112.187 116.856 110.544L121.816 112.048C121.773 112.261 121.645 112.421 121.432 112.528C121.219 112.613 120.877 112.677 120.408 112.72C121.731 114.043 123.544 115.216 125.848 116.24C128.173 117.243 130.659 118.075 133.304 118.736V119.248C132.707 119.419 132.195 119.781 131.768 120.336C131.341 120.869 131.075 121.445 130.968 122.064C128.579 121.04 126.392 119.749 124.408 118.192C122.445 116.635 120.952 114.928 119.928 113.072ZM124.216 121.84H113.912V124.88H124.216V121.84ZM124.216 125.808H113.912V128.912H124.216V125.808ZM124.216 130.864V129.84H119.032C119.928 131.611 121.24 133.083 122.968 134.256C123.651 133.701 124.333 133.061 125.016 132.336C125.72 131.589 126.307 130.875 126.776 130.192C126.477 130.384 126.136 130.544 125.752 130.672C125.389 130.8 125.048 130.864 124.728 130.864H124.216ZM157.88 124.528C155.299 128.901 151.757 132.485 147.256 135.28L146.904 134.896C149.08 132.997 151.032 130.672 152.76 127.92C154.488 125.168 155.832 122.352 156.792 119.472H154.808C153.656 119.493 152.461 119.643 151.224 119.92L150.392 118.288C151.565 118.416 152.984 118.501 154.648 118.544H157.88V117.392C157.88 114.704 157.741 112.517 157.464 110.832C159 111.216 160.067 111.525 160.664 111.76C161.261 111.973 161.56 112.155 161.56 112.304C161.56 112.389 161.475 112.485 161.304 112.592L160.728 112.944V118.544H161.464L162.136 117.424C162.2 117.317 162.296 117.157 162.424 116.944C162.552 116.709 162.659 116.539 162.744 116.432C162.851 116.325 162.947 116.272 163.032 116.272C163.16 116.272 163.427 116.464 163.832 116.848C164.237 117.232 164.621 117.648 164.984 118.096C165.347 118.523 165.528 118.811 165.528 118.96C165.443 119.301 165.176 119.472 164.728 119.472H160.728V136.944C160.728 137.733 160.621 138.373 160.408 138.864C160.216 139.355 159.821 139.749 159.224 140.048C158.627 140.347 157.731 140.549 156.536 140.656C156.472 140.187 156.376 139.792 156.248 139.472C156.12 139.173 155.939 138.928 155.704 138.736C155.448 138.48 155.085 138.267 154.616 138.096C154.168 137.947 153.528 137.808 152.696 137.68V137.232C155.171 137.403 156.643 137.488 157.112 137.488C157.389 137.488 157.581 137.435 157.688 137.328C157.816 137.221 157.88 137.04 157.88 136.784V124.528ZM146.904 117.456C146.989 117.328 147.096 117.168 147.224 116.976C147.373 116.763 147.491 116.613 147.576 116.528C147.661 116.421 147.747 116.368 147.832 116.368C147.96 116.368 148.248 116.549 148.696 116.912C149.165 117.275 149.592 117.669 149.976 118.096C150.381 118.501 150.584 118.779 150.584 118.928C150.499 119.269 150.232 119.44 149.784 119.44H145.048V122.448C146.712 123.045 147.928 123.76 148.696 124.592C149.485 125.424 149.88 126.224 149.88 126.992C149.88 127.461 149.752 127.845 149.496 128.144C149.24 128.443 148.92 128.592 148.536 128.592C148.131 128.592 147.725 128.421 147.32 128.08C147.213 127.333 146.947 126.512 146.52 125.616C146.093 124.72 145.603 123.877 145.048 123.088V132.144C145.091 134.789 145.176 137.296 145.304 139.664C145.176 139.899 144.845 140.133 144.312 140.368C143.779 140.624 143.267 140.752 142.776 140.752C142.499 140.752 142.275 140.688 142.104 140.56C141.933 140.432 141.848 140.283 141.848 140.112C141.933 138.853 142.008 137.637 142.072 136.464C142.136 135.269 142.179 133.712 142.2 131.792V126.768C140.749 129.499 138.936 131.845 136.76 133.808L136.344 133.424C137.645 131.632 138.755 129.531 139.672 127.12C140.611 124.688 141.336 122.128 141.848 119.44H140.312C139.459 119.461 138.563 119.611 137.624 119.888L136.792 118.288C137.795 118.416 139.011 118.501 140.44 118.544H142.2V117.424C142.2 114.736 142.061 112.549 141.784 110.864C143.299 111.227 144.355 111.525 144.952 111.76C145.549 111.973 145.848 112.155 145.848 112.304C145.848 112.411 145.763 112.517 145.592 112.624L145.048 113.008V118.544H146.232L146.904 117.456Z" fill="white"/>
</svg>
