<svg width="207" height="207" viewBox="0 0 207 207" fill="none" xmlns="http://www.w3.org/2000/svg">
<circle cx="103.5" cy="103.5" r="102" fill="#66A256" stroke="white" stroke-width="3"/>
<path d="M65.92 76.856C66.0053 76.7493 66.1333 76.5893 66.304 76.376C66.4747 76.1413 66.6133 75.9707 66.72 75.864C66.8267 75.7573 66.9227 75.704 67.008 75.704C67.136 75.704 67.4667 75.9067 68 76.312C68.5333 76.696 69.024 77.112 69.472 77.56C69.9413 77.9867 70.176 78.2747 70.176 78.424C70.0907 78.7653 69.8027 78.936 69.312 78.936H47.488V81.912C47.488 84.984 47.1147 87.8853 46.368 90.616C45.6427 93.3253 44.1173 95.6613 41.792 97.624L41.44 97.304C42.7413 95.1707 43.5947 92.8347 44 90.296C44.4267 87.736 44.64 84.9413 44.64 81.912V79.288C44.64 78.0933 44.5867 77.1653 44.48 76.504L47.968 78.008H58.656C59.2533 76.4293 59.7653 74.6587 60.192 72.696H48.928C47.4133 72.7173 45.8133 72.8667 44.128 73.144L43.296 71.512C44.4693 71.64 45.888 71.7253 47.552 71.768H54.528C54.528 70.168 54.4533 68.856 54.304 67.832C55.776 68.1733 56.7893 68.4507 57.344 68.664C57.8987 68.8773 58.176 69.0587 58.176 69.208C58.176 69.2933 58.1013 69.3893 57.952 69.496L57.44 69.816V71.768H63.968L64.768 70.648C64.8533 70.5413 64.9707 70.3813 65.12 70.168C65.2907 69.9547 65.4187 69.7947 65.504 69.688C65.6107 69.5813 65.7067 69.528 65.792 69.528C65.92 69.528 66.2507 69.72 66.784 70.104C67.3173 70.488 67.808 70.8933 68.256 71.32C68.7253 71.7467 68.96 72.0347 68.96 72.184C68.8747 72.5253 68.5867 72.696 68.096 72.696H60.288C61.5893 72.9947 62.496 73.24 63.008 73.432C63.5413 73.6027 63.808 73.752 63.808 73.88C63.808 73.944 63.712 74.0187 63.52 74.104L62.944 74.328C61.9413 75.5653 60.7573 76.792 59.392 78.008H65.088L65.92 76.856ZM50.208 72.696C51.5947 73.08 52.608 73.592 53.248 74.232C53.888 74.8507 54.208 75.4907 54.208 76.152C54.208 76.6213 54.048 77.0267 53.728 77.368C53.4293 77.688 53.0667 77.848 52.64 77.848C52.1493 77.848 51.712 77.656 51.328 77.272C51.3067 76.568 51.1573 75.8213 50.88 75.032C50.6027 74.2213 50.272 73.496 49.888 72.856L50.208 72.696ZM63.648 88.44C63.712 88.3547 63.8187 88.216 63.968 88.024C64.1173 87.8107 64.2347 87.6613 64.32 87.576C64.4267 87.4693 64.5227 87.416 64.608 87.416C64.736 87.416 65.0347 87.5973 65.504 87.96C65.9733 88.3013 66.4107 88.6747 66.816 89.08C67.2427 89.464 67.456 89.7307 67.456 89.88C67.3707 90.2213 67.0933 90.392 66.624 90.392H59.456V95.672H65.152L65.984 94.52C66.0907 94.392 66.2187 94.2213 66.368 94.008C66.5387 93.7947 66.6667 93.6347 66.752 93.528C66.8587 93.4213 66.9547 93.368 67.04 93.368C67.168 93.368 67.4987 93.5707 68.032 93.976C68.5653 94.36 69.056 94.7653 69.504 95.192C69.9733 95.64 70.208 95.9387 70.208 96.088C70.1227 96.4293 69.8347 96.6 69.344 96.6H51.904C50.3893 96.6213 48.7893 96.7707 47.104 97.048L46.24 95.416C47.4133 95.544 48.832 95.6293 50.496 95.672H56.512V90.392H54.432C53.216 90.4133 51.9573 90.5627 50.656 90.84L49.856 89.208C51.0293 89.336 52.448 89.4213 54.112 89.464H56.512V84.888H52C50.912 86.616 49.6213 87.992 48.128 89.016L47.712 88.696C48.2027 87.992 48.672 87.1813 49.12 86.264C49.5467 85.304 49.92 84.1733 50.24 82.872C50.56 81.5493 50.7307 80.4507 50.752 79.576C53.2693 80.3013 54.528 80.8133 54.528 81.112C54.528 81.1973 54.4427 81.272 54.272 81.336L53.696 81.592C53.248 82.6373 52.864 83.4267 52.544 83.96H56.512C56.512 82.1253 56.4267 80.664 56.256 79.576C58.8587 80.216 60.16 80.6853 60.16 80.984C60.16 81.0693 60.0853 81.1653 59.936 81.272L59.456 81.592V83.96H63.168L63.936 82.904C64.0213 82.776 64.1387 82.616 64.288 82.424C64.4373 82.2107 64.5547 82.0613 64.64 81.976C64.7467 81.8693 64.8427 81.816 64.928 81.816C65.056 81.816 65.3653 81.9973 65.856 82.36C66.368 82.7227 66.8373 83.1173 67.264 83.544C67.6907 83.9493 67.904 84.2267 67.904 84.376C67.8187 84.7173 67.5413 84.888 67.072 84.888H59.456V89.464H62.912L63.648 88.44ZM98.144 74.168C98.2293 74.0613 98.336 73.9333 98.464 73.784C98.6133 73.6133 98.7307 73.4853 98.816 73.4C98.9013 73.3147 98.9867 73.272 99.072 73.272C99.2 73.272 99.4773 73.464 99.904 73.848C100.352 74.2107 100.768 74.6053 101.152 75.032C101.536 75.4373 101.728 75.7147 101.728 75.864C101.515 76.12 101.131 76.2907 100.576 76.376C100.533 79.2773 100.459 81.5387 100.352 83.16C100.267 84.76 100.117 85.976 99.904 86.808C99.6907 87.64 99.392 88.248 99.008 88.632C98.304 89.336 97.3227 89.688 96.064 89.688C96.064 89.1333 96.0427 88.7173 96 88.44C95.9787 88.1413 95.8933 87.9067 95.744 87.736C95.4453 87.352 94.9333 87.064 94.208 86.872V86.36C94.976 86.4453 95.6373 86.488 96.192 86.488C96.4053 86.488 96.5653 86.4667 96.672 86.424C96.7787 86.3813 96.8747 86.3067 96.96 86.2C97.2373 85.9227 97.4293 85.0267 97.536 83.512C97.664 81.9973 97.7493 79.4693 97.792 75.928L94.016 77.368V82.968C94.0587 85.6133 94.144 88.12 94.272 90.488C94.144 90.744 93.824 91 93.312 91.256C92.8 91.4907 92.2987 91.608 91.808 91.608C91.5733 91.608 91.3707 91.544 91.2 91.416C91.0507 91.288 90.976 91.1387 90.976 90.968C91.0613 89.752 91.1253 88.5467 91.168 87.352C91.232 86.1573 91.2747 84.6533 91.296 82.84V78.424L87.968 79.704V92.504C87.968 92.9733 88.1173 93.304 88.416 93.496C88.7147 93.688 89.28 93.784 90.112 93.784H94.464C96.4053 93.784 97.6853 93.7413 98.304 93.656C98.7733 93.6347 99.104 93.4747 99.296 93.176C99.6373 92.6427 100.117 91.1067 100.736 88.568H101.088L101.184 93.304C101.696 93.496 102.048 93.688 102.24 93.88C102.432 94.072 102.528 94.3173 102.528 94.616C102.528 95.1493 102.304 95.5547 101.856 95.832C101.408 96.1093 100.597 96.312 99.424 96.44C98.2507 96.568 96.5333 96.632 94.272 96.632H89.856C88.64 96.632 87.7013 96.536 87.04 96.344C86.3787 96.152 85.8987 95.8107 85.6 95.32C85.3227 94.8507 85.184 94.1573 85.184 93.24V80.792L81.824 82.072L81.248 81.304L85.184 79.768V75.16C85.184 73.2827 85.088 71.704 84.896 70.424C86.3467 70.8293 87.3493 71.1493 87.904 71.384C88.48 71.5973 88.768 71.7787 88.768 71.928C88.768 72.0347 88.6827 72.1413 88.512 72.248L87.968 72.6V78.712L91.296 77.432V72.76C91.296 70.84 91.2 69.2293 91.008 67.928C92.4373 68.2907 93.4293 68.5893 93.984 68.824C94.5387 69.0373 94.816 69.2187 94.816 69.368C94.816 69.4747 94.7307 69.5813 94.56 69.688L94.016 70.04V76.376L97.216 75.128L97.504 75.032H97.472L98.144 74.168ZM81.248 76.664C81.312 76.536 81.408 76.3653 81.536 76.152C81.6853 75.9173 81.8027 75.7467 81.888 75.64C81.9733 75.5333 82.0587 75.48 82.144 75.48C82.336 75.48 82.784 75.8853 83.488 76.696C84.192 77.5067 84.544 78.0293 84.544 78.264C84.5227 78.6053 84.2667 78.776 83.776 78.776H80.032V88.504C81.2053 88.0347 82.6133 87.448 84.256 86.744L84.416 87.096C84.032 87.416 83.84 87.576 83.84 87.576C80.704 90.0507 77.9627 92.0667 75.616 93.624C75.5093 94.0933 75.2853 94.4027 74.944 94.552L73.408 90.936C74.0907 90.744 75.3813 90.296 77.28 89.592V78.776H76.192C75.5947 78.7973 74.976 78.9467 74.336 79.224L73.536 77.592C74.24 77.72 75.0933 77.8053 76.096 77.848H77.28V75.096C77.28 72.408 77.1413 70.2213 76.864 68.536C78.3573 68.8987 79.392 69.1973 79.968 69.432C80.5653 69.6453 80.864 69.8267 80.864 69.976C80.864 70.0613 80.7787 70.1573 80.608 70.264L80.032 70.616V77.848H80.608L81.248 76.664ZM126.688 75.864C126.752 75.8 126.848 75.6827 126.976 75.512C127.104 75.3413 127.211 75.224 127.296 75.16C127.403 75.0747 127.499 75.032 127.584 75.032C127.712 75.032 128.021 75.2027 128.512 75.544C129.003 75.8853 129.451 76.2587 129.856 76.664C130.283 77.048 130.496 77.3147 130.496 77.464C130.283 77.7627 129.877 77.976 129.28 78.104V83.864C129.323 86.5093 129.408 89.016 129.536 91.384C129.365 91.6187 128.992 91.8747 128.416 92.152C127.84 92.408 127.317 92.536 126.848 92.536H126.368V90.936H117.312V91.768C117.312 91.8747 117.195 92.0133 116.96 92.184C116.725 92.3547 116.416 92.504 116.032 92.632C115.669 92.7387 115.307 92.792 114.944 92.792C114.709 92.792 114.517 92.728 114.368 92.6C114.24 92.472 114.176 92.3227 114.176 92.152C114.325 90.1253 114.421 87.8853 114.464 85.432V81.72C114.464 79.032 114.325 76.8453 114.048 75.16L117.504 76.664H118.848L118.944 73.144H111.68C110.165 73.1653 108.565 73.3147 106.88 73.592L106.016 71.96C107.189 72.088 108.608 72.1733 110.272 72.216H118.976C118.997 71.9387 119.008 71.4907 119.008 70.872C119.008 69.6773 118.944 68.664 118.816 67.832C121.547 68.0453 122.912 68.3013 122.912 68.6C122.912 68.664 122.827 68.76 122.656 68.888L122.112 69.272L121.856 72.216H128.224L129.12 71C129.248 70.8507 129.376 70.68 129.504 70.488C129.653 70.296 129.792 70.1253 129.92 69.976C130.048 69.8267 130.155 69.752 130.24 69.752C130.368 69.752 130.709 69.9653 131.264 70.392C131.84 70.8187 132.373 71.2667 132.864 71.736C133.376 72.184 133.632 72.4827 133.632 72.632C133.547 72.9733 133.269 73.144 132.8 73.144H121.76L121.408 76.664H126.048L126.688 75.864ZM129.888 93.368C130.016 93.2187 130.144 93.048 130.272 92.856C130.421 92.664 130.56 92.4933 130.688 92.344C130.816 92.1947 130.923 92.12 131.008 92.12C131.136 92.12 131.477 92.3333 132.032 92.76C132.608 93.1867 133.141 93.6347 133.632 94.104C134.123 94.552 134.368 94.8507 134.368 95C134.283 95.3413 133.995 95.512 133.504 95.512H110.912V96.76C110.912 96.9307 110.645 97.1227 110.112 97.336C109.579 97.5707 109.056 97.688 108.544 97.688C108.288 97.688 108.075 97.624 107.904 97.496C107.755 97.368 107.68 97.2187 107.68 97.048C107.765 95.7893 107.84 94.5733 107.904 93.4C107.968 92.2053 108.011 90.648 108.032 88.728V83.512C108.032 80.824 107.893 78.6373 107.616 76.952C109.152 77.3147 110.219 77.6133 110.816 77.848C111.413 78.0613 111.712 78.2533 111.712 78.424C111.712 78.488 111.627 78.584 111.456 78.712L110.912 79.064V94.616H128.992L129.888 93.368ZM126.368 81.048V77.592H117.312V81.048H126.368ZM126.368 81.976H117.312V85.464H126.368V81.976ZM117.312 86.392V90.008H126.368V86.392H117.312ZM162.176 80.088C162.261 79.9813 162.379 79.8213 162.528 79.608C162.699 79.3947 162.827 79.2347 162.912 79.128C163.019 79.0213 163.115 78.968 163.2 78.968C163.328 78.968 163.637 79.16 164.128 79.544C164.64 79.9067 165.109 80.3013 165.536 80.728C165.984 81.1547 166.208 81.4427 166.208 81.592C166.144 81.9333 165.867 82.104 165.376 82.104H156.96C156.789 83.1067 156.555 83.992 156.256 84.76C158.219 85.1867 159.819 85.7627 161.056 86.488C162.315 87.2133 163.221 87.9813 163.776 88.792C164.352 89.5813 164.64 90.3173 164.64 91C164.64 91.4907 164.512 91.896 164.256 92.216C164 92.5147 163.659 92.664 163.232 92.664C162.976 92.664 162.656 92.5787 162.272 92.408C161.739 91.2773 160.885 90.0827 159.712 88.824C158.539 87.5653 157.301 86.4453 156 85.464C155.317 87.0427 154.24 88.4293 152.768 89.624C151.317 90.8187 149.323 91.8533 146.784 92.728L146.432 92.28C148.907 91 150.699 89.5493 151.808 87.928C152.917 86.2853 153.621 84.344 153.92 82.104H151.456C150.005 82.1253 148.491 82.2747 146.912 82.552L146.08 80.92C147.253 81.048 148.672 81.1333 150.336 81.176H154.016C154.101 80.28 154.165 78.8613 154.208 76.92V76.056H151.776C150.325 76.0773 148.832 76.2267 147.296 76.504L146.464 74.872C147.637 75 149.056 75.0853 150.72 75.128H156.864L157.248 74.2C157.632 73.1973 157.984 72.0773 158.304 70.84C158.624 69.5813 158.837 68.5147 158.944 67.64C161.696 68.6853 163.072 69.3467 163.072 69.624C163.072 69.688 162.976 69.7627 162.784 69.848L162.176 70.04C160.64 72.152 159.168 73.848 157.76 75.128H161.088L161.856 74.072C161.963 73.944 162.069 73.8053 162.176 73.656C162.304 73.4853 162.421 73.336 162.528 73.208C162.656 73.08 162.763 73.016 162.848 73.016C162.976 73.016 163.285 73.1973 163.776 73.56C164.267 73.9227 164.725 74.3067 165.152 74.712C165.579 75.1173 165.792 75.3947 165.792 75.544C165.728 75.8853 165.461 76.056 164.992 76.056H157.408C157.365 77.9973 157.259 79.704 157.088 81.176H161.376L162.176 80.088ZM149.504 68.12C151.147 68.632 152.341 69.2827 153.088 70.072C153.856 70.8613 154.24 71.6613 154.24 72.472C154.24 73.0053 154.091 73.4533 153.792 73.816C153.493 74.1573 153.12 74.328 152.672 74.328C152.224 74.328 151.808 74.1467 151.424 73.784C151.36 72.9093 151.115 71.9707 150.688 70.968C150.261 69.9653 149.771 69.08 149.216 68.312L149.504 68.12ZM139.072 68.984C141.12 69.4747 142.624 70.1787 143.584 71.096C144.544 71.992 145.024 72.8987 145.024 73.816C145.024 74.3067 144.885 74.7227 144.608 75.064C144.331 75.384 143.979 75.544 143.552 75.544C143.125 75.544 142.72 75.3947 142.336 75.096C142.123 74.1573 141.675 73.144 140.992 72.056C140.331 70.968 139.605 70.0187 138.816 69.208L139.072 68.984ZM142.208 80.792C142.293 80.6853 142.4 80.536 142.528 80.344C142.677 80.152 142.795 80.0133 142.88 79.928C142.965 79.8213 143.051 79.768 143.136 79.768C143.264 79.768 143.584 79.9707 144.096 80.376C144.629 80.7813 145.12 81.208 145.568 81.656C146.037 82.104 146.272 82.4027 146.272 82.552C145.995 82.872 145.472 83.0853 144.704 83.192V91.416C145.429 92.184 146.187 92.76 146.976 93.144C147.787 93.528 148.747 93.784 149.856 93.912C150.987 94.04 152.523 94.104 154.464 94.104C159.947 94.104 163.925 94.0613 166.4 93.976V94.392C165.248 94.648 164.587 95.512 164.416 96.984H154.496C152.491 96.984 150.891 96.8453 149.696 96.568C148.501 96.312 147.477 95.8213 146.624 95.096C145.792 94.392 145.024 93.3467 144.32 91.96C143.744 92.728 143.008 93.592 142.112 94.552C141.237 95.512 140.459 96.312 139.776 96.952V97.048C139.776 97.304 139.627 97.528 139.328 97.72L137.632 94.168C138.763 93.7413 140.213 93.0907 141.984 92.216V82.776H140.608C139.819 82.7973 139.008 82.9467 138.176 83.224L137.44 81.56C138.208 81.688 139.147 81.7733 140.256 81.816H141.536L142.208 80.792Z" fill="white"/>
<path d="M45.872 131.816C46 131.816 46.2987 132.008 46.768 132.392C47.2373 132.755 47.6747 133.149 48.08 133.576C48.5067 134.003 48.72 134.291 48.72 134.44C48.6347 134.781 48.3573 134.952 47.888 134.952H41.776V137.608C41.8187 139.763 41.8827 141.459 41.968 142.696C41.8613 142.931 41.5733 143.144 41.104 143.336C40.656 143.549 40.112 143.656 39.472 143.656C39.2373 143.656 39.056 143.592 38.928 143.464C38.8 143.336 38.736 143.187 38.736 143.016C38.864 141.331 38.9493 139.613 38.992 137.864V134.952H37.296C36.336 134.973 35.3333 135.123 34.288 135.4L33.488 133.832L33.552 134.76C33.36 134.952 33.04 135.144 32.592 135.336C32.1653 135.507 31.7387 135.592 31.312 135.592H30.832V134.312H23.952V135.368C23.952 135.432 23.856 135.539 23.664 135.688C23.4933 135.816 23.248 135.933 22.928 136.04C22.6293 136.125 22.288 136.168 21.904 136.168C21.6907 136.168 21.5093 136.104 21.36 135.976C21.232 135.848 21.168 135.699 21.168 135.528C21.2533 134.376 21.3173 133.245 21.36 132.136C21.424 131.027 21.4667 129.619 21.488 127.912V123.752C20.912 124.349 20.3467 124.872 19.792 125.32L19.376 125.064C20.272 123.741 21.104 122.163 21.872 120.328C22.2987 119.368 22.6933 118.237 23.056 116.936C23.4187 115.613 23.632 114.504 23.696 113.608C25.1253 114.077 26.1173 114.44 26.672 114.696C27.2267 114.952 27.504 115.144 27.504 115.272C27.504 115.379 27.4187 115.464 27.248 115.528L26.672 115.752C26.5653 116.008 26.384 116.392 26.128 116.904L25.744 117.736H27.984L28.656 116.968C28.7627 116.861 28.912 116.701 29.104 116.488C29.296 116.275 29.456 116.168 29.584 116.168C29.712 116.168 29.9787 116.349 30.384 116.712C30.7893 117.075 31.1733 117.469 31.536 117.896C31.8987 118.301 32.08 118.579 32.08 118.728C31.9733 118.856 31.8347 118.941 31.664 118.984C31.4933 119.005 31.2373 119.027 30.896 119.048C30.7893 119.176 30.3627 119.645 29.616 120.456C28.8907 121.267 28.1973 121.981 27.536 122.6H30.896L31.44 121.832C31.4827 121.768 31.5573 121.661 31.664 121.512C31.7707 121.363 31.8667 121.256 31.952 121.192C32.0373 121.107 32.1227 121.064 32.208 121.064C32.4 121.064 32.8053 121.395 33.424 122.056C34.064 122.717 34.384 123.165 34.384 123.4C34.1707 123.699 33.808 123.891 33.296 123.976V127.624C33.36 130.504 33.424 132.563 33.488 133.8C34.512 133.928 35.7493 134.013 37.2 134.056H38.992V128.2H37.52C36.6667 128.221 35.792 128.371 34.896 128.648L34.096 127.016C35.0133 127.144 36.1227 127.229 37.424 127.272H38.992V121.896H37.328C36.368 121.917 35.3867 122.067 34.384 122.344L33.584 120.712C34.7573 120.84 36.176 120.925 37.84 120.968H40.656L40.976 120.168C41.3387 119.123 41.648 118.003 41.904 116.808C42.1813 115.592 42.3307 114.568 42.352 113.736C44.976 114.44 46.288 114.931 46.288 115.208C46.288 115.293 46.192 115.379 46 115.464L45.424 115.72C44.9333 116.531 44.3253 117.416 43.6 118.376C42.8747 119.336 42.16 120.2 41.456 120.968H43.696L44.432 119.912C44.5173 119.805 44.624 119.656 44.752 119.464C44.9013 119.251 45.0187 119.101 45.104 119.016C45.2107 118.909 45.3067 118.856 45.392 118.856C45.52 118.856 45.8187 119.037 46.288 119.4C46.7573 119.763 47.1947 120.147 47.6 120.552C48.0053 120.957 48.208 121.235 48.208 121.384C48.144 121.725 47.8773 121.896 47.408 121.896H41.776V127.272H43.376L44.112 126.184C44.2187 126.035 44.336 125.864 44.464 125.672C44.6133 125.459 44.7307 125.309 44.816 125.224C44.9227 125.117 45.0187 125.064 45.104 125.064C45.232 125.064 45.5307 125.256 46 125.64C46.4693 126.003 46.9067 126.397 47.312 126.824C47.7173 127.251 47.92 127.539 47.92 127.688C47.8347 128.029 47.5573 128.2 47.088 128.2H41.776V134.056H44.144L44.88 132.936C44.9867 132.787 45.104 132.616 45.232 132.424C45.3813 132.211 45.4987 132.061 45.584 131.976C45.6907 131.869 45.7867 131.816 45.872 131.816ZM37.712 120.296C37.2853 120.296 36.9013 120.136 36.56 119.816C36.5387 118.963 36.3147 118.045 35.888 117.064C35.4613 116.061 34.96 115.176 34.384 114.408L34.736 114.216C36.2293 114.771 37.328 115.453 38.032 116.264C38.736 117.053 39.088 117.832 39.088 118.6C39.088 119.091 38.9493 119.496 38.672 119.816C38.416 120.136 38.096 120.296 37.712 120.296ZM24.368 122.6H26.8C26.9493 122.216 27.248 121.309 27.696 119.88L28.08 118.664H25.2C24.5387 119.88 23.8027 121 22.992 122.024L24.368 122.6ZM23.952 127.848H26.224V123.528H23.952V127.848ZM28.368 127.848H30.832V123.528H28.368V127.848ZM23.952 133.416H26.224V128.744H23.952V133.416ZM28.368 133.416H30.832V128.744H28.368V133.416ZM30.96 136.072C32.3467 136.563 33.36 137.192 34 137.96C34.64 138.707 34.96 139.443 34.96 140.168C34.96 140.637 34.8427 141.021 34.608 141.32C34.3733 141.619 34.0747 141.768 33.712 141.768C33.3707 141.768 33.0507 141.629 32.752 141.352C32.752 140.52 32.5387 139.635 32.112 138.696C31.7067 137.757 31.2053 136.957 30.608 136.296L30.96 136.072ZM27.92 136.392C29.008 137.075 29.7973 137.8 30.288 138.568C30.8 139.336 31.056 140.061 31.056 140.744C31.056 141.235 30.9387 141.629 30.704 141.928C30.4693 142.248 30.1813 142.408 29.84 142.408C29.52 142.408 29.2 142.248 28.88 141.928C28.9013 141.117 28.7733 140.221 28.496 139.24C28.24 138.259 27.92 137.363 27.536 136.552L27.92 136.392ZM22.768 136.488C23.1093 137.512 23.28 138.547 23.28 139.592C23.28 140.424 23.1627 141.149 22.928 141.768C22.7147 142.387 22.4267 142.867 22.064 143.208C21.7013 143.528 21.2853 143.688 20.816 143.688C20.2827 143.688 19.9093 143.485 19.696 143.08C19.6107 142.909 19.568 142.717 19.568 142.504C19.568 142.227 19.6533 141.949 19.824 141.672C19.9947 141.395 20.2293 141.16 20.528 140.968C20.9973 140.563 21.4133 139.933 21.776 139.08C22.1387 138.205 22.3093 137.331 22.288 136.456L22.768 136.488ZM25.072 136.616C25.8187 137.341 26.3627 138.077 26.704 138.824C27.0453 139.549 27.216 140.221 27.216 140.84C27.216 141.459 27.0773 141.96 26.8 142.344C26.544 142.749 26.224 142.952 25.84 142.952C25.4773 142.952 25.1467 142.76 24.848 142.376C24.9547 141.821 25.008 141.107 25.008 140.232C25.008 138.867 24.88 137.704 24.624 136.744L25.072 136.616ZM76.368 122.44C76.4533 122.333 76.56 122.173 76.688 121.96C76.8373 121.747 76.9547 121.587 77.04 121.48C77.1467 121.373 77.2427 121.32 77.328 121.32C77.456 121.32 77.744 121.512 78.192 121.896C78.6613 122.259 79.0987 122.653 79.504 123.08C79.9093 123.507 80.112 123.795 80.112 123.944C80.0267 124.285 79.7493 124.456 79.28 124.456H73.04V126.344L73.072 127.464C73.0933 128.317 73.136 129.139 73.2 129.928C73.1147 130.141 72.7947 130.365 72.24 130.6C71.7067 130.835 71.1733 130.952 70.64 130.952C70.2773 130.952 70.096 130.739 70.096 130.312C70.1173 130.248 70.128 130.184 70.128 130.12C70.1493 130.035 70.1707 129.949 70.192 129.864V129.32H65.136V130.312C65.136 130.461 64.8693 130.643 64.336 130.856C63.824 131.069 63.3227 131.176 62.832 131.176C62.6187 131.176 62.448 131.112 62.32 130.984C62.2133 130.856 62.16 130.707 62.16 130.536C62.2667 129.576 62.3413 128.296 62.384 126.696V124.456H57.456V126.312C57.456 128.68 57.3493 130.824 57.136 132.744C56.9227 134.643 56.4213 136.563 55.632 138.504C54.8427 140.424 53.6587 142.131 52.08 143.624L51.696 143.336C52.912 141.117 53.7013 138.643 54.064 135.912C54.448 133.16 54.64 129.96 54.64 126.312V121.48C54.64 119.453 54.5333 117.8 54.32 116.52L57.936 118.184H65.392C65.392 116.328 65.3067 114.877 65.136 113.832C66.5867 114.173 67.6 114.461 68.176 114.696C68.752 114.909 69.04 115.091 69.04 115.24C69.04 115.325 68.9547 115.421 68.784 115.528L68.208 115.88V118.184H75.248L76.048 117C76.1547 116.851 76.272 116.691 76.4 116.52C76.528 116.328 76.656 116.168 76.784 116.04C76.912 115.891 77.0187 115.816 77.104 115.816C77.232 115.816 77.5413 116.019 78.032 116.424C78.544 116.808 79.0133 117.224 79.44 117.672C79.888 118.12 80.112 118.419 80.112 118.568C80.048 118.909 79.7707 119.08 79.28 119.08H57.456V123.528H62.384C62.384 122.077 62.3093 120.872 62.16 119.912C63.568 120.275 64.5387 120.563 65.072 120.776C65.6053 120.989 65.872 121.171 65.872 121.32C65.872 121.384 65.7973 121.469 65.648 121.576L65.136 121.896V123.528H70.192C70.192 122.077 70.1173 120.872 69.968 119.912C71.4187 120.275 72.4107 120.563 72.944 120.776C73.4987 120.989 73.776 121.171 73.776 121.32C73.776 121.384 73.7013 121.469 73.552 121.576L73.04 121.864V123.528H75.632L76.368 122.44ZM70.192 128.392V124.456H65.136V128.392H70.192ZM70.192 138.696C72.9653 139.677 76.4 140.285 80.496 140.52V140.904C79.8773 141.053 79.376 141.373 78.992 141.864C78.608 142.355 78.3413 142.973 78.192 143.72C73.7333 142.995 70.2667 141.811 67.792 140.168C64.4 141.939 60.2293 143.112 55.28 143.688L55.088 143.208C59.4613 142.205 63.12 140.755 66.064 138.856C64.4 137.405 63.0773 135.56 62.096 133.32H60.912C60.272 133.341 59.6107 133.491 58.928 133.768L58.064 132.136C59.2373 132.264 60.656 132.349 62.32 132.392H71.824L72.688 131.656C72.7947 131.571 72.9653 131.432 73.2 131.24C73.456 131.027 73.648 130.92 73.776 130.92C73.904 130.92 74.1813 131.101 74.608 131.464C75.0347 131.805 75.4293 132.179 75.792 132.584C76.176 132.989 76.368 133.267 76.368 133.416C76.2613 133.565 76.112 133.672 75.92 133.736C75.728 133.779 75.4293 133.811 75.024 133.832C73.744 135.709 72.1333 137.331 70.192 138.696ZM62.832 133.32C64.0053 135.112 65.6587 136.563 67.792 137.672C69.4773 136.328 70.7893 134.877 71.728 133.32H62.832ZM100.34 142.036C99.3133 142.036 98.1747 141.849 96.924 141.476C95.692 141.121 94.628 140.552 93.732 139.768C92.836 138.965 92.388 137.967 92.388 136.772C92.388 135.969 92.5747 135.157 92.948 134.336C93.34 133.496 93.8813 132.693 94.572 131.928L93.62 132.6C93.2653 132.861 92.7053 133.263 91.94 133.804C91.1933 134.345 90.6893 134.719 90.428 134.924C90.036 135.26 89.6067 135.428 89.14 135.428C88.636 135.428 88.1973 135.241 87.824 134.868C87.4693 134.495 87.292 134.075 87.292 133.608C87.292 133.067 87.5347 132.553 88.02 132.068C88.132 131.937 88.7387 131.284 89.84 130.108C91.52 128.335 92.9387 126.804 94.096 125.516C95.2533 124.228 96.2147 123.015 96.98 121.876C97.428 121.223 97.652 120.737 97.652 120.42C97.652 120.233 97.6053 120.084 97.512 119.972C97.4373 119.841 97.3253 119.776 97.176 119.776C96.8587 119.776 96.5133 119.963 96.14 120.336C95.916 120.56 95.6173 120.933 95.244 121.456C94.852 122.016 94.5067 122.427 94.208 122.688C93.9093 122.949 93.5453 123.08 93.116 123.08C92.2013 123.08 91.324 122.203 90.484 120.448C90.4093 120.28 90.372 120.131 90.372 120C90.372 119.869 90.4187 119.804 90.512 119.804C90.568 119.804 90.764 119.888 91.1 120.056C91.5293 120.317 91.9773 120.448 92.444 120.448C92.8173 120.448 93.396 120.28 94.18 119.944C94.964 119.608 95.6547 119.263 96.252 118.908C96.588 118.721 96.9053 118.628 97.204 118.628C97.6147 118.628 98.0907 118.777 98.632 119.076C99.192 119.375 99.6587 119.767 100.032 120.252C100.424 120.719 100.62 121.185 100.62 121.652C100.62 121.932 100.536 122.175 100.368 122.38C100.2 122.585 99.9107 122.847 99.5 123.164L98.968 123.584C98.6133 123.883 98.2307 124.191 97.82 124.508C97.4093 124.825 97.0267 125.133 96.672 125.432C94.3387 127.299 92.472 128.839 91.072 130.052C89.6907 131.265 89 132.077 89 132.488C89 132.6 89.0373 132.693 89.112 132.768C89.1867 132.843 89.28 132.88 89.392 132.88C89.4853 132.88 89.6813 132.815 89.98 132.684C90.2973 132.535 90.6147 132.376 90.932 132.208L92.108 131.62C93.844 130.761 95.5987 129.875 97.372 128.96C98.4547 128.381 99.248 127.98 99.752 127.756C100.256 127.532 100.769 127.42 101.292 127.42C102.039 127.42 102.729 127.635 103.364 128.064C104.017 128.493 104.344 129.007 104.344 129.604C104.344 129.94 104.213 130.173 103.952 130.304C103.691 130.435 103.299 130.5 102.776 130.5L101.544 130.472C100.555 130.472 99.5187 130.584 98.436 130.808C97.3533 131.013 96.5133 131.405 95.916 131.984C95.0947 132.731 94.4787 133.421 94.068 134.056C93.6573 134.672 93.452 135.316 93.452 135.988C93.452 136.921 93.9373 137.64 94.908 138.144C95.8787 138.648 97.1387 138.965 98.688 139.096L99.92 139.152C100.536 139.189 101.049 139.395 101.46 139.768C101.889 140.123 102.104 140.496 102.104 140.888C102.104 141.317 101.936 141.616 101.6 141.784C101.264 141.952 100.844 142.036 100.34 142.036ZM124.476 121.4C126.119 121.4 127.743 121.727 129.348 122.38C130.953 123.033 132.288 124.088 133.352 125.544C134.416 126.981 134.948 128.811 134.948 131.032C134.948 133.552 134.211 135.587 132.736 137.136C131.28 138.667 129.507 139.749 127.416 140.384C125.344 141.019 123.291 141.336 121.256 141.336C120.789 141.336 120.556 141.289 120.556 141.196C120.556 141.121 120.724 141.056 121.06 141C121.396 140.925 121.592 140.879 121.648 140.86C124.728 140.356 127.257 139.264 129.236 137.584C131.215 135.904 132.204 133.664 132.204 130.864C132.204 128.68 131.747 126.953 130.832 125.684C129.936 124.396 128.872 123.509 127.64 123.024C126.408 122.539 125.241 122.296 124.14 122.296C123.879 122.296 123.683 122.305 123.552 122.324C123.776 122.809 123.972 123.416 124.14 124.144C124.308 124.872 124.392 125.553 124.392 126.188C124.392 126.879 124.308 127.681 124.14 128.596C123.991 129.511 123.729 130.425 123.356 131.34C122.777 132.852 122.096 134.196 121.312 135.372C120.528 136.548 119.753 137.453 118.988 138.088C118.241 138.723 117.616 139.04 117.112 139.04C116.421 139.04 115.759 138.685 115.124 137.976C114.508 137.248 114.004 136.333 113.612 135.232C113.239 134.112 113.052 132.992 113.052 131.872C113.052 129.781 113.603 127.943 114.704 126.356C115.824 124.769 117.261 123.547 119.016 122.688C120.789 121.829 122.609 121.4 124.476 121.4ZM123.356 124.424C123.356 123.752 123.263 123.061 123.076 122.352C121.601 122.52 120.257 123.015 119.044 123.836C117.831 124.657 116.869 125.712 116.16 127C115.451 128.269 115.096 129.641 115.096 131.116C115.096 132.143 115.227 133.02 115.488 133.748C115.749 134.457 116.057 134.989 116.412 135.344C116.767 135.699 117.056 135.876 117.28 135.876C117.709 135.876 118.232 135.549 118.848 134.896C119.464 134.243 120.061 133.459 120.64 132.544C121.611 131.069 122.301 129.697 122.712 128.428C123.141 127.159 123.356 125.824 123.356 124.424ZM153.764 136.492C155.164 136.959 156.321 137.537 157.236 138.228C158.151 138.919 158.608 139.675 158.608 140.496C158.608 140.869 158.515 141.159 158.328 141.364C158.141 141.569 157.927 141.672 157.684 141.672C157.46 141.672 157.217 141.588 156.956 141.42C156.695 141.271 156.405 141.047 156.088 140.748C155.061 139.815 154.287 139.143 153.764 138.732C153.521 139.721 152.98 140.505 152.14 141.084C151.319 141.663 150.311 141.952 149.116 141.952C147.903 141.952 146.839 141.681 145.924 141.14C145.028 140.617 144.58 139.861 144.58 138.872C144.58 138.219 144.804 137.649 145.252 137.164C145.7 136.66 146.279 136.287 146.988 136.044C147.716 135.783 148.453 135.652 149.2 135.652C149.965 135.652 150.759 135.745 151.58 135.932C151.561 135.465 151.533 135.017 151.496 134.588C151.459 134.159 151.431 133.767 151.412 133.412L151.328 132.068C150.581 132.18 149.844 132.236 149.116 132.236C147.996 132.236 146.988 131.984 146.092 131.48C145.215 130.976 144.599 130.295 144.244 129.436C144.188 129.268 144.16 129.165 144.16 129.128C144.16 129.035 144.197 128.988 144.272 128.988C144.328 128.988 144.393 129.016 144.468 129.072C144.543 129.128 144.599 129.165 144.636 129.184C144.916 129.371 145.439 129.595 146.204 129.856C146.969 130.117 147.763 130.248 148.584 130.248C149.405 130.248 150.292 130.173 151.244 130.024V129.94C151.244 128.316 151.291 126.944 151.384 125.824C150.675 125.824 150.096 125.712 149.648 125.488C149.237 125.283 148.827 124.993 148.416 124.62C148.005 124.247 147.679 123.901 147.436 123.584C147.399 123.528 147.343 123.444 147.268 123.332C147.212 123.22 147.184 123.145 147.184 123.108C147.184 123.033 147.221 122.996 147.296 122.996C147.352 122.996 147.529 123.061 147.828 123.192C148.276 123.416 148.668 123.593 149.004 123.724C149.359 123.836 149.732 123.892 150.124 123.892C150.46 123.892 150.973 123.827 151.664 123.696C151.683 123.547 151.72 123.285 151.776 122.912C151.832 122.539 151.86 122.212 151.86 121.932C151.86 121.297 151.72 120.672 151.44 120.056C151.272 119.701 151.057 119.403 150.796 119.16C150.553 118.917 150.432 118.74 150.432 118.628C150.432 118.497 150.516 118.404 150.684 118.348C150.871 118.273 151.076 118.236 151.3 118.236C151.655 118.236 152.056 118.32 152.504 118.488C152.952 118.656 153.335 118.908 153.652 119.244C153.988 119.58 154.156 119.981 154.156 120.448C154.156 120.672 154.1 120.943 153.988 121.26C153.876 121.559 153.801 121.745 153.764 121.82C153.521 122.399 153.363 122.847 153.288 123.164L153.26 123.304L154.66 122.912C154.959 122.837 155.173 122.8 155.304 122.8C155.584 122.8 155.808 122.875 155.976 123.024C156.144 123.155 156.228 123.351 156.228 123.612C156.228 123.873 156.125 124.135 155.92 124.396C155.715 124.657 155.453 124.863 155.136 125.012C154.557 125.292 153.82 125.516 152.924 125.684C152.849 126.337 152.812 127.056 152.812 127.84C152.793 128.045 152.784 128.363 152.784 128.792V129.716C153.661 129.492 154.333 129.212 154.8 128.876C155.061 128.708 155.192 128.512 155.192 128.288C155.192 128.139 155.145 127.989 155.052 127.84C154.959 127.691 154.837 127.532 154.688 127.364C154.539 127.177 154.417 127.019 154.324 126.888C154.268 126.813 154.212 126.739 154.156 126.664C154.1 126.571 154.072 126.505 154.072 126.468C154.072 126.412 154.1 126.384 154.156 126.384C154.231 126.384 154.399 126.487 154.66 126.692C155.239 127.14 155.873 127.392 156.564 127.448C156.788 127.467 157.021 127.476 157.264 127.476C157.6 127.513 157.861 127.635 158.048 127.84C158.179 127.971 158.244 128.195 158.244 128.512C158.244 128.904 158.132 129.287 157.908 129.66C157.703 130.015 157.367 130.304 156.9 130.528C155.799 131.032 154.455 131.443 152.868 131.76C152.943 132.395 153.045 133.048 153.176 133.72C153.325 134.373 153.419 134.803 153.456 135.008L153.764 136.492ZM148.444 140.216C149.359 140.216 150.105 139.973 150.684 139.488C151.281 138.984 151.608 138.331 151.664 137.528C150.805 137.173 149.909 136.996 148.976 136.996C148.08 136.996 147.305 137.155 146.652 137.472C146.017 137.771 145.7 138.191 145.7 138.732C145.7 139.087 145.924 139.423 146.372 139.74C146.839 140.057 147.529 140.216 148.444 140.216ZM181.764 136.492C183.164 136.959 184.321 137.537 185.236 138.228C186.151 138.919 186.608 139.675 186.608 140.496C186.608 140.869 186.515 141.159 186.328 141.364C186.141 141.569 185.927 141.672 185.684 141.672C185.46 141.672 185.217 141.588 184.956 141.42C184.695 141.271 184.405 141.047 184.088 140.748C183.061 139.815 182.287 139.143 181.764 138.732C181.521 139.721 180.98 140.505 180.14 141.084C179.319 141.663 178.311 141.952 177.116 141.952C175.903 141.952 174.839 141.681 173.924 141.14C173.028 140.617 172.58 139.861 172.58 138.872C172.58 138.219 172.804 137.649 173.252 137.164C173.7 136.66 174.279 136.287 174.988 136.044C175.716 135.783 176.453 135.652 177.2 135.652C177.965 135.652 178.759 135.745 179.58 135.932C179.561 135.465 179.533 135.017 179.496 134.588C179.459 134.159 179.431 133.767 179.412 133.412L179.328 132.068C178.581 132.18 177.844 132.236 177.116 132.236C175.996 132.236 174.988 131.984 174.092 131.48C173.215 130.976 172.599 130.295 172.244 129.436C172.188 129.268 172.16 129.165 172.16 129.128C172.16 129.035 172.197 128.988 172.272 128.988C172.328 128.988 172.393 129.016 172.468 129.072C172.543 129.128 172.599 129.165 172.636 129.184C172.916 129.371 173.439 129.595 174.204 129.856C174.969 130.117 175.763 130.248 176.584 130.248C177.405 130.248 178.292 130.173 179.244 130.024V129.94C179.244 128.316 179.291 126.944 179.384 125.824C178.675 125.824 178.096 125.712 177.648 125.488C177.237 125.283 176.827 124.993 176.416 124.62C176.005 124.247 175.679 123.901 175.436 123.584C175.399 123.528 175.343 123.444 175.268 123.332C175.212 123.22 175.184 123.145 175.184 123.108C175.184 123.033 175.221 122.996 175.296 122.996C175.352 122.996 175.529 123.061 175.828 123.192C176.276 123.416 176.668 123.593 177.004 123.724C177.359 123.836 177.732 123.892 178.124 123.892C178.46 123.892 178.973 123.827 179.664 123.696C179.683 123.547 179.72 123.285 179.776 122.912C179.832 122.539 179.86 122.212 179.86 121.932C179.86 121.297 179.72 120.672 179.44 120.056C179.272 119.701 179.057 119.403 178.796 119.16C178.553 118.917 178.432 118.74 178.432 118.628C178.432 118.497 178.516 118.404 178.684 118.348C178.871 118.273 179.076 118.236 179.3 118.236C179.655 118.236 180.056 118.32 180.504 118.488C180.952 118.656 181.335 118.908 181.652 119.244C181.988 119.58 182.156 119.981 182.156 120.448C182.156 120.672 182.1 120.943 181.988 121.26C181.876 121.559 181.801 121.745 181.764 121.82C181.521 122.399 181.363 122.847 181.288 123.164L181.26 123.304L182.66 122.912C182.959 122.837 183.173 122.8 183.304 122.8C183.584 122.8 183.808 122.875 183.976 123.024C184.144 123.155 184.228 123.351 184.228 123.612C184.228 123.873 184.125 124.135 183.92 124.396C183.715 124.657 183.453 124.863 183.136 125.012C182.557 125.292 181.82 125.516 180.924 125.684C180.849 126.337 180.812 127.056 180.812 127.84C180.793 128.045 180.784 128.363 180.784 128.792V129.716C181.661 129.492 182.333 129.212 182.8 128.876C183.061 128.708 183.192 128.512 183.192 128.288C183.192 128.139 183.145 127.989 183.052 127.84C182.959 127.691 182.837 127.532 182.688 127.364C182.539 127.177 182.417 127.019 182.324 126.888C182.268 126.813 182.212 126.739 182.156 126.664C182.1 126.571 182.072 126.505 182.072 126.468C182.072 126.412 182.1 126.384 182.156 126.384C182.231 126.384 182.399 126.487 182.66 126.692C183.239 127.14 183.873 127.392 184.564 127.448C184.788 127.467 185.021 127.476 185.264 127.476C185.6 127.513 185.861 127.635 186.048 127.84C186.179 127.971 186.244 128.195 186.244 128.512C186.244 128.904 186.132 129.287 185.908 129.66C185.703 130.015 185.367 130.304 184.9 130.528C183.799 131.032 182.455 131.443 180.868 131.76C180.943 132.395 181.045 133.048 181.176 133.72C181.325 134.373 181.419 134.803 181.456 135.008L181.764 136.492ZM176.444 140.216C177.359 140.216 178.105 139.973 178.684 139.488C179.281 138.984 179.608 138.331 179.664 137.528C178.805 137.173 177.909 136.996 176.976 136.996C176.08 136.996 175.305 137.155 174.652 137.472C174.017 137.771 173.7 138.191 173.7 138.732C173.7 139.087 173.924 139.423 174.372 139.74C174.839 140.057 175.529 140.216 176.444 140.216Z" fill="white"/>
</svg>
