<svg width="37" height="37" viewBox="0 0 37 37" fill="none" xmlns="http://www.w3.org/2000/svg">
<circle cx="18.5" cy="18.5" r="17.5" fill="white" stroke="#E25C55" stroke-width="2"/>
<path d="M28.776 26.216C28.8507 26.216 28.8973 26.2627 28.916 26.356C28.9347 26.4307 28.944 26.5147 28.944 26.608C28.944 26.8693 28.888 27 28.776 27H20.824C20.7493 27 20.6933 26.972 20.656 26.916C20.6373 26.8413 20.628 26.7387 20.628 26.608C20.628 26.4773 20.6373 26.384 20.656 26.328C20.6933 26.2533 20.7493 26.216 20.824 26.216C21.5333 26.216 22.1493 26.1133 22.672 25.908C23.1947 25.684 23.456 25.292 23.456 24.732C23.456 24.508 23.4187 24.2933 23.344 24.088L21.804 19.664H14.076L12.816 23.248C12.648 23.7147 12.564 24.1253 12.564 24.48C12.564 25.6373 13.4507 26.216 15.224 26.216C15.2987 26.216 15.3453 26.2627 15.364 26.356C15.3827 26.4307 15.392 26.5147 15.392 26.608C15.392 26.8693 15.336 27 15.224 27H8.336C8.26133 27 8.20533 26.972 8.168 26.916C8.14933 26.8413 8.14 26.7387 8.14 26.608C8.14 26.4773 8.14933 26.384 8.168 26.328C8.20533 26.2533 8.26133 26.216 8.336 26.216C8.87733 26.216 9.428 26.02 9.988 25.628C10.548 25.236 11.0053 24.592 11.36 23.696L17.828 6.56L19.088 6.168C19.1813 6.168 19.2653 6.196 19.34 6.252C19.4333 6.308 19.4893 6.37333 19.508 6.448L20.46 9.22C21.0947 11.0307 22.0467 13.7747 23.316 17.452C24.604 21.1293 25.36 23.248 25.584 23.808C26.1813 25.4133 27.2453 26.216 28.776 26.216ZM21.44 18.6L18.052 8.8C16.932 11.8053 15.7373 15.072 14.468 18.6H21.44Z" fill="#E25C55"/>
</svg>
