<svg width="269" height="78" viewBox="0 0 269 78" fill="none" xmlns="http://www.w3.org/2000/svg">
<g clip-path="url(#clip0_120_187)">
<path d="M116.216 21.7918C116.429 21.7472 116.677 21.7137 116.925 21.7137C117.218 21.7137 117.477 21.7584 117.724 21.7918C117.938 21.8364 118.186 21.8699 118.479 21.8699C118.602 21.8699 118.771 21.8699 118.94 21.8253C119.064 21.7807 119.233 21.7807 119.357 21.7807C119.604 21.7807 119.863 21.8253 120.111 21.9033C120.325 21.9814 120.573 22.0706 120.82 22.1152C121.113 22.1598 121.451 22.1933 121.789 22.2379C122.081 22.2825 122.419 22.3606 122.712 22.4052C122.926 22.4498 123.095 22.5279 123.297 22.5725C123.466 22.6505 123.635 22.7398 123.838 22.7844C123.962 22.829 124.131 22.8624 124.39 22.9071C124.637 22.9517 124.896 23.0297 125.099 23.0743C125.313 23.1524 125.515 23.2416 125.729 23.3643C125.898 23.487 125.977 23.6543 125.977 23.8216C125.977 23.9442 125.932 24.1115 125.808 24.368C125.684 24.658 125.56 24.9145 125.392 25.1598C125.223 25.4498 125.054 25.6617 124.885 25.8624C124.671 26.0743 124.502 26.1524 124.378 26.1524C124.254 26.1524 124.131 26.1078 123.995 25.9851C123.872 25.9071 123.748 25.8624 123.579 25.8624C123.455 25.8624 123.331 26.0297 123.196 26.3197C123.027 26.6543 122.948 26.8662 122.948 26.9888C122.825 27.2007 122.734 27.4015 122.656 27.6134C122.577 27.8253 122.442 28.0706 122.318 28.2825C121.935 28.829 121.609 29.4089 121.271 29.9442C120.933 30.4795 120.561 31.0706 120.179 31.6059C120.055 31.7286 119.965 31.8959 119.841 32.0632C119.717 32.2751 119.627 32.4424 119.627 32.6097C119.627 32.7323 119.706 32.8996 119.875 33.0669C119.999 33.2342 120.212 33.4015 120.426 33.5242C120.64 33.6468 120.809 33.7695 121.012 33.8587C121.226 33.9814 121.35 34.026 121.473 34.026C121.597 34.1487 121.766 34.2714 121.98 34.3606C122.149 34.4387 122.318 34.5279 122.442 34.6505C122.734 34.8624 122.993 35.0632 123.241 35.2751C123.489 35.487 123.748 35.6877 124.041 35.8996C124.254 36.0669 124.457 36.2342 124.671 36.3569C124.885 36.4795 125.054 36.6468 125.256 36.8587C125.549 36.9814 125.842 37.1487 126.101 37.4052C126.349 37.6505 126.608 37.9071 126.81 38.1078C127.058 38.3978 127.351 38.6543 127.688 38.855C127.981 39.1004 128.24 39.4015 128.443 39.6914C128.488 39.7695 128.567 39.9368 128.69 40.1933C128.814 40.4387 128.983 40.6952 129.107 40.9405C129.231 41.2305 129.355 41.487 129.49 41.6877C129.614 41.9331 129.659 42.1004 129.659 42.145C129.704 42.2676 129.704 42.4349 129.704 42.5576V43.8067C129.704 43.8847 129.704 43.974 129.659 44.0186C129.614 44.0632 129.614 44.1413 129.614 44.1859C129.614 44.3531 129.659 44.5204 129.704 44.6877C129.749 44.855 129.749 45.0223 129.749 45.1896C129.749 45.4015 129.704 45.5242 129.58 45.5688C129.456 45.6134 129.242 45.6468 129.028 45.6468C128.904 45.6468 128.736 45.6468 128.612 45.6022H128.15C127.857 45.6022 127.565 45.6468 127.306 45.7695C127.013 45.8922 126.799 45.9814 126.675 45.9814C126.461 45.9814 126.382 45.8141 126.337 45.4795C126.292 45.1896 126.247 44.9331 126.247 44.8104C126.247 44.6877 126.247 44.6431 126.292 44.5985C126.292 44.5204 126.292 44.4312 126.337 44.3531C126.382 44.3085 126.382 44.2305 126.382 44.1413C126.382 44.052 126.337 43.8513 126.259 43.5613C126.18 43.2714 126.09 42.9814 125.966 42.6468C125.842 42.3123 125.752 42.0223 125.628 41.7323C125.504 41.4424 125.414 41.2751 125.38 41.1859C125.166 40.8959 124.964 40.6394 124.671 40.4387C124.378 40.2268 124.119 39.9814 123.827 39.7695C123.489 39.5242 123.072 39.145 122.521 38.6877C121.969 38.2305 121.383 37.7286 120.798 37.2714C120.167 36.8141 119.582 36.4349 118.985 36.0669C118.4 35.7323 117.893 35.565 117.477 35.565C117.263 35.565 117.06 35.6431 116.925 35.7769C116.801 35.8996 116.632 36.0669 116.508 36.2788C116.384 36.4461 116.216 36.658 115.923 36.9479C115.63 37.2379 115.337 37.5279 115 37.8178C114.617 38.1078 114.29 38.3978 113.986 38.6877C113.648 38.9777 113.401 39.1896 113.187 39.3123C112.973 39.4349 112.77 39.6022 112.556 39.7695C112.342 39.9368 112.14 40.1041 111.971 40.2714C111.926 40.3494 111.847 40.4387 111.802 40.5167C111.712 40.5948 111.633 40.684 111.509 40.7286C111.295 40.8513 111.093 40.9405 110.879 40.974C110.665 41.052 110.496 41.1859 110.293 41.3085C110.001 41.5204 109.742 41.7212 109.539 41.9331C109.325 42.145 109.077 42.3457 108.785 42.513C108.661 42.5911 108.537 42.6803 108.402 42.7249C108.278 42.7695 108.109 42.8476 107.985 42.8922C107.771 43.0149 107.569 43.1375 107.355 43.2714C107.141 43.394 106.893 43.4833 106.679 43.6059C106.555 43.6505 106.431 43.684 106.296 43.7286C106.172 43.7732 106.049 43.8513 105.914 43.8959C105.868 43.8959 105.745 43.9405 105.621 43.974C105.497 44.052 105.328 44.1413 105.204 44.2193C105.08 44.342 104.911 44.4312 104.788 44.5093C104.664 44.632 104.54 44.6766 104.45 44.7212C103.741 45.1338 103.02 45.4684 102.266 45.6803C101.511 45.8922 100.757 46.1375 99.9575 46.3494C99.6648 46.4275 99.3721 46.5613 99.0793 46.7286C98.7415 46.9405 98.4488 47.0186 98.1561 47.0186C97.8633 47.0186 97.6494 46.8513 97.5256 46.5613C97.4017 46.3494 97.2328 46.0149 97.0189 45.6022C96.805 45.223 96.6812 44.8996 96.6812 44.6431C96.6812 44.4758 96.76 44.3531 96.9288 44.2305C97.0977 44.1078 97.3117 44.0186 97.5143 43.9405C97.717 43.8624 97.9309 43.7732 98.1448 43.7286C98.3587 43.684 98.5614 43.6059 98.6965 43.5613C98.8204 43.5167 98.9442 43.4833 99.0793 43.4833C99.2032 43.5279 99.327 43.4833 99.4621 43.4387C99.5072 43.394 99.631 43.3606 99.7999 43.2714C99.9237 43.1933 100.093 43.1041 100.262 43.026C100.385 42.9479 100.554 42.8587 100.678 42.7807C100.802 42.7026 100.847 42.658 100.892 42.6134C101.106 42.4907 101.309 42.4015 101.523 42.368C101.736 42.3234 101.984 42.29 102.198 42.2453C102.322 42.2007 102.491 42.1227 102.615 42.0781C102.738 42.0334 102.862 41.9554 102.997 41.9108C103.459 41.6989 103.921 41.4535 104.349 41.1636C104.765 40.9182 105.227 40.6617 105.7 40.461C105.914 40.3383 106.161 40.171 106.375 40.0483C106.589 39.9256 106.837 39.7584 107.051 39.6357C107.175 39.5911 107.298 39.513 107.388 39.4238C107.433 39.3457 107.512 39.2565 107.636 39.1784C107.85 39.0111 108.098 38.8885 108.345 38.7658C108.559 38.6431 108.807 38.5539 109.055 38.4312C109.179 38.3866 109.269 38.3085 109.348 38.2193C109.426 38.1301 109.516 38.052 109.595 38.0074C109.674 37.9294 109.764 37.8401 109.888 37.7955C109.978 37.7509 110.057 37.7175 110.181 37.6729C110.305 37.6282 110.395 37.5502 110.473 37.461C110.518 37.3829 110.597 37.2937 110.721 37.2491C110.935 37.1264 111.059 36.9591 111.183 36.7918C111.262 36.6245 111.397 36.4572 111.521 36.3346C111.813 36 112.151 35.71 112.534 35.4647C112.872 35.2193 113.209 34.9182 113.502 34.5948C113.626 34.4721 113.75 34.3048 113.885 34.0929C114.009 33.9256 114.133 33.7584 114.268 33.6357C114.482 33.4238 114.684 33.223 114.898 33.0558C115.112 32.9331 115.315 32.7212 115.484 32.5093C115.608 32.2974 115.731 32.1301 115.866 31.9628C115.99 31.7955 116.08 31.6282 116.204 31.4163C116.283 31.2937 116.418 31.171 116.542 31.0818C116.666 31.0037 116.756 30.8699 116.835 30.7472C117.049 30.4572 117.218 30.1673 117.375 29.8327C117.499 29.5427 117.713 29.2528 117.927 28.9628C118.051 28.7509 118.265 28.5056 118.512 28.1264C118.726 27.7918 118.974 27.4238 119.188 27C119.402 26.6208 119.604 26.2528 119.773 25.8736C119.897 25.4944 119.987 25.2045 119.987 24.9591C119.987 24.8364 119.942 24.7918 119.818 24.7918C119.773 24.8364 119.65 24.8364 119.481 24.8364C119.312 24.8364 119.143 24.8364 119.019 24.7918C118.85 24.7472 118.681 24.7472 118.512 24.7472C118.467 24.7026 118.343 24.7026 118.175 24.7026C117.961 24.7026 117.713 24.7026 117.499 24.7472C117.285 24.7918 117.037 24.7918 116.824 24.7918H115.562C115.101 24.8364 114.684 24.8364 114.256 24.8364C113.119 24.8364 111.982 24.8364 110.845 24.7918H107.445C107.321 24.7918 107.152 24.7918 107.028 24.8364C106.904 24.881 106.735 24.9145 106.612 24.9145C106.364 24.9145 106.105 24.8699 105.902 24.8364C105.655 24.7918 105.396 24.7918 105.148 24.7918C105.024 24.7918 104.855 24.7918 104.731 24.8364C104.607 24.881 104.439 24.881 104.315 24.881H104.022C103.853 24.9256 103.729 24.881 103.684 24.8364C103.301 24.8364 103.099 24.6691 103.099 24.3792C103.099 24.2565 103.099 24.1338 103.144 24C103.189 23.8773 103.189 23.7546 103.189 23.6208V22.6171C103.189 22.3271 103.313 22.1152 103.527 21.9926C103.741 21.9145 103.943 21.8699 104.236 21.8699H106.172C106.341 21.8699 106.51 21.9145 106.634 21.9479C106.758 21.9926 106.927 22.026 107.096 22.026C107.31 22.026 107.557 22.026 107.771 21.9814C107.985 21.9368 108.188 21.9368 108.402 21.9368H109.618C110.034 21.9368 110.462 21.8922 110.834 21.8587C111.217 21.7807 111.588 21.7361 111.971 21.7361C112.264 21.7361 112.523 21.7807 112.815 21.8141C113.063 21.8587 113.322 21.8922 113.615 21.8922H115.506C115.754 21.8922 116.013 21.8476 116.216 21.7695V21.7918Z" fill="#231815"/>
<path d="M165.451 21.9591C165.451 21.9591 165.575 22.0372 165.698 22.0372C165.991 22.0372 166.25 22.0372 166.498 21.9926C166.746 21.948 167.004 21.948 167.297 21.948C167.635 21.948 167.973 21.9926 168.344 22.026C168.682 22.0707 169.02 22.1041 169.358 22.1041H170.202C170.495 22.1487 170.788 22.1822 171.046 22.2268C171.26 22.2714 171.598 22.3495 171.97 22.4721C172.353 22.5948 172.679 22.7175 173.062 22.8848C173.445 23.0521 173.737 23.264 174.03 23.4647C174.278 23.6766 174.413 23.922 174.413 24.1673C174.413 24.29 174.368 24.4127 174.289 24.6246C174.199 24.8364 174.12 25.0037 173.996 25.2045C173.872 25.4164 173.704 25.5837 173.58 25.7063C173.411 25.829 173.287 25.9182 173.163 25.9182C173.039 25.9182 172.949 25.8736 172.915 25.7956C172.882 25.7175 172.747 25.6729 172.623 25.6729H172.544C172.544 25.6729 172.499 25.7175 172.454 25.7175C172.409 25.7621 172.33 25.8848 172.206 26.0967C172.082 26.3086 171.958 26.5539 171.823 26.7993C171.699 27.0892 171.576 27.3457 171.441 27.5465C171.317 27.7918 171.272 27.9257 171.272 27.9591V28.0818C171.272 28.0818 171.227 28.2045 171.227 28.2491C171.182 28.2937 171.182 28.3718 171.182 28.4944C171.137 28.7398 171.103 28.9963 170.968 29.2417C170.844 29.5316 170.72 29.7881 170.585 29.9889C170.506 30.1115 170.416 30.2342 170.371 30.368C170.281 30.4907 170.202 30.6134 170.123 30.7472C169.999 30.8699 169.909 30.9926 169.785 31.0372C169.662 31.0818 169.538 31.2045 169.493 31.3272C169.324 31.7063 169.2 32.0744 169.076 32.4536C168.952 32.8327 168.783 33.2008 168.524 33.5353C168.142 34.0818 167.725 34.6171 167.308 35.1636C166.847 35.7101 166.385 36.2008 165.924 36.658C165.71 36.8699 165.507 37.1599 165.293 37.4498C165.079 37.7398 164.877 38.0298 164.618 38.2417C164.325 38.5316 164.032 38.7881 163.739 38.9889C163.447 39.2342 163.109 39.4907 162.816 39.7361C162.433 40.026 162.141 40.3606 161.848 40.6952C161.555 41.0298 161.172 41.3197 160.801 41.5651C160.632 41.6878 160.463 41.8104 160.249 41.8996C160.035 41.9777 159.866 42.1115 159.697 42.2342C159.483 42.3569 159.281 42.5242 159.112 42.7361C158.898 42.948 158.695 43.1153 158.481 43.2379C158.313 43.3606 158.144 43.4498 157.93 43.5279C157.716 43.606 157.547 43.6952 157.378 43.8179C157.085 43.9851 156.826 44.1524 156.624 44.3197C156.376 44.5316 156.117 44.6989 155.824 44.8216C155.7 44.8662 155.61 44.9443 155.577 45.0335C155.498 45.1115 155.408 45.2008 155.284 45.2454C154.991 45.4573 154.698 45.5799 154.361 45.6246C153.978 45.6692 153.685 45.7918 153.392 46.0037C153.269 46.0818 153.145 46.171 153.055 46.2491C152.931 46.3718 152.807 46.461 152.672 46.5391C151.996 46.9182 151.287 47.2417 150.566 47.4535C150.352 47.4982 150.184 47.5762 150.015 47.6989C149.846 47.8216 149.677 47.9108 149.508 47.9889C149.339 48.0669 149.17 48.1115 149.001 48.1562C148.787 48.2008 148.619 48.2342 148.45 48.3234C148.067 48.5353 147.605 48.7361 147.099 48.948C146.547 49.1599 146.085 49.2379 145.624 49.2379C145.331 49.2379 145.072 49.1933 144.914 49.0707C144.7 48.948 144.577 48.8253 144.453 48.6134C144.329 48.4015 144.205 48.2008 144.115 47.9889C144.036 47.777 143.946 47.5316 143.822 47.3197C143.777 47.197 143.732 47.1078 143.698 47.0298C143.665 46.9517 143.653 46.8625 143.653 46.7398C143.653 46.4498 143.822 46.2825 144.205 46.1599C144.588 46.0372 144.836 45.948 145.004 45.8699C145.635 45.8699 146.265 45.7026 146.896 45.3234C147.526 44.9443 148.112 44.6543 148.664 44.4089C149.046 44.2417 149.508 44.0744 150.048 43.9071C150.555 43.7398 150.972 43.5725 151.264 43.4052C151.726 43.1599 152.188 42.9034 152.649 42.7026C153.111 42.4907 153.618 42.3234 154.079 42.1227C154.293 42.0446 154.496 41.9108 154.631 41.7881C154.755 41.6654 154.924 41.5762 155.137 41.4535C155.43 41.2863 155.723 41.119 156.016 40.9517C156.308 40.829 156.567 40.6171 156.86 40.4052C157.108 40.1933 157.367 39.9926 157.569 39.7807C157.783 39.5688 158.076 39.4015 158.369 39.2788C158.493 39.2788 158.707 39.1115 158.954 38.8216C159.168 38.5316 159.371 38.3643 159.54 38.3197C159.619 38.2417 159.754 38.1524 159.878 38.1078C160.001 38.0632 160.091 37.9851 160.215 37.8959C160.429 37.7286 160.598 37.5614 160.767 37.3495C160.891 37.1376 161.06 36.9703 161.229 36.803C161.443 36.5911 161.735 36.3457 162.107 35.9666C162.478 35.5874 162.861 35.2194 163.244 34.7956C163.627 34.4164 163.953 34.0037 164.291 33.6246C164.584 33.2454 164.798 32.9554 164.877 32.7547C164.967 32.5428 165.124 32.2974 165.428 32.0075C165.721 31.7621 165.935 31.5056 166.059 31.3049C166.306 30.8922 166.52 30.435 166.644 29.9777C166.768 29.5205 166.982 29.0632 167.196 28.606C167.365 28.2268 167.534 27.9368 167.703 27.6915C167.826 27.4796 167.95 27.2342 168.085 27.0223C168.175 26.8104 168.254 26.5205 168.299 26.2305C168.344 25.9405 168.389 25.606 168.389 25.1487C168.389 24.9368 168.344 24.8141 168.265 24.7695C168.142 24.7249 168.018 24.7249 167.883 24.7249C167.59 24.7249 167.331 24.7249 167.083 24.7695C166.791 24.8141 166.532 24.8476 166.239 24.8476C165.608 24.8476 164.978 24.803 164.347 24.7695C163.717 24.7249 163.131 24.6915 162.501 24.6915H161.454C161.24 24.7361 161.037 24.7361 160.868 24.7361C160.699 24.7807 160.576 24.7807 160.486 24.8141C160.362 24.8588 160.272 24.9368 160.238 25.026C160.159 25.1041 160.069 25.1933 159.99 25.2714C159.776 25.4833 159.652 25.684 159.574 25.8959C159.45 26.1078 159.326 26.2751 159.191 26.4424C159.067 26.6097 158.898 26.777 158.729 26.8996C158.515 27.0223 158.346 27.1896 158.177 27.3569C157.84 27.7361 157.502 28.0595 157.209 28.3941C156.871 28.7733 156.534 29.0967 156.196 29.4312C155.982 29.6431 155.734 29.8104 155.441 29.9331C155.149 30.0558 154.89 30.2231 154.687 30.435C154.394 30.7249 154.012 31.1041 153.55 31.4721C153.088 31.8402 152.627 32.1747 152.21 32.3866C152.086 32.4312 151.996 32.5093 151.917 32.5539C151.794 32.5985 151.704 32.6766 151.58 32.7658C151.411 32.8885 151.287 32.9331 151.197 32.9777C150.78 33.1004 150.352 33.3123 149.936 33.5242C149.474 33.7695 149.058 34.026 148.675 34.2714C148.551 34.3495 148.382 34.3941 148.258 34.4387C148.134 34.4833 147.966 34.5614 147.842 34.6506C147.628 34.7733 147.38 34.9405 147.166 35.1078C146.918 35.3197 146.659 35.3978 146.457 35.3978C146.254 35.3978 146.04 35.3197 145.871 35.1524C145.657 35.0298 145.489 34.8179 145.365 34.606C145.241 34.3941 145.117 34.1487 145.027 33.9034C144.937 33.658 144.903 33.4461 144.903 33.2788C144.903 33.0669 144.993 32.8996 145.117 32.777C145.241 32.6543 145.365 32.5651 145.579 32.4424C145.702 32.3643 145.871 32.2751 146.04 32.197C146.164 32.1524 146.333 32.0744 146.457 32.0298C146.626 31.9851 146.795 31.8625 146.918 31.7398C147.042 31.6171 147.166 31.5279 147.335 31.4944C147.628 31.3718 147.887 31.2825 148.089 31.1599C148.303 31.0818 148.551 30.948 148.81 30.8253C149.024 30.7026 149.227 30.5353 149.395 30.368C149.564 30.2454 149.778 30.0781 149.981 29.9554C150.364 29.7101 150.859 29.4089 151.411 29.119C151.962 28.829 152.379 28.4944 152.672 28.2045C153.178 27.7026 153.719 27.2008 154.271 26.7435C154.563 26.4535 154.856 26.1636 155.115 25.8736C155.329 25.5837 155.577 25.2491 155.869 24.9591C156.376 24.3792 156.793 23.8773 157.085 23.4647C157.378 23.0855 157.671 22.6729 157.93 22.2602C158.144 21.8811 158.346 21.4238 158.56 20.9331C158.729 20.4759 158.943 19.8513 159.191 19.1376C159.236 18.9257 159.315 18.6803 159.405 18.4684C159.483 18.2565 159.529 18.0558 159.529 17.8439V17.4312C159.483 17.3086 159.483 17.1413 159.483 17.0186C159.483 16.8067 159.529 16.5614 159.574 16.3495C159.619 16.1376 159.787 16.0595 160.08 16.0595C160.17 16.0149 160.294 15.9814 160.463 15.9814C160.587 16.026 160.711 16.026 160.801 16.026C161.015 16.026 161.307 16.0706 161.769 16.1041C162.186 16.1487 162.478 16.2714 162.613 16.3941C162.704 16.4721 162.737 16.606 162.782 16.7286V17.1413C162.782 17.7658 162.704 18.435 162.568 19.0595C162.4 19.684 162.321 20.3532 162.321 20.9777C162.321 21.3569 162.4 21.6022 162.613 21.6803C162.827 21.803 163.075 21.8476 163.413 21.8476H165.135C165.259 21.8476 165.304 21.8476 165.349 21.8922L165.473 21.9368L165.451 21.9591ZM172.769 19.9628C172.724 20.0855 172.645 20.1747 172.521 20.2082C172.398 20.2528 172.274 20.2863 172.105 20.2528C171.936 20.2082 171.722 20.2082 171.474 20.2082H171.013C170.934 20.2082 170.889 20.2082 170.844 20.2528C170.799 20.2528 170.72 20.2528 170.675 20.2974C170.63 20.342 170.551 20.342 170.506 20.342C170.382 20.342 170.337 20.2974 170.337 20.2193C170.337 19.9294 170.337 19.5948 170.292 19.3049C170.247 19.0149 170.213 18.7249 170.213 18.435V17.7658C170.168 17.5539 170.213 17.3086 170.258 17.0967C170.303 16.9294 170.348 16.8067 170.348 16.684C170.393 16.6394 170.393 16.5167 170.393 16.3941V15.0669C170.393 14.8996 170.393 14.7324 170.348 14.5205C170.303 14.3532 170.303 14.1859 170.303 13.974C170.303 13.8959 170.303 13.7621 170.348 13.5948C170.393 13.4721 170.427 13.3829 170.562 13.3829C170.731 13.3829 170.9 13.4275 171.024 13.5056H171.609C171.733 13.5056 171.857 13.5056 171.992 13.461C172.116 13.4164 172.24 13.4164 172.375 13.4164C172.589 13.4164 172.713 13.4944 172.713 13.7063V13.829C172.623 13.9517 172.589 14.119 172.589 14.2417V14.6989C172.589 14.8662 172.634 15.0781 172.668 15.2788C172.713 15.5242 172.758 15.7807 172.758 16.026C172.758 16.4052 172.758 16.7286 172.713 17.0632C172.668 17.3978 172.668 17.7324 172.668 18.1004C172.668 18.3123 172.713 18.513 172.758 18.6803C172.803 18.8476 172.837 19.0595 172.837 19.2602C172.837 19.5502 172.837 19.8067 172.792 19.9294L172.769 19.9628ZM177.52 20.1301C177.183 20.2528 176.766 20.342 176.259 20.342C176.012 20.342 175.798 20.2974 175.674 20.2193C175.55 20.1747 175.46 19.974 175.46 19.6729C175.46 19.5056 175.46 19.3383 175.505 19.1264V18.6246C175.505 18.4127 175.46 18.2119 175.426 18C175.381 17.7881 175.336 17.5874 175.336 17.3755C175.336 16.9182 175.381 16.4164 175.46 15.9591C175.505 15.6246 175.55 15.29 175.584 14.9554V13.9517C175.584 13.7398 175.584 13.6171 175.629 13.5391C175.674 13.4944 175.719 13.461 175.798 13.4164C175.843 13.3718 175.922 13.3718 175.967 13.3718H177.183C177.397 13.4164 177.644 13.4164 177.858 13.4164C177.858 13.5391 177.858 13.6283 177.813 13.7063C177.768 13.7844 177.734 13.9182 177.734 14.0409C177.734 14.2528 177.779 14.4535 177.813 14.6654C177.858 14.8773 177.903 15.0781 177.903 15.29V15.7918C177.858 15.9591 177.858 16.1264 177.858 16.2937C177.858 16.5056 177.858 16.7509 177.903 16.9963C177.948 17.2417 177.948 17.4982 177.948 17.6989C177.948 17.8216 177.948 17.9889 177.903 18.1115C177.858 18.2342 177.858 18.4015 177.858 18.5242C177.858 18.6469 177.903 18.7361 177.937 18.8141C177.971 18.8922 177.982 18.9814 177.982 19.1041C177.982 19.6506 177.813 19.974 177.52 20.1078V20.1301Z" fill="#231815"/>
<path d="M193.373 47.0632V46.2714C193.373 46.1487 193.373 46.026 193.418 45.8922C193.463 45.8141 193.463 45.6803 193.463 45.5576V37.3941C193.463 37.316 193.463 37.2268 193.418 37.1487C193.373 37.0706 193.373 36.9814 193.373 36.9033C193.373 36.2342 193.373 35.5762 193.418 34.8625C193.463 34.1933 193.463 33.5353 193.463 32.8662C193.463 32.6989 193.463 32.5316 193.418 32.3643C193.373 32.2416 193.34 32.0743 193.34 31.9517C193.34 31.4498 193.385 30.948 193.418 30.4572C193.452 29.9665 193.463 29.4535 193.463 28.9628V28.5836C193.418 28.4164 193.418 28.2491 193.418 28.0372C193.373 27.8699 193.373 27.7026 193.34 27.5799C193.294 27.4572 193.216 27.368 193.171 27.368C193.081 27.368 193.002 27.4126 192.957 27.4461C192.664 27.658 192.326 27.8253 192.033 28.026C191.696 28.2379 191.358 28.4387 191.065 28.6506C190.604 28.9405 190.097 29.2305 189.59 29.487L188.082 30.2342C188.003 30.2788 187.913 30.3569 187.834 30.4461C187.71 30.5242 187.62 30.5688 187.496 30.5688C187.372 30.5688 187.248 30.4461 187.034 30.2342C186.821 30.0223 186.652 29.8216 186.483 29.5316C186.269 29.2416 186.1 28.9851 185.976 28.6952C185.852 28.4052 185.762 28.2379 185.762 28.1152C185.762 27.948 185.852 27.8253 186.01 27.7361C186.089 27.6915 186.224 27.658 186.393 27.5242C186.562 27.4461 186.73 27.3569 186.944 27.2342C187.158 27.1561 187.327 27.0669 187.496 26.9888C187.665 26.9442 187.789 26.9108 187.879 26.9108C188.003 26.8662 188.127 26.7881 188.262 26.6654C188.386 26.5428 188.554 26.4535 188.768 26.4201C188.892 26.3755 189.016 26.2974 189.151 26.1747C189.275 26.0967 189.399 26.0074 189.534 25.9628C189.748 25.8848 189.951 25.7955 190.119 25.6729C190.243 25.5502 190.412 25.4275 190.626 25.2937C190.716 25.2491 190.795 25.171 190.919 25.1264C191.009 25.0818 191.088 25.0037 191.167 24.9591C191.628 24.6691 192.135 24.3792 192.596 24.0446C193.058 23.71 193.565 23.3755 194.026 23.0855C194.578 22.7063 195.163 22.2491 195.749 21.7138C196.301 21.1673 196.841 20.6766 197.303 20.2193C197.381 20.0967 197.55 19.9294 197.809 19.7175C198.057 19.5056 198.226 19.3383 198.271 19.3048C198.395 19.2268 198.564 19.0929 198.733 18.8922C198.856 18.7249 198.98 18.5576 199.07 18.4349C199.115 18.3903 199.115 18.3569 199.149 18.3123C199.194 18.3123 199.228 18.2677 199.273 18.2342C199.442 18.1115 199.611 17.8996 199.735 17.6543C199.858 17.4424 200.027 17.2416 200.151 17.0743C200.275 16.8625 200.444 16.6952 200.658 16.5279C200.827 16.4052 200.996 16.1933 201.119 15.9814C201.243 15.8141 201.412 15.5688 201.626 15.1896C201.84 14.8104 202.009 14.5651 202.043 14.4424C202.29 14.197 202.459 14.0297 202.549 13.8959C202.594 13.7732 202.842 13.7286 203.225 13.7286C203.349 13.7286 203.439 13.7286 203.518 13.684C203.732 13.684 203.979 13.684 204.227 13.6394H204.981C205.195 13.6394 205.443 13.6394 205.736 13.684C206.028 13.7286 206.242 13.8513 206.366 13.974C206.49 14.0967 206.614 14.2639 206.749 14.4312C206.873 14.6431 206.997 14.8104 207.132 14.9331C207.301 15.1004 207.47 15.2677 207.593 15.4349C207.717 15.6022 207.886 15.7695 208.055 15.9368C208.764 16.7286 209.564 17.5651 210.408 18.3569C211.253 19.1487 212.131 19.8513 213.009 20.4758C213.133 20.5539 213.302 20.6877 213.471 20.8104C213.594 20.9777 213.718 21.1004 213.853 21.145C213.898 21.223 214.022 21.3123 214.191 21.3903C214.36 21.513 214.484 21.6022 214.608 21.6357C215.069 21.9703 215.576 22.3048 216.038 22.6729C216.499 23.052 217.006 23.2974 217.546 23.5093C217.76 23.5874 218.008 23.7212 218.222 23.8885C218.436 24.1004 218.638 24.223 218.897 24.3457C219.235 24.513 219.573 24.6803 219.945 24.803C220.327 24.9256 220.654 25.1375 220.958 25.3494C221.419 25.6394 221.926 25.8959 222.433 26.0186C222.939 26.1859 223.401 26.4312 223.863 26.7212C223.941 26.7658 223.986 26.8439 224.032 26.9665C224.077 27.0892 224.077 27.1784 224.077 27.2565C224.077 27.3792 224.032 27.5465 223.953 27.7138C223.874 27.881 223.784 28.0483 223.66 28.2156C223.536 28.4275 223.412 28.5948 223.277 28.7175C223.153 28.8848 223.029 29.0074 222.984 29.1301C222.816 29.3755 222.568 29.5093 222.275 29.5093C222.106 29.5093 221.723 29.342 221.093 29.052C220.462 28.7621 219.787 28.3829 219.078 28.0149C218.368 27.6468 217.693 27.2677 217.062 26.8885C216.432 26.5093 216.015 26.3085 215.846 26.2193C215.801 26.3866 215.767 26.5539 215.767 26.6766C215.767 27.0558 215.812 27.4684 215.846 27.8476C215.891 28.2268 215.891 28.6394 215.891 29.0186C215.891 29.1413 215.891 29.2305 215.846 29.3086C215.801 29.4312 215.767 29.5539 215.767 29.6877C215.767 30.0669 215.812 30.4796 215.846 30.8922C215.891 31.3048 215.891 31.7286 215.891 32.0967V32.2193C215.891 32.2193 215.846 32.342 215.812 32.3866C215.767 32.5093 215.722 32.7658 215.767 33.1338V34.0037C215.767 34.2937 215.767 34.5502 215.812 34.7955C215.857 35.0855 215.858 35.342 215.858 35.632C215.858 35.9219 215.857 36.2119 215.812 36.4684C215.767 36.7584 215.767 37.0483 215.767 37.3383V37.8401C215.767 38.052 215.812 38.2193 215.891 38.2974C215.936 38.2974 216.06 38.2193 216.184 38.0855C216.308 37.9628 216.477 37.8401 216.646 37.6729C216.815 37.5056 216.983 37.3383 217.152 37.171C217.321 37.0483 217.445 36.9256 217.569 36.881C217.693 36.881 217.862 36.9591 218.154 37.0929C218.402 37.2602 218.661 37.4721 218.954 37.6729C219.246 37.8848 219.505 38.1301 219.708 38.342C219.922 38.5539 220.001 38.7212 220.001 38.8439C220.001 38.9665 219.956 39.0892 219.832 39.1338C219.708 39.2119 219.618 39.3011 219.539 39.3457C219.156 39.6803 218.695 40.0483 218.188 40.5167C217.681 40.9851 217.22 41.3085 216.758 41.5539C216.42 41.7658 216.083 41.9665 215.745 42.1784C215.362 42.4238 215.069 42.6803 214.777 42.9257C214.563 43.171 214.225 43.3829 213.808 43.5948C213.347 43.8067 212.964 44.052 212.671 44.2639C212.626 44.3085 212.547 44.342 212.502 44.3866C212.412 44.4312 212.378 44.4647 212.378 44.5539C212.378 44.7658 212.671 44.9665 213.257 45.2565C213.808 45.5465 214.473 45.803 215.227 46.0929C215.936 46.3829 216.657 46.6394 217.366 46.8401C218.042 47.0855 218.503 47.2528 218.706 47.342C218.92 47.4647 219.213 47.5093 219.505 47.4647C219.798 47.4647 220.057 47.5093 220.305 47.632C220.429 47.6766 220.643 47.71 220.935 47.7546C221.228 47.7993 221.487 47.8773 221.78 47.9219C222.072 47.9665 222.331 48.0446 222.534 48.0892C222.748 48.1673 222.872 48.2565 222.872 48.3792C222.872 48.5019 222.793 48.7584 222.624 49.0483C222.455 49.3383 222.286 49.6283 222.072 49.9628C221.859 50.2528 221.611 50.5428 221.397 50.7993C221.149 51.0112 220.98 51.1338 220.845 51.1338H220.598C220.507 51.0892 220.429 51.1338 220.384 51.1784C220.091 51.0558 219.753 50.9331 219.415 50.7993C219.078 50.6766 218.74 50.5874 218.447 50.5093C218.357 50.4647 218.278 50.4647 218.199 50.4647C218.076 50.4647 217.985 50.4201 217.952 50.3866C217.738 50.3866 217.49 50.342 217.197 50.2193C216.905 50.0967 216.612 49.974 216.398 49.9294C215.936 49.8067 215.475 49.6394 215.058 49.4721C214.642 49.3048 214.18 49.1375 213.707 48.9256C213.583 48.8476 213.414 48.7584 213.245 48.6803C213.077 48.5576 212.908 48.4684 212.739 48.3903C212.491 48.2677 212.232 48.145 211.939 48.0112C211.647 47.8885 211.388 47.7658 211.185 47.632C210.802 47.4201 210.476 47.1747 210.138 46.9294C209.8 46.7175 209.462 46.4721 209.091 46.2602C208.798 46.0483 208.382 45.7138 207.909 45.2565C207.402 44.7993 206.985 44.4647 206.693 44.2193C206.062 43.6394 205.432 43.0149 204.846 42.3903C204.632 42.1784 204.463 41.8885 204.295 41.5985C204.081 41.1859 203.788 40.7286 203.495 40.2714C203.202 39.8141 202.865 39.4349 202.572 39.0669C202.527 39.0223 202.527 38.9888 202.493 38.9442C202.448 38.8996 202.369 38.8996 202.324 38.8996C201.739 38.8996 201.142 38.8996 200.602 38.9442C200.016 38.9888 199.431 38.9888 198.834 38.9888C198.541 38.9888 198.248 38.9888 197.956 38.9442C197.663 38.8996 197.325 38.8996 197.032 38.8996C196.819 38.8996 196.65 38.9442 196.616 39.0223C196.526 39.1004 196.492 39.2677 196.492 39.4796C196.492 39.6915 196.492 39.8587 196.537 40.026C196.582 40.2379 196.582 40.4052 196.582 40.6059C196.582 40.7286 196.582 40.8513 196.537 40.9851C196.492 41.1078 196.492 41.2305 196.492 41.3643C196.492 41.6543 196.492 41.9888 196.537 42.2788C196.582 42.5688 196.582 42.9033 196.582 43.1933C196.582 43.2714 196.582 43.3606 196.537 43.4387C196.492 43.5167 196.492 43.6059 196.492 43.684C196.492 43.8067 196.492 43.9294 196.537 44.0186C196.582 44.0967 196.582 44.2305 196.582 44.3532C196.582 44.4758 196.582 44.5651 196.537 44.6431C196.492 44.7212 196.492 44.8104 196.492 44.8885C196.492 45.2677 196.537 45.6803 196.582 46.0595C196.627 46.4387 196.627 46.8513 196.582 47.2639C196.875 47.2193 197.168 47.1413 197.46 47.0967C197.708 47.052 198.012 46.974 198.305 46.9294C198.688 46.8848 199.014 46.8067 199.397 46.684C199.735 46.5613 200.072 46.5167 200.444 46.5167C200.692 46.5167 200.951 46.4721 201.198 46.3941C201.412 46.316 201.66 46.2714 201.908 46.2714C202.031 46.2268 202.076 46.1933 202.122 46.1933C202.167 46.1487 202.335 46.1487 202.583 46.1152C202.831 46.1152 203 46.1152 203.09 46.0706C203.506 45.9926 203.968 45.8587 204.441 45.6915C204.903 45.5688 205.319 45.4796 205.747 45.4461C205.871 45.4461 205.995 45.4015 206.13 45.368C206.209 45.3234 206.344 45.29 206.468 45.29C206.546 45.29 206.636 45.368 206.681 45.5019C206.726 45.6691 206.805 45.8364 206.85 46.0483C206.895 46.2602 206.895 46.4275 206.929 46.6283C206.974 46.8401 206.974 46.9628 206.974 47.0074V47.1747C206.974 47.1747 206.929 47.2974 206.929 47.4201C206.884 47.4647 206.884 47.4981 206.884 47.5428C206.884 47.5874 206.884 47.6208 206.839 47.6654C206.794 47.7881 206.749 47.8327 206.625 47.8773C206.411 47.9219 206.164 48 205.916 48.0892C205.668 48.1673 205.409 48.2565 205.161 48.3011C204.914 48.3457 204.655 48.4238 204.407 48.4684C204.159 48.513 203.9 48.5911 203.653 48.6357C203.574 48.6803 203.236 48.803 202.684 48.9703C202.133 49.0929 201.502 49.2602 200.838 49.4275C200.162 49.5502 199.532 49.7175 198.946 49.8401C198.316 49.9628 197.933 50.052 197.764 50.0855C197.64 50.1301 197.517 50.1301 197.381 50.1301C197.246 50.1301 197.134 50.1747 196.999 50.2082C196.199 50.4981 195.445 50.6654 194.691 50.7546C194.353 50.7993 194.015 50.8773 193.722 51C193.385 51.0781 193.047 51.1673 192.675 51.2119C192.63 51.2565 192.506 51.2565 192.382 51.29C192.214 51.29 192.09 51.2453 192.045 51.2119C191.752 51.29 191.459 51.3792 191.2 51.4572C190.908 51.5353 190.615 51.5799 190.322 51.5799C190.277 51.6245 190.153 51.6245 190.029 51.6245C189.815 51.6245 189.613 51.5465 189.399 51.3346C189.185 51.1227 189.016 50.8773 188.892 50.5874C188.723 50.2974 188.599 50.0074 188.509 49.7175C188.386 49.4275 188.341 49.171 188.341 49.0149C188.341 48.9368 188.341 48.8476 188.386 48.7695C188.431 48.6914 188.464 48.6468 188.599 48.6022C188.892 48.4796 189.275 48.4349 189.647 48.3903C190.018 48.3457 190.401 48.3457 190.739 48.3123C190.863 48.3123 191.121 48.2677 191.414 48.1896C191.707 48.1115 191.876 48.1115 192 48.145H192.124C192.337 48.145 192.506 48.1004 192.709 48.0223C192.878 47.9442 193.047 47.8996 193.261 47.8996C193.306 47.6543 193.351 47.3978 193.385 47.1524L193.373 47.0632ZM212.165 27.658C211.872 27.6134 211.579 27.5799 211.241 27.5353C210.859 27.4907 210.532 27.4907 210.194 27.4907H209.564C209.271 27.4907 208.933 27.4907 208.64 27.5353C208.348 27.5799 208.01 27.5799 207.717 27.5799C207.425 27.5799 207.087 27.5799 206.794 27.5353C206.501 27.4907 206.164 27.4907 205.871 27.4907C205.747 27.4907 205.623 27.4907 205.533 27.5353C205.443 27.5799 205.319 27.5799 205.195 27.5799H201.322C201.108 27.5799 200.939 27.5799 200.77 27.5353C200.602 27.4907 200.433 27.4907 200.264 27.4907C200.14 27.4907 200.016 27.4907 199.881 27.5353C199.757 27.5799 199.588 27.5799 199.464 27.5799H197.066C196.942 27.6245 196.819 27.6245 196.683 27.658C196.56 27.7026 196.515 27.7361 196.515 27.7807C196.515 27.7807 196.5 27.8067 196.47 27.8587C196.47 27.9814 196.47 28.0706 196.515 28.1487V28.4387C196.515 28.4387 196.56 28.6059 196.56 28.7732C196.56 28.8959 196.56 28.9851 196.515 29.0632C196.47 29.1859 196.47 29.2751 196.47 29.3978C196.47 29.4758 196.47 29.5651 196.515 29.6097V29.855C196.515 30.145 196.515 30.3123 196.56 30.4349C196.56 30.5576 196.728 30.6022 197.021 30.6022C197.314 30.6022 197.652 30.5576 197.944 30.5242C198.237 30.4796 198.575 30.4796 198.868 30.4796C199.419 30.4796 199.915 30.4796 200.466 30.5242C201.018 30.5688 201.514 30.6022 202.065 30.6022C202.155 30.6022 202.234 30.6022 202.313 30.5576C202.392 30.513 202.482 30.513 202.606 30.513C202.73 30.513 202.853 30.513 202.988 30.5576C203.067 30.6022 203.202 30.6022 203.326 30.6022C203.619 30.6022 203.957 30.5576 204.249 30.5242C204.542 30.4796 204.88 30.4796 205.173 30.4796C205.882 30.4796 206.648 30.4796 207.357 30.5242C208.066 30.5688 208.832 30.5688 209.541 30.5688C210.003 30.5688 210.509 30.5688 211.016 30.5242C211.523 30.4796 212.029 30.4796 212.491 30.4796C212.491 30.4796 212.517 30.4647 212.57 30.4349H212.615C212.66 30.3123 212.66 30.145 212.66 29.9331C212.66 29.7212 212.66 29.5204 212.615 29.3086C212.57 29.0967 212.536 28.8959 212.536 28.684C212.536 28.5613 212.536 28.4387 212.581 28.3048V28.0149C212.581 27.8476 212.457 27.7249 212.165 27.6357V27.658ZM211.072 33.0781H210.982C210.982 33.0781 210.904 33.1227 210.859 33.1227C210.645 33.1227 210.397 33.0781 210.183 33.0446C209.969 33 209.721 33 209.507 33C209.294 33 209.091 33 208.922 33.0446C208.708 33.0892 208.505 33.1227 208.291 33.1227C207.661 33.1227 206.985 33.1227 206.355 33.0781C205.724 33.0335 205.049 33.0335 204.418 33.0335H204.171C204.047 33.0781 203.957 33.0781 203.878 33.0781H203.585C203.585 33.0781 203.292 33.0335 202.876 33C202.414 33 201.953 33 201.401 32.9554H198.924C198.8 32.9554 198.71 32.9554 198.631 33C198.552 33.0446 198.462 33.0781 198.339 33.0781C197.708 33.0781 197.246 33.1227 196.954 33.2454C196.661 33.368 196.492 33.7918 196.492 34.539C196.492 34.7509 196.492 34.9963 196.537 35.2082V35.8773C196.537 35.8773 196.582 35.9554 196.627 36.0892C196.672 36.2119 196.706 36.3011 196.751 36.2565H196.875C196.999 36.2565 197.168 36.2565 197.291 36.3011C197.415 36.3457 197.584 36.3457 197.708 36.3457H199.645C199.768 36.3457 199.858 36.3011 199.937 36.2677C200.027 36.223 200.106 36.223 200.185 36.223H202.662C202.786 36.223 202.876 36.223 203 36.2677C203.079 36.3123 203.214 36.3457 203.338 36.3457C203.551 36.3457 203.754 36.3011 203.968 36.2677C204.137 36.223 204.351 36.223 204.553 36.223C204.756 36.223 204.97 36.223 205.184 36.2677C205.398 36.3123 205.601 36.3457 205.814 36.3457C206.062 36.3457 206.321 36.3457 206.569 36.3011C206.783 36.2565 207.03 36.2565 207.278 36.2565C207.447 36.2565 207.616 36.2565 207.785 36.3011C207.954 36.3457 208.123 36.3792 208.291 36.3792C208.505 36.3792 208.674 36.3792 208.877 36.3346H209.429C209.766 36.3346 210.138 36.3346 210.521 36.29C210.904 36.29 211.23 36.2454 211.568 36.1227C211.861 36.0446 212.12 35.8773 212.322 35.6208C212.536 35.4089 212.615 35.0409 212.615 34.5836C212.615 34.0372 212.57 33.6245 212.446 33.3792C212.322 33.1673 211.939 33.0446 211.309 33.0446C211.185 33.0446 211.095 33.0446 211.061 33.0892L211.072 33.0781ZM203.045 24.7026C203.045 24.7026 203 24.5799 203 24.5353C203 24.3234 203.045 24.1227 203.079 23.9108C203.124 23.7435 203.124 23.5316 203.124 23.3309V22.2937C203.079 21.9591 203.079 21.6245 203.079 21.29C203.079 21.0781 203.247 21 203.63 20.9554C203.968 20.9108 204.182 20.9108 204.306 20.9108C205.184 20.9108 205.736 21.1227 205.905 21.5799C206.073 22.0372 206.152 22.6617 206.152 23.4089V24.5353C206.152 24.7026 206.197 24.7807 206.242 24.8253C206.287 24.8699 206.366 24.9033 206.49 24.9033C206.535 24.8587 206.614 24.8587 206.704 24.8587C206.997 24.8587 207.334 24.8587 207.627 24.9033C207.92 24.948 208.258 24.9814 208.55 24.9814C208.674 24.9814 208.764 24.9814 208.843 24.9368C208.933 24.8922 209.012 24.8922 209.136 24.8922C209.305 24.8922 209.474 24.8922 209.643 24.9368C209.811 24.9814 209.98 24.9814 210.149 24.9814C210.273 24.9814 210.442 24.9368 210.566 24.9033C210.69 24.8587 210.859 24.8587 210.982 24.8587C211.399 24.8587 211.827 24.8587 212.243 24.9033C212.66 24.948 213.088 24.948 213.504 24.948H213.718C213.718 24.948 213.842 24.9926 213.887 24.948C213.842 24.8253 213.673 24.7361 213.471 24.6134C213.223 24.4907 213.009 24.4015 212.885 24.3234C212.761 24.2007 212.592 24.0781 212.469 23.9442C212.345 23.8216 212.176 23.7323 212.052 23.6097C211.883 23.487 211.714 23.3643 211.545 23.2305C211.376 23.1078 211.208 23.0186 211.039 22.8959C210.329 22.3494 209.654 21.8141 209.023 21.1896C208.393 20.5651 207.717 19.9851 207.087 19.3606C206.963 19.2825 206.794 19.1152 206.535 18.8141C206.287 18.5242 206.028 18.2342 205.781 17.9442C205.488 17.6543 205.229 17.3978 205.026 17.1524C204.779 16.9405 204.61 16.8178 204.52 16.8178C204.43 16.8178 204.351 16.8959 204.227 17.0297C204.103 17.197 203.934 17.3643 203.81 17.5762C203.687 17.7881 203.518 17.9554 203.394 18.1227C203.27 18.3346 203.146 18.4572 203.056 18.5353C202.763 18.7472 202.504 19.0818 202.212 19.4498C201.919 19.8625 201.626 20.2416 201.412 20.5316C200.951 21.0335 200.489 21.4907 200.027 21.9033C199.566 22.3606 199.059 22.8178 198.597 23.2751C198.552 23.3197 198.474 23.3978 198.429 23.487C198.35 23.5651 198.26 23.6543 198.215 23.6989C198.17 23.7435 198.046 23.8216 197.922 23.9108C197.798 23.9888 197.629 24.0781 197.505 24.1561C197.381 24.2788 197.258 24.368 197.123 24.4907C196.999 24.6134 196.954 24.7361 196.954 24.8253C197.077 24.9033 197.291 24.948 197.584 24.948C197.877 24.9926 198.091 24.9926 198.26 24.9926C198.384 24.9926 198.474 24.9926 198.597 24.948C198.676 24.9033 198.766 24.9033 198.89 24.9033H203.09C203.09 24.9033 203.09 24.7807 203.045 24.6914V24.7026ZM214.979 38.9442C214.855 38.9442 214.687 38.9442 214.563 38.8996C214.394 38.855 214.225 38.855 214.101 38.855C213.516 38.855 212.93 38.855 212.378 38.8996C211.793 38.9442 211.196 38.9442 210.611 38.9442H206.873C206.749 38.9442 206.659 38.9442 206.625 38.8996C206.535 38.855 206.456 38.855 206.332 38.855C206.118 38.855 205.95 38.855 205.826 38.8996C205.871 38.9777 205.95 39.1115 206.118 39.2788C206.242 39.4015 206.332 39.5688 206.411 39.6915C206.49 39.8141 206.625 39.9814 206.749 40.1041C206.873 40.2268 207.042 40.4387 207.334 40.7286C207.582 41.0186 207.886 41.3532 208.213 41.6431C208.505 41.9777 208.843 42.2677 209.136 42.513C209.429 42.7584 209.643 42.9256 209.766 42.9703C210.014 42.8476 210.318 42.6803 210.645 42.4684C210.937 42.2565 211.275 42.0112 211.613 41.7658C211.951 41.5204 212.288 41.2639 212.626 41.0186C212.919 40.7732 213.212 40.5613 213.504 40.3941C213.628 40.316 213.797 40.1822 213.921 40.0149C214.045 39.8476 214.214 39.6803 214.338 39.5576C214.383 39.5576 214.551 39.4796 214.754 39.2677C214.968 39.1004 215.137 38.9777 215.171 38.9331H214.957L214.979 38.9442Z" fill="#231815"/>
<path d="M244.579 26.2416C244.41 26.2416 244.163 26.3197 243.87 26.4535C243.577 26.6208 243.239 26.7881 242.902 27C242.564 27.2119 242.271 27.4573 241.978 27.6692C241.686 27.881 241.517 28.0483 241.427 28.171C241.303 28.2937 241.179 28.461 241.089 28.5837C240.999 28.7063 240.875 28.8736 240.751 28.9963C240.537 29.2082 240.289 29.4089 240.042 29.5428C239.794 29.6654 239.58 29.8327 239.366 30.0446C239.242 30.1673 239.119 30.29 238.983 30.4238C238.86 30.5465 238.691 30.6692 238.567 30.803C238.105 31.0929 237.644 31.3829 237.261 31.6394C236.844 31.8848 236.383 32.0967 235.876 32.3086C235.752 32.3532 235.538 32.4312 235.245 32.5539C234.953 32.6766 234.739 32.7212 234.615 32.7212C234.322 32.7212 233.939 32.7212 233.523 32.6766C233.106 32.6766 232.678 32.632 232.307 32.5093C231.924 32.4312 231.598 32.2639 231.294 32.0521C231.001 31.8402 230.877 31.5056 230.877 31.1376C230.877 30.7249 231.001 30.3011 231.26 29.8885C231.507 29.4758 231.89 29.2639 232.352 29.2639C232.645 29.2639 232.937 29.3086 233.23 29.3866C233.478 29.4647 233.782 29.5093 234.075 29.5093C234.367 29.5093 234.705 29.4647 235.122 29.342C235.538 29.2193 235.876 29.0967 236.09 28.9628C236.304 28.829 236.506 28.6283 236.675 28.4164C236.799 28.2045 236.968 28.0372 237.182 27.8699C237.565 27.5353 237.981 27.2008 238.364 26.8327C238.747 26.4982 239.073 26.1636 239.456 25.7955C239.58 25.6729 239.749 25.5502 239.873 25.5056C239.997 25.461 240.121 25.3829 240.166 25.2937C240.289 25.171 240.413 25.0483 240.548 24.9145C240.627 24.7918 240.762 24.6692 240.886 24.5353C241.1 24.3234 241.348 24.1561 241.731 23.9889C242.068 23.8662 242.44 23.7435 242.823 23.6097C243.206 23.487 243.577 23.3978 243.96 23.3643C244.343 23.3197 244.635 23.2863 244.883 23.2863C246.268 23.2863 247.45 23.5316 248.418 24.0335C249.342 24.5353 250.231 25.3271 251.109 26.3643C251.323 26.6543 251.526 26.9108 251.695 27.2008C251.819 27.4907 252.033 27.7472 252.247 28.0372C252.415 28.2825 252.629 28.539 252.832 28.7844C253.035 29.0297 253.249 29.2416 253.463 29.4535C253.676 29.6208 253.879 29.8327 254.048 30.0335C254.262 30.3234 254.51 30.658 254.724 30.948C254.937 31.2825 255.14 31.5725 255.399 31.8625C255.782 32.2416 256.153 32.6097 256.581 32.8996C256.998 33.2342 257.426 33.5688 257.797 33.9034C258.259 34.316 258.766 34.6952 259.227 35.0744C259.689 35.4535 260.195 35.777 260.736 36.1115C260.95 36.2342 261.152 36.3234 261.366 36.3234C261.58 36.368 261.828 36.4015 262.042 36.5353C262.549 36.7807 263.134 36.9926 263.81 37.1152C264.44 37.2379 265.071 37.3606 265.622 37.4052C265.915 37.4498 266.253 37.4833 266.545 37.5279C266.838 37.5725 267.176 37.606 267.469 37.606C267.593 37.606 267.716 37.606 267.852 37.5613H268.482C268.572 37.5613 268.651 37.606 268.696 37.684C268.82 37.7621 268.91 37.974 268.91 38.3086C268.865 38.6431 268.865 38.8885 268.91 39.0112C268.955 39.0558 268.955 39.1338 268.989 39.1784C269.034 39.2565 269.034 39.3457 269.034 39.3903C269.034 39.513 268.989 39.6357 268.955 39.7695C268.91 39.8922 268.831 40.0595 268.786 40.1822C268.572 40.684 268.279 40.9294 267.942 40.974C267.604 41.0186 267.187 41.0521 266.726 41.0521C266.343 41.0521 265.971 40.974 265.588 40.8067C265.206 40.684 264.879 40.5948 264.62 40.5948C264.575 40.6394 264.496 40.6729 264.372 40.6394H264.125C264.046 40.6394 263.877 40.5948 263.573 40.5167C263.28 40.4721 262.943 40.3941 262.605 40.3048C262.267 40.2268 261.974 40.1376 261.682 40.0595C261.389 39.9814 261.175 39.9368 261.096 39.8922C260.972 39.8476 260.803 39.7695 260.68 39.6468C260.556 39.5242 260.387 39.435 260.218 39.4015C260.004 39.3569 259.756 39.2788 259.419 39.1561C259.036 39.0781 258.833 38.9442 258.709 38.777C258.416 38.6097 258.158 38.4424 257.865 38.3197C257.572 38.197 257.313 38.0297 257.065 37.8179C256.514 37.4387 256.018 37.026 255.557 36.6134C255.05 36.2008 254.543 35.7435 254.082 35.2863C253.958 35.1636 253.868 35.0409 253.789 34.9071C253.71 34.7844 253.62 34.6952 253.496 34.5725C252.787 33.8699 252.111 33.0335 251.436 32.0744C251.357 31.9517 251.312 31.829 251.267 31.6952C251.222 31.5725 251.188 31.4498 251.053 31.316C250.839 31.026 250.501 30.6134 250.13 30.0669C249.747 29.5651 249.33 29.0632 248.914 28.5279C248.452 28.026 248.036 27.5688 247.574 27.1561C247.112 26.777 246.73 26.5316 246.392 26.4089C245.975 26.2863 245.547 26.2416 245.131 26.2416H244.624H244.579ZM260.803 26.119C260.68 26.197 260.556 26.2416 260.421 26.2416C260.297 26.2863 260.128 26.2863 259.959 26.2416H259.542C259.419 26.2416 259.295 26.2416 259.16 26.2863C259.036 26.3309 258.912 26.3309 258.777 26.3309C258.698 26.3309 258.653 26.2528 258.608 26.0855C258.563 25.9628 258.518 25.7955 258.518 25.5837C258.473 25.4164 258.473 25.2491 258.473 25.0818C258.428 24.9145 258.428 24.7918 258.428 24.7472C258.383 24.7026 258.383 24.5799 258.383 24.4573C258.383 24.0781 258.428 23.6654 258.473 23.2528C258.518 22.8736 258.552 22.461 258.552 22.0818V20.8327C258.552 20.7547 258.552 20.6654 258.507 20.6208V20.3755C258.507 20.3755 258.462 20.2528 258.462 20.1636C258.462 19.9963 258.507 19.829 258.54 19.6171C258.585 19.4052 258.709 19.3271 258.923 19.3271H259.306C259.475 19.3718 259.599 19.3718 259.644 19.4052H260.06C260.274 19.4498 260.398 19.4052 260.477 19.3606H260.725C260.815 19.4052 260.848 19.4387 260.848 19.5725C260.848 19.6171 260.848 19.6952 260.803 19.7844C260.758 19.8736 260.758 19.9517 260.758 19.9963C260.713 20.0409 260.713 20.0744 260.713 20.2082C260.713 20.4982 260.758 20.7881 260.837 21.0781C260.882 21.368 260.927 21.658 260.927 21.948C260.927 22.3271 260.882 22.6952 260.837 23.0297C260.792 23.4089 260.758 23.777 260.758 24.1561C260.758 24.4015 260.803 24.658 260.837 24.8587C260.871 25.0595 260.927 25.3606 260.927 25.7286C260.927 25.8959 260.882 26.0186 260.758 26.1078L260.803 26.119ZM263.787 26.3309C263.787 26.3309 263.708 26.3309 263.663 26.2863C263.618 26.2863 263.573 26.2416 263.573 26.1636V25.9182C263.573 25.7955 263.573 25.6283 263.618 25.461C263.663 25.2937 263.663 25.1264 263.663 25.0037C263.663 24.6692 263.618 24.3346 263.573 24C263.528 23.6654 263.494 23.3309 263.494 22.9963C263.494 22.7844 263.539 22.539 263.573 22.3271C263.618 22.1153 263.663 21.9145 263.663 21.7026V20.0409C263.663 19.7509 263.742 19.5837 263.911 19.4944C264.08 19.4498 264.294 19.4164 264.496 19.4164H265.679C265.892 19.4164 266.016 19.461 265.971 19.539C265.926 19.6617 265.926 19.7844 265.926 19.9182C265.926 20.2082 265.971 20.4647 266.016 20.71C266.061 20.9554 266.061 21.2119 266.061 21.5019V21.9145C266.016 22.0818 266.016 22.2491 266.016 22.3718C266.016 22.4944 266.061 22.6171 266.095 22.7063C266.14 22.829 266.14 22.9517 266.14 23.0855C266.14 23.2528 266.14 23.4201 266.095 23.5428C266.05 23.71 266.05 23.8773 266.05 24.0446C266.05 24.2565 266.05 24.5019 266.095 24.7472V25.829C266.095 25.9071 266.05 25.9963 265.926 26.0409C265.802 26.0855 265.633 26.119 265.51 26.1636C265.341 26.2082 265.172 26.2416 265.048 26.2863C264.879 26.3309 264.755 26.3309 264.71 26.3309H263.787Z" fill="#231815"/>
<path d="M46.3985 61.4721C46.1058 61.0706 45.5203 59.7547 44.9912 59.71C43.7527 59.6097 43.6401 57.8587 44.6534 57.6245C44.6534 57.5911 44.6196 57.5688 44.6196 57.5353C44.6196 57.4461 44.6646 57.4126 44.7435 57.368C44.7885 57.3234 44.8673 57.2788 44.9123 57.2454C45.2051 57.0335 45.5879 56.7881 46.0608 56.5762C46.4886 56.3643 46.8264 56.1524 47.0403 55.9071C47.333 55.6506 47.637 55.4052 48.0198 55.1487L49.0331 54.513C49.506 54.2565 49.9676 53.9219 50.4743 53.4647C50.9809 52.9963 51.4538 52.6283 51.8366 52.2825C51.9267 52.2379 52.0055 52.1599 52.1294 52.0706C52.2532 52.026 52.2982 51.9034 52.2982 51.7807C52.2982 51.658 52.2082 51.4907 52.0055 51.2788C51.7916 51.0669 51.5326 50.8216 51.2399 50.6097C50.9472 50.3978 50.6882 50.1859 50.4293 50.0186C50.1365 49.8959 49.9564 49.8067 49.8325 49.8067C49.7087 49.8513 49.5736 49.974 49.4047 50.0967L48.898 50.5985C48.7291 50.7658 48.5603 50.8885 48.4364 51.0223C48.3126 51.145 48.1774 51.2342 48.1437 51.2342C48.0536 51.145 48.0198 50.9777 48.0198 50.777V50.2751C48.0198 49.9851 48.0198 49.684 48.0649 49.3941C48.1099 49.1376 48.1099 48.8476 48.1099 48.5576C48.1099 48.2677 48.1099 48.0112 48.0649 47.7212C48.0198 47.4647 48.0198 47.2193 48.0198 46.9182V46.0372C47.9748 45.658 48.0198 45.4015 48.0649 45.2788C48.1099 45.2342 48.1099 45.1561 48.1549 45.1115V44.9889C48.1549 44.6097 48.1549 44.1859 48.1099 43.7732C48.0649 43.3495 48.0198 42.9368 48.0198 42.5576C48.0198 42.4349 48.0649 42.3011 48.1099 42.1784C48.1549 42.0892 48.1549 42.0112 48.1549 41.8885C48.1549 41.5093 48.1549 41.0855 48.1099 40.7063C48.0649 40.3271 48.0198 39.9034 48.0198 39.5242C48.0198 39.4015 48.0649 39.2342 48.1099 39.0558C48.1549 39.0781 48.2112 39.1115 48.29 39.145C47.637 38.119 47.8397 36.948 48.0198 35.4089C48.0198 35.4089 48.0311 35.4089 48.0423 35.4089C48.0423 35.3643 48.0423 35.3197 48.0423 35.2751C47.6483 34.974 47.243 34.6952 46.8601 34.4275C46.7363 34.3829 46.6012 34.3048 46.4323 34.171C46.2634 34.0818 46.1396 34.0037 46.0945 33.9145C45.9707 33.8699 45.8356 33.7472 45.7117 33.5799C45.5428 33.4573 45.374 33.3234 45.2389 33.2454C44.3494 32.6097 43.4599 31.8959 42.6042 31.1041C41.7598 30.3011 40.9492 29.4647 40.2286 28.6617C40.0597 28.4944 39.8908 28.3271 39.767 28.1599C39.6431 27.9926 39.4742 27.8253 39.2941 27.658C39.1703 27.5353 39.0351 27.368 38.9113 27.1561C38.7874 26.9889 38.6523 26.8216 38.5285 26.6989C38.4046 26.5762 38.1907 26.4424 37.8867 26.4089C37.5827 26.3755 37.335 26.3643 37.1211 26.3643H36.3555C36.3555 26.3643 36.2429 26.3643 36.1979 26.3755C35.9389 26.3086 35.6912 26.264 35.421 26.2305C35.421 26.1301 35.421 26.0186 35.3985 25.8736C35.3084 25.4944 35.2296 25.1153 35.1395 24.658C35.0157 24.2008 34.9256 23.777 34.8018 23.3532C34.6779 22.974 34.5428 22.684 34.509 22.5502C34.464 22.461 34.3852 22.3383 34.2501 22.171C34.1262 22.0483 34.0812 21.9145 34.0812 21.8364C34.0812 21.4573 34.0812 21.0335 34.1262 20.6543C34.1713 20.2751 34.1713 19.8513 34.1713 19.4721C34.1713 19.1822 34.2163 18.9257 34.2613 18.6692C34.3064 18.4126 34.3514 18.1673 34.3514 17.8662C34.3514 17.7435 34.3064 17.5316 34.1825 17.2305C34.2276 17.1078 34.2276 16.8959 34.2726 16.6394C34.3176 16.3829 34.3964 16.2156 34.5315 16.171C34.5766 16.171 34.7905 16.171 35.2071 16.1264C35.5899 16.1264 36.0515 16.1264 36.5694 16.0818H38.7762C38.9901 16.0818 39.204 16.0818 39.4179 16.1264C39.5868 16.171 39.8008 16.2156 40.0147 16.2156C40.4425 16.2156 40.8591 16.2156 41.2419 16.171C41.6247 16.1264 42.0526 16.1264 42.4691 16.1264H43.5725C43.9103 16.171 44.2481 16.171 44.6309 16.171C44.8448 16.171 45.0587 16.171 45.2726 16.1264C45.4865 16.0818 45.7005 16.0818 45.9144 16.0818C46.1283 16.0818 46.3873 16.0818 46.5899 16.1264C46.7926 16.171 47.0178 16.171 47.2317 16.171C47.5244 16.171 47.8735 16.171 48.2112 16.1264C48.504 16.0818 48.6728 15.8699 48.6728 15.4573V15.0781C48.6278 14.9554 48.6278 14.8216 48.6278 14.6989C48.6278 14.5762 48.6278 14.4089 48.6728 14.2416V13.7398C48.6278 13.6171 48.5828 13.4833 48.549 13.3606C48.4589 13.2714 48.3351 13.2379 48.1662 13.2379H47.6933C47.5244 13.2825 47.3555 13.2825 47.1867 13.2825C46.8939 13.2825 46.635 13.2379 46.421 13.1933C46.1621 13.1487 45.9144 13.1487 45.6554 13.1487C45.6104 13.1041 45.4866 13.1041 45.3627 13.1041C45.2389 13.1041 45.07 13.1487 44.9349 13.1933C44.811 13.2379 44.6421 13.2825 44.507 13.2825C44.3719 13.2825 44.2481 13.2825 44.1242 13.2379C44.0004 13.1933 43.8653 13.1933 43.7414 13.1933H42.593C42.3791 13.1933 42.2102 13.1933 42.0413 13.2379C41.8724 13.2825 41.7035 13.2825 41.5346 13.2825C41.2757 13.2825 41.028 13.2379 40.8141 13.1599C40.6001 13.1153 40.3524 13.0706 40.0935 13.0706C39.8796 13.0706 39.6319 13.1153 39.3729 13.1599C39.114 13.2045 38.8663 13.2491 38.6523 13.2491H36.1078C35.2972 13.2491 34.7905 13.1264 34.4978 12.9145C34.205 12.7026 34.0699 12.2008 34.0699 11.3978V10.8067C34.0699 10.5948 34.115 10.3829 34.1938 10.171C34.2388 10.0037 34.2838 9.79183 34.2838 9.57994C34.2838 9.20075 34.2838 8.82157 34.2388 8.44239C34.1938 8.10782 34.1938 7.72864 34.1938 7.34945C34.1938 7.13756 34.1938 6.8922 34.2388 6.68031C34.2838 6.46841 34.2838 6.25652 34.2838 6.04462C34.2838 5.83272 34.2388 5.66544 34.16 5.57622C34.0699 5.53161 33.901 5.487 33.6871 5.487H33.0454C32.8314 5.53161 32.6175 5.53161 32.4036 5.53161C31.8519 5.53161 31.5141 5.57622 31.3452 5.62083C31.1764 5.66544 31.0863 6.00001 31.0863 6.54648C31.0863 6.71377 31.0863 6.88105 31.1313 7.04834V7.5502C31.1313 7.84016 31.1313 8.09666 31.0863 8.35317C31.0413 8.60968 30.9962 8.85503 30.9962 9.15614C30.9962 9.53533 31.0413 9.8699 31.1201 10.2045C31.2101 10.539 31.2439 10.8736 31.2439 11.2528C31.2439 11.3755 31.1989 11.5093 31.1538 11.632C31.0638 11.7993 31.03 12.0558 31.03 12.3457C31.03 12.6022 30.985 12.803 30.8611 12.9368C30.6472 13.0595 30.4333 13.1041 30.1856 13.1041C29.8928 13.1487 29.6339 13.1487 29.3411 13.1487C29.0484 13.1933 28.7895 13.2379 28.4967 13.2714C28.3278 13.316 28.204 13.3606 28.0689 13.3606C27.6861 13.3606 27.3483 13.316 27.1344 13.2379C26.8754 13.1933 26.6277 13.1487 26.3688 13.1487H24.117C23.9931 13.1487 23.903 13.1487 23.8242 13.1933C23.7004 13.2379 23.6103 13.2379 23.4865 13.2379C23.3176 13.2379 23.1487 13.2379 23.0136 13.1933H22.5069C22.338 13.1933 22.1692 13.1933 22.0453 13.2379C21.9215 13.2825 21.7526 13.2825 21.5724 13.2825C21.3923 13.2825 21.2347 13.2379 21.0658 13.1933C20.8969 13.1487 20.728 13.1041 20.5141 13.1041C20.1763 13.1041 19.8385 13.1041 19.4895 13.1487C19.1517 13.1933 18.814 13.2379 18.4762 13.2379H12.9931C12.903 13.2379 12.7792 13.2379 12.6103 13.1933H12.1036C11.8897 13.1933 11.7208 13.1933 11.597 13.2379C11.4731 13.2825 11.383 13.3606 11.338 13.4498C11.293 13.539 11.293 13.6617 11.293 13.829C11.293 14.0409 11.338 14.2863 11.4168 14.4982C11.4619 14.7547 11.5069 15 11.5069 15.2119C11.5069 15.3011 11.5069 15.3792 11.4619 15.4238C11.4619 15.4684 11.4619 15.5465 11.4168 15.5911C11.3718 15.6803 11.3718 15.7584 11.3718 15.803C11.3718 16.0149 11.5407 16.0929 11.8784 16.1376C12.1712 16.1822 12.4301 16.1822 12.554 16.1822C12.7679 16.1822 13.0269 16.1822 13.2746 16.1376H13.9951C14.2879 16.1376 14.5468 16.1376 14.8396 16.1822C15.0985 16.2268 15.3462 16.2268 15.6502 16.2268C15.7741 16.2268 15.8641 16.2268 15.9429 16.1822C15.988 16.1376 16.0668 16.1376 16.2019 16.1376H16.5397C16.7085 16.1822 16.8774 16.1822 17.0914 16.1822H17.598C17.7219 16.1822 17.857 16.1822 17.8907 16.1376H18.1497C18.3636 16.1376 18.5325 16.1376 18.7464 16.1822C18.9153 16.2268 19.0842 16.2268 19.2981 16.2268C19.467 16.2268 19.6359 16.2268 19.8048 16.1822C19.9286 16.1822 20.0975 16.1822 20.2664 16.1376C20.8631 16.0483 21.4936 16.0149 22.1354 16.0483C22.7771 16.0929 23.3626 16.0929 23.9593 16.0929H26.7628C27.6523 16.1376 28.5868 16.1376 29.5213 16.1376C29.6451 16.1376 29.7802 16.1376 29.9041 16.0929C30.0279 16.0483 30.163 16.0483 30.2869 16.0483C30.6247 16.0483 30.8386 16.0929 30.9287 16.171C31.0187 16.2602 31.0525 16.461 31.0525 16.7621C31.0525 17.1413 31.0525 17.5205 31.0075 17.8996C30.9624 18.2788 30.9174 18.7026 30.9174 19.0818V19.3718C30.9174 19.3718 30.9624 19.461 30.9624 19.4944C30.9624 19.5279 30.9624 19.5837 31.0075 19.6171V19.7398C31.0075 19.8625 30.9624 19.9517 30.8386 19.9963C30.7147 20.0409 30.6247 20.0409 30.5008 20.0409C30.2869 20.0409 30.118 20.0409 29.9491 19.9963C29.7802 19.9517 29.6114 19.9517 29.3974 19.9517H28.8908C28.7219 19.9517 28.553 19.9963 28.4179 20.0409C28.204 20.1301 27.9901 20.2082 27.7761 20.2528C27.5622 20.342 27.3933 20.4647 27.1794 20.5874C26.6277 20.9666 26.076 21.3903 25.5243 21.8922C24.9727 22.4387 24.5448 22.9851 24.2971 23.5762C24.1733 23.9108 24.0382 24.29 23.9593 24.7584C23.8693 25.2268 23.8355 25.5948 23.8355 25.974V26.777C23.8355 27.0669 23.8805 27.3234 23.9256 27.5353C24.0494 28.3383 24.3984 29.0967 24.8601 29.8104C25.3217 30.5242 25.9184 31.0706 26.684 31.3718C26.8529 31.4164 27.0218 31.4944 27.1907 31.5837C27.3596 31.7063 27.5284 31.7509 27.7424 31.7509C27.9563 31.7509 28.1252 31.6617 28.3391 31.539C28.508 31.4164 28.6318 31.2045 28.7669 30.9926C28.8908 30.7807 28.9809 30.5688 29.0597 30.3234C29.1047 30.1115 29.1497 29.8996 29.1497 29.7323C29.1497 29.4424 29.0597 29.2305 28.857 29.0632C28.6431 28.9405 28.3954 28.7732 28.1364 28.5613C27.8775 28.3495 27.6748 28.1376 27.4609 27.8476C27.247 27.5911 27.1231 27.2119 27.1231 26.7547C27.1231 26.3755 27.1682 25.9963 27.247 25.539C27.337 25.0706 27.4609 24.658 27.6748 24.2788C27.8887 23.8996 28.1364 23.6097 28.4404 23.3086C28.7332 23.0521 29.161 22.9294 29.6339 22.9294C30.0167 22.9294 30.3545 23.0186 30.6922 23.1859C30.985 23.3978 31.2889 23.6097 31.5366 23.8996C31.7506 24.1896 31.9645 24.4907 32.0883 24.8253C32.2122 25.2045 32.3023 25.539 32.3023 25.8736C32.3023 25.9963 32.3023 26.1301 32.2572 26.2528C32.2122 26.3755 32.2122 26.5093 32.2122 26.632C32.1672 26.6766 32.1672 26.7993 32.1672 26.9219C32.1672 27.0446 32.2122 27.1784 32.2572 27.3011C32.3023 27.4238 32.3023 27.5911 32.3023 27.7584C32.3023 28.0483 32.2572 28.3494 32.2122 28.684C32.1221 29.0186 32.0433 29.3197 31.9195 29.6097C31.8294 29.8662 31.7055 30.2008 31.5366 30.5799C31.3227 31.0037 31.1538 31.4164 30.9399 31.8402C30.726 32.2639 30.5571 32.6431 30.3432 33.0223C30.1293 33.4015 29.9154 33.6915 29.7465 33.8587L27.9675 35.6208C27.8437 35.7435 27.6748 35.8773 27.4609 35.9108C27.247 36 27.0781 36.1227 26.9092 36.2454C26.5264 36.5353 26.0986 36.7918 25.7157 37.0037C25.3329 37.2156 24.9051 37.4275 24.4435 37.6394C24.3196 37.684 24.1845 37.7621 24.1057 37.8067C23.9819 37.8513 23.8468 37.9294 23.7229 37.974C23.509 38.0632 23.2951 38.0967 23.0811 38.0967C22.8672 38.0967 22.6983 38.1413 22.4844 38.264C22.2705 38.3866 22.0228 38.5205 21.7188 38.5985C21.4148 38.6766 21.1221 38.7212 20.8293 38.7212C20.4916 38.7212 20.1538 38.8104 19.771 38.9331C19.726 38.9777 19.5571 39.0223 19.3432 39.0558C19.1292 39.145 19.0054 39.2231 19.0054 39.3123C19.0054 39.3569 19.0504 39.435 19.1743 39.5688C19.2981 39.6915 19.3882 39.8253 19.4332 39.948C19.5233 40.1599 19.6471 40.4944 19.771 40.9182C19.8948 41.342 20.0637 41.632 20.1988 41.7993C20.2439 41.8885 20.4128 41.9219 20.6267 41.9219C20.9194 41.9219 21.2234 41.8773 21.4373 41.7993C21.6512 41.6766 21.8652 41.5874 22.1579 41.5093C22.3718 41.4647 22.6195 41.4201 22.8334 41.3866C23.0474 41.342 23.3063 41.2974 23.509 41.264C23.6328 41.2193 23.7679 41.1413 23.8918 41.0521C24.0156 40.9628 24.1507 40.8848 24.2746 40.8402C24.4435 40.7955 24.6124 40.7509 24.7812 40.7509C24.9501 40.7063 25.119 40.6617 25.2879 40.6283C25.3217 40.6283 25.3555 40.606 25.3892 40.5948C25.4005 40.6952 25.4118 40.7955 25.4455 40.8959C25.4455 41.1078 25.4455 41.2751 25.4906 41.4424V41.8216C25.4906 42.3234 25.4906 42.8364 25.4455 43.3383C25.4005 43.8402 25.3555 44.342 25.3555 44.855C25.3555 44.9777 25.4005 45.145 25.4455 45.2788C25.4906 45.4461 25.4906 45.6134 25.4906 45.7807C25.4906 46.4498 25.4906 47.1301 25.4455 47.7993C25.4005 48.513 25.4005 49.1822 25.4005 49.8625C25.4005 49.9517 25.4005 50.0297 25.4455 50.119C25.4906 50.2082 25.4906 50.2863 25.4906 50.3755V58.6171C25.4906 58.7398 25.4906 58.8736 25.4455 58.9517C25.4005 59.0744 25.4005 59.2082 25.4005 59.3309V60.1338C25.3555 60.3903 25.3104 60.6357 25.2766 60.8922C25.0627 60.8922 24.8938 60.9368 24.725 61.0149C24.511 61.1041 24.3421 61.1376 24.1282 61.1376H24.0044C23.8805 61.0929 23.7116 61.0929 23.4077 61.1822C23.3739 61.1822 23.3514 61.1933 23.3288 61.2045C23.3851 61.3271 23.4302 61.461 23.4414 61.5948C23.5765 61.6729 23.7116 61.7732 23.813 61.9294C24.207 62.5316 24.7587 62.8885 25.4005 63.0781C26.2337 63.0781 27.0556 63.0335 27.8887 62.9777C28.0013 62.8996 28.1027 62.8327 28.2152 62.7547C28.2152 62.6766 28.2152 62.6097 28.2378 62.5316C28.3841 61.829 28.5192 61.1264 28.6656 60.4238C28.6656 60.368 28.7106 60.3234 28.7332 60.2788C28.7106 60.2788 28.6769 60.29 28.6543 60.29C28.6994 59.8662 28.6994 59.4535 28.6543 59.0744C28.6093 58.6952 28.5643 58.2714 28.5643 57.8922C28.5643 57.803 28.5643 57.7249 28.6093 57.6357C28.6543 57.5465 28.6543 57.4684 28.6543 57.3457C28.6543 57.2231 28.6543 57.0892 28.6093 57.0112C28.5643 56.9331 28.5643 56.7993 28.5643 56.6766C28.5643 56.5874 28.5643 56.5093 28.6093 56.4201C28.6543 56.3309 28.6543 56.2528 28.6543 56.1636C28.6543 55.8736 28.6543 55.5279 28.6093 55.2379C28.5643 54.948 28.5643 54.6022 28.5643 54.3123C28.5643 54.1896 28.5643 54.0558 28.6093 53.9331C28.6543 53.8104 28.6543 53.6766 28.6543 53.5539C28.6543 53.342 28.6543 53.1747 28.6093 52.9628C28.5643 52.7955 28.5643 52.6283 28.5643 52.4164C28.5643 52.2045 28.6093 52.0372 28.6881 51.9591C28.7332 51.8699 28.902 51.8364 29.116 51.8364C29.4087 51.8364 29.7577 51.8364 30.0505 51.881C30.3432 51.9257 30.6472 51.9257 30.9399 51.9257C31.5366 51.9257 32.1334 51.9257 32.7188 51.881C33.2705 51.8364 33.8673 51.8364 34.464 51.8364C34.509 51.8364 34.5878 51.8364 34.6329 51.881C34.6779 51.9257 34.6779 51.9703 34.7229 52.0037C35.0157 52.3829 35.3647 52.7621 35.6574 53.2193C35.9502 53.6877 36.2542 54.145 36.4681 54.5688C36.637 54.8587 36.8059 55.1599 37.0198 55.3718C37.6165 56.0074 38.247 56.632 38.8888 57.2231C39.1815 57.4796 39.6094 57.8141 40.116 58.2714C40.5776 58.7286 41.0055 59.0744 41.3095 59.2862C41.6923 59.4981 42.03 59.7435 42.3678 59.9554C42.7056 60.2119 43.0433 60.4573 43.4262 60.6692C43.6401 60.7918 43.8878 60.9257 44.1918 61.0483C44.4958 61.171 44.7435 61.3048 45.0024 61.4275C45.1713 61.5167 45.3402 61.5948 45.5091 61.7175C45.678 61.8067 45.8468 61.8848 45.9707 61.974C46.4323 62.1859 46.8939 62.3532 47.3218 62.5205C46.9727 62.2193 46.6687 61.8736 46.3873 61.4944L46.3985 61.4721ZM31.1426 37.2491C31.3565 37.0372 31.5704 36.7918 31.7393 36.5799C31.9082 36.368 32.0771 36.1561 32.291 35.9108C32.4599 35.6543 32.7188 35.3197 33.0116 34.9405C33.1354 34.8179 33.2705 34.6506 33.3944 34.5167C33.5182 34.3941 33.6083 34.2602 33.6871 34.1376C33.856 33.8476 34.0699 33.4238 34.2838 32.9219C34.4978 32.4201 34.6667 31.8736 34.8355 31.2825C35.0044 30.7361 35.1733 30.1896 35.3084 29.6431C35.3197 29.5874 35.3309 29.5428 35.3422 29.487C35.9051 29.4758 36.4568 29.5428 36.986 29.7435C37.0536 29.7993 37.1211 29.8439 37.2112 29.9108C37.4251 30.1673 37.6728 30.4126 37.9768 30.7138C38.2358 31.0037 38.4835 31.3048 38.7424 31.5948C39.0014 31.8848 39.1703 32.0632 39.2941 32.1413C39.9359 32.777 40.6114 33.3569 41.2419 33.9926C41.8724 34.6283 42.5592 35.1747 43.2798 35.7212C43.4487 35.8439 43.6176 35.9331 43.7864 36.0558C43.9553 36.1784 44.1242 36.3123 44.2931 36.4349C44.4169 36.5576 44.5858 36.6468 44.7209 36.7695C44.8448 36.8922 45.0137 37.026 45.1488 37.1487C45.2726 37.2379 45.4866 37.316 45.7455 37.4387C45.9594 37.5613 46.1283 37.6506 46.1733 37.7732C46.1283 37.8179 46.0495 37.8179 46.0045 37.7732H45.7905C45.3627 37.7732 44.9461 37.7732 44.5183 37.7286C44.0904 37.684 43.6739 37.684 43.246 37.684C43.1222 37.684 42.9533 37.684 42.8182 37.7286C42.6943 37.7732 42.5254 37.8179 42.3903 37.8179C42.2214 37.8179 42.0526 37.8179 41.8837 37.7732C41.7148 37.7286 41.5459 37.7286 41.377 37.7286C41.2532 37.7286 41.1631 37.7286 41.0843 37.7732C41.0055 37.8179 40.9154 37.8179 40.7915 37.8179C40.4988 37.8179 40.1498 37.7732 39.8571 37.7286C39.5643 37.684 39.2153 37.684 38.9226 37.684C38.8325 37.684 38.7537 37.684 38.7086 37.7286C38.5848 37.7286 38.4947 37.684 38.4497 37.6394C38.4046 37.5948 38.3596 37.5167 38.3596 37.3495V36.2119C38.3596 35.4535 38.2695 34.829 38.1006 34.3606C37.9318 33.9034 37.3801 33.6915 36.4906 33.6915C36.3668 33.6915 36.1528 33.6915 35.8151 33.7361C35.4323 33.7807 35.2634 33.8587 35.2634 34.0706C35.2634 34.4052 35.2634 34.7398 35.3084 35.0855V36.1338C35.3084 36.3457 35.3084 36.5576 35.2634 36.7249C35.2183 36.9368 35.1733 37.1487 35.1733 37.3606C35.1733 37.4052 35.1733 37.4833 35.2183 37.5279C35.2634 37.6171 35.2634 37.6952 35.2634 37.7398H31.0187C30.8949 37.7398 30.8048 37.7398 30.726 37.7844C30.6134 37.8179 30.5346 37.829 30.4333 37.829C30.726 37.6171 30.9737 37.4164 31.1651 37.2602L31.1426 37.2491ZM28.6206 41.3086V41.0186C28.5755 40.9294 28.5755 40.8513 28.5755 40.7286C28.5755 40.7286 28.5905 40.6989 28.6206 40.6394C28.6206 40.6394 28.6656 40.5502 28.7895 40.5167C28.9133 40.4721 29.0484 40.4721 29.1723 40.4275H31.5929C31.7168 40.4275 31.8857 40.4275 32.0208 40.3829C32.1446 40.3383 32.2797 40.3383 32.4036 40.3383C32.5725 40.3383 32.7414 40.3383 32.9102 40.3829C33.0791 40.4275 33.248 40.4275 33.4619 40.4275H37.3688C37.4927 40.4275 37.6278 40.4275 37.7066 40.3829C37.7967 40.3383 37.9205 40.3383 38.0444 40.3383C38.3371 40.3383 38.6861 40.3383 38.9788 40.3829C39.2716 40.4275 39.6206 40.4275 39.9133 40.4275C40.2061 40.4275 40.5551 40.4275 40.8478 40.3829C41.1406 40.3383 41.4896 40.3383 41.7823 40.3383H42.4241C42.7619 40.3383 43.0996 40.3383 43.4824 40.3829C43.8202 40.4275 44.1242 40.4721 44.4169 40.5056C44.7097 40.5948 44.8448 40.7175 44.8448 40.8848V41.1747C44.7998 41.2974 44.7998 41.4312 44.7998 41.5539C44.7998 41.7658 44.8448 41.9777 44.8898 42.1896C44.9349 42.4015 44.9349 42.6134 44.9349 42.8253C44.9349 43.0372 44.9349 43.2045 44.8898 43.3271H44.8448C44.8448 43.3271 44.7998 43.3718 44.7547 43.3718C44.2931 43.3718 43.7752 43.3718 43.2685 43.4164C42.7619 43.461 42.244 43.461 41.7823 43.461C41.0618 43.461 40.2962 43.461 39.5756 43.4164C38.855 43.3718 38.0894 43.3718 37.3688 43.3718C37.0761 43.3718 36.727 43.3718 36.4343 43.4164C36.1416 43.461 35.7926 43.5056 35.4998 43.5056C35.376 43.5056 35.2409 43.5056 35.162 43.461C35.0382 43.4164 34.9031 43.4164 34.7792 43.4164C34.6554 43.4164 34.5653 43.4164 34.4865 43.461C34.4077 43.5056 34.3176 43.5056 34.2275 43.5056C33.6759 43.5056 33.1692 43.461 32.6175 43.4164C32.0658 43.3718 31.5592 43.3718 31.0075 43.3718C30.7147 43.3718 30.3657 43.3718 30.073 43.4164C29.7802 43.461 29.4312 43.5056 29.1385 43.5056C28.8457 43.5056 28.6656 43.461 28.6656 43.3383C28.6206 43.2156 28.6206 43.0483 28.6206 42.7472V42.4907C28.6206 42.4907 28.5755 42.368 28.5755 42.2788C28.5755 42.1561 28.5755 42.0669 28.6206 41.9442C28.6656 41.855 28.6656 41.777 28.6656 41.6543C28.6656 41.487 28.6656 41.3643 28.6206 41.3197V41.3086ZM37.3688 49.171C37.1549 49.1264 36.941 49.1264 36.727 49.1264C36.5131 49.1264 36.2992 49.1264 36.1303 49.171C35.9164 49.2156 35.7025 49.2602 35.4886 49.2602C35.3647 49.2602 35.2296 49.2156 35.1508 49.171C35.0269 49.1264 34.9369 49.1264 34.813 49.1264H32.3023C32.2122 49.1264 32.1334 49.1264 32.0433 49.171C31.9532 49.2156 31.8744 49.2602 31.7506 49.2602H29.8028C29.6789 49.2602 29.51 49.2602 29.3749 49.2156C29.2511 49.171 29.0822 49.171 28.9471 49.171H28.8232C28.8232 49.171 28.7332 49.1264 28.6994 49.0037C28.6543 48.881 28.6093 48.8364 28.6093 48.7918V48.1227C28.5643 47.9108 28.5643 47.6654 28.5643 47.4535C28.5643 46.6952 28.7332 46.2714 29.0259 46.1487C29.3186 46.026 29.7915 45.9814 30.422 45.9814C30.5459 45.9814 30.6359 45.9368 30.7147 45.8922C30.8048 45.8476 30.8836 45.8476 31.0075 45.8476H33.5182C34.0699 45.8922 34.5428 45.8922 35.0044 45.8922C35.4323 45.9368 35.68 45.9368 35.725 45.9814H36.0177C36.1078 45.9814 36.1866 45.9814 36.3105 45.9368H36.5694C37.2112 45.9368 37.8867 45.9368 38.5172 45.9814C39.159 46.026 39.8345 46.026 40.465 46.026C40.679 46.026 40.8929 45.9814 41.1068 45.9368C41.2757 45.8922 41.4896 45.8922 41.7035 45.8922C41.9174 45.8922 42.1764 45.8922 42.3791 45.9368C42.593 45.9814 42.8407 46.026 43.0546 46.026C43.0996 46.026 43.1447 46.026 43.1785 45.9814H43.2685C43.2685 45.9814 43.3924 45.9368 43.5275 45.9368C44.1692 45.9368 44.5521 46.0595 44.6759 46.2714C44.7998 46.5279 44.8448 46.9405 44.8448 47.487C44.8448 47.9442 44.7547 48.3234 44.5521 48.5353C44.3381 48.7918 44.0792 48.9591 43.7864 49.0372C43.4487 49.1599 43.1109 49.2045 42.7281 49.2045C42.3453 49.2491 41.9625 49.2491 41.6247 49.2491H41.073C40.8591 49.2937 40.6902 49.2937 40.4763 49.2937C40.3074 49.2937 40.1385 49.2491 39.9696 49.2045C39.8008 49.1599 39.6319 49.1599 39.463 49.1599C39.204 49.1599 38.9563 49.1599 38.7424 49.2045C38.4835 49.2491 38.2358 49.2491 37.9768 49.2491C37.7629 49.2491 37.549 49.2045 37.335 49.1599L37.3688 49.171ZM42.8857 55.4833C42.548 55.6952 42.244 55.8625 41.9963 55.9851C41.8724 55.9405 41.6585 55.7732 41.3545 55.5279C41.0618 55.2714 40.7127 54.9814 40.42 54.6468C40.0822 54.3569 39.7782 54.0112 39.5305 53.7212C39.2378 53.4312 39.0689 53.2193 38.9338 53.0855C38.81 52.9628 38.6749 52.7955 38.596 52.6617C38.506 52.539 38.4272 52.3717 38.3033 52.2379C38.1344 52.0706 38.0443 51.948 38.0106 51.8587C38.1344 51.8141 38.3033 51.8141 38.5172 51.8141C38.6411 51.8141 38.7312 51.8141 38.81 51.8587C38.855 51.9034 38.9338 51.9034 39.0689 51.9034H42.8519C43.4487 51.9034 44.0454 51.9034 44.6309 51.8587C45.1826 51.8141 45.7793 51.8141 46.376 51.8141C46.4999 51.8141 46.6687 51.8141 46.8376 51.8587C46.9615 51.9034 47.1304 51.9034 47.2655 51.9034H47.4794C47.4794 51.9034 47.2655 52.0706 47.0516 52.2379C46.8376 52.4498 46.6687 52.5279 46.6237 52.5279C46.4999 52.6506 46.331 52.8178 46.1959 52.9851C46.072 53.1524 45.9031 53.2751 45.768 53.3643C45.4753 53.5316 45.1713 53.7435 44.8786 54C44.5408 54.2565 44.203 54.5019 43.854 54.7584C43.5162 55.0149 43.1785 55.2602 42.8745 55.4721L42.8857 55.4833Z" fill="#C30D23"/>
<path d="M36.7045 56.777C36.5356 56.777 36.2767 56.8662 35.9839 56.9889C35.6912 57.1561 35.3422 57.3234 35.0044 57.5353C34.6666 57.7472 34.3627 57.9926 34.0699 58.2045C33.7772 58.4164 33.6083 58.5837 33.5182 58.7063C33.3944 58.829 33.2593 58.9963 33.1805 59.1301C33.0904 59.2528 32.9665 59.4201 32.8427 59.5539C32.6288 59.7658 32.3698 59.9777 32.1221 60.1004C31.8632 60.2231 31.6492 60.3903 31.4466 60.6022C31.3227 60.7249 31.1876 60.8587 31.0638 60.9814C30.9399 61.1041 30.771 61.2379 30.6359 61.3606C30.1743 61.6506 29.7014 61.9517 29.3186 62.197C28.8908 62.4535 28.4292 62.6654 27.9225 62.8662C27.7987 62.9108 27.5847 62.9889 27.2807 63.1227C26.9768 63.2565 26.7741 63.29 26.639 63.29C26.3462 63.29 25.9634 63.29 25.5356 63.2454C25.1078 63.2454 24.6912 63.2008 24.3084 63.0781C23.9256 62.9889 23.5878 62.8216 23.2838 62.6097C22.9798 62.3978 22.856 62.0632 22.856 61.684C22.856 61.2602 22.9798 60.8476 23.2388 60.4238C23.4977 60 23.8805 59.7881 24.3421 59.7881C24.6349 59.7881 24.9389 59.8327 25.2316 59.9108C25.4906 60 25.7833 60.0335 26.076 60.0335C26.3688 60.0335 26.7178 59.9889 27.1344 59.8662C27.551 59.7435 27.9 59.6097 28.1139 59.487C28.3278 59.3643 28.5418 59.1524 28.7106 58.9405C28.8345 58.7286 29.0034 58.5613 29.2173 58.3941C29.6001 58.0595 30.0279 57.7249 30.4107 57.3457C30.7936 57.0112 31.1313 56.6766 31.5141 56.2974C31.638 56.1747 31.8069 56.0409 31.942 56.0074C32.0658 55.9628 32.2009 55.8848 32.2347 55.7955L32.6175 55.4164C32.7076 55.2937 32.8314 55.1599 32.9553 55.0372C33.1692 54.8253 33.4169 54.658 33.7997 54.4907C34.1375 54.368 34.5203 54.2342 34.9031 54.1115C35.2859 53.9889 35.6687 53.8996 36.0515 53.855C36.4343 53.8104 36.727 53.7658 36.986 53.7658C38.3821 53.7658 39.5756 54.0223 40.5551 54.5242C41.4896 55.026 42.3791 55.829 43.2685 56.8773C43.4824 57.1673 43.6964 57.4238 43.8652 57.7138C43.9891 58.0037 44.203 58.2602 44.4169 58.5502C44.5858 58.8067 44.7997 59.0521 45.0137 59.3086C45.2276 59.5651 45.4415 59.777 45.6554 59.9777C45.8694 60.145 46.0833 60.3569 46.2522 60.5688C46.4661 60.8587 46.7138 61.2045 46.9277 61.4944C47.1416 61.829 47.3555 62.1301 47.6032 62.4201C47.986 62.7993 48.3689 63.1784 48.7967 63.4684C49.2245 63.803 49.6411 64.1376 50.0239 64.4721C50.4968 64.8959 51.0035 65.2751 51.4651 65.6543C51.9267 66.0335 52.4446 66.368 52.9963 66.7026C53.2102 66.8253 53.4241 66.9145 53.6381 66.9145C53.852 66.9591 54.0997 67.0037 54.3136 67.1264C54.8203 67.3829 55.417 67.5948 56.0925 67.7175C56.7343 67.8402 57.3648 67.974 57.9165 68.0074C58.2092 68.0521 58.5582 68.0967 58.851 68.1301C59.1437 68.1747 59.4927 68.2193 59.7855 68.2193C59.9093 68.2193 60.0444 68.2193 60.1683 68.1747H60.81C60.9001 68.1747 60.9789 68.2193 61.024 68.2974C61.1478 68.3866 61.2379 68.5874 61.2379 68.9331C61.1928 69.2677 61.1928 69.5242 61.2379 69.6468C61.2829 69.6915 61.2829 69.7695 61.328 69.8141C61.373 69.9034 61.373 69.9814 61.373 70.026C61.373 70.1487 61.328 70.2825 61.2829 70.4052C61.2379 70.5279 61.1591 70.6952 61.114 70.829C60.9001 71.3309 60.6074 71.5874 60.2696 71.632C59.9318 71.6766 59.504 71.7212 59.0424 71.7212C58.6596 71.7212 58.2768 71.632 57.894 71.4647C57.5112 71.342 57.1734 71.2528 56.9144 71.2528C56.8694 71.2974 56.7906 71.342 56.6555 71.2974H56.3965C56.3064 71.2974 56.1376 71.2528 55.8448 71.1747C55.5521 71.1301 55.2031 71.0521 54.8653 70.9628C54.5275 70.8736 54.2235 70.7955 53.9308 70.7063C53.6381 70.6171 53.4241 70.5837 53.3341 70.539C53.2102 70.4944 53.0413 70.4164 52.9062 70.2825C52.7711 70.1487 52.6135 70.0706 52.4333 70.026C52.2194 69.9814 51.9717 69.9034 51.6227 69.7695C51.2399 69.6803 51.026 69.5576 50.9021 69.3903C50.6094 69.2231 50.3504 69.0558 50.0577 68.9219C49.765 68.7993 49.506 68.632 49.2471 68.4201C48.6954 68.0409 48.1887 67.6171 47.7158 67.2045C47.2092 66.7807 46.6913 66.3234 46.2296 65.855C46.1058 65.7323 46.0157 65.5985 45.9369 65.4758C45.8581 65.3532 45.768 65.2639 45.6442 65.1413C44.9236 64.4275 44.2481 63.5799 43.5613 62.6208C43.4712 62.4982 43.4374 62.3643 43.3924 62.2416C43.3473 62.119 43.3023 61.9851 43.1784 61.8625C42.9645 61.5725 42.6268 61.1487 42.244 60.6022C41.8611 60.1004 41.4333 59.5874 41.0167 59.0409C40.5438 58.539 40.1273 58.0706 39.6544 57.658C39.1815 57.2788 38.81 57.0223 38.4609 56.8996C38.0331 56.777 37.6165 56.7324 37.1887 56.7324H36.682L36.7045 56.777ZM53.0864 63.8141C52.9625 63.9034 52.8274 63.9368 52.7036 63.9368C52.5797 63.9814 52.4108 63.9814 52.2307 63.9368H51.8028C51.679 63.9368 51.5439 63.9368 51.42 63.9814C51.2962 64.026 51.1611 64.026 51.0372 64.026C50.9472 64.026 50.9134 63.9368 50.8683 63.7695C50.8233 63.6468 50.7783 63.4796 50.7783 63.2677C50.7332 63.1004 50.7332 62.9331 50.7332 62.7658C50.6882 62.5985 50.6882 62.4758 50.6882 62.4312C50.6432 62.3866 50.6432 62.264 50.6432 62.1413C50.6432 61.7621 50.6882 61.3383 50.7332 60.9257C50.7783 60.5465 50.8233 60.1227 50.8233 59.7435V58.4833C50.8233 58.3941 50.8233 58.316 50.7783 58.2714V58.0149C50.7783 58.0149 50.7332 57.8922 50.7332 57.803C50.7332 57.6357 50.7783 57.4684 50.8233 57.2565C50.8683 57.0446 50.9922 56.9666 51.2061 56.9666H51.5889C51.7578 57.0112 51.8817 57.0112 51.9267 57.0558H52.3545C52.5685 57.1004 52.6923 57.0558 52.7824 57.0112H53.0413C53.1314 57.0558 53.1652 57.1004 53.1652 57.2231C53.1652 57.2677 53.1652 57.3457 53.1201 57.435C53.0751 57.5242 53.0751 57.6022 53.0751 57.6468C53.0301 57.6915 53.0301 57.7361 53.0301 57.8587C53.0301 58.1487 53.0751 58.4498 53.1539 58.7398C53.199 59.0297 53.244 59.3309 53.244 59.6208C53.244 60 53.199 60.3792 53.1539 60.7138C53.1089 61.0929 53.0639 61.4721 53.0639 61.8513C53.0639 62.1078 53.1089 62.3532 53.1539 62.5651C53.199 62.777 53.244 63.0669 53.244 63.4461C53.244 63.6134 53.199 63.7361 53.0751 63.8253L53.0864 63.8141ZM56.1038 64.0149C56.1038 64.0149 56.0137 64.0149 55.9799 63.9703C55.9349 63.9703 55.8899 63.9257 55.8899 63.8476V63.5911C55.8899 63.4684 55.8899 63.3011 55.9349 63.1338C55.9799 62.9666 55.9799 62.7993 55.9799 62.6654C55.9799 62.3309 55.9349 61.9963 55.8899 61.6617C55.8448 61.3271 55.7998 60.9926 55.7998 60.6469C55.7998 60.435 55.8448 60.1896 55.8899 59.9777C55.9349 59.7658 55.9799 59.5539 55.9799 59.342V57.658C55.9799 57.368 56.07 57.2008 56.2389 57.1115C56.4078 57.0669 56.6217 57.0223 56.8356 57.0223H58.0291C58.243 57.0223 58.3668 57.0669 58.3218 57.145C58.2768 57.2677 58.2768 57.4015 58.2768 57.5242C58.2768 57.8141 58.3218 58.0706 58.3668 58.3271C58.4119 58.5837 58.4119 58.829 58.4119 59.1301V59.5539C58.3668 59.7212 58.3668 59.8885 58.3668 60.0223C58.3668 60.1561 58.4119 60.2788 58.4569 60.3569C58.5019 60.4796 58.5019 60.6134 58.5019 60.7361C58.5019 60.9034 58.5019 61.0706 58.4569 61.1933C58.4119 61.3606 58.4119 61.5279 58.4119 61.6952C58.4119 61.9071 58.4119 62.1636 58.4569 62.4089V63.5019C58.4569 63.5911 58.4119 63.6692 58.288 63.7138C58.1642 63.7584 57.9953 63.803 57.8602 63.8364C57.6913 63.8811 57.5224 63.9257 57.3873 63.9591C57.2184 64.0037 57.0946 64.0037 57.0495 64.0037H56.115L56.1038 64.0149Z" fill="#C30D23"/>
<path d="M64.638 53.4201C64.638 53.4201 64.4691 53.4647 64.3002 53.4647C64.0075 53.4647 63.7035 53.4647 63.4107 53.4201C63.118 53.3755 62.814 53.3755 62.5213 53.3755C62.2623 53.3755 62.0146 53.3755 61.8007 53.4201C61.5417 53.4647 61.294 53.4647 61.0351 53.4647C60.945 53.4647 60.9112 53.4647 60.8662 53.4201C60.8662 52.6617 60.7424 51.9033 60.4834 51.1896C60.1907 50.4758 59.8416 49.7621 59.4588 49.1264C59.2449 48.7472 58.9972 48.4126 58.6932 48.1115L57.7587 47.1859L56.8242 46.2602C56.4865 45.9702 56.1487 45.6691 55.7659 45.3792H55.552C55.2142 45.0446 54.8314 44.7435 54.4035 44.4535C53.9757 44.197 53.5591 43.9517 53.1763 43.6952C52.8836 43.5279 52.6246 43.3606 52.4107 43.1487C52.1968 42.9368 51.9378 42.7695 51.6451 42.6022C51.2172 42.3457 50.8007 42.0558 50.3728 41.7212C49.9112 41.3866 49.4834 41.0074 49.1006 40.6282C48.6727 40.2491 48.3349 39.8253 48.0422 39.368C47.7495 38.8996 47.5356 38.4424 47.4004 37.9405C47.3554 37.8178 47.3104 37.6505 47.2766 37.4387C47.2316 37.2268 47.1865 37.0595 47.1865 36.9368C47.1865 36.5576 47.2316 36.1784 47.3104 35.7992C47.4004 35.4647 47.4342 35.1301 47.4793 34.7509V34.2045C47.4793 34.1152 47.5243 33.9926 47.6031 33.8253C47.6819 33.658 47.772 33.4907 47.8958 33.2788C48.0197 33.1115 48.1098 32.9442 48.2336 32.8104C48.3575 32.6877 48.4025 32.5539 48.4475 32.5204C48.4926 32.4312 48.5714 32.3532 48.6615 32.2639C48.7515 32.2193 48.8303 32.1413 48.8754 32.052C49.5171 31.0818 50.2715 30.1227 51.1272 29.1078C51.9716 28.1375 52.9511 27.3792 54.0095 26.8327C54.1333 26.8327 54.3472 26.71 54.6062 26.4535L55.1129 25.9517C55.2367 25.829 55.4056 25.6617 55.5745 25.4944C55.6983 25.3717 55.8672 25.2045 56.0474 25.0706C56.1712 24.9814 56.3401 24.8587 56.6441 24.6468C56.9368 24.4795 57.1958 24.2676 57.4885 24.0558C57.7812 23.8439 58.0402 23.6766 58.2541 23.4647C58.468 23.2528 58.5919 23.1301 58.5919 23.0074C58.5919 22.8847 58.5469 22.7509 58.423 22.6282C58.2992 22.5056 58.2091 22.4163 58.0852 22.3383C57.9164 22.2156 57.7475 22.0483 57.6236 21.9145C57.4547 21.7918 57.2858 21.658 57.1507 21.4907C57.0156 21.3234 56.858 21.0669 56.6891 20.7769C56.4752 20.487 56.3063 20.1859 56.1374 19.8513C55.9235 19.5167 55.7997 19.1821 55.6758 18.8476C55.552 18.5576 55.4619 18.3011 55.4619 18.0892C55.4619 17.9665 55.552 17.8327 55.6758 17.7546C55.7208 17.71 55.8447 17.6654 56.0586 17.5874C56.2725 17.5427 56.4865 17.4647 56.7342 17.3755C56.9481 17.2862 57.207 17.2082 57.4097 17.1636C57.6236 17.119 57.7475 17.0743 57.7925 17.0743C57.9164 17.0743 58.0515 17.1636 58.0852 17.3308C58.1303 17.5427 58.1753 17.6654 58.2091 17.7881C58.468 18.4238 58.7608 19.0037 59.0985 19.5167C59.4363 20.0297 59.943 20.3978 60.6298 20.6543C60.8437 20.7435 61.1026 20.8216 61.3053 20.8662C61.5192 20.9554 61.7669 20.9888 61.9808 20.9888C62.1948 20.9888 62.4087 20.9442 62.6226 20.8216C62.8365 20.7323 63.0505 20.6989 63.2644 20.6989C63.4333 20.6989 63.6021 20.7881 63.771 20.9108C63.9399 21.0334 64.1088 21.2007 64.2777 21.3792C64.4015 21.5911 64.5366 21.7584 64.6155 21.9703C64.7055 22.1821 64.7393 22.394 64.7393 22.5167C64.7393 22.7732 64.6492 23.0186 64.4466 23.2305C64.2327 23.487 63.985 23.6877 63.681 23.8996C63.377 24.1115 63.1293 24.2788 62.8365 24.4461C62.5438 24.658 62.2848 24.7807 62.0709 24.9033C61.857 25.026 61.7332 25.1598 61.6431 25.2825C61.5192 25.4052 61.3503 25.4944 61.1364 25.6171C60.6748 25.829 60.247 26.0743 59.7741 26.2862C59.3125 26.5427 58.8396 26.8327 58.4568 27.1227C58.3329 27.2119 58.1978 27.3346 58.074 27.4572C57.9051 27.5799 57.7362 27.7472 57.6124 27.881C57.4435 28.0483 57.2746 28.171 57.1395 28.3048C57.0044 28.4387 56.8805 28.5167 56.8017 28.5613C56.6779 28.6505 56.5428 28.7286 56.4189 28.7732C56.2951 28.8178 56.1262 28.9405 55.9911 29.0632C55.856 29.1859 55.7771 29.2751 55.6983 29.3978C55.6083 29.5204 55.5294 29.6543 55.4056 29.7769C55.1917 29.9888 54.9778 30.1115 54.7301 30.2007C54.4711 30.3234 54.2684 30.4572 54.0545 30.6691C53.7618 30.9591 53.379 31.3829 52.9511 31.8847C52.5233 32.3866 52.1405 32.9331 51.7577 33.5242C51.3749 34.1152 51.0371 34.7063 50.7781 35.2862C50.5192 35.8773 50.3953 36.3792 50.3953 36.8476L50.4404 37.0149C50.6543 37.4721 50.947 37.9405 51.3298 38.3643C51.7126 38.7881 52.0954 39.1673 52.5233 39.5018C52.7372 39.6691 52.9511 39.8364 53.1651 40.0483C53.379 40.2602 53.5929 40.4721 53.8406 40.5948C54.0545 40.7175 54.3135 40.8513 54.6062 40.974C54.8652 41.0966 55.1129 41.2305 55.3268 41.3532C55.5407 41.4758 55.7884 41.6431 56.0023 41.8104C56.2162 41.9777 56.4302 42.1004 56.6779 42.1896C56.8017 42.2342 56.8918 42.2788 56.9706 42.3123C57.0607 42.3569 57.1395 42.4015 57.2633 42.4349C57.6461 42.6468 58.0289 42.9368 58.3217 43.316C58.6144 43.6952 58.9634 44.0297 59.335 44.2416C59.7178 44.4535 60.0556 44.6989 60.4384 44.9108C60.7761 45.1227 61.0801 45.4126 61.3729 45.7472C61.4967 45.9145 61.6318 46.0818 61.7557 46.2937C61.8457 46.5056 61.9696 46.6729 62.0934 46.8848C62.3524 47.2639 62.5551 47.5985 62.769 47.8996C62.9379 48.2342 63.1518 48.6134 63.3657 48.9926C63.4896 49.2045 63.6247 49.4944 63.7935 49.829C63.9174 50.2082 64.0863 50.5874 64.2214 50.9665C64.3565 51.3457 64.4353 51.7249 64.5592 52.1041C64.6492 52.4833 64.683 52.7732 64.683 52.9851C64.683 53.197 64.638 53.3643 64.5929 53.4089L64.638 53.4201ZM65.4824 33.3123C65.3585 33.3123 65.2685 33.3123 65.2234 33.2676C64.9307 33.2676 64.7168 33.223 64.6717 33.1004C64.5817 32.9777 64.5479 32.7658 64.5479 32.4647C64.5929 32.4201 64.5929 32.3755 64.5929 32.2974C64.638 32.1747 64.683 32.0855 64.683 32.0074C64.728 31.9628 64.728 31.8847 64.7731 31.8401C64.7731 31.7955 64.7731 31.7509 64.8181 31.7175C64.8181 31.6282 64.8181 31.5502 64.8632 31.5056C64.8181 31.1264 64.7393 30.7918 64.6943 30.4126C64.6492 30.0781 64.6042 29.7435 64.6042 29.3643C64.6042 29.1078 64.6042 28.8624 64.6492 28.6059C64.6943 28.394 64.6943 28.1375 64.6943 27.8922V27.3903C64.6492 27.2676 64.6492 27.1004 64.6492 26.9665C64.6492 26.6766 64.7393 26.4981 64.942 26.4647C65.1559 26.4201 65.3698 26.4201 65.5837 26.4201H65.9215C66.4732 26.4201 66.811 26.5427 66.9461 26.8439C67.0361 27.1338 67.0699 27.5576 67.0699 28.026V29.71L66.9461 29.8773C66.9911 30.0892 67.0361 30.3346 67.0361 30.5465V32.6097C67.0361 32.6097 67.0361 32.7769 66.9911 32.8996C66.9461 33.0669 66.8673 33.1561 66.8222 33.1896C66.7772 33.2342 66.7321 33.2788 66.6533 33.2788C66.5633 33.3234 66.4844 33.3234 66.4394 33.3234H65.5049L65.4824 33.3123ZM71.1795 33.4015C71.0556 33.4015 70.9205 33.4015 70.7966 33.4461C70.6728 33.4907 70.5377 33.4907 70.4138 33.4907C70.1549 33.4907 70.031 33.4015 69.986 33.2788C69.941 33.1561 69.941 32.9888 69.941 32.7769C69.941 32.3978 69.941 32.0632 69.986 31.684V30.6357C69.986 30.4238 69.986 30.1784 70.031 29.9665C70.0761 29.7546 70.0761 29.4981 70.0761 29.2974C70.0761 29.0409 70.0761 28.7955 70.031 28.5836C69.986 28.3717 69.941 28.1264 69.941 27.8699C69.941 27.7807 69.941 27.658 69.986 27.5353C69.986 27.4126 69.986 27.2453 70.031 27.1115C70.0761 26.9888 70.1211 26.855 70.1549 26.7323C70.1999 26.6097 70.2787 26.565 70.4138 26.565H70.6278C70.6278 26.565 70.7516 26.6097 70.7966 26.6097C70.8417 26.6543 70.9205 26.6543 71.0106 26.6543H71.4384C71.4384 26.6543 71.5623 26.6543 71.6523 26.6097H71.8212C71.9901 26.6097 72.1139 26.7323 72.2491 26.9888C72.3391 27.2453 72.4179 27.5353 72.463 27.8699C72.508 28.2045 72.508 28.539 72.508 28.8401V30.9033C72.508 31.0706 72.463 31.1933 72.4179 31.3271C72.3279 31.4498 72.2941 31.6171 72.2941 31.7844C72.2941 31.9963 72.3391 32.1636 72.3842 32.3308C72.4292 32.4981 72.4742 32.6654 72.4742 32.8773V33.3011C72.4742 33.3903 72.3504 33.4238 72.1365 33.4238H71.202L71.1795 33.4015Z" fill="#C30D23"/>
<path d="M120.393 63.6914C120.393 64.0595 120.325 64.3829 120.179 64.6617C120.044 64.9405 119.852 65.1747 119.616 65.3643C119.379 65.5539 119.098 65.6877 118.783 65.7881C118.467 65.8885 118.118 65.9331 117.758 65.9331C117.51 65.9331 117.285 65.9108 117.071 65.8773C116.857 65.8327 116.677 65.7881 116.508 65.7323C116.351 65.6766 116.216 65.6208 116.103 65.5539C115.99 65.487 115.912 65.4424 115.867 65.3866C115.822 65.342 115.788 65.2751 115.765 65.1859C115.743 65.0967 115.731 64.974 115.731 64.8067C115.731 64.6952 115.731 64.5948 115.731 64.5279C115.731 64.4498 115.754 64.394 115.765 64.3383C115.776 64.2825 115.799 64.2602 115.833 64.2379C115.867 64.2156 115.889 64.2045 115.934 64.2045C115.979 64.2045 116.058 64.2379 116.148 64.2937C116.238 64.3494 116.362 64.4164 116.508 64.4944C116.655 64.5613 116.835 64.6282 117.037 64.6952C117.24 64.7621 117.477 64.7844 117.747 64.7844C117.927 64.7844 118.085 64.7621 118.22 64.7175C118.355 64.6729 118.479 64.6171 118.569 64.539C118.67 64.461 118.738 64.3717 118.794 64.2602C118.839 64.1487 118.873 64.026 118.873 63.881C118.873 63.7249 118.828 63.5799 118.738 63.4684C118.648 63.3569 118.535 63.2565 118.389 63.1673C118.253 63.0781 118.085 63 117.904 62.9219C117.724 62.8439 117.544 62.7658 117.353 62.6766C117.161 62.5874 116.981 62.487 116.801 62.3755C116.621 62.2639 116.463 62.1301 116.317 61.974C116.182 61.8178 116.058 61.6394 115.979 61.4275C115.9 61.2156 115.844 60.9591 115.844 60.6691C115.844 60.3346 115.912 60.0335 116.035 59.7769C116.159 59.5204 116.328 59.3085 116.542 59.1413C116.756 58.974 117.015 58.8513 117.296 58.7621C117.578 58.6729 117.893 58.6394 118.22 58.6394C118.389 58.6394 118.557 58.6506 118.726 58.6729C118.895 58.6952 119.053 58.7286 119.199 58.7732C119.346 58.8178 119.481 58.8625 119.593 58.9182C119.706 58.974 119.785 59.0186 119.818 59.052C119.852 59.0855 119.875 59.119 119.897 59.1413C119.909 59.1636 119.92 59.197 119.931 59.2416C119.931 59.2862 119.942 59.3309 119.954 59.3978C119.954 59.4647 119.954 59.5427 119.954 59.632C119.954 59.7323 119.954 59.8216 119.954 59.8996C119.954 59.9777 119.942 60.0335 119.931 60.0781C119.92 60.1227 119.897 60.1561 119.875 60.1784C119.852 60.2007 119.818 60.2119 119.785 60.2119C119.751 60.2119 119.683 60.1896 119.593 60.1338C119.503 60.0781 119.402 60.0223 119.267 59.9665C119.143 59.9108 118.985 59.855 118.816 59.7993C118.648 59.7546 118.467 59.7212 118.265 59.7212C118.107 59.7212 117.972 59.7435 117.848 59.7769C117.736 59.8104 117.634 59.8662 117.555 59.9331C117.477 60 117.42 60.0781 117.375 60.1784C117.33 60.2788 117.319 60.368 117.319 60.4796C117.319 60.6357 117.364 60.7695 117.443 60.881C117.533 60.9926 117.645 61.0929 117.792 61.1822C117.938 61.2714 118.096 61.3494 118.287 61.4275C118.467 61.5056 118.659 61.5836 118.85 61.6729C119.042 61.7621 119.222 61.8625 119.413 61.974C119.593 62.0855 119.762 62.2193 119.897 62.3755C120.032 62.5316 120.156 62.71 120.246 62.9219C120.336 63.1338 120.381 63.3792 120.381 63.658L120.393 63.6914Z" fill="#231815"/>
<path d="M135.333 63.1784C135.333 63.6134 135.265 63.9925 135.142 64.3383C135.018 64.684 134.826 64.9628 134.579 65.2082C134.331 65.4424 134.016 65.6208 133.655 65.7435C133.284 65.8661 132.867 65.9331 132.394 65.9331C131.944 65.9331 131.55 65.8773 131.19 65.7658C130.829 65.6542 130.537 65.487 130.289 65.2639C130.041 65.0409 129.861 64.7621 129.726 64.4275C129.591 64.0929 129.535 63.7026 129.535 63.2453V58.9628C129.535 58.9628 129.535 58.8959 129.568 58.8624C129.602 58.829 129.625 58.8067 129.681 58.7955C129.737 58.7732 129.816 58.7621 129.906 58.7509C129.996 58.7509 130.12 58.7397 130.255 58.7397C130.39 58.7397 130.514 58.7397 130.604 58.7509C130.694 58.7509 130.773 58.7732 130.829 58.7955C130.886 58.8178 130.92 58.8401 130.942 58.8624C130.965 58.8959 130.976 58.9293 130.976 58.9628V63.1226C130.976 63.4015 131.01 63.6468 131.077 63.8476C131.145 64.0483 131.246 64.2267 131.381 64.3606C131.516 64.4944 131.663 64.5948 131.854 64.6617C132.045 64.7286 132.237 64.7621 132.462 64.7621C132.687 64.7621 132.89 64.7286 133.07 64.6617C133.25 64.5948 133.396 64.4944 133.532 64.3606C133.655 64.2267 133.757 64.0595 133.824 63.8699C133.892 63.6803 133.926 63.4572 133.926 63.2119V58.974C133.926 58.974 133.926 58.907 133.959 58.8736C133.993 58.8401 134.016 58.8178 134.072 58.8067C134.128 58.7955 134.196 58.7732 134.297 58.7621C134.399 58.7509 134.511 58.7509 134.646 58.7509C134.781 58.7509 134.905 58.7509 134.984 58.7621C135.074 58.7621 135.142 58.7844 135.198 58.8067C135.254 58.829 135.288 58.8513 135.311 58.8736C135.333 58.8959 135.344 58.9405 135.344 58.974V63.2007L135.333 63.1784Z" fill="#231815"/>
<path d="M150.623 59.855C150.623 59.9554 150.623 60.0558 150.612 60.1227C150.612 60.2008 150.589 60.2565 150.578 60.3011C150.567 60.3457 150.544 60.3792 150.522 60.4015C150.499 60.4238 150.465 60.4238 150.431 60.4238C150.386 60.4238 150.308 60.3903 150.195 60.3234C150.094 60.2565 149.947 60.1896 149.767 60.1115C149.587 60.0335 149.384 59.9666 149.137 59.8996C148.889 59.8327 148.608 59.7993 148.292 59.7993C147.943 59.7993 147.639 59.855 147.358 59.9777C147.076 60.1004 146.84 60.2677 146.648 60.4796C146.457 60.6915 146.299 60.9591 146.187 61.2602C146.086 61.5613 146.029 61.8959 146.029 62.264C146.029 62.6654 146.086 63.0223 146.187 63.3234C146.299 63.6245 146.446 63.8922 146.637 64.0929C146.829 64.3048 147.065 64.461 147.335 64.5613C147.605 64.6617 147.909 64.7175 148.236 64.7175C148.394 64.7175 148.562 64.6952 148.709 64.6617C148.866 64.6283 149.013 64.5725 149.148 64.4944V62.8662H147.797C147.729 62.8662 147.684 62.8216 147.639 62.7435C147.605 62.6654 147.583 62.5205 147.583 62.3309C147.583 62.2305 147.583 62.1413 147.594 62.0744C147.594 62.0074 147.617 61.9517 147.639 61.9071C147.662 61.8625 147.684 61.8402 147.707 61.8179C147.729 61.7955 147.763 61.7844 147.797 61.7844H150.195C150.251 61.7844 150.308 61.7844 150.353 61.8179C150.398 61.8402 150.443 61.8625 150.477 61.9071C150.51 61.9517 150.533 61.9963 150.555 62.0521C150.578 62.1078 150.578 62.1747 150.578 62.2416V65.0409C150.578 65.1524 150.555 65.2416 150.522 65.3309C150.488 65.4201 150.409 65.4758 150.285 65.5205C150.161 65.5651 150.015 65.6208 149.846 65.6654C149.677 65.71 149.486 65.7547 149.294 65.7993C149.103 65.8327 148.912 65.8662 148.72 65.8773C148.529 65.8885 148.337 65.8996 148.135 65.8996C147.572 65.8996 147.054 65.8216 146.615 65.6543C146.164 65.487 145.782 65.264 145.478 64.9517C145.162 64.6506 144.926 64.2714 144.768 63.8253C144.611 63.3792 144.521 62.8885 144.521 62.3197C144.521 61.7509 144.611 61.2268 144.779 60.7695C144.948 60.3123 145.207 59.9219 145.523 59.5985C145.849 59.2751 146.232 59.0297 146.693 58.8625C147.155 58.6952 147.662 58.606 148.213 58.606C148.517 58.606 148.799 58.6283 149.058 58.6729C149.317 58.7175 149.531 58.7621 149.722 58.829C149.914 58.8848 150.071 58.9517 150.195 59.0186C150.319 59.0855 150.409 59.1524 150.454 59.197C150.499 59.2528 150.544 59.3197 150.555 59.4089C150.567 59.4982 150.589 59.6431 150.589 59.8216L150.623 59.855Z" fill="#231815"/>
<path d="M165.924 63.1784C165.924 63.6134 165.856 63.9925 165.732 64.3383C165.609 64.684 165.417 64.9628 165.17 65.2082C164.922 65.4424 164.618 65.6208 164.246 65.7435C163.875 65.8661 163.458 65.9331 162.985 65.9331C162.535 65.9331 162.141 65.8773 161.781 65.7658C161.42 65.6542 161.128 65.487 160.88 65.2639C160.632 65.0409 160.452 64.7621 160.317 64.4275C160.182 64.0929 160.125 63.7026 160.125 63.2453V58.9628C160.125 58.9628 160.125 58.8959 160.159 58.8624C160.193 58.829 160.216 58.8067 160.283 58.7955C160.339 58.7732 160.418 58.7621 160.508 58.7509C160.598 58.7509 160.722 58.7397 160.857 58.7397C160.992 58.7397 161.116 58.7397 161.206 58.7509C161.296 58.7509 161.375 58.7732 161.432 58.7955C161.488 58.8178 161.522 58.8401 161.555 58.8624C161.578 58.8959 161.589 58.9293 161.589 58.9628V63.1226C161.589 63.4015 161.623 63.6468 161.69 63.8476C161.758 64.0483 161.859 64.2267 161.994 64.3606C162.13 64.4944 162.276 64.5948 162.467 64.6617C162.659 64.7286 162.85 64.7621 163.075 64.7621C163.301 64.7621 163.503 64.7286 163.683 64.6617C163.863 64.5948 164.01 64.4944 164.145 64.3606C164.269 64.2267 164.37 64.0595 164.438 63.8699C164.505 63.6803 164.539 63.4572 164.539 63.2119V58.974C164.539 58.974 164.539 58.907 164.573 58.8736C164.607 58.8401 164.629 58.8178 164.685 58.8067C164.742 58.7955 164.82 58.7732 164.911 58.7621C165.001 58.7509 165.124 58.7509 165.26 58.7509C165.395 58.7509 165.519 58.7509 165.609 58.7621C165.699 58.7621 165.766 58.7844 165.823 58.8067C165.879 58.829 165.913 58.8513 165.935 58.8736C165.958 58.8959 165.969 58.9405 165.969 58.974V63.2007L165.924 63.1784Z" fill="#231815"/>
<path d="M190.739 59.342C190.739 59.4424 190.739 59.5316 190.728 59.6097C190.716 59.6877 190.705 59.7435 190.683 59.7881C190.66 59.8327 190.638 59.8662 190.615 59.8885C190.581 59.9108 190.559 59.9219 190.525 59.9219H188.746V65.5985C188.746 65.5985 188.735 65.6654 188.712 65.6989C188.69 65.7323 188.645 65.7546 188.588 65.7658C188.532 65.7769 188.465 65.7992 188.363 65.8104C188.262 65.8215 188.149 65.8215 188.014 65.8215C187.879 65.8215 187.755 65.8215 187.665 65.8104C187.575 65.7992 187.496 65.7881 187.44 65.7658C187.384 65.7435 187.35 65.7212 187.327 65.6989C187.305 65.6654 187.294 65.632 187.294 65.5985V59.9219H185.515C185.515 59.9219 185.447 59.9219 185.425 59.8885C185.402 59.8662 185.38 59.8327 185.357 59.7881C185.335 59.7435 185.323 59.6877 185.312 59.6097C185.312 59.5316 185.301 59.4424 185.301 59.342C185.301 59.2416 185.301 59.1412 185.312 59.0632C185.312 58.9851 185.335 58.9294 185.357 58.8847C185.38 58.8401 185.402 58.8067 185.425 58.7844C185.447 58.7621 185.481 58.7509 185.515 58.7509H190.525C190.525 58.7509 190.581 58.7509 190.615 58.7844C190.638 58.8067 190.66 58.8401 190.683 58.8847C190.705 58.9294 190.716 58.9963 190.728 59.0632C190.739 59.1301 190.739 59.2305 190.739 59.342Z" fill="#231815"/>
<path d="M204.858 65.2751C204.903 65.4089 204.925 65.5093 204.936 65.5873C204.948 65.6654 204.936 65.7212 204.891 65.7546C204.846 65.7881 204.779 65.8215 204.677 65.8215C204.576 65.8215 204.43 65.8327 204.25 65.8327C204.069 65.8327 203.923 65.8327 203.81 65.8327C203.709 65.8327 203.63 65.8215 203.574 65.7992C203.518 65.7769 203.484 65.7546 203.461 65.7323C203.439 65.71 203.416 65.6654 203.405 65.6208L202.932 64.2044H200.264L199.814 65.5873C199.814 65.5873 199.78 65.6765 199.757 65.71C199.735 65.7435 199.701 65.7769 199.645 65.7881C199.588 65.8104 199.521 65.8215 199.419 65.8327C199.318 65.8327 199.194 65.8327 199.037 65.8327C198.868 65.8327 198.733 65.8327 198.643 65.8215C198.553 65.8104 198.485 65.7881 198.44 65.7435C198.395 65.6989 198.395 65.6431 198.406 65.565C198.417 65.487 198.44 65.3866 198.485 65.2639L200.68 59.0074C200.703 58.9405 200.726 58.8959 200.759 58.8624C200.793 58.829 200.838 58.7955 200.894 58.7732C200.962 58.7509 201.052 58.7397 201.165 58.7397C201.277 58.7397 201.424 58.7397 201.615 58.7397C201.829 58.7397 201.998 58.7397 202.133 58.7397C202.268 58.7397 202.358 58.7621 202.437 58.7732C202.504 58.7955 202.561 58.8178 202.595 58.8624C202.628 58.907 202.651 58.9516 202.673 59.0297L204.869 65.2751H204.858ZM201.592 60.1003L200.59 63.1003H202.606L201.604 60.1003H201.592Z" fill="#231815"/>
<path d="M219.066 63.6914C219.066 63.9368 219.032 64.171 218.965 64.3717C218.897 64.5725 218.796 64.7509 218.672 64.907C218.548 65.0632 218.402 65.197 218.233 65.3085C218.064 65.42 217.873 65.5093 217.67 65.5873C217.467 65.6542 217.242 65.71 217.017 65.7435C216.781 65.7769 216.522 65.7992 216.24 65.7992H214.349C214.225 65.7992 214.124 65.7658 214.045 65.6877C213.966 65.6208 213.921 65.4981 213.921 65.342V59.197C213.921 59.0409 213.966 58.9182 214.045 58.8513C214.124 58.7844 214.225 58.7397 214.349 58.7397H216.139C216.578 58.7397 216.938 58.7732 217.242 58.8513C217.546 58.9182 217.794 59.0297 218.008 59.1858C218.211 59.3308 218.379 59.5204 218.481 59.7435C218.582 59.9665 218.65 60.2342 218.65 60.5353C218.65 60.7026 218.627 60.8699 218.582 61.0148C218.537 61.1598 218.47 61.3048 218.391 61.4275C218.312 61.5502 218.199 61.6617 218.075 61.7509C217.952 61.8401 217.817 61.9182 217.659 61.9851C217.862 62.0186 218.042 62.0855 218.222 62.1747C218.391 62.2639 218.537 62.3866 218.672 62.5204C218.796 62.6654 218.897 62.8327 218.976 63.0223C219.055 63.2119 219.089 63.4349 219.089 63.6691L219.066 63.6914ZM217.197 60.7249C217.197 60.5799 217.175 60.4572 217.13 60.3457C217.085 60.2342 217.017 60.145 216.927 60.0669C216.837 59.9888 216.724 59.9331 216.601 59.8996C216.465 59.855 216.285 59.8438 216.06 59.8438H215.328V61.6728H216.139C216.353 61.6728 216.51 61.6505 216.634 61.5948C216.758 61.539 216.859 61.4832 216.95 61.394C217.028 61.3048 217.096 61.2044 217.13 61.0929C217.163 60.9814 217.186 60.8587 217.186 60.736L217.197 60.7249ZM217.569 63.736C217.569 63.5687 217.546 63.4238 217.49 63.3011C217.434 63.1784 217.355 63.0669 217.254 62.9777C217.152 62.8884 217.017 62.8215 216.848 62.7769C216.679 62.7323 216.465 62.71 216.206 62.71H215.351V64.7174H216.398C216.601 64.7174 216.769 64.6951 216.905 64.6505C217.04 64.6059 217.163 64.5502 217.265 64.4609C217.366 64.3829 217.445 64.2825 217.501 64.1598C217.558 64.0371 217.591 63.9033 217.591 63.7472L217.569 63.736Z" fill="#231815"/>
<path d="M232.51 65.2416C232.51 65.342 232.51 65.4312 232.498 65.5093C232.498 65.5762 232.476 65.632 232.453 65.6766C232.431 65.7212 232.408 65.7546 232.386 65.7769C232.352 65.7992 232.33 65.8104 232.296 65.8104H228.727C228.603 65.8104 228.501 65.7769 228.423 65.6989C228.344 65.632 228.299 65.5093 228.299 65.3531V59.2082C228.299 59.052 228.344 58.9294 228.423 58.8624C228.501 58.7955 228.603 58.7509 228.727 58.7509H232.273C232.273 58.7509 232.341 58.7509 232.363 58.7732C232.386 58.7955 232.408 58.8178 232.431 58.8736C232.453 58.9294 232.465 58.974 232.476 59.052C232.476 59.1189 232.487 59.2082 232.487 59.3197C232.487 59.4201 232.487 59.5093 232.476 59.5762C232.476 59.6431 232.453 59.6989 232.431 59.7435C232.408 59.7881 232.386 59.8215 232.363 59.8439C232.341 59.8662 232.307 59.8773 232.273 59.8773H229.729V61.5948H231.879C231.879 61.5948 231.947 61.5948 231.969 61.6282C232.003 61.6505 232.014 61.684 232.037 61.7175C232.059 61.7509 232.071 61.8178 232.082 61.8847C232.082 61.9517 232.093 62.0409 232.093 62.1413C232.093 62.2416 232.093 62.3308 232.082 62.3978C232.082 62.4647 232.059 62.5204 232.037 62.565C232.014 62.6096 231.992 62.632 231.969 62.6543C231.947 62.6766 231.913 62.6766 231.879 62.6766H229.729V64.6617H232.296C232.296 64.6617 232.363 64.6617 232.386 64.6952C232.408 64.7175 232.431 64.7509 232.453 64.7955C232.476 64.8401 232.487 64.8959 232.498 64.9628C232.498 65.0297 232.51 65.1189 232.51 65.2305V65.2416Z" fill="#231815"/>
<path d="M39.3727 78C17.6654 78 0 60.5019 0 39C0 17.4981 17.6654 0 39.3727 0C61.0801 0 78.7454 17.4981 78.7454 39C78.7454 60.5019 61.0801 78 39.3727 78ZM39.3727 3.34573C19.5231 3.34573 3.3777 19.3383 3.3777 39C3.3777 58.6617 19.5231 74.6543 39.3727 74.6543C59.2223 74.6543 75.3677 58.6617 75.3677 39C75.3677 19.3383 59.2111 3.34573 39.3727 3.34573Z" fill="#C30D23"/>
</g>
<defs>
<clipPath id="clip0_120_187">
<rect width="269" height="78" fill="white"/>
</clipPath>
</defs>
</svg>
