<svg width="37" height="37" viewBox="0 0 37 37" fill="none" xmlns="http://www.w3.org/2000/svg">
<circle cx="18.5" cy="18.5" r="18.5" fill="#E25C55"/>
<path d="M28.664 29.288C28.7573 29.3813 28.804 29.4653 28.804 29.54C28.804 29.6147 28.7573 29.6987 28.664 29.792C27.4693 30.9867 26.312 31.584 25.192 31.584C24.2027 31.584 23.4093 31.276 22.812 30.66C22.2147 30.044 21.7013 29.148 21.272 27.972C20.432 28.252 19.6013 28.392 18.78 28.392C17.324 28.392 15.8867 27.9907 14.468 27.188C13.068 26.3667 11.9107 25.1627 10.996 23.576C10.0813 21.9893 9.624 20.0947 9.624 17.892C9.624 15.6893 10.0813 13.7947 10.996 12.208C11.9107 10.6213 13.068 9.42667 14.468 8.624C15.8867 7.80267 17.324 7.392 18.78 7.392C20.236 7.392 21.664 7.80267 23.064 8.624C24.464 9.42667 25.6213 10.6213 26.536 12.208C27.4507 13.7947 27.908 15.6893 27.908 17.892C27.908 20.0573 27.4693 21.924 26.592 23.492C25.7147 25.06 24.5667 26.2733 23.148 27.132C24.2307 28.868 25.4347 29.736 26.76 29.736C27.04 29.736 27.2733 29.6987 27.46 29.624C27.6653 29.5493 27.8893 29.428 28.132 29.26C28.244 29.1853 28.3373 29.148 28.412 29.148C28.4867 29.148 28.5707 29.1947 28.664 29.288ZM14.104 24.752C14.2347 24.0053 14.5893 23.38 15.168 22.876C15.7467 22.372 16.4653 22.12 17.324 22.12C18.3133 22.12 19.228 22.4373 20.068 23.072C20.9267 23.7067 21.7387 24.6773 22.504 25.984C23.3627 25.1813 24.044 24.0987 24.548 22.736C25.052 21.3733 25.304 19.7587 25.304 17.892C25.304 15.8573 24.9867 14.1213 24.352 12.684C23.736 11.2467 22.924 10.1733 21.916 9.464C20.9267 8.736 19.8813 8.372 18.78 8.372C17.66 8.372 16.596 8.736 15.588 9.464C14.5987 10.1733 13.7867 11.2467 13.152 12.684C12.536 14.1213 12.228 15.8573 12.228 17.892C12.228 19.3293 12.396 20.6267 12.732 21.784C13.068 22.9227 13.5253 23.912 14.104 24.752ZM15.028 25.144C15.028 25.4613 15.196 25.8067 15.532 26.18C15.8867 26.5347 16.3533 26.8427 16.932 27.104C17.5107 27.3467 18.1267 27.468 18.78 27.468C19.5453 27.468 20.264 27.3187 20.936 27.02C20.376 25.4707 19.7973 24.4253 19.2 23.884C18.6213 23.3427 17.968 23.072 17.24 23.072C16.5493 23.072 16.008 23.296 15.616 23.744C15.224 24.1733 15.028 24.64 15.028 25.144Z" fill="white"/>
</svg>
