<svg width="49" height="67" viewBox="0 0 49 67" fill="none" xmlns="http://www.w3.org/2000/svg">
<path d="M0 6H49V67L24.5 52.5972L0 67V6Z" fill="#C79167"/>
<path d="M15.376 43.448C14.032 43.448 12.752 43 11.536 42.104C10.3413 41.1867 9.36 39.8213 8.592 38.008C7.84533 36.1733 7.472 33.9547 7.472 31.352C7.472 28.7493 7.84533 26.5413 8.592 24.728C9.36 22.8933 10.352 21.5173 11.568 20.6C12.784 19.6827 14.0747 19.224 15.44 19.224C16.784 19.224 18.0533 19.6827 19.248 20.6C20.464 21.5173 21.4453 22.8933 22.192 24.728C22.96 26.5413 23.344 28.7493 23.344 31.352C23.344 33.9547 22.96 36.1733 22.192 38.008C21.424 39.8213 20.432 41.1867 19.216 42.104C18 43 16.72 43.448 15.376 43.448ZM15.44 42.328C16.7627 42.328 17.7867 41.4213 18.512 39.608C19.2587 37.7947 19.632 35.0427 19.632 31.352C19.632 27.6613 19.2587 24.9093 18.512 23.096C17.7867 21.2613 16.7627 20.344 15.44 20.344C14.096 20.344 13.0507 21.2613 12.304 23.096C11.5573 24.9093 11.184 27.6613 11.184 31.352C11.184 35.0427 11.5573 37.7947 12.304 39.608C13.0507 41.4213 14.096 42.328 15.44 42.328ZM37.0053 30.52C38.9466 30.8613 40.5146 31.5653 41.7093 32.632C42.9039 33.6987 43.5013 35.0213 43.5013 36.6C43.5013 37.8587 43.1279 39.0107 42.3813 40.056C41.6559 41.1013 40.6426 41.9333 39.3413 42.552C38.0399 43.1493 36.5786 43.448 34.9573 43.448C33.4853 43.448 32.2159 43.2027 31.1493 42.712C30.0826 42.2 29.2719 41.5493 28.7173 40.76C28.1626 39.9707 27.8853 39.1493 27.8853 38.296C27.8853 37.528 28.0986 36.952 28.5253 36.568C28.9733 36.184 29.4639 35.992 29.9973 35.992C30.5733 35.992 31.0746 36.152 31.5013 36.472C31.9279 36.792 32.1413 37.2507 32.1413 37.848C32.1413 38.0827 32.0986 38.2853 32.0133 38.456C31.9279 38.6267 31.7893 38.84 31.5973 39.096C31.4479 39.288 31.3306 39.4587 31.2453 39.608C31.1813 39.736 31.1493 39.896 31.1493 40.088C31.1493 40.7493 31.4479 41.2933 32.0453 41.72C32.6639 42.1253 33.5386 42.328 34.6693 42.328C36.1839 42.328 37.3679 41.7627 38.2213 40.632C39.0959 39.5013 39.5333 38.0933 39.5333 36.408C39.5333 34.8293 39.1173 33.56 38.2853 32.6C37.4746 31.6187 36.2586 31.128 34.6373 31.128L33.9973 31.16C33.6559 31.2027 33.3786 31.224 33.1653 31.224C32.9306 31.224 32.7386 31.16 32.5893 31.032C32.4399 30.904 32.3653 30.7333 32.3653 30.52C32.3653 30.328 32.4399 30.168 32.5893 30.04C32.7599 29.8907 32.9519 29.816 33.1653 29.816C33.4426 29.816 33.7306 29.848 34.0293 29.912C34.3706 29.9547 34.6266 29.976 34.7973 29.976C35.7999 29.976 36.7066 29.6667 37.5173 29.048C38.3279 28.4293 38.7333 27.1493 38.7333 25.208C38.7333 23.4587 38.3493 22.2213 37.5813 21.496C36.8346 20.7493 35.9173 20.376 34.8293 20.376C34.1466 20.376 33.5173 20.5253 32.9413 20.824C32.3866 21.1227 32.1093 21.6133 32.1093 22.296C32.1093 22.6373 32.2266 22.9893 32.4613 23.352C32.5466 23.5013 32.6213 23.672 32.6853 23.864C32.7706 24.0347 32.8133 24.2267 32.8133 24.44C32.8133 24.9307 32.6533 25.3467 32.3333 25.688C32.0133 26.008 31.5973 26.168 31.0853 26.168C30.4239 26.168 29.9013 25.9547 29.5173 25.528C29.1333 25.08 28.9413 24.504 28.9413 23.8C28.9413 23.1173 29.2186 22.424 29.7733 21.72C30.3279 20.9947 31.0853 20.3973 32.0453 19.928C33.0266 19.4587 34.1146 19.224 35.3093 19.224C36.6533 19.224 37.8693 19.4693 38.9573 19.96C40.0666 20.4293 40.9413 21.1013 41.5813 21.976C42.2213 22.8293 42.5413 23.8213 42.5413 24.952C42.5413 26.3173 42.0719 27.512 41.1333 28.536C40.2159 29.56 38.8399 30.2213 37.0053 30.52Z" fill="white"/>
</svg>
