<svg width="49" height="67" viewBox="0 0 49 67" fill="none" xmlns="http://www.w3.org/2000/svg">
<path d="M0 6H49V67L24.5 52.5972L0 67V6Z" fill="#C79167"/>
<path d="M15.376 43.448C14.032 43.448 12.752 43 11.536 42.104C10.3413 41.1867 9.36 39.8213 8.592 38.008C7.84533 36.1733 7.472 33.9547 7.472 31.352C7.472 28.7493 7.84533 26.5413 8.592 24.728C9.36 22.8933 10.352 21.5173 11.568 20.6C12.784 19.6827 14.0747 19.224 15.44 19.224C16.784 19.224 18.0533 19.6827 19.248 20.6C20.464 21.5173 21.4453 22.8933 22.192 24.728C22.96 26.5413 23.344 28.7493 23.344 31.352C23.344 33.9547 22.96 36.1733 22.192 38.008C21.424 39.8213 20.432 41.1867 19.216 42.104C18 43 16.72 43.448 15.376 43.448ZM15.44 42.328C16.7627 42.328 17.7867 41.4213 18.512 39.608C19.2587 37.7947 19.632 35.0427 19.632 31.352C19.632 27.6613 19.2587 24.9093 18.512 23.096C17.7867 21.2613 16.7627 20.344 15.44 20.344C14.096 20.344 13.0507 21.2613 12.304 23.096C11.5573 24.9093 11.184 27.6613 11.184 31.352C11.184 35.0427 11.5573 37.7947 12.304 39.608C13.0507 41.4213 14.096 42.328 15.44 42.328ZM41.8693 43H28.3333L28.0453 42.36C28.6426 40.76 29.4639 39.2773 30.5093 37.912C31.5546 36.5253 32.9733 34.8507 34.7653 32.888C35.8959 31.672 36.7599 30.6693 37.3573 29.88C37.9759 29.0907 38.4559 28.2907 38.7973 27.48C39.1386 26.648 39.3093 25.7627 39.3093 24.824C39.3093 23.5227 38.9466 22.456 38.2213 21.624C37.5173 20.792 36.4826 20.376 35.1173 20.376C34.1359 20.376 33.2933 20.6 32.5893 21.048C31.9066 21.4747 31.5653 22.04 31.5653 22.744C31.5653 23.0213 31.6186 23.2667 31.7253 23.48C31.8533 23.6933 32.0239 23.9173 32.2373 24.152C32.4719 24.408 32.6426 24.6533 32.7493 24.888C32.8773 25.1013 32.9413 25.368 32.9413 25.688C32.9413 26.2853 32.7386 26.7653 32.3333 27.128C31.9493 27.4693 31.4586 27.64 30.8613 27.64C30.3493 27.64 29.8586 27.3947 29.3893 26.904C28.9413 26.4133 28.7173 25.7627 28.7173 24.952C28.7173 24.0773 28.9946 23.2027 29.5493 22.328C30.1039 21.432 30.9146 20.696 31.9813 20.12C33.0479 19.544 34.3066 19.256 35.7573 19.256C37.3359 19.256 38.6693 19.544 39.7573 20.12C40.8666 20.6747 41.6879 21.432 42.2213 22.392C42.7546 23.3307 43.0213 24.3653 43.0213 25.496C43.0213 26.5413 42.8186 27.448 42.4133 28.216C42.0079 28.984 41.4959 29.656 40.8773 30.232C40.2586 30.808 39.3626 31.5333 38.1893 32.408C37.2933 33.0693 36.5679 33.624 36.0133 34.072C33.8799 35.7573 32.1733 37.7307 30.8933 39.992H35.3413C37.0266 39.992 38.3066 39.9067 39.1813 39.736C40.0559 39.544 40.7386 39.2027 41.2293 38.712C41.7413 38.2213 42.2213 37.464 42.6693 36.44C42.7333 36.312 42.8079 36.248 42.8933 36.248L43.1493 36.312C43.3626 36.3973 43.4693 36.504 43.4693 36.632L43.4373 36.824L41.8693 43Z" fill="white"/>
</svg>
