<svg width="49" height="67" viewBox="0 0 49 67" fill="none" xmlns="http://www.w3.org/2000/svg">
<path d="M0 6H49V67L24.5 52.5972L0 67V6Z" fill="#C79167"/>
<path d="M15.376 43.448C14.032 43.448 12.752 43 11.536 42.104C10.3413 41.1867 9.36 39.8213 8.592 38.008C7.84533 36.1733 7.472 33.9547 7.472 31.352C7.472 28.7493 7.84533 26.5413 8.592 24.728C9.36 22.8933 10.352 21.5173 11.568 20.6C12.784 19.6827 14.0747 19.224 15.44 19.224C16.784 19.224 18.0533 19.6827 19.248 20.6C20.464 21.5173 21.4453 22.8933 22.192 24.728C22.96 26.5413 23.344 28.7493 23.344 31.352C23.344 33.9547 22.96 36.1733 22.192 38.008C21.424 39.8213 20.432 41.1867 19.216 42.104C18 43 16.72 43.448 15.376 43.448ZM15.44 42.328C16.7627 42.328 17.7867 41.4213 18.512 39.608C19.2587 37.7947 19.632 35.0427 19.632 31.352C19.632 27.6613 19.2587 24.9093 18.512 23.096C17.7867 21.2613 16.7627 20.344 15.44 20.344C14.096 20.344 13.0507 21.2613 12.304 23.096C11.5573 24.9093 11.184 27.6613 11.184 31.352C11.184 35.0427 11.5573 37.7947 12.304 39.608C13.0507 41.4213 14.096 42.328 15.44 42.328ZM29.2933 43C29.1439 43 29.0693 42.8613 29.0693 42.584C29.0693 42.3067 29.1439 42.168 29.2933 42.168H29.7413C32.3013 42.168 33.5813 41.3787 33.5813 39.8V25.368C33.5813 24.5787 33.4959 24.024 33.3253 23.704C33.1759 23.384 32.8879 23.1813 32.4613 23.096C32.0346 23.0107 31.2986 22.968 30.2533 22.968H29.3573C29.2079 22.968 29.1333 22.8293 29.1333 22.552C29.1333 22.2747 29.2079 22.136 29.3573 22.136C32.3226 21.9227 34.9039 20.952 37.1013 19.224V39.8C37.1013 41.3787 38.3919 42.168 40.9733 42.168H41.3893C41.5386 42.168 41.6133 42.3067 41.6133 42.584C41.6133 42.8613 41.5386 43 41.3893 43H29.2933Z" fill="white"/>
</svg>
