<svg width="522" height="518" viewBox="0 0 522 518" fill="none" xmlns="http://www.w3.org/2000/svg">
<rect width="522" height="518" rx="259" fill="#F9EFE3"/>
<path d="M127.4 238.32C127.507 238.213 127.667 238.043 127.88 237.808C128.093 237.573 128.264 237.456 128.392 237.456C128.52 237.456 128.808 237.669 129.256 238.096C129.725 238.501 130.152 238.939 130.536 239.408C130.941 239.856 131.144 240.155 131.144 240.304C131.037 240.411 130.899 240.485 130.728 240.528C130.579 240.571 130.323 240.613 129.96 240.656C129.427 241.104 128.797 241.573 128.072 242.064C127.368 242.555 126.707 242.981 126.088 243.344L127.176 244.304C127.112 244.645 126.835 244.816 126.344 244.816H119.08C119.699 247.291 120.637 249.531 121.896 251.536L122.632 250.8C123.421 249.968 124.157 249.083 124.84 248.144C125.544 247.184 126.056 246.309 126.376 245.52C128.659 247.077 129.8 248.005 129.8 248.304C129.8 248.368 129.704 248.421 129.512 248.464L128.936 248.496C128.125 249.115 127.133 249.765 125.96 250.448C124.787 251.109 123.592 251.707 122.376 252.24C124.595 255.504 127.571 257.989 131.304 259.696L131.208 260.016C130.589 260.08 130.035 260.325 129.544 260.752C129.053 261.179 128.659 261.755 128.36 262.48C125.693 260.645 123.549 258.309 121.928 255.472C120.328 252.613 119.187 249.061 118.504 244.816H118.088C117.192 245.627 116.029 246.48 114.6 247.376C116.392 248.827 117.725 250.576 118.6 252.624C119.496 254.651 119.944 256.667 119.944 258.672C119.944 259.696 119.827 260.635 119.592 261.488C119.357 262.32 119.037 262.992 118.632 263.504C118.269 263.931 117.757 264.24 117.096 264.432C116.435 264.645 115.592 264.752 114.568 264.752C114.547 263.92 114.323 263.28 113.896 262.832C113.704 262.64 113.373 262.448 112.904 262.256C112.435 262.085 111.891 261.936 111.272 261.808V261.36C111.997 261.424 112.733 261.488 113.48 261.552C114.248 261.595 114.888 261.616 115.4 261.616C115.635 261.616 115.816 261.595 115.944 261.552C116.093 261.509 116.211 261.424 116.296 261.296C116.595 260.869 116.808 260.229 116.936 259.376C117.085 258.501 117.128 257.531 117.064 256.464C115.187 257.808 112.989 259.024 110.472 260.112C107.955 261.179 105.395 261.989 102.792 262.544L102.568 262.064C105.277 261.125 107.891 259.824 110.408 258.16C112.947 256.496 114.963 254.725 116.456 252.848C116.371 252.528 116.232 252.101 116.04 251.568C114.44 252.656 112.531 253.691 110.312 254.672C108.115 255.632 105.949 256.4 103.816 256.976L103.592 256.528C105.597 255.675 107.624 254.533 109.672 253.104C111.741 251.653 113.416 250.203 114.696 248.752C114.312 248.155 114.077 247.803 113.992 247.696C111.197 249.296 107.912 250.576 104.136 251.536L103.912 251.088C105.768 250.341 107.56 249.413 109.288 248.304C111.037 247.173 112.573 246.011 113.896 244.816H111.752C110.493 244.837 109.192 244.987 107.848 245.264L107.048 243.632C108.221 243.76 109.64 243.845 111.304 243.888H122.44L124.136 241.68L125.512 242.832C125.981 241.893 126.376 240.976 126.696 240.08H107.496C107.517 241.125 107.368 242.032 107.048 242.8C106.728 243.547 106.301 244.101 105.768 244.464C105.405 244.741 104.979 244.88 104.488 244.88C103.784 244.88 103.315 244.592 103.08 244.016C103.016 243.824 102.984 243.643 102.984 243.472C102.984 243.131 103.08 242.811 103.272 242.512C103.485 242.192 103.763 241.936 104.104 241.744C104.744 241.381 105.309 240.752 105.8 239.856C106.291 238.96 106.515 238.011 106.472 237.008H106.92C107.219 237.883 107.379 238.597 107.4 239.152H115.432C115.432 237.339 115.347 235.909 115.176 234.864C116.712 235.205 117.779 235.483 118.376 235.696C118.973 235.909 119.272 236.091 119.272 236.24C119.272 236.347 119.187 236.453 119.016 236.56L118.44 236.912V239.152H126.664L127.4 238.32ZM158.024 253.648C158.856 257.36 161.341 259.995 165.48 261.552L165.448 261.936C164.723 262.128 164.168 262.427 163.784 262.832C163.4 263.259 163.165 263.899 163.08 264.752C160.029 262.896 158.173 259.216 157.512 253.712C157.235 255.483 156.733 257.029 156.008 258.352C155.283 259.653 154.173 260.837 152.68 261.904C151.208 262.971 149.235 263.899 146.76 264.688L146.408 264.208C148.307 263.333 149.821 262.373 150.952 261.328C152.104 260.261 152.947 259.12 153.48 257.904C154.035 256.667 154.419 255.248 154.632 253.648H152.616C151.464 253.669 150.269 253.819 149.032 254.096L148.232 252.464C149.405 252.592 150.824 252.677 152.488 252.72H154.728C154.792 251.824 154.845 250.437 154.888 248.56V247.536H153.32C152.168 249.328 150.803 250.736 149.224 251.76L148.808 251.472C149.405 250.64 149.939 249.712 150.408 248.688C150.835 247.728 151.208 246.608 151.528 245.328C151.848 244.048 152.019 242.96 152.04 242.064C150.909 243.557 149.587 244.827 148.072 245.872L147.72 245.552C148.403 244.592 149.032 243.515 149.608 242.32H142.792C142.749 244.432 142.696 246 142.632 247.024H145.096L145.736 246.224C145.821 246.139 145.96 245.989 146.152 245.776C146.344 245.541 146.504 245.424 146.632 245.424C146.76 245.424 147.048 245.595 147.496 245.936C147.944 246.277 148.36 246.64 148.744 247.024C149.128 247.408 149.32 247.675 149.32 247.824C149.043 248.101 148.616 248.283 148.04 248.368C147.933 252.997 147.709 256.411 147.368 258.608C147.027 260.784 146.504 262.224 145.8 262.928C144.925 263.781 143.816 264.187 142.472 264.144C142.472 263.653 142.44 263.248 142.376 262.928C142.312 262.608 142.195 262.363 142.024 262.192C141.725 261.787 141.032 261.456 139.944 261.2L139.976 260.72L140.84 260.784C141.864 260.869 142.525 260.912 142.824 260.912C143.059 260.912 143.251 260.891 143.4 260.848C143.549 260.784 143.699 260.688 143.848 260.56C144.275 260.133 144.605 258.907 144.84 256.88C145.096 254.853 145.277 251.877 145.384 247.952H142.568C142.376 251.536 141.821 254.693 140.904 257.424C140.008 260.155 138.493 262.565 136.36 264.656L135.88 264.208C137.096 262.288 137.992 260.197 138.568 257.936C139.144 255.653 139.496 253.424 139.624 251.248C139.773 249.051 139.859 246.299 139.88 242.992V242.32H138.76C138.163 242.341 137.523 242.491 136.84 242.768L136.04 241.168C137.021 241.296 138.216 241.381 139.624 241.424H141.288C141.288 238.885 141.16 236.773 140.904 235.088C142.44 235.451 143.496 235.739 144.072 235.952C144.648 236.165 144.936 236.347 144.936 236.496C144.936 236.56 144.861 236.645 144.712 236.752L144.2 237.072V241.424H145.576L147.24 238.992C148.349 239.973 149.277 240.816 150.024 241.52L150.184 241.2C150.589 240.219 150.931 239.131 151.208 237.936C151.507 236.741 151.667 235.696 151.688 234.8C154.419 235.632 155.784 236.197 155.784 236.496C155.784 236.581 155.688 236.667 155.496 236.752L154.92 236.976C154.472 238.128 153.907 239.269 153.224 240.4H160.136L160.936 239.216C161 239.109 161.107 238.939 161.256 238.704C161.427 238.469 161.565 238.299 161.672 238.192C161.779 238.064 161.875 238 161.96 238C162.088 238 162.397 238.203 162.888 238.608C163.4 239.013 163.869 239.451 164.296 239.92C164.744 240.368 164.968 240.667 164.968 240.816C164.883 241.157 164.595 241.328 164.104 241.328H152.584L152.104 242C154.664 242.768 155.944 243.291 155.944 243.568C155.944 243.653 155.848 243.739 155.656 243.824L155.08 244.048C154.781 244.816 154.387 245.669 153.896 246.608H159.88L160.616 245.52C160.723 245.371 160.84 245.2 160.968 245.008C161.117 244.795 161.235 244.645 161.32 244.56C161.427 244.453 161.523 244.4 161.608 244.4C161.736 244.4 162.035 244.592 162.504 244.976C162.995 245.339 163.443 245.733 163.848 246.16C164.275 246.587 164.488 246.875 164.488 247.024C164.403 247.365 164.125 247.536 163.656 247.536H157.896C157.896 249.563 157.811 251.291 157.64 252.72H160.584L161.352 251.6C161.459 251.451 161.576 251.28 161.704 251.088C161.853 250.875 161.971 250.725 162.056 250.64C162.163 250.533 162.259 250.48 162.344 250.48C162.472 250.48 162.771 250.672 163.24 251.056C163.731 251.44 164.179 251.845 164.584 252.272C165.011 252.699 165.224 252.987 165.224 253.136C165.139 253.477 164.851 253.648 164.36 253.648H158.024ZM184.744 239.6C186.621 239.6 188.477 239.973 190.312 240.72C192.147 241.467 193.672 242.672 194.888 244.336C196.104 245.979 196.712 248.069 196.712 250.608C196.712 253.488 195.869 255.813 194.184 257.584C192.52 259.333 190.493 260.571 188.104 261.296C185.736 262.021 183.389 262.384 181.064 262.384C180.531 262.384 180.264 262.331 180.264 262.224C180.264 262.139 180.456 262.064 180.84 262C181.224 261.915 181.448 261.861 181.512 261.84C185.032 261.264 187.923 260.016 190.184 258.096C192.445 256.176 193.576 253.616 193.576 250.416C193.576 247.92 193.053 245.947 192.008 244.496C190.984 243.024 189.768 242.011 188.36 241.456C186.952 240.901 185.619 240.624 184.36 240.624C184.061 240.624 183.837 240.635 183.688 240.656C183.944 241.211 184.168 241.904 184.36 242.736C184.552 243.568 184.648 244.347 184.648 245.072C184.648 245.861 184.552 246.779 184.36 247.824C184.189 248.869 183.891 249.915 183.464 250.96C182.803 252.688 182.024 254.224 181.128 255.568C180.232 256.912 179.347 257.947 178.472 258.672C177.619 259.397 176.904 259.76 176.328 259.76C175.539 259.76 174.781 259.355 174.056 258.544C173.352 257.712 172.776 256.667 172.328 255.408C171.901 254.128 171.688 252.848 171.688 251.568C171.688 249.179 172.317 247.077 173.576 245.264C174.856 243.451 176.499 242.053 178.504 241.072C180.531 240.091 182.611 239.6 184.744 239.6ZM183.464 243.056C183.464 242.288 183.357 241.499 183.144 240.688C181.459 240.88 179.923 241.445 178.536 242.384C177.149 243.323 176.051 244.528 175.24 246C174.429 247.451 174.024 249.019 174.024 250.704C174.024 251.877 174.173 252.88 174.472 253.712C174.771 254.523 175.123 255.131 175.528 255.536C175.933 255.941 176.264 256.144 176.52 256.144C177.011 256.144 177.608 255.771 178.312 255.024C179.016 254.277 179.699 253.381 180.36 252.336C181.469 250.651 182.259 249.083 182.728 247.632C183.219 246.181 183.464 244.656 183.464 243.056ZM229.416 243.6V245.04L229.48 246.224C229.48 246.523 229.501 247.013 229.544 247.696C229.459 247.888 229.171 248.091 228.68 248.304C228.189 248.496 227.741 248.592 227.336 248.592H226.888V247.952H224.04V251.312H226.408L227.08 250.32C227.187 250.192 227.293 250.053 227.4 249.904C227.507 249.755 227.613 249.627 227.72 249.52C227.827 249.392 227.923 249.328 228.008 249.328C228.136 249.328 228.413 249.499 228.84 249.84C229.288 250.181 229.704 250.544 230.088 250.928C230.472 251.312 230.664 251.579 230.664 251.728C230.579 252.069 230.301 252.24 229.832 252.24H224.04V255.504H227.432L228.136 254.48C228.2 254.395 228.307 254.256 228.456 254.064C228.605 253.851 228.723 253.701 228.808 253.616C228.915 253.509 229.011 253.456 229.096 253.456C229.224 253.456 229.512 253.637 229.96 254C230.429 254.341 230.867 254.715 231.272 255.12C231.677 255.504 231.88 255.771 231.88 255.92C231.795 256.261 231.517 256.432 231.048 256.432H224.04V257.488C224.061 257.723 224.072 258 224.072 258.32L224.168 259.376C224.104 259.632 223.816 259.888 223.304 260.144C222.813 260.379 222.333 260.496 221.864 260.496C221.395 260.496 221.16 260.283 221.16 259.856C221.224 259.387 221.267 258.928 221.288 258.48C221.288 258.203 221.299 257.979 221.32 257.808V256.432H219.624C218.664 256.453 217.64 256.603 216.552 256.88L215.784 255.408C215.592 256.091 215.315 256.869 214.952 257.744C215.933 259.067 217.171 259.963 218.664 260.432C220.157 260.901 222.131 261.136 224.584 261.136C228.403 261.136 230.931 261.115 232.168 261.072V261.488C231.699 261.595 231.336 261.883 231.08 262.352C230.824 262.821 230.685 263.387 230.664 264.048H224.392C221.789 264.048 219.688 263.696 218.088 262.992C216.488 262.309 215.208 261.051 214.248 259.216C213.032 261.413 211.411 263.237 209.384 264.688L209.064 264.272C210.92 262.373 212.307 259.888 213.224 256.816C212.819 255.621 212.456 254.171 212.136 252.464C211.603 253.787 211.176 254.747 210.856 255.344C210.92 255.472 210.952 255.579 210.952 255.664C210.952 255.792 210.899 255.931 210.792 256.08L209.064 254.128C209.491 253.787 209.981 253.36 210.536 252.848C211.112 252.315 211.56 251.856 211.88 251.472L212.04 250.16L213.224 250.544L212.488 251.664L212.456 251.76C212.861 253.296 213.235 254.501 213.576 255.376C214.067 253.456 214.408 250.971 214.6 247.92H212.808L212.392 249.008C212.157 249.093 211.869 249.136 211.528 249.136C211.037 249.136 210.483 249.029 209.864 248.816C211.123 245.872 212.339 242.597 213.512 238.992H212.616C212.147 239.013 211.677 239.163 211.208 239.44L210.376 237.904C209.757 240.016 209.032 241.989 208.2 243.824C209.16 244.485 209.64 244.944 209.64 245.2C209.64 245.328 209.555 245.424 209.384 245.488L208.936 245.68V256.176C208.979 258.821 209.064 261.328 209.192 263.696C209.021 263.909 208.68 264.123 208.168 264.336C207.677 264.549 207.187 264.656 206.696 264.656C206.461 264.656 206.259 264.592 206.088 264.464C205.939 264.336 205.864 264.187 205.864 264.016C205.949 262.757 206.024 261.541 206.088 260.368C206.152 259.173 206.195 257.616 206.216 255.696V247.728C205.405 249.093 204.52 250.341 203.56 251.472L203.112 251.216C204.392 248.592 205.512 245.424 206.472 241.712C206.749 240.645 206.995 239.44 207.208 238.096C207.421 236.731 207.528 235.621 207.528 234.768C209.043 235.237 210.088 235.6 210.664 235.856C211.261 236.112 211.56 236.304 211.56 236.432C211.56 236.517 211.464 236.603 211.272 236.688L210.664 236.944L210.408 237.808C210.963 237.936 211.667 238.021 212.52 238.064H213.512L214.056 237.36C214.099 237.296 214.173 237.2 214.28 237.072C214.387 236.923 214.483 236.816 214.568 236.752C214.653 236.688 214.739 236.656 214.824 236.656C214.952 236.656 215.229 236.827 215.656 237.168C216.083 237.488 216.477 237.84 216.84 238.224C217.224 238.608 217.416 238.875 217.416 239.024C217.224 239.28 216.755 239.44 216.008 239.504C215.475 241.061 214.536 243.557 213.192 246.992H214.344L215.752 245.52L217.704 247.28L217.64 247.056H221.32V243.6H219.56C218.6 243.621 217.576 243.771 216.488 244.048L215.656 242.416C216.723 242.544 218.003 242.629 219.496 242.672H221.32V239.344H220.2C219.603 239.365 218.984 239.515 218.344 239.792L217.512 238.16C218.237 238.288 219.112 238.373 220.136 238.416H221.32C221.32 237.072 221.256 235.909 221.128 234.928C222.515 235.291 223.475 235.589 224.008 235.824C224.563 236.037 224.84 236.219 224.84 236.368C224.84 236.475 224.755 236.581 224.584 236.688L224.04 237.04V238.416H226.6L227.176 237.712C227.261 237.627 227.379 237.488 227.528 237.296C227.699 237.083 227.848 236.976 227.976 236.976C228.104 236.976 228.392 237.125 228.84 237.424C229.288 237.723 229.704 238.053 230.088 238.416C230.472 238.757 230.664 239.003 230.664 239.152C230.429 239.451 230.013 239.664 229.416 239.792V242.576L229.896 241.712C229.939 241.627 230.003 241.509 230.088 241.36C230.195 241.189 230.28 241.061 230.344 240.976C230.429 240.891 230.515 240.848 230.6 240.848C230.792 240.848 231.187 241.168 231.784 241.808C232.381 242.427 232.68 242.853 232.68 243.088C232.595 243.429 232.328 243.6 231.88 243.6H229.416ZM224.04 242.672H226.888V239.344H224.04V242.672ZM224.04 247.056H226.888V243.6H224.04V247.056ZM221.32 251.312V247.952H218.12C217.949 248.08 217.629 248.176 217.16 248.24C217.053 249.221 216.925 250.16 216.776 251.056C217.651 251.184 218.685 251.269 219.88 251.312H221.32ZM221.32 255.504V252.24H219.944C219.176 252.261 218.387 252.411 217.576 252.688L216.776 251.12C216.563 252.485 216.253 253.861 215.848 255.248C216.872 255.376 218.088 255.461 219.496 255.504H221.32ZM263.176 254.576C261.533 255.707 259.88 256.699 258.216 257.552C260.264 259.323 262.792 260.443 265.8 260.912V261.296C265.267 261.445 264.819 261.755 264.456 262.224C264.093 262.693 263.848 263.28 263.72 263.984C261.16 263.109 259.123 261.851 257.608 260.208C256.115 258.544 254.995 256.336 254.248 253.584V261.136C254.248 261.925 254.152 262.555 253.96 263.024C253.768 263.493 253.384 263.867 252.808 264.144C252.253 264.443 251.411 264.645 250.28 264.752C250.216 263.813 249.981 263.163 249.576 262.8C249.064 262.331 248.211 262 247.016 261.808V261.36C249.085 261.509 250.312 261.584 250.696 261.584C250.952 261.584 251.123 261.541 251.208 261.456C251.315 261.371 251.368 261.221 251.368 261.008V257.456C249.427 258.992 246.995 260.784 244.072 262.832C243.965 263.28 243.763 263.568 243.464 263.696L241.32 260.656C242.899 260.165 246.248 258.885 251.368 256.816V251.76H249.128C247.805 251.781 246.419 251.931 244.968 252.208L244.104 250.576C245.277 250.704 246.696 250.789 248.36 250.832H251.368V247.792H242.792C242.771 250.011 242.643 252.059 242.408 253.936C242.173 255.792 241.672 257.648 240.904 259.504C240.136 261.339 239.005 262.971 237.512 264.4L237.128 264.144C238.301 261.883 239.059 259.387 239.4 256.656C239.763 253.925 239.944 250.725 239.944 247.056V242.224C239.944 240.176 239.837 238.512 239.624 237.232L243.272 238.864H250.664C250.664 237.136 250.579 235.76 250.408 234.736C251.859 235.077 252.861 235.365 253.416 235.6C253.992 235.813 254.28 235.995 254.28 236.144C254.28 236.229 254.195 236.325 254.024 236.432L253.48 236.784V238.864H260.808L261.608 237.68C261.693 237.552 261.811 237.381 261.96 237.168C262.131 236.933 262.259 236.763 262.344 236.656C262.451 236.549 262.547 236.496 262.632 236.496C262.76 236.496 263.069 236.699 263.56 237.104C264.072 237.509 264.541 237.936 264.968 238.384C265.416 238.832 265.64 239.131 265.64 239.28C265.619 239.451 265.533 239.579 265.384 239.664C265.235 239.749 265.053 239.792 264.84 239.792H251.304C252.691 240.133 253.661 240.421 254.216 240.656C254.771 240.869 255.048 241.051 255.048 241.2C255.048 241.285 254.963 241.381 254.792 241.488L254.248 241.84V243.024H258.504L259.112 242.288C259.197 242.203 259.325 242.053 259.496 241.84C259.688 241.627 259.848 241.52 259.976 241.52C260.104 241.52 260.392 241.68 260.84 242C261.309 242.32 261.736 242.661 262.12 243.024C262.525 243.387 262.728 243.643 262.728 243.792C262.472 244.091 262.088 244.283 261.576 244.368V246.864H262.216L262.792 245.84C262.856 245.733 262.941 245.584 263.048 245.392C263.176 245.2 263.272 245.061 263.336 244.976C263.421 244.869 263.507 244.816 263.592 244.816C263.784 244.816 264.2 245.168 264.84 245.872C265.501 246.576 265.832 247.045 265.832 247.28C265.747 247.621 265.48 247.792 265.032 247.792H261.576V252.304C261.576 252.325 261.555 252.357 261.512 252.4C263.197 253.445 264.04 254.107 264.04 254.384C264.04 254.448 263.944 254.501 263.752 254.544L263.176 254.576ZM244.296 242.768C245.469 242.896 246.888 242.981 248.552 243.024H251.368C251.368 241.787 251.304 240.709 251.176 239.792H242.792V246.864H251.368V243.952H249.192C247.912 243.973 246.568 244.123 245.16 244.4L244.296 242.768ZM258.792 243.952H254.248V246.864H258.792V243.952ZM258.792 247.792H254.248V250.832H258.792V247.792ZM257.64 257.008C258.984 255.536 260.104 254.117 261 252.752C260.317 253.051 259.741 253.2 259.272 253.2H258.792V251.76H254.376C255.059 253.829 256.147 255.579 257.64 257.008ZM247.752 257.488C247.411 257.488 247.08 257.371 246.76 257.136C246.589 256.432 246.216 255.685 245.64 254.896C245.085 254.107 244.499 253.435 243.88 252.88L244.168 252.656C245.811 252.912 247.027 253.371 247.816 254.032C248.605 254.693 249 255.376 249 256.08C249 256.485 248.883 256.827 248.648 257.104C248.413 257.36 248.115 257.488 247.752 257.488Z" fill="#E25C55"/>
<path d="M293.352 243.76C294.056 243.76 294.675 243.984 295.208 244.432C295.763 244.88 296.04 245.477 296.04 246.224C296.04 247.184 295.624 248.005 294.792 248.688C293.96 249.349 292.829 249.989 291.4 250.608L289.032 251.568C287.453 252.187 286.397 252.613 285.864 252.848C285.8 253.296 285.768 254 285.768 254.96C285.768 256.475 285.757 257.328 285.736 257.52C285.715 257.84 285.576 258.117 285.32 258.352C285.085 258.565 284.829 258.672 284.552 258.672C284.296 258.672 284.072 258.555 283.88 258.32C283.688 258.085 283.592 257.819 283.592 257.52C283.592 257.285 283.624 256.869 283.688 256.272L283.88 253.808C282.643 254.491 281.672 255.205 280.968 255.952C280.285 256.699 279.944 257.531 279.944 258.448C279.944 260.069 281.565 260.88 284.808 260.88C285.299 260.88 285.8 260.837 286.312 260.752C286.824 260.667 287.304 260.571 287.752 260.464C288.605 260.272 289.267 260.176 289.736 260.176C290.568 260.176 290.984 260.464 290.984 261.04C290.984 261.68 290.387 262.128 289.192 262.384C287.997 262.64 286.749 262.768 285.448 262.768C282.781 262.768 281 262.373 280.104 261.584C279.208 260.773 278.76 259.792 278.76 258.64C278.76 257.445 279.208 256.4 280.104 255.504C281.021 254.587 282.301 253.701 283.944 252.848C283.965 252.613 283.976 252.283 283.976 251.856C283.976 249.616 283.315 248.496 281.992 248.496C281.224 248.496 280.413 248.955 279.56 249.872C278.728 250.789 277.917 251.792 277.128 252.88C277.064 252.965 276.915 253.189 276.68 253.552C276.445 253.893 276.221 254.171 276.008 254.384C275.795 254.597 275.613 254.704 275.464 254.704C275.101 254.704 274.824 254.565 274.632 254.288C274.44 254.011 274.344 253.68 274.344 253.296C274.344 252.784 274.461 252.4 274.696 252.144L275.272 251.632C275.955 250.992 276.541 250.416 277.032 249.904C277.523 249.392 277.96 248.805 278.344 248.144C279.432 246.288 280.307 244.304 280.968 242.192C280.136 242.427 279.315 242.544 278.504 242.544C277.8 242.544 277.203 242.427 276.712 242.192C276.221 241.957 275.635 241.573 274.952 241.04C274.867 240.976 274.824 240.912 274.824 240.848C274.824 240.763 274.877 240.72 274.984 240.72C275.069 240.72 275.219 240.752 275.432 240.816C276.115 241.072 276.84 241.2 277.608 241.2C277.992 241.2 278.525 241.157 279.208 241.072C279.891 240.965 280.637 240.763 281.448 240.464C281.597 239.867 281.672 239.344 281.672 238.896C281.672 238.043 281.341 237.349 280.68 236.816C280.573 236.731 280.52 236.645 280.52 236.56C280.541 236.24 280.712 236.08 281.032 236.08C281.224 236.08 281.587 236.144 282.12 236.272C282.653 236.4 282.984 236.549 283.112 236.72C283.219 236.848 283.272 237.083 283.272 237.424C283.272 237.552 283.251 237.765 283.208 238.064C283.549 238.299 284.008 238.416 284.584 238.416C284.883 238.416 285.107 238.384 285.256 238.32C285.469 238.277 285.683 238.256 285.896 238.256C286.387 238.256 286.632 238.437 286.632 238.8C286.632 239.077 286.461 239.387 286.12 239.728C285.8 240.069 285.395 240.368 284.904 240.624C284.221 241.008 283.336 241.403 282.248 241.808C281.48 244.283 280.723 246.341 279.976 247.984C280.595 247.621 281.203 247.44 281.8 247.44C282.845 247.44 283.656 247.728 284.232 248.304C284.829 248.88 285.224 249.659 285.416 250.64C285.8 249.744 286.216 248.965 286.664 248.304C287.112 247.621 287.656 246.939 288.296 246.256C288.936 245.573 289.725 244.987 290.664 244.496C291.603 244.005 292.499 243.76 293.352 243.76ZM283.112 238.672C283.112 238.736 283.016 239.131 282.824 239.856C282.973 239.792 283.101 239.728 283.208 239.664C283.315 239.579 283.411 239.515 283.496 239.472C283.645 239.387 283.72 239.301 283.72 239.216C283.72 239.131 283.635 239.024 283.464 238.896L283.112 238.672ZM290.632 249.456C291.677 248.837 292.52 248.165 293.16 247.44C293.821 246.693 294.152 246.085 294.152 245.616C294.152 244.997 293.747 244.688 292.936 244.688C292.36 244.688 291.699 244.891 290.952 245.296C290.205 245.701 289.512 246.224 288.872 246.864C288.296 247.44 287.741 248.219 287.208 249.2C286.675 250.16 286.291 251.013 286.056 251.76V251.792L286.472 251.6L287.144 251.28C288.872 250.427 290.035 249.819 290.632 249.456ZM329.576 239.024C329.64 238.96 329.725 238.853 329.832 238.704C329.96 238.555 330.067 238.448 330.152 238.384C330.237 238.299 330.323 238.256 330.408 238.256C330.6 238.256 331.027 238.629 331.688 239.376C332.349 240.101 332.68 240.581 332.68 240.816C332.509 240.987 332.115 241.093 331.496 241.136C331.048 241.755 330.461 242.448 329.736 243.216C329.011 243.963 328.339 244.581 327.72 245.072L327.368 244.816C328.051 243.387 328.595 242.032 329 240.752H309.096C309.117 241.755 308.979 242.629 308.68 243.376C308.381 244.123 307.997 244.667 307.528 245.008C307.123 245.349 306.696 245.52 306.248 245.52C305.8 245.52 305.48 245.328 305.288 244.944C305.224 244.773 305.192 244.624 305.192 244.496C305.192 244.048 305.459 243.611 305.992 243.184C306.632 242.779 307.165 242.096 307.592 241.136C308.019 240.176 308.2 239.163 308.136 238.096H308.648C308.861 238.757 308.979 239.323 309 239.792H317.544C317.544 237.915 317.448 236.325 317.256 235.024C319.368 235.6 320.424 236.048 320.424 236.368C320.424 236.475 320.339 236.581 320.168 236.688L319.624 237.04V239.792H328.968L329.576 239.024ZM328.84 246.928C328.947 246.8 329.053 246.661 329.16 246.512C329.267 246.363 329.373 246.235 329.48 246.128C329.587 246 329.683 245.936 329.768 245.936C329.896 245.936 330.173 246.107 330.6 246.448C331.048 246.768 331.453 247.12 331.816 247.504C332.2 247.888 332.392 248.155 332.392 248.304C332.307 248.645 332.029 248.816 331.56 248.816H324.104V261.264C324.104 261.925 324.019 262.459 323.848 262.864C323.677 263.291 323.325 263.643 322.792 263.92C322.259 264.197 321.459 264.389 320.392 264.496C320.264 263.749 319.987 263.237 319.56 262.96C318.899 262.555 317.757 262.245 316.136 262.032V261.52C318.995 261.755 320.691 261.872 321.224 261.872C321.544 261.872 321.768 261.819 321.896 261.712C322.024 261.584 322.088 261.371 322.088 261.072V248.816H310.312C308.797 248.837 307.197 248.987 305.512 249.264L304.68 247.632C305.853 247.76 307.272 247.845 308.936 247.888H322.088C322.088 245.541 321.971 243.675 321.736 242.288C323.827 242.907 324.872 243.365 324.872 243.664C324.872 243.771 324.787 243.877 324.616 243.984L324.104 244.304V247.888H328.168L328.84 246.928ZM310.216 250.768C312.115 251.579 313.501 252.517 314.376 253.584C315.251 254.629 315.688 255.611 315.688 256.528C315.688 256.997 315.581 257.381 315.368 257.68C315.155 257.957 314.888 258.096 314.568 258.096C314.205 258.096 313.885 257.968 313.608 257.712C313.459 256.645 313.021 255.493 312.296 254.256C311.571 253.019 310.76 251.941 309.864 251.024L310.216 250.768ZM353.448 248.848C354.621 248.848 355.741 249.072 356.808 249.52C357.875 249.968 358.749 250.661 359.432 251.6C360.115 252.539 360.456 253.691 360.456 255.056C360.456 256.379 360.061 257.552 359.272 258.576C358.483 259.6 357.459 260.4 356.2 260.976C354.963 261.531 353.672 261.808 352.328 261.808C351.197 261.808 350.184 261.563 349.288 261.072C348.392 260.56 347.944 259.867 347.944 258.992C347.944 258.267 348.232 257.691 348.808 257.264C349.384 256.816 350.045 256.592 350.792 256.592C351.645 256.592 352.435 256.869 353.16 257.424C353.885 257.979 354.419 258.779 354.76 259.824C355.827 259.312 356.712 258.597 357.416 257.68C358.12 256.763 358.472 255.749 358.472 254.64C358.472 252.976 357.917 251.76 356.808 250.992C355.699 250.203 354.408 249.808 352.936 249.808C351.571 249.808 350.312 250.235 349.16 251.088C348.008 251.92 346.835 253.349 345.64 255.376C345.533 255.547 345.373 255.824 345.16 256.208C344.947 256.571 344.744 256.837 344.552 257.008C344.36 257.179 344.147 257.264 343.912 257.264C343.528 257.264 343.24 257.147 343.048 256.912C342.877 256.677 342.792 256.4 342.792 256.08C342.792 255.483 343.037 254.832 343.528 254.128C344.04 253.403 344.808 252.453 345.832 251.28C346.877 250.085 348.125 248.581 349.576 246.768C351.027 244.955 351.912 243.845 352.232 243.44L353.224 242.192C353.331 242.064 353.459 241.904 353.608 241.712C353.779 241.52 353.896 241.36 353.96 241.232C354.045 241.083 354.088 240.944 354.088 240.816C354.088 240.603 354.003 240.4 353.832 240.208C353.683 240.016 353.523 239.92 353.352 239.92C353.096 239.92 352.819 240.101 352.52 240.464C351.901 241.232 351.208 241.872 350.44 242.384C349.672 242.875 348.947 243.12 348.264 243.12C347.112 243.12 346.451 242.331 346.28 240.752L346.248 240.144C346.248 239.973 346.291 239.888 346.376 239.888C346.44 239.888 346.621 240.059 346.92 240.4C347.197 240.699 347.485 240.848 347.784 240.848C348.083 240.848 348.637 240.688 349.448 240.368C350.259 240.027 351.101 239.6 351.976 239.088C352.467 238.789 352.904 238.64 353.288 238.64C353.651 238.64 354.099 238.757 354.632 238.992C355.187 239.227 355.667 239.536 356.072 239.92C356.477 240.304 356.68 240.709 356.68 241.136C356.68 241.669 356.424 242.128 355.912 242.512C352.947 244.901 350.323 247.611 348.04 250.64C349.832 249.445 351.635 248.848 353.448 248.848ZM352.168 260.432C352.36 260.432 352.605 260.411 352.904 260.368C352.755 259.707 352.477 259.141 352.072 258.672C351.688 258.203 351.144 257.968 350.44 257.968C350.056 257.968 349.768 258.064 349.576 258.256C349.384 258.427 349.288 258.64 349.288 258.896C349.288 259.301 349.587 259.664 350.184 259.984C350.803 260.283 351.464 260.432 352.168 260.432ZM383.656 241.584C384.019 241.712 384.275 241.829 384.424 241.936C384.595 242.043 384.68 242.213 384.68 242.448C384.68 242.768 384.456 243.099 384.008 243.44C382.664 244.4 381.288 245.179 379.88 245.776C378.067 254.331 376.989 259.141 376.648 260.208C376.413 260.912 376.189 261.413 375.976 261.712C375.763 261.989 375.517 262.128 375.24 262.128C374.899 262.128 374.6 262.011 374.344 261.776C374.088 261.52 373.96 261.179 373.96 260.752C373.96 260.432 374.045 260.101 374.216 259.76C375.987 255.963 377.352 251.504 378.312 246.384C377.203 246.704 376.264 246.864 375.496 246.864C374.515 246.864 373.501 246.352 372.456 245.328C372.307 245.179 372.232 245.051 372.232 244.944C372.232 244.816 372.296 244.752 372.424 244.752C372.531 244.752 372.691 244.805 372.904 244.912C373.459 245.147 374.056 245.264 374.696 245.264C375.293 245.264 375.944 245.157 376.648 244.944C377.245 244.773 377.917 244.539 378.664 244.24C378.792 243.472 378.931 242.491 379.08 241.296C379.123 240.955 379.144 240.624 379.144 240.304C379.144 239.643 379.048 239.173 378.856 238.896C378.685 238.597 378.301 238.245 377.704 237.84C377.533 237.733 377.448 237.627 377.448 237.52C377.448 237.392 377.587 237.328 377.864 237.328C378.099 237.328 378.397 237.371 378.76 237.456C379.144 237.541 379.475 237.648 379.752 237.776C380.221 238.011 380.573 238.245 380.808 238.48C381.043 238.715 381.16 239.077 381.16 239.568C381.16 239.653 381.139 239.824 381.096 240.08C381.565 240.549 382.013 240.901 382.44 241.136C382.653 241.243 383.059 241.392 383.656 241.584ZM380.392 243.472C381.437 242.896 381.96 242.459 381.96 242.16C381.96 241.989 381.875 241.797 381.704 241.584C381.555 241.371 381.309 241.061 380.968 240.656L380.648 242.256L380.392 243.472ZM395.432 243.92C395.859 244.219 396.189 244.592 396.424 245.04C396.68 245.488 396.808 245.861 396.808 246.16C396.808 246.587 396.392 246.896 395.56 247.088C395.176 247.173 394.877 247.227 394.664 247.248C394.344 247.291 393.96 247.376 393.512 247.504C393.192 247.611 392.84 247.76 392.456 247.952C392.072 248.144 391.784 248.315 391.592 248.464C391.443 248.549 391.315 248.592 391.208 248.592C391.101 248.592 391.048 248.549 391.048 248.464C391.048 248.357 391.101 248.24 391.208 248.112C391.315 248.005 391.603 247.771 392.072 247.408C393.245 246.555 393.832 245.936 393.832 245.552C393.832 245.339 393.683 245.125 393.384 244.912C392.915 244.571 392.424 244.325 391.912 244.176C391.4 244.027 390.941 243.952 390.536 243.952C390.28 243.952 390.067 243.973 389.896 244.016C389.725 244.037 389.629 244.048 389.608 244.048C389.309 244.048 389.16 243.963 389.16 243.792C389.16 243.643 389.299 243.515 389.576 243.408C390.344 243.131 391.144 242.992 391.976 242.992C392.68 242.992 393.331 243.077 393.928 243.248C394.547 243.419 395.048 243.643 395.432 243.92ZM394.344 259.728C395.133 259.728 395.624 259.899 395.816 260.24C395.965 260.432 396.04 260.656 396.04 260.912C396.04 261.467 395.72 261.84 395.08 262.032C394.461 262.224 393.608 262.32 392.52 262.32C390.259 262.32 388.403 261.925 386.952 261.136C385.501 260.325 384.776 259.024 384.776 257.232C384.776 256.827 384.808 256.453 384.872 256.112C384.957 255.771 385.032 255.536 385.096 255.408C385.181 255.195 385.277 255.003 385.384 254.832C385.491 254.661 385.597 254.576 385.704 254.576C385.789 254.576 385.832 254.651 385.832 254.8L385.768 255.376C385.747 255.525 385.736 255.696 385.736 255.888C385.736 256.315 385.821 256.784 385.992 257.296C386.163 257.808 386.483 258.277 386.952 258.704C387.336 259.067 387.891 259.365 388.616 259.6C389.363 259.835 390.216 259.952 391.176 259.952C391.411 259.952 391.976 259.909 392.872 259.824C393.171 259.803 393.448 259.781 393.704 259.76C393.96 259.739 394.173 259.728 394.344 259.728ZM119.272 299.312C120.808 299.397 122.259 299.792 123.624 300.496C124.989 301.2 126.088 302.192 126.92 303.472C127.773 304.731 128.2 306.203 128.2 307.888C128.2 313.371 124.147 316.656 116.04 317.744L115.048 317.84C114.899 317.84 114.824 317.776 114.824 317.648C114.824 317.563 114.909 317.488 115.08 317.424C115.251 317.36 115.4 317.317 115.528 317.296C115.677 317.275 115.773 317.253 115.816 317.232C118.931 316.528 121.373 315.376 123.144 313.776C124.915 312.176 125.8 310.096 125.8 307.536C125.8 306.171 125.491 304.987 124.872 303.984C124.253 302.981 123.421 302.192 122.376 301.616C121.331 301.04 120.179 300.688 118.92 300.56C117.981 303.525 116.925 306.085 115.752 308.24L116.488 308.656C116.915 308.891 117.181 309.061 117.288 309.168C117.501 309.381 117.608 309.605 117.608 309.84C117.608 310.053 117.523 310.235 117.352 310.384C117.203 310.512 117 310.576 116.744 310.576C116.232 310.576 115.571 310.363 114.76 309.936C113.821 311.408 112.776 312.603 111.624 313.52C110.472 314.437 109.48 314.896 108.648 314.896C108.264 314.896 107.88 314.757 107.496 314.48C107.112 314.203 106.792 313.776 106.536 313.2C106.28 312.603 106.152 311.867 106.152 310.992C106.152 307.899 107.251 305.285 109.448 303.152C109.235 302.597 109.085 302.181 109 301.904C108.552 300.731 108.221 299.909 108.008 299.44C107.795 298.949 107.539 298.576 107.24 298.32C107.091 298.171 106.941 298.043 106.792 297.936C106.643 297.829 106.568 297.744 106.568 297.68C106.568 297.595 106.632 297.552 106.76 297.552C107.08 297.552 107.517 297.68 108.072 297.936C108.456 298.107 108.787 298.395 109.064 298.8C109.363 299.205 109.64 299.707 109.896 300.304C110.152 300.901 110.408 301.509 110.664 302.128C111.667 301.36 112.744 300.752 113.896 300.304C115.069 299.835 116.211 299.525 117.32 299.376C117.64 297.968 117.8 296.912 117.8 296.208C117.8 295.931 117.747 295.696 117.64 295.504C117.533 295.291 117.341 295.088 117.064 294.896C116.957 294.832 116.819 294.757 116.648 294.672C116.477 294.565 116.392 294.469 116.392 294.384C116.392 294.299 116.467 294.224 116.616 294.16C116.787 294.075 116.989 294.032 117.224 294.032C117.992 294.032 118.643 294.256 119.176 294.704C119.709 295.152 119.976 295.696 119.976 296.336C119.976 296.677 119.912 297.061 119.784 297.488C119.677 297.915 119.603 298.192 119.56 298.32C119.517 298.448 119.475 298.597 119.432 298.768C119.389 298.939 119.336 299.12 119.272 299.312ZM113.192 306.384C113.619 306.747 114.067 307.109 114.536 307.472C115.453 305.68 116.285 303.387 117.032 300.592C115.944 300.699 114.899 300.997 113.896 301.488C112.893 301.957 111.976 302.565 111.144 303.312C111.464 303.995 111.784 304.592 112.104 305.104C112.424 305.595 112.787 306.021 113.192 306.384ZM113.544 309.2C112.776 308.667 112.136 308.069 111.624 307.408C111.048 306.661 110.504 305.701 109.992 304.528C109.267 305.424 108.701 306.395 108.296 307.44C107.891 308.464 107.688 309.488 107.688 310.512C107.688 311.152 107.805 311.717 108.04 312.208C108.296 312.699 108.627 312.944 109.032 312.944C109.565 312.944 110.227 312.635 111.016 312.016C111.827 311.397 112.627 310.523 113.416 309.392L113.544 309.2ZM143.048 318.192C142.749 318.192 142.419 318.032 142.056 317.712C141.715 317.371 141.469 316.976 141.32 316.528C140.531 314.416 140.136 311.781 140.136 308.624C140.136 307.195 140.243 305.915 140.456 304.784C140.669 303.653 140.957 302.48 141.32 301.264C141.469 300.688 141.608 300.123 141.736 299.568C141.864 299.013 141.928 298.533 141.928 298.128C141.928 297.723 141.853 297.307 141.704 296.88C141.555 296.453 141.363 296.112 141.128 295.856C140.957 295.621 140.872 295.461 140.872 295.376C140.872 295.269 140.915 295.216 141 295.216C141.128 295.216 141.299 295.28 141.512 295.408C142.216 295.856 142.771 296.389 143.176 297.008C143.603 297.627 143.816 298.416 143.816 299.376C143.816 299.781 143.752 300.197 143.624 300.624C143.496 301.051 143.347 301.467 143.176 301.872C143.005 302.277 142.899 302.544 142.856 302.672C142.365 303.781 142.035 304.688 141.864 305.392C141.651 306.224 141.544 307.067 141.544 307.92C141.544 308.475 141.587 308.997 141.672 309.488C141.757 309.957 141.885 310.192 142.056 310.192C142.163 310.192 142.344 309.979 142.6 309.552L143.176 308.368L144.264 306.192C144.413 305.957 144.52 305.84 144.584 305.84C144.648 305.84 144.68 305.883 144.68 305.968L144.584 306.352C144.307 307.099 143.997 308.069 143.656 309.264C143.315 310.437 143.144 311.419 143.144 312.208C143.144 313.125 143.325 314.491 143.688 316.304C143.795 316.88 143.848 317.221 143.848 317.328C143.848 317.605 143.763 317.819 143.592 317.968C143.421 318.117 143.24 318.192 143.048 318.192ZM154.632 300.176C153.693 300.176 152.925 300.091 152.328 299.92C151.624 299.728 150.995 299.451 150.44 299.088C149.907 298.725 149.544 298.352 149.352 297.968C149.267 297.797 149.224 297.669 149.224 297.584C149.224 297.52 149.256 297.488 149.32 297.488C149.384 297.488 149.491 297.541 149.64 297.648C149.811 297.755 149.971 297.84 150.12 297.904C150.803 298.181 151.571 298.32 152.424 298.32C153.021 298.32 153.832 298.256 154.856 298.128C155.901 298 156.765 297.861 157.448 297.712C157.704 297.627 157.907 297.584 158.056 297.584C158.461 297.584 158.835 297.712 159.176 297.968C159.517 298.203 159.688 298.459 159.688 298.736C159.688 299.227 159.144 299.589 158.056 299.824C156.968 300.059 155.827 300.176 154.632 300.176ZM155.752 316.688C154.109 316.688 152.669 316.475 151.432 316.048C150.195 315.6 149.32 314.725 148.808 313.424C148.68 313.104 148.616 312.912 148.616 312.848C148.616 312.763 148.659 312.72 148.744 312.72C148.808 312.72 148.883 312.763 148.968 312.848C149.075 312.912 149.16 312.965 149.224 313.008C150.056 313.648 150.984 314.096 152.008 314.352C152.499 314.48 153.235 314.544 154.216 314.544C155.304 314.544 156.723 314.416 158.472 314.16C159.197 314.075 159.56 314.032 159.56 314.032C160.051 314.032 160.445 314.16 160.744 314.416C161.064 314.672 161.224 314.949 161.224 315.248C161.224 315.824 160.712 316.208 159.688 316.4C158.685 316.592 157.373 316.688 155.752 316.688ZM174.856 319.088C173.555 316.741 172.147 314.949 170.632 313.712C170.547 313.648 170.429 313.563 170.28 313.456C170.152 313.349 170.088 313.264 170.088 313.2C170.088 313.093 170.163 313.04 170.312 313.04C170.397 313.04 170.589 313.083 170.888 313.168C171.549 313.339 172.424 313.701 173.512 314.256C174.6 314.811 175.56 315.472 176.392 316.24C177.245 316.987 177.672 317.744 177.672 318.512C177.672 319.088 177.523 319.515 177.224 319.792C176.947 320.069 176.627 320.208 176.264 320.208C175.731 320.208 175.261 319.835 174.856 319.088ZM208.2 296.752C208.2 297.712 208.04 298.533 207.72 299.216C207.421 299.899 207.037 300.411 206.568 300.752C206.163 301.051 205.736 301.2 205.288 301.2C204.819 301.2 204.488 301.019 204.296 300.656C204.232 300.485 204.2 300.336 204.2 300.208C204.2 299.931 204.275 299.675 204.424 299.44C204.595 299.205 204.808 299.013 205.064 298.864C205.725 298.48 206.269 297.84 206.696 296.944C207.123 296.027 207.293 295.056 207.208 294.032L207.752 294C207.923 294.533 208.061 295.131 208.168 295.792H216.744C216.744 293.851 216.648 292.229 216.456 290.928C218.568 291.525 219.624 291.984 219.624 292.304C219.624 292.411 219.539 292.517 219.368 292.624L218.824 292.976V295.792H228.168L228.744 295.12C228.808 295.056 228.925 294.928 229.096 294.736C229.288 294.544 229.448 294.448 229.576 294.448C229.768 294.448 230.195 294.789 230.856 295.472C231.517 296.133 231.848 296.581 231.848 296.816C231.699 296.987 231.315 297.093 230.696 297.136C230.248 297.733 229.683 298.373 229 299.056C228.339 299.739 227.72 300.293 227.144 300.72L226.76 300.496C227.315 299.344 227.805 298.096 228.232 296.752H208.2ZM217.896 314.032C215.848 313.2 213.779 312.485 211.688 311.888L210.536 314.256C210.323 314.363 210.056 314.416 209.736 314.416C209.267 314.416 208.819 314.309 208.392 314.096C209.587 312.027 211.069 308.848 212.84 304.56H209.288C207.773 304.581 206.173 304.731 204.488 305.008L203.624 303.344C204.797 303.472 206.216 303.557 207.88 303.6H213.256C214.28 301.04 214.877 298.992 215.048 297.456C217.075 297.904 218.088 298.256 218.088 298.512C218.088 298.597 217.981 298.693 217.768 298.8L217.16 299.056C216.691 300.315 216.093 301.829 215.368 303.6H227.464L228.168 302.64C228.275 302.512 228.381 302.373 228.488 302.224C228.595 302.075 228.701 301.947 228.808 301.84C228.915 301.712 229.011 301.648 229.096 301.648C229.224 301.648 229.501 301.819 229.928 302.16C230.376 302.501 230.792 302.864 231.176 303.248C231.56 303.632 231.752 303.899 231.752 304.048C231.731 304.219 231.645 304.347 231.496 304.432C231.347 304.517 231.165 304.56 230.952 304.56H225C224.189 308.315 222.899 311.291 221.128 313.488C223.155 314.171 224.808 314.896 226.088 315.664C227.368 316.432 228.285 317.157 228.84 317.84C229.416 318.523 229.704 319.109 229.704 319.6C229.704 319.877 229.619 320.091 229.448 320.24C229.299 320.389 229.096 320.464 228.84 320.464C228.669 320.464 228.445 320.411 228.168 320.304C227.336 319.472 226.195 318.587 224.744 317.648C223.315 316.688 221.661 315.76 219.784 314.864C218.163 316.379 216.051 317.584 213.448 318.48C210.867 319.376 207.635 320.027 203.752 320.432L203.624 319.824C207.016 319.248 209.864 318.501 212.168 317.584C214.493 316.645 216.403 315.461 217.896 314.032ZM214.984 304.56C214.323 306.117 213.32 308.368 211.976 311.312C214.664 311.76 217.011 312.272 219.016 312.848C220.765 310.736 221.971 307.973 222.632 304.56H214.984ZM246.12 291.92C248.317 292.347 250.099 292.912 251.464 293.616C252.829 294.299 253.811 294.992 254.408 295.696C255.005 296.4 255.304 297.051 255.304 297.648C255.304 297.989 255.219 298.267 255.048 298.48C254.877 298.672 254.643 298.768 254.344 298.768C254.173 298.768 253.939 298.693 253.64 298.544C253.064 297.584 252.093 296.539 250.728 295.408C249.363 294.256 247.763 293.264 245.928 292.432L246.12 291.92ZM245.576 304.848C245.576 302.16 245.437 299.973 245.16 298.288C247.293 298.885 248.36 299.333 248.36 299.632C248.36 299.739 248.275 299.845 248.104 299.952L247.592 300.304V316.4C247.592 316.784 247.709 317.051 247.944 317.2C248.179 317.328 248.691 317.392 249.48 317.392H253.48C255.635 317.392 256.904 317.371 257.288 317.328C257.501 317.307 257.661 317.253 257.768 317.168C257.875 317.083 257.96 316.944 258.024 316.752C258.152 316.475 258.323 315.792 258.536 314.704C258.749 313.616 258.973 312.443 259.208 311.184H259.592L259.656 317.008C260.019 317.136 260.264 317.275 260.392 317.424C260.541 317.552 260.616 317.733 260.616 317.968C260.616 318.352 260.424 318.651 260.04 318.864C259.677 319.077 258.995 319.227 257.992 319.312C256.989 319.397 255.475 319.44 253.448 319.44H249.224C248.243 319.44 247.496 319.365 246.984 319.216C246.472 319.067 246.109 318.811 245.896 318.448C245.683 318.085 245.576 317.552 245.576 316.848V304.848ZM259.272 301.36C261.512 302.64 263.133 304.101 264.136 305.744C265.16 307.365 265.672 308.891 265.672 310.32C265.672 311.067 265.544 311.675 265.288 312.144C265.053 312.592 264.755 312.816 264.392 312.816C264.072 312.816 263.773 312.645 263.496 312.304C263.432 310.533 263.037 308.667 262.312 306.704C261.587 304.72 260.467 303.056 258.952 301.712L259.272 301.36ZM241.672 301.744C241.971 303.024 242.12 304.283 242.12 305.52C242.12 307.12 241.896 308.528 241.448 309.744C241 310.939 240.477 311.867 239.88 312.528C239.581 312.869 239.251 313.136 238.888 313.328C238.547 313.52 238.227 313.616 237.928 313.616C237.651 313.616 237.416 313.509 237.224 313.296C237.096 313.104 237.032 312.891 237.032 312.656C237.032 312.229 237.235 311.781 237.64 311.312C238.6 310.523 239.421 309.243 240.104 307.472C240.787 305.701 241.117 303.792 241.096 301.744H241.672ZM284.232 318.64C282.504 318.64 281.139 318.299 280.136 317.616C279.155 316.912 278.461 315.909 278.056 314.608C277.672 313.285 277.48 311.611 277.48 309.584C277.48 307.557 277.619 305.179 277.896 302.448C278.067 300.656 278.152 299.472 278.152 298.896C278.152 297.829 278.067 297.008 277.896 296.432C277.747 295.835 277.395 295.365 276.84 295.024C276.669 294.917 276.584 294.8 276.584 294.672C276.584 294.437 276.883 294.32 277.48 294.32C278.589 294.32 279.347 294.629 279.752 295.248C280.179 295.867 280.392 296.709 280.392 297.776C280.392 298.48 280.243 300.08 279.944 302.576C279.603 305.413 279.432 307.813 279.432 309.776C279.432 311.589 279.592 312.997 279.912 314C280.253 314.981 280.819 315.696 281.608 316.144C282.397 316.571 283.507 316.784 284.936 316.784C287.496 316.784 290.888 315.237 295.112 312.144C295.155 312.123 295.251 312.059 295.4 311.952C295.571 311.845 295.699 311.792 295.784 311.792C295.848 311.792 295.88 311.835 295.88 311.92C295.88 312.069 295.741 312.283 295.464 312.56C293.629 314.395 291.773 315.867 289.896 316.976C288.04 318.085 286.152 318.64 284.232 318.64ZM326.184 294.768C326.909 294.768 327.581 294.971 328.2 295.376C328.84 295.76 329.16 296.229 329.16 296.784C329.16 297.019 329.085 297.2 328.936 297.328C328.808 297.435 328.637 297.488 328.424 297.488C327.976 297.488 327.379 297.413 326.632 297.264C326.483 297.243 326.195 297.2 325.768 297.136C325.341 297.072 324.989 297.04 324.712 297.04C324.072 297.04 323.453 297.125 322.856 297.296C322.28 297.445 321.864 297.584 321.608 297.712C320.733 298.181 319.944 299.12 319.24 300.528C318.557 301.936 318.024 303.493 317.64 305.2C317.277 306.907 317.096 308.4 317.096 309.68C317.096 311.835 317.459 313.349 318.184 314.224C318.931 315.077 320.051 315.504 321.544 315.504L322.44 315.44C323.08 315.355 323.571 315.312 323.912 315.312C325.448 315.312 326.216 315.685 326.216 316.432C326.216 316.987 325.779 317.36 324.904 317.552C324.051 317.723 323.187 317.808 322.312 317.808C320.541 317.808 319.144 317.52 318.12 316.944C317.117 316.368 316.403 315.493 315.976 314.32C315.549 313.147 315.336 311.611 315.336 309.712C315.336 307.28 315.805 304.987 316.744 302.832C317.704 300.656 318.909 298.875 320.36 297.488L320.104 297.552C319.507 297.68 318.653 297.957 317.544 298.384C316.456 298.811 315.059 299.397 313.352 300.144L311.976 300.72C311.805 300.805 311.432 300.997 310.856 301.296C310.451 301.509 310.131 301.669 309.896 301.776C309.661 301.883 309.416 301.936 309.16 301.936C308.627 301.936 308.051 301.691 307.432 301.2C306.835 300.709 306.376 300.219 306.056 299.728C305.949 299.579 305.896 299.451 305.896 299.344C305.896 299.259 305.928 299.184 305.992 299.12C306.056 299.056 306.131 299.024 306.216 299.024C306.344 299.024 306.483 299.067 306.632 299.152C306.675 299.173 306.856 299.28 307.176 299.472C307.496 299.643 307.891 299.728 308.36 299.728C308.467 299.728 308.648 299.707 308.904 299.664C308.968 299.643 309.619 299.429 310.856 299.024C313.245 298.213 315.432 297.52 317.416 296.944C319.421 296.347 321.267 295.941 322.952 295.728C323.272 295.685 323.581 295.611 323.88 295.504C324.179 295.376 324.371 295.291 324.456 295.248C325.096 294.928 325.672 294.768 326.184 294.768ZM362.536 292.016C362.6 291.952 362.675 291.856 362.76 291.728C362.845 291.6 362.92 291.515 362.984 291.472C363.048 291.408 363.123 291.376 363.208 291.376C363.421 291.376 363.805 291.643 364.36 292.176C364.936 292.688 365.224 293.061 365.224 293.296C365.011 293.552 364.659 293.723 364.168 293.808V294.96C364.189 295.216 364.2 295.525 364.2 295.888L364.296 297.072C364.211 297.264 363.987 297.456 363.624 297.648C363.283 297.819 362.941 297.904 362.6 297.904H362.344V296.88H358.376V299.44C358.376 299.611 358.419 299.728 358.504 299.792C358.611 299.835 358.845 299.856 359.208 299.856H361.352C362.525 299.856 363.197 299.845 363.368 299.824C363.581 299.824 363.731 299.76 363.816 299.632C363.987 299.376 364.211 298.757 364.488 297.776H364.872L364.936 299.6C365.235 299.707 365.437 299.813 365.544 299.92C365.651 300.027 365.704 300.165 365.704 300.336C365.704 300.613 365.576 300.827 365.32 300.976C365.085 301.104 364.648 301.2 364.008 301.264C363.389 301.328 362.472 301.36 361.256 301.36H358.792C357.875 301.36 357.277 301.253 357 301.04C356.723 300.805 356.584 300.368 356.584 299.728V297.36C356.584 296.336 356.541 295.493 356.456 294.832L358.728 295.952H362.344V293.584H360.36C359.208 293.605 357.992 293.755 356.712 294.032L355.848 292.4C357.021 292.528 358.429 292.613 360.072 292.656H362.088L362.536 292.016ZM352.584 292.048C352.648 291.984 352.723 291.888 352.808 291.76C352.893 291.632 352.968 291.547 353.032 291.504C353.096 291.44 353.171 291.408 353.256 291.408C353.469 291.408 353.853 291.664 354.408 292.176C354.984 292.667 355.272 293.029 355.272 293.264C355.08 293.541 354.717 293.723 354.184 293.808V294.96C354.205 295.216 354.216 295.525 354.216 295.888L354.312 297.072C354.248 297.264 354.035 297.456 353.672 297.648C353.309 297.819 352.968 297.904 352.648 297.904H352.392V296.88H348.456V299.44C348.456 299.611 348.499 299.728 348.584 299.792C348.691 299.835 348.925 299.856 349.288 299.856H351.24C352.328 299.856 352.968 299.845 353.16 299.824C353.352 299.824 353.501 299.76 353.608 299.632C353.821 299.312 354.024 298.747 354.216 297.936H354.6L354.696 299.632C354.995 299.739 355.197 299.845 355.304 299.952C355.411 300.037 355.464 300.165 355.464 300.336C355.464 300.613 355.347 300.827 355.112 300.976C354.877 301.104 354.451 301.2 353.832 301.264C353.235 301.328 352.349 301.36 351.176 301.36H348.872C348.253 301.36 347.795 301.307 347.496 301.2C347.197 301.093 346.995 300.933 346.888 300.72C346.781 300.485 346.728 300.155 346.728 299.728V297.36C346.728 296.336 346.685 295.493 346.6 294.832L348.84 295.952H352.392V293.584H350.44C349.309 293.605 348.136 293.755 346.92 294.032L346.088 292.4C347.219 292.528 348.584 292.613 350.184 292.656H352.136L352.584 292.048ZM338.952 292.144C340.765 292.805 342.099 293.616 342.952 294.576C343.827 295.515 344.264 296.4 344.264 297.232C344.264 297.637 344.168 297.968 343.976 298.224C343.784 298.48 343.539 298.608 343.24 298.608C342.941 298.608 342.643 298.491 342.344 298.256C342.152 297.317 341.693 296.293 340.968 295.184C340.243 294.075 339.464 293.147 338.632 292.4L338.952 292.144ZM361.832 303.984C361.896 303.92 361.981 303.803 362.088 303.632C362.216 303.461 362.323 303.344 362.408 303.28C362.493 303.195 362.579 303.152 362.664 303.152C362.792 303.152 363.037 303.301 363.4 303.6C363.784 303.877 364.136 304.187 364.456 304.528C364.776 304.848 364.936 305.083 364.936 305.232C364.872 305.573 364.605 305.744 364.136 305.744H359.656V309.552H362.312L362.92 308.656C363.005 308.549 363.091 308.421 363.176 308.272C363.283 308.123 363.389 307.995 363.496 307.888C363.603 307.781 363.699 307.728 363.784 307.728C363.912 307.728 364.179 307.888 364.584 308.208C365.011 308.507 365.405 308.837 365.768 309.2C366.131 309.563 366.312 309.819 366.312 309.968C366.227 310.309 365.96 310.48 365.512 310.48H350.92C349.405 310.501 347.805 310.651 346.12 310.928L345.32 309.296C346.451 309.424 347.795 309.509 349.352 309.552H351.24V305.744H349.832C349.043 305.765 348.232 305.915 347.4 306.192L346.568 304.56C347.443 304.688 348.509 304.773 349.768 304.816H351.24C351.24 303.621 351.176 302.576 351.048 301.68C352.861 302.256 353.768 302.683 353.768 302.96C353.768 303.045 353.704 303.131 353.576 303.216L353.192 303.472V304.816H357.768C357.768 303.621 357.704 302.576 357.576 301.68C359.347 302.256 360.232 302.683 360.232 302.96C360.232 303.045 360.168 303.131 360.04 303.216L359.656 303.472V304.816H361.256L361.832 303.984ZM342.344 303.952C342.408 303.867 342.493 303.739 342.6 303.568C342.707 303.376 342.792 303.237 342.856 303.152C342.941 303.067 343.027 303.024 343.112 303.024C343.24 303.024 343.507 303.205 343.912 303.568C344.339 303.909 344.733 304.283 345.096 304.688C345.459 305.072 345.64 305.339 345.64 305.488C345.341 305.787 344.84 305.979 344.136 306.064V314.672C344.861 315.525 345.64 316.165 346.472 316.592C347.325 317.019 348.328 317.307 349.48 317.456C350.632 317.584 352.179 317.648 354.12 317.648C359.901 317.648 364.051 317.605 366.568 317.52V317.968C365.672 318.117 365.16 318.693 365.032 319.696H354.12C352.115 319.696 350.493 319.579 349.256 319.344C348.04 319.109 346.984 318.683 346.088 318.064C345.213 317.445 344.413 316.528 343.688 315.312C343.176 315.995 342.536 316.752 341.768 317.584C341 318.416 340.328 319.099 339.752 319.632C339.773 319.696 339.784 319.771 339.784 319.856C339.784 320.069 339.677 320.251 339.464 320.4L337.992 317.84C339.037 317.328 340.456 316.496 342.248 315.344V305.776H340.936C340.211 305.797 339.443 305.947 338.632 306.224L337.896 304.592C338.643 304.72 339.539 304.805 340.584 304.848H341.832L342.344 303.952ZM357.768 305.744H353.192V309.552H357.768V305.744ZM353.512 311.664C354.259 311.963 354.632 312.208 354.632 312.4C354.632 312.507 354.472 312.581 354.152 312.624L353.448 312.688C352.616 313.392 351.539 314.096 350.216 314.8C348.893 315.483 347.571 316.016 346.248 316.4L345.992 315.92C346.419 315.728 346.899 315.451 347.432 315.088C348.371 314.512 349.256 313.797 350.088 312.944C350.941 312.091 351.549 311.28 351.912 310.512L353.512 311.664ZM357.032 311.344C359.699 311.856 361.619 312.507 362.792 313.296C363.987 314.064 364.584 314.8 364.584 315.504C364.584 315.824 364.477 316.08 364.264 316.272C364.072 316.464 363.816 316.56 363.496 316.56C363.133 316.56 362.803 316.411 362.504 316.112C361.992 315.408 361.245 314.683 360.264 313.936C359.283 313.168 358.141 312.464 356.84 311.824L357.032 311.344ZM397 300.56C396.616 300.56 396.285 300.389 396.008 300.048C395.624 299.6 395.261 299.259 394.92 299.024C394.6 298.768 394.184 298.555 393.672 298.384C393.523 298.341 393.363 298.299 393.192 298.256C393.043 298.213 392.915 298.171 392.808 298.128C392.701 298.064 392.648 298 392.648 297.936C392.669 297.787 392.851 297.691 393.192 297.648C393.555 297.584 393.875 297.552 394.152 297.552C395.048 297.552 395.891 297.744 396.68 298.128C397.491 298.512 397.896 299.056 397.896 299.76C397.896 300.037 397.811 300.24 397.64 300.368C397.469 300.496 397.256 300.56 397 300.56ZM394.472 303.184C394.045 303.184 393.704 302.992 393.448 302.608C393.107 302.096 392.755 301.691 392.392 301.392C392.029 301.072 391.549 300.827 390.952 300.656C390.888 300.635 390.771 300.603 390.6 300.56C390.451 300.496 390.333 300.443 390.248 300.4C390.163 300.336 390.12 300.261 390.12 300.176C390.12 299.984 390.472 299.888 391.176 299.888C392.264 299.888 393.256 300.091 394.152 300.496C395.048 300.88 395.496 301.456 395.496 302.224C395.496 302.544 395.389 302.789 395.176 302.96C394.984 303.109 394.749 303.184 394.472 303.184ZM397.928 313.424C397.501 313.424 397.011 313.296 396.456 313.04C394.771 312.229 393.352 311.461 392.2 310.736C391.048 310.011 389.885 309.157 388.712 308.176C387.56 307.173 386.131 305.819 384.424 304.112C383.933 303.621 383.496 303.376 383.112 303.376C382.707 303.376 382.227 303.664 381.672 304.24L379.976 305.968C379.016 306.928 378.387 307.579 378.088 307.92C377.363 308.731 376.765 309.328 376.296 309.712C375.827 310.075 375.293 310.256 374.696 310.256C374.269 310.256 373.864 310.139 373.48 309.904C373.096 309.669 372.776 309.392 372.52 309.072C372.285 308.731 372.168 308.443 372.168 308.208C372.168 308.123 372.189 308.048 372.232 307.984C372.296 307.899 372.381 307.856 372.488 307.856C372.573 307.856 372.712 307.867 372.904 307.888C373.117 307.909 373.352 307.92 373.608 307.92C373.992 307.92 374.376 307.867 374.76 307.76C375.144 307.632 375.645 307.344 376.264 306.896C376.904 306.448 377.715 305.84 378.696 305.072C379.699 304.283 380.563 303.579 381.288 302.96C381.885 302.427 382.461 302.16 383.016 302.16C383.571 302.16 384.168 302.416 384.808 302.928L385.384 303.408C387.091 304.859 388.915 306.224 390.856 307.504C392.819 308.784 395.016 309.787 397.448 310.512C398.109 310.704 398.579 310.96 398.856 311.28C399.133 311.6 399.272 311.931 399.272 312.272C399.272 312.592 399.155 312.869 398.92 313.104C398.685 313.317 398.355 313.424 397.928 313.424ZM118.248 360.848C119.421 360.848 120.541 361.072 121.608 361.52C122.675 361.968 123.549 362.661 124.232 363.6C124.915 364.539 125.256 365.691 125.256 367.056C125.256 368.379 124.861 369.552 124.072 370.576C123.283 371.6 122.259 372.4 121 372.976C119.763 373.531 118.472 373.808 117.128 373.808C115.997 373.808 114.984 373.563 114.088 373.072C113.192 372.56 112.744 371.867 112.744 370.992C112.744 370.267 113.032 369.691 113.608 369.264C114.184 368.816 114.845 368.592 115.592 368.592C116.445 368.592 117.235 368.869 117.96 369.424C118.685 369.979 119.219 370.779 119.56 371.824C120.627 371.312 121.512 370.597 122.216 369.68C122.92 368.763 123.272 367.749 123.272 366.64C123.272 364.976 122.717 363.76 121.608 362.992C120.499 362.203 119.208 361.808 117.736 361.808C116.371 361.808 115.112 362.235 113.96 363.088C112.808 363.92 111.635 365.349 110.44 367.376C110.333 367.547 110.173 367.824 109.96 368.208C109.747 368.571 109.544 368.837 109.352 369.008C109.16 369.179 108.947 369.264 108.712 369.264C108.328 369.264 108.04 369.147 107.848 368.912C107.677 368.677 107.592 368.4 107.592 368.08C107.592 367.483 107.837 366.832 108.328 366.128C108.84 365.403 109.608 364.453 110.632 363.28C111.677 362.085 112.925 360.581 114.376 358.768C115.827 356.955 116.712 355.845 117.032 355.44L118.024 354.192C118.131 354.064 118.259 353.904 118.408 353.712C118.579 353.52 118.696 353.36 118.76 353.232C118.845 353.083 118.888 352.944 118.888 352.816C118.888 352.603 118.803 352.4 118.632 352.208C118.483 352.016 118.323 351.92 118.152 351.92C117.896 351.92 117.619 352.101 117.32 352.464C116.701 353.232 116.008 353.872 115.24 354.384C114.472 354.875 113.747 355.12 113.064 355.12C111.912 355.12 111.251 354.331 111.08 352.752L111.048 352.144C111.048 351.973 111.091 351.888 111.176 351.888C111.24 351.888 111.421 352.059 111.72 352.4C111.997 352.699 112.285 352.848 112.584 352.848C112.883 352.848 113.437 352.688 114.248 352.368C115.059 352.027 115.901 351.6 116.776 351.088C117.267 350.789 117.704 350.64 118.088 350.64C118.451 350.64 118.899 350.757 119.432 350.992C119.987 351.227 120.467 351.536 120.872 351.92C121.277 352.304 121.48 352.709 121.48 353.136C121.48 353.669 121.224 354.128 120.712 354.512C117.747 356.901 115.123 359.611 112.84 362.64C114.632 361.445 116.435 360.848 118.248 360.848ZM116.968 372.432C117.16 372.432 117.405 372.411 117.704 372.368C117.555 371.707 117.277 371.141 116.872 370.672C116.488 370.203 115.944 369.968 115.24 369.968C114.856 369.968 114.568 370.064 114.376 370.256C114.184 370.427 114.088 370.64 114.088 370.896C114.088 371.301 114.387 371.664 114.984 371.984C115.603 372.283 116.264 372.432 116.968 372.432ZM156.616 350.352C155.101 350.373 153.501 350.523 151.816 350.8L150.952 349.136C152.125 349.264 153.544 349.349 155.208 349.392H160.936L161.544 348.624C161.608 348.56 161.693 348.453 161.8 348.304C161.928 348.155 162.035 348.048 162.12 347.984C162.205 347.899 162.291 347.856 162.376 347.856C162.568 347.856 162.984 348.219 163.624 348.944C164.264 349.669 164.584 350.149 164.584 350.384C164.477 350.491 164.328 350.565 164.136 350.608C163.944 350.651 163.667 350.683 163.304 350.704C162.728 351.301 161.96 351.973 161 352.72C160.04 353.445 159.08 354.117 158.12 354.736C158.675 355.205 159.091 355.685 159.368 356.176C159.645 356.667 159.784 357.115 159.784 357.52C159.784 357.84 159.699 358.107 159.528 358.32C159.379 358.512 159.165 358.608 158.888 358.608C158.696 358.608 158.472 358.544 158.216 358.416C157.832 357.435 157.096 356.421 156.008 355.376C154.92 354.309 153.789 353.445 152.616 352.784L152.904 352.432C154.739 352.837 156.275 353.456 157.512 354.288C158.728 352.923 159.784 351.611 160.68 350.352H156.616ZM163.08 357.84C163.272 357.84 163.688 358.171 164.328 358.832C164.968 359.472 165.288 359.909 165.288 360.144C165.16 360.251 165.011 360.325 164.84 360.368C164.669 360.411 164.424 360.453 164.104 360.496C163.635 361.307 163.016 362.203 162.248 363.184C161.501 364.144 160.776 364.955 160.072 365.616L159.656 365.328C160.019 364.603 160.403 363.749 160.808 362.768C161.235 361.787 161.565 360.901 161.8 360.112H158.12V373.264C158.12 373.904 158.035 374.437 157.864 374.864C157.715 375.291 157.384 375.643 156.872 375.92C156.381 376.197 155.656 376.389 154.696 376.496C154.632 375.728 154.408 375.205 154.024 374.928C153.448 374.501 152.424 374.203 150.952 374.032V373.552C153.405 373.723 154.867 373.808 155.336 373.808C155.656 373.808 155.869 373.765 155.976 373.68C156.104 373.573 156.168 373.403 156.168 373.168V360.112H154.216C153.085 360.133 151.912 360.283 150.696 360.56L150.088 359.344L150.184 361.392C150.056 361.605 149.789 361.819 149.384 362.032C148.979 362.224 148.616 362.32 148.296 362.32H147.976V360.912H144.552V365.424H147.24L147.816 364.592C147.88 364.507 147.965 364.389 148.072 364.24C148.2 364.069 148.307 363.941 148.392 363.856C148.477 363.771 148.563 363.728 148.648 363.728C148.861 363.728 149.277 364.027 149.896 364.624C150.536 365.2 150.856 365.605 150.856 365.84C150.792 366.181 150.536 366.352 150.088 366.352H144.552V371.088L151.432 369.648L151.56 370.128C148.104 371.429 143.731 372.923 138.44 374.608C138.312 374.971 138.077 375.227 137.736 375.376L136.328 372.624C137.672 372.432 139.773 372.048 142.632 371.472V366.352H140.84C139.816 366.373 138.728 366.523 137.576 366.8L136.776 365.168C137.864 365.296 139.187 365.381 140.744 365.424H142.632V360.912H139.304V362.256C139.304 362.363 139.133 362.501 138.792 362.672C138.472 362.843 138.131 362.928 137.768 362.928C137.619 362.928 137.491 362.864 137.384 362.736C137.277 362.608 137.224 362.459 137.224 362.288C137.309 361.136 137.384 359.579 137.448 357.616V354.928C137.448 352.24 137.309 350.053 137.032 348.368L139.464 349.456H147.688L148.168 348.848C148.232 348.784 148.339 348.667 148.488 348.496C148.637 348.304 148.776 348.208 148.904 348.208C149.032 348.208 149.288 348.347 149.672 348.624C150.077 348.88 150.44 349.168 150.76 349.488C151.101 349.787 151.272 350.011 151.272 350.16C150.995 350.48 150.557 350.704 149.96 350.832V354.416L150.056 358.96C151.251 359.067 152.605 359.141 154.12 359.184H161.736L162.28 358.512C162.365 358.427 162.483 358.299 162.632 358.128C162.803 357.936 162.952 357.84 163.08 357.84ZM139.304 354.736H142.632V350.416H139.304V354.736ZM144.552 354.736H147.976V350.416H144.552V354.736ZM139.304 359.984H142.632V355.696H139.304V359.984ZM144.552 359.984H147.976V355.696H144.552V359.984ZM194.76 349.52C194.824 349.413 194.92 349.275 195.048 349.104C195.197 348.912 195.315 348.773 195.4 348.688C195.485 348.581 195.571 348.528 195.656 348.528C195.784 348.528 196.061 348.699 196.488 349.04C196.915 349.381 197.309 349.744 197.672 350.128C198.056 350.512 198.248 350.779 198.248 350.928C198.163 351.269 197.896 351.44 197.448 351.44H189.192V351.984C189.213 352.197 189.224 352.389 189.224 352.56C189.245 352.731 189.267 352.848 189.288 352.912C189.245 353.125 189.043 353.317 188.68 353.488C188.317 353.637 187.955 353.712 187.592 353.712C187.251 353.712 187.08 353.499 187.08 353.072C187.08 353.029 187.123 352.741 187.208 352.208V351.44H180.744V352.208C180.808 353.019 180.851 353.467 180.872 353.552C180.808 353.744 180.595 353.925 180.232 354.096C179.891 354.267 179.539 354.352 179.176 354.352C178.813 354.352 178.632 354.139 178.632 353.712C178.632 353.712 178.675 353.285 178.76 352.432V351.44H175.464C173.949 351.461 172.349 351.611 170.664 351.888L169.832 350.224C171.005 350.352 172.424 350.437 174.088 350.48H178.76C178.76 349.157 178.696 348.016 178.568 347.056C179.677 347.376 180.456 347.643 180.904 347.856C181.352 348.048 181.576 348.219 181.576 348.368C181.576 348.475 181.48 348.581 181.288 348.688L180.744 349.04V350.48H187.208C187.208 349.179 187.144 348.048 187.016 347.088C189 347.664 189.992 348.101 189.992 348.4C189.992 348.507 189.907 348.613 189.736 348.72L189.192 349.072V350.48H194.088L194.76 349.52ZM195.048 355.152C194.92 355.28 194.728 355.344 194.472 355.344C194.195 355.344 193.864 355.248 193.48 355.056C190.536 355.589 187.155 356.037 183.336 356.4C179.539 356.741 175.869 356.923 172.328 356.944L172.296 356.304C175.795 356.091 179.517 355.675 183.464 355.056C187.411 354.416 190.589 353.755 193 353.072L194.024 354.128L195.048 355.152ZM193.384 357.168C194.195 357.488 194.6 357.744 194.6 357.936C194.6 358.043 194.472 358.128 194.216 358.192L193.608 358.32C192.797 359.472 191.891 360.56 190.888 361.584C189.885 362.608 188.893 363.461 187.912 364.144L187.528 363.76C187.912 363.312 188.296 362.8 188.68 362.224C189.277 361.371 189.853 360.357 190.408 359.184C190.984 357.989 191.4 356.955 191.656 356.08L193.384 357.168ZM181.512 356.88C182.728 357.413 183.613 358.021 184.168 358.704C184.744 359.387 185.032 360.037 185.032 360.656C185.032 361.04 184.925 361.36 184.712 361.616C184.52 361.872 184.275 362 183.976 362C183.656 362 183.357 361.872 183.08 361.616C183.037 360.912 182.824 360.144 182.44 359.312C182.077 358.48 181.651 357.744 181.16 357.104L181.512 356.88ZM174.408 357.936C175.837 358.491 176.883 359.163 177.544 359.952C178.205 360.72 178.536 361.456 178.536 362.16C178.536 362.565 178.429 362.896 178.216 363.152C178.024 363.408 177.779 363.536 177.48 363.536C177.181 363.536 176.904 363.419 176.648 363.184C176.563 362.373 176.264 361.499 175.752 360.56C175.24 359.6 174.675 358.8 174.056 358.16L174.408 357.936ZM194.408 364.464C194.515 364.336 194.621 364.197 194.728 364.048C194.835 363.899 194.941 363.771 195.048 363.664C195.155 363.536 195.251 363.472 195.336 363.472C195.464 363.472 195.752 363.643 196.2 363.984C196.648 364.325 197.064 364.699 197.448 365.104C197.832 365.488 198.024 365.755 198.024 365.904C197.939 366.245 197.661 366.416 197.192 366.416H186.28C187.624 367.909 189.405 369.243 191.624 370.416C193.843 371.589 196.104 372.432 198.408 372.944L198.376 373.328C197.928 373.392 197.533 373.595 197.192 373.936C196.872 374.277 196.648 374.704 196.52 375.216C194.216 374.363 192.083 373.179 190.12 371.664C188.179 370.149 186.611 368.4 185.416 366.416H185.128V369.552C185.192 372.155 185.267 374.181 185.352 375.632C185.245 375.845 185 376.037 184.616 376.208C184.232 376.4 183.859 376.496 183.496 376.496C183.304 376.496 183.144 376.432 183.016 376.304C182.888 376.176 182.824 376.027 182.824 375.856C182.952 374.043 183.037 372.197 183.08 370.32V367.216C181.608 369.029 179.773 370.651 177.576 372.08C175.4 373.509 172.968 374.704 170.28 375.664L169.992 375.152C172.232 374.107 174.291 372.827 176.168 371.312C178.067 369.776 179.635 368.144 180.872 366.416H175.848C174.333 366.437 172.733 366.587 171.048 366.864L170.184 365.2C171.357 365.328 172.776 365.413 174.44 365.456H183.08C183.08 364.155 183.016 363.045 182.888 362.128C184.019 362.469 184.797 362.747 185.224 362.96C185.672 363.152 185.896 363.323 185.896 363.472C185.896 363.579 185.811 363.685 185.64 363.792L185.128 364.144V365.456H193.704L194.408 364.464ZM226.152 355.76C226.856 355.76 227.475 355.984 228.008 356.432C228.563 356.88 228.84 357.477 228.84 358.224C228.84 359.184 228.424 360.005 227.592 360.688C226.76 361.349 225.629 361.989 224.2 362.608L221.832 363.568C220.253 364.187 219.197 364.613 218.664 364.848C218.6 365.296 218.568 366 218.568 366.96C218.568 368.475 218.557 369.328 218.536 369.52C218.515 369.84 218.376 370.117 218.12 370.352C217.885 370.565 217.629 370.672 217.352 370.672C217.096 370.672 216.872 370.555 216.68 370.32C216.488 370.085 216.392 369.819 216.392 369.52C216.392 369.285 216.424 368.869 216.488 368.272L216.68 365.808C215.443 366.491 214.472 367.205 213.768 367.952C213.085 368.699 212.744 369.531 212.744 370.448C212.744 372.069 214.365 372.88 217.608 372.88C218.099 372.88 218.6 372.837 219.112 372.752C219.624 372.667 220.104 372.571 220.552 372.464C221.405 372.272 222.067 372.176 222.536 372.176C223.368 372.176 223.784 372.464 223.784 373.04C223.784 373.68 223.187 374.128 221.992 374.384C220.797 374.64 219.549 374.768 218.248 374.768C215.581 374.768 213.8 374.373 212.904 373.584C212.008 372.773 211.56 371.792 211.56 370.64C211.56 369.445 212.008 368.4 212.904 367.504C213.821 366.587 215.101 365.701 216.744 364.848C216.765 364.613 216.776 364.283 216.776 363.856C216.776 361.616 216.115 360.496 214.792 360.496C214.024 360.496 213.213 360.955 212.36 361.872C211.528 362.789 210.717 363.792 209.928 364.88C209.864 364.965 209.715 365.189 209.48 365.552C209.245 365.893 209.021 366.171 208.808 366.384C208.595 366.597 208.413 366.704 208.264 366.704C207.901 366.704 207.624 366.565 207.432 366.288C207.24 366.011 207.144 365.68 207.144 365.296C207.144 364.784 207.261 364.4 207.496 364.144L208.072 363.632C208.755 362.992 209.341 362.416 209.832 361.904C210.323 361.392 210.76 360.805 211.144 360.144C212.232 358.288 213.107 356.304 213.768 354.192C212.936 354.427 212.115 354.544 211.304 354.544C210.6 354.544 210.003 354.427 209.512 354.192C209.021 353.957 208.435 353.573 207.752 353.04C207.667 352.976 207.624 352.912 207.624 352.848C207.624 352.763 207.677 352.72 207.784 352.72C207.869 352.72 208.019 352.752 208.232 352.816C208.915 353.072 209.64 353.2 210.408 353.2C210.792 353.2 211.325 353.157 212.008 353.072C212.691 352.965 213.437 352.763 214.248 352.464C214.397 351.867 214.472 351.344 214.472 350.896C214.472 350.043 214.141 349.349 213.48 348.816C213.373 348.731 213.32 348.645 213.32 348.56C213.341 348.24 213.512 348.08 213.832 348.08C214.024 348.08 214.387 348.144 214.92 348.272C215.453 348.4 215.784 348.549 215.912 348.72C216.019 348.848 216.072 349.083 216.072 349.424C216.072 349.552 216.051 349.765 216.008 350.064C216.349 350.299 216.808 350.416 217.384 350.416C217.683 350.416 217.907 350.384 218.056 350.32C218.269 350.277 218.483 350.256 218.696 350.256C219.187 350.256 219.432 350.437 219.432 350.8C219.432 351.077 219.261 351.387 218.92 351.728C218.6 352.069 218.195 352.368 217.704 352.624C217.021 353.008 216.136 353.403 215.048 353.808C214.28 356.283 213.523 358.341 212.776 359.984C213.395 359.621 214.003 359.44 214.6 359.44C215.645 359.44 216.456 359.728 217.032 360.304C217.629 360.88 218.024 361.659 218.216 362.64C218.6 361.744 219.016 360.965 219.464 360.304C219.912 359.621 220.456 358.939 221.096 358.256C221.736 357.573 222.525 356.987 223.464 356.496C224.403 356.005 225.299 355.76 226.152 355.76ZM215.912 350.672C215.912 350.736 215.816 351.131 215.624 351.856C215.773 351.792 215.901 351.728 216.008 351.664C216.115 351.579 216.211 351.515 216.296 351.472C216.445 351.387 216.52 351.301 216.52 351.216C216.52 351.131 216.435 351.024 216.264 350.896L215.912 350.672ZM223.432 361.456C224.477 360.837 225.32 360.165 225.96 359.44C226.621 358.693 226.952 358.085 226.952 357.616C226.952 356.997 226.547 356.688 225.736 356.688C225.16 356.688 224.499 356.891 223.752 357.296C223.005 357.701 222.312 358.224 221.672 358.864C221.096 359.44 220.541 360.219 220.008 361.2C219.475 362.16 219.091 363.013 218.856 363.76V363.792L219.272 363.6L219.944 363.28C221.672 362.427 222.835 361.819 223.432 361.456ZM244.84 353.296C244.904 353.189 244.989 353.061 245.096 352.912C245.224 352.741 245.32 352.613 245.384 352.528C245.469 352.443 245.555 352.4 245.64 352.4C245.832 352.4 246.237 352.72 246.856 353.36C247.496 353.979 247.816 354.405 247.816 354.64C247.731 354.981 247.475 355.152 247.048 355.152H243.592V361.776C245.085 361.285 246.515 360.784 247.88 360.272L248.008 360.72C247.176 361.211 245.704 362.053 243.592 363.248V373.424C243.592 374.085 243.528 374.608 243.4 374.992C243.272 375.376 242.995 375.696 242.568 375.952C242.141 376.208 241.501 376.379 240.648 376.464C240.52 375.675 240.328 375.173 240.072 374.96C239.688 374.597 238.931 374.341 237.8 374.192V373.648C239.571 373.797 240.637 373.872 241 373.872C241.256 373.872 241.427 373.829 241.512 373.744C241.619 373.637 241.672 373.467 241.672 373.232V364.304L238.824 365.776C238.717 366.203 238.504 366.48 238.184 366.608L237.16 363.888C238.312 363.547 239.816 363.067 241.672 362.448V355.152H240.264C239.475 355.173 238.664 355.323 237.832 355.6L237.032 353.936C237.885 354.064 238.931 354.149 240.168 354.192H241.672V353.584C241.672 350.896 241.533 348.709 241.256 347.024C242.451 347.365 243.283 347.643 243.752 347.856C244.221 348.048 244.456 348.219 244.456 348.368C244.456 348.475 244.36 348.581 244.168 348.688L243.592 349.04V354.192H244.264L244.84 353.296ZM262.792 348.4C262.856 348.315 262.941 348.197 263.048 348.048C263.176 347.899 263.283 347.792 263.368 347.728C263.453 347.643 263.539 347.6 263.624 347.6C263.816 347.6 264.232 347.973 264.872 348.72C265.533 349.445 265.864 349.925 265.864 350.16C265.736 350.288 265.587 350.373 265.416 350.416C265.267 350.459 265.032 350.491 264.712 350.512C264.307 351.003 263.795 351.589 263.176 352.272C262.557 352.933 262.024 353.467 261.576 353.872L261.128 353.68C261.469 352.72 261.853 351.525 262.28 350.096H259.4V356.336C259.4 356.528 259.443 356.656 259.528 356.72C259.613 356.763 259.827 356.784 260.168 356.784H261.8C262.696 356.784 263.229 356.773 263.4 356.752C263.421 356.752 263.485 356.741 263.592 356.72C263.699 356.699 263.784 356.645 263.848 356.56C263.955 356.432 264.125 355.931 264.36 355.056C264.467 354.629 264.541 354.352 264.584 354.224H264.904L265 356.56C265.277 356.645 265.469 356.752 265.576 356.88C265.683 357.008 265.736 357.168 265.736 357.36C265.736 357.659 265.629 357.893 265.416 358.064C265.203 358.235 264.808 358.363 264.232 358.448C263.656 358.512 262.835 358.544 261.768 358.544H259.688C258.813 358.544 258.237 358.416 257.96 358.16C257.704 357.904 257.576 357.424 257.576 356.72V350.096H254.824C254.696 351.653 254.419 352.987 253.992 354.096C253.587 355.184 252.829 356.197 251.72 357.136C250.611 358.053 249.011 358.864 246.92 359.568L246.504 359.088C248.232 358.32 249.533 357.488 250.408 356.592C251.304 355.675 251.901 354.715 252.2 353.712C252.499 352.709 252.669 351.504 252.712 350.096H250.44C250.376 350.736 250.216 351.291 249.96 351.76C249.704 352.229 249.395 352.592 249.032 352.848C248.712 353.061 248.381 353.168 248.04 353.168C247.571 353.168 247.261 352.987 247.112 352.624C247.048 352.496 247.016 352.357 247.016 352.208C247.016 351.781 247.293 351.397 247.848 351.056C248.339 350.779 248.765 350.32 249.128 349.68C249.491 349.04 249.661 348.379 249.64 347.696H250.184C250.248 347.973 250.333 348.464 250.44 349.168H262.216L262.792 348.4ZM262.312 362.768C262.397 362.661 262.493 362.523 262.6 362.352C262.728 362.16 262.835 362.021 262.92 361.936C263.005 361.851 263.091 361.808 263.176 361.808C263.304 361.808 263.571 361.968 263.976 362.288C264.403 362.608 264.787 362.96 265.128 363.344C265.491 363.707 265.672 363.963 265.672 364.112C265.608 364.453 265.352 364.624 264.904 364.624H257.16C258.099 366.288 259.347 367.813 260.904 369.2C262.483 370.565 264.115 371.6 265.8 372.304L265.736 372.624C265.331 372.688 264.968 372.891 264.648 373.232C264.349 373.552 264.136 373.968 264.008 374.48C262.365 373.477 260.893 372.144 259.592 370.48C258.291 368.795 257.256 366.885 256.488 364.752V368.432C256.531 370.992 256.616 373.392 256.744 375.632C256.616 375.845 256.36 376.037 255.976 376.208C255.613 376.4 255.251 376.496 254.888 376.496C254.717 376.496 254.568 376.432 254.44 376.304C254.333 376.176 254.28 376.027 254.28 375.856C254.408 373.979 254.493 372.08 254.536 370.16V366.992C252.445 370.256 249.299 372.848 245.096 374.768L244.84 374.256C246.781 373.083 248.467 371.675 249.896 370.032C251.325 368.389 252.467 366.587 253.32 364.624H251.048C249.725 364.645 248.36 364.795 246.952 365.072L246.152 363.44C247.325 363.568 248.744 363.653 250.408 363.696H254.536C254.536 361.755 254.44 360.112 254.248 358.768C256.232 359.344 257.224 359.781 257.224 360.08C257.224 360.165 257.139 360.261 256.968 360.368L256.488 360.656V363.696H261.672L262.312 362.768ZM284.232 374.64C282.504 374.64 281.139 374.299 280.136 373.616C279.155 372.912 278.461 371.909 278.056 370.608C277.672 369.285 277.48 367.611 277.48 365.584C277.48 363.557 277.619 361.179 277.896 358.448C278.067 356.656 278.152 355.472 278.152 354.896C278.152 353.829 278.067 353.008 277.896 352.432C277.747 351.835 277.395 351.365 276.84 351.024C276.669 350.917 276.584 350.8 276.584 350.672C276.584 350.437 276.883 350.32 277.48 350.32C278.589 350.32 279.347 350.629 279.752 351.248C280.179 351.867 280.392 352.709 280.392 353.776C280.392 354.48 280.243 356.08 279.944 358.576C279.603 361.413 279.432 363.813 279.432 365.776C279.432 367.589 279.592 368.997 279.912 370C280.253 370.981 280.819 371.696 281.608 372.144C282.397 372.571 283.507 372.784 284.936 372.784C287.496 372.784 290.888 371.237 295.112 368.144C295.155 368.123 295.251 368.059 295.4 367.952C295.571 367.845 295.699 367.792 295.784 367.792C295.848 367.792 295.88 367.835 295.88 367.92C295.88 368.069 295.741 368.283 295.464 368.56C293.629 370.395 291.773 371.867 289.896 372.976C288.04 374.085 286.152 374.64 284.232 374.64ZM316.456 353.584C316.819 353.712 317.075 353.829 317.224 353.936C317.395 354.043 317.48 354.213 317.48 354.448C317.48 354.768 317.256 355.099 316.808 355.44C315.464 356.4 314.088 357.179 312.68 357.776C310.867 366.331 309.789 371.141 309.448 372.208C309.213 372.912 308.989 373.413 308.776 373.712C308.563 373.989 308.317 374.128 308.04 374.128C307.699 374.128 307.4 374.011 307.144 373.776C306.888 373.52 306.76 373.179 306.76 372.752C306.76 372.432 306.845 372.101 307.016 371.76C308.787 367.963 310.152 363.504 311.112 358.384C310.003 358.704 309.064 358.864 308.296 358.864C307.315 358.864 306.301 358.352 305.256 357.328C305.107 357.179 305.032 357.051 305.032 356.944C305.032 356.816 305.096 356.752 305.224 356.752C305.331 356.752 305.491 356.805 305.704 356.912C306.259 357.147 306.856 357.264 307.496 357.264C308.093 357.264 308.744 357.157 309.448 356.944C310.045 356.773 310.717 356.539 311.464 356.24C311.592 355.472 311.731 354.491 311.88 353.296C311.923 352.955 311.944 352.624 311.944 352.304C311.944 351.643 311.848 351.173 311.656 350.896C311.485 350.597 311.101 350.245 310.504 349.84C310.333 349.733 310.248 349.627 310.248 349.52C310.248 349.392 310.387 349.328 310.664 349.328C310.899 349.328 311.197 349.371 311.56 349.456C311.944 349.541 312.275 349.648 312.552 349.776C313.021 350.011 313.373 350.245 313.608 350.48C313.843 350.715 313.96 351.077 313.96 351.568C313.96 351.653 313.939 351.824 313.896 352.08C314.365 352.549 314.813 352.901 315.24 353.136C315.453 353.243 315.859 353.392 316.456 353.584ZM313.192 355.472C314.237 354.896 314.76 354.459 314.76 354.16C314.76 353.989 314.675 353.797 314.504 353.584C314.355 353.371 314.109 353.061 313.768 352.656L313.448 354.256L313.192 355.472ZM328.232 355.92C328.659 356.219 328.989 356.592 329.224 357.04C329.48 357.488 329.608 357.861 329.608 358.16C329.608 358.587 329.192 358.896 328.36 359.088C327.976 359.173 327.677 359.227 327.464 359.248C327.144 359.291 326.76 359.376 326.312 359.504C325.992 359.611 325.64 359.76 325.256 359.952C324.872 360.144 324.584 360.315 324.392 360.464C324.243 360.549 324.115 360.592 324.008 360.592C323.901 360.592 323.848 360.549 323.848 360.464C323.848 360.357 323.901 360.24 324.008 360.112C324.115 360.005 324.403 359.771 324.872 359.408C326.045 358.555 326.632 357.936 326.632 357.552C326.632 357.339 326.483 357.125 326.184 356.912C325.715 356.571 325.224 356.325 324.712 356.176C324.2 356.027 323.741 355.952 323.336 355.952C323.08 355.952 322.867 355.973 322.696 356.016C322.525 356.037 322.429 356.048 322.408 356.048C322.109 356.048 321.96 355.963 321.96 355.792C321.96 355.643 322.099 355.515 322.376 355.408C323.144 355.131 323.944 354.992 324.776 354.992C325.48 354.992 326.131 355.077 326.728 355.248C327.347 355.419 327.848 355.643 328.232 355.92ZM327.144 371.728C327.933 371.728 328.424 371.899 328.616 372.24C328.765 372.432 328.84 372.656 328.84 372.912C328.84 373.467 328.52 373.84 327.88 374.032C327.261 374.224 326.408 374.32 325.32 374.32C323.059 374.32 321.203 373.925 319.752 373.136C318.301 372.325 317.576 371.024 317.576 369.232C317.576 368.827 317.608 368.453 317.672 368.112C317.757 367.771 317.832 367.536 317.896 367.408C317.981 367.195 318.077 367.003 318.184 366.832C318.291 366.661 318.397 366.576 318.504 366.576C318.589 366.576 318.632 366.651 318.632 366.8L318.568 367.376C318.547 367.525 318.536 367.696 318.536 367.888C318.536 368.315 318.621 368.784 318.792 369.296C318.963 369.808 319.283 370.277 319.752 370.704C320.136 371.067 320.691 371.365 321.416 371.6C322.163 371.835 323.016 371.952 323.976 371.952C324.211 371.952 324.776 371.909 325.672 371.824C325.971 371.803 326.248 371.781 326.504 371.76C326.76 371.739 326.973 371.728 327.144 371.728ZM348.84 372.976C348.413 372.976 347.859 372.816 347.176 372.496C346.493 372.176 345.747 371.653 344.936 370.928C342.867 369.051 341.832 366.384 341.832 362.928C341.832 361.861 341.949 360.549 342.184 358.992C342.312 358.053 342.376 357.413 342.376 357.072C342.376 356.56 342.28 356.101 342.088 355.696C341.917 355.269 341.608 354.853 341.16 354.448C341.032 354.341 340.968 354.256 340.968 354.192C340.968 354.128 341.011 354.085 341.096 354.064C341.181 354.021 341.267 354 341.352 354C341.779 354 342.259 354.139 342.792 354.416C343.347 354.672 343.816 355.024 344.2 355.472C344.584 355.899 344.776 356.336 344.776 356.784C344.776 357.061 344.723 357.381 344.616 357.744C344.531 358.085 344.424 358.448 344.296 358.832C344.019 359.728 343.805 360.496 343.656 361.136C343.528 361.776 343.464 362.523 343.464 363.376C343.464 364.528 343.677 365.573 344.104 366.512C344.552 367.429 345.064 368.155 345.64 368.688C346.237 369.2 346.749 369.456 347.176 369.456C347.432 369.456 347.603 369.232 347.688 368.784C347.88 367.867 348.083 367.056 348.296 366.352C348.531 365.648 348.712 365.168 348.84 364.912C348.904 364.763 348.979 364.635 349.064 364.528C349.149 364.4 349.224 364.336 349.288 364.336C349.352 364.336 349.384 364.4 349.384 364.528C349.384 364.635 349.363 364.816 349.32 365.072C349.107 366.16 349 367.152 349 368.048C349 368.368 349.011 368.677 349.032 368.976C349.053 369.253 349.075 369.477 349.096 369.648C349.117 370.053 349.235 370.512 349.448 371.024C349.619 371.536 349.704 371.888 349.704 372.08C349.704 372.357 349.629 372.581 349.48 372.752C349.331 372.901 349.117 372.976 348.84 372.976ZM362.12 364.464C361.693 364.464 361.395 364.379 361.224 364.208C361.075 364.037 360.947 363.803 360.84 363.504C360.819 363.461 360.627 362.779 360.264 361.456C359.923 360.112 359.24 359.184 358.216 358.672C357.725 358.416 357.064 358.288 356.232 358.288H355.848C355.656 358.288 355.56 358.224 355.56 358.096C355.56 358.011 355.667 357.925 355.88 357.84C355.965 357.797 356.168 357.744 356.488 357.68C356.829 357.616 357.203 357.584 357.608 357.584C359.101 357.584 360.392 358.107 361.48 359.152C362.248 359.877 362.771 360.603 363.048 361.328C363.325 362.032 363.464 362.576 363.464 362.96C363.464 363.344 363.336 363.696 363.08 364.016C362.845 364.315 362.525 364.464 362.12 364.464ZM375.976 375.92C375.229 375.92 374.525 375.728 373.864 375.344C373.224 374.981 372.712 374.48 372.328 373.84C371.965 373.2 371.784 372.496 371.784 371.728C371.784 370.981 371.965 370.288 372.328 369.648C372.712 369.008 373.224 368.507 373.864 368.144C374.525 367.76 375.229 367.568 375.976 367.568C376.723 367.568 377.416 367.76 378.056 368.144C378.696 368.507 379.197 369.008 379.56 369.648C379.944 370.288 380.136 370.981 380.136 371.728C380.136 372.496 379.944 373.2 379.56 373.84C379.197 374.48 378.696 374.981 378.056 375.344C377.416 375.728 376.723 375.92 375.976 375.92ZM375.976 375.12C376.915 375.12 377.715 374.789 378.376 374.128C379.037 373.467 379.368 372.667 379.368 371.728C379.368 370.811 379.037 370.021 378.376 369.36C377.715 368.699 376.915 368.368 375.976 368.368C375.037 368.368 374.237 368.699 373.576 369.36C372.915 370.021 372.584 370.811 372.584 371.728C372.584 372.667 372.915 373.467 373.576 374.128C374.237 374.789 375.037 375.12 375.976 375.12Z" fill="#422B1A"/>
<g clip-path="url(#clip0_118_90)">
<path d="M292.505 106.731C285.179 99.4029 273.301 99.4029 265.975 106.731C263.436 109.267 261.779 112.352 260.997 115.604C260.22 112.352 258.563 109.267 256.025 106.731C248.699 99.4029 236.82 99.4029 229.494 106.731C222.168 114.057 222.168 125.936 229.494 133.259L260.997 164.765L292.505 133.259C299.831 125.936 299.831 114.057 292.505 106.731Z" fill="white"/>
</g>
<defs>
<clipPath id="clip0_118_90">
<rect width="74" height="74" fill="white" transform="translate(224 96)"/>
</clipPath>
</defs>
</svg>
