<svg width="521" height="521" viewBox="0 0 521 521" fill="none" xmlns="http://www.w3.org/2000/svg">
<rect width="521" height="521" rx="260.5" fill="#F9EFE3"/>
<path d="M140.448 236.816C140.683 236.923 140.885 237.072 141.056 237.264C141.227 237.456 141.312 237.648 141.312 237.84C141.312 238.096 141.216 238.341 141.024 238.576C140.832 238.789 140.587 238.896 140.288 238.896C140.16 238.896 139.691 238.832 138.88 238.704C138.069 238.576 137.173 238.512 136.192 238.512C135.083 238.512 134.037 238.544 133.056 238.608C132.907 240.72 132.64 242.437 132.256 243.76C131.979 244.677 131.627 245.435 131.2 246.032C130.773 246.629 130.261 246.928 129.664 246.928C129.323 246.928 129.099 246.875 128.992 246.768C128.907 246.661 128.853 246.501 128.832 246.288C128.768 245.691 128.512 245.093 128.064 244.496C127.637 243.877 127.243 243.387 126.88 243.024C126.731 242.875 126.656 242.747 126.656 242.64C126.656 242.576 126.699 242.544 126.784 242.544C126.891 242.544 127.019 242.587 127.168 242.672C127.275 242.736 127.648 242.971 128.288 243.376C128.928 243.781 129.376 243.984 129.632 243.984C129.845 243.984 130.016 243.92 130.144 243.792C130.891 243.045 131.36 241.36 131.552 238.736C128.629 239.035 125.835 239.717 123.168 240.784C123.253 244.837 123.456 247.696 123.776 249.36C123.904 250 124.139 250.469 124.48 250.768C124.843 251.067 125.237 251.259 125.664 251.344C126.091 251.408 126.635 251.44 127.296 251.44C128.192 251.44 129.173 251.387 130.24 251.28C131.328 251.173 132.245 251.024 132.992 250.832C133.333 250.747 133.611 250.704 133.824 250.704C134.272 250.704 134.635 250.821 134.912 251.056C135.189 251.291 135.328 251.557 135.328 251.856C135.328 252.24 135.157 252.507 134.816 252.656C134.496 252.805 133.984 252.955 133.28 253.104C132.96 253.168 132.384 253.243 131.552 253.328C130.741 253.392 129.899 253.424 129.024 253.424C125.739 253.424 123.691 252.816 122.88 251.6C122.453 250.981 122.123 249.445 121.888 246.992C121.717 245.349 121.611 243.515 121.568 241.488L120.672 241.936C120.267 242.128 119.925 242.299 119.648 242.448C119.371 242.576 119.136 242.683 118.944 242.768C118.453 243.024 118.08 243.195 117.824 243.28C117.589 243.365 117.28 243.408 116.896 243.408C116.107 243.408 115.467 243.141 114.976 242.608C114.485 242.075 114.24 241.499 114.24 240.88C114.24 240.432 114.336 240.208 114.528 240.208C114.613 240.208 114.773 240.325 115.008 240.56C115.243 240.773 115.477 240.944 115.712 241.072C115.968 241.2 116.299 241.264 116.704 241.264C117.195 241.264 117.909 241.093 118.848 240.752C119.445 240.539 120.331 240.261 121.504 239.92C121.355 237.04 121.152 235.408 120.896 235.024C120.725 234.747 120.533 234.533 120.32 234.384C120.128 234.235 119.883 234.107 119.584 234C119.2 233.829 119.008 233.68 119.008 233.552C119.008 233.381 119.211 233.243 119.616 233.136C120.021 233.008 120.416 232.944 120.8 232.944C121.696 232.944 122.432 233.232 123.008 233.808C123.264 234.064 123.392 234.373 123.392 234.736C123.392 234.885 123.381 235.013 123.36 235.12C123.339 235.227 123.317 235.323 123.296 235.408C123.211 235.771 123.168 237.072 123.168 239.312V239.44C126.304 238.544 129.12 237.925 131.616 237.584C131.637 237.243 131.648 236.752 131.648 236.112C131.648 234.96 131.605 233.915 131.52 232.976C131.413 232.165 130.955 231.557 130.144 231.152C129.931 231.045 129.824 230.939 129.824 230.832C129.824 230.683 129.941 230.565 130.176 230.48C130.411 230.395 130.645 230.352 130.88 230.352C131.221 230.352 131.584 230.405 131.968 230.512C132.373 230.619 132.683 230.757 132.896 230.928C133.152 231.141 133.355 231.355 133.504 231.568C133.653 231.781 133.728 232.027 133.728 232.304C133.728 232.389 133.664 232.709 133.536 233.264L133.344 234.192V234.256C134.133 234.832 135.083 235.397 136.192 235.952C137.323 236.507 138.219 236.795 138.88 236.816C139.093 236.816 139.296 236.805 139.488 236.784C139.68 236.763 139.851 236.752 140 236.752C140.213 236.752 140.363 236.773 140.448 236.816ZM134.336 237.36C135.211 237.36 135.648 237.243 135.648 237.008C135.648 236.773 134.859 236.133 133.28 235.088L133.152 237.424C133.707 237.381 134.101 237.36 134.336 237.36ZM158.016 254.64C157.931 254.64 157.856 254.608 157.792 254.544C157.728 254.501 157.696 254.448 157.696 254.384C157.696 254.192 157.835 254.085 158.112 254.064C160.117 253.893 161.952 253.413 163.616 252.624C165.28 251.835 166.592 250.853 167.552 249.68C168.533 248.507 169.024 247.269 169.024 245.968C169.024 244.987 168.8 244.155 168.352 243.472C167.925 242.789 167.36 242.277 166.656 241.936C165.973 241.573 165.259 241.392 164.512 241.392C163.083 241.392 161.621 241.84 160.128 242.736C158.656 243.611 157.515 244.411 156.704 245.136C156.107 245.648 155.563 246.064 155.072 246.384C154.603 246.704 154.133 246.864 153.664 246.864C153.003 246.864 152.171 246.448 151.168 245.616C150.869 245.381 150.72 245.179 150.72 245.008C150.72 244.816 150.837 244.72 151.072 244.72C151.2 244.72 151.413 244.741 151.712 244.784C152.032 244.827 152.331 244.848 152.608 244.848C153.056 244.848 153.525 244.731 154.016 244.496C154.528 244.24 155.275 243.835 156.256 243.28C157.728 242.384 159.061 241.691 160.256 241.2C161.472 240.688 162.773 240.432 164.16 240.432C165.248 240.432 166.304 240.677 167.328 241.168C168.373 241.637 169.216 242.341 169.856 243.28C170.517 244.197 170.848 245.296 170.848 246.576C170.848 247.451 170.592 248.432 170.08 249.52C169.568 250.587 168.395 251.632 166.56 252.656C164.747 253.68 162.08 254.331 158.56 254.608L158.016 254.64ZM195.104 236.688C196.384 236.688 197.323 237.125 197.92 238C198.539 238.853 198.848 240.048 198.848 241.584C198.848 242.352 198.731 243.44 198.496 244.848C198.261 246.256 197.899 247.653 197.408 249.04C196.917 250.427 196.309 251.483 195.584 252.208C195.2 252.592 194.805 252.912 194.4 253.168C193.995 253.424 193.632 253.552 193.312 253.552C192.992 253.552 192.747 253.445 192.576 253.232C192.427 253.019 192.299 252.773 192.192 252.496C192.085 252.219 192.011 252.037 191.968 251.952C191.733 251.333 191.221 250.523 190.432 249.52C190.197 249.243 190.08 249.051 190.08 248.944C190.08 248.901 190.112 248.88 190.176 248.88C190.283 248.88 190.699 249.115 191.424 249.584L192 249.968C192.341 250.224 192.619 250.405 192.832 250.512C193.045 250.619 193.259 250.672 193.472 250.672C194.197 250.672 194.837 250.096 195.392 248.944C195.968 247.792 196.416 246.459 196.736 244.944C197.056 243.408 197.216 242.16 197.216 241.2C197.216 238.96 196.523 237.84 195.136 237.84C194.24 237.84 192.992 238.224 191.392 238.992C190.389 243.429 188.789 247.429 186.592 250.992C186.315 251.461 186.016 251.835 185.696 252.112C185.376 252.368 185.067 252.496 184.768 252.496C184.533 252.496 184.331 252.411 184.16 252.24C183.989 252.069 183.904 251.856 183.904 251.6C183.904 251.003 184.32 250.16 185.152 249.072C187.285 246.235 188.757 243.141 189.568 239.792C187.477 240.709 186.176 241.168 185.664 241.168C185.216 241.168 184.757 241.029 184.288 240.752C183.84 240.475 183.467 240.133 183.168 239.728C182.869 239.301 182.72 238.907 182.72 238.544C182.72 238.352 182.773 238.256 182.88 238.256C182.965 238.256 183.093 238.299 183.264 238.384C183.456 238.469 183.605 238.533 183.712 238.576C184.309 238.832 184.928 238.96 185.568 238.96C186.4 238.939 187.104 238.853 187.68 238.704C188.256 238.533 189.035 238.267 190.016 237.904C190.315 236.517 190.464 235.355 190.464 234.416C190.464 233.328 190.24 232.517 189.792 231.984C189.643 231.813 189.44 231.6 189.184 231.344C188.949 231.088 188.832 230.917 188.832 230.832C188.832 230.704 188.917 230.608 189.088 230.544C189.28 230.48 189.515 230.448 189.792 230.448C190.197 230.448 190.624 230.512 191.072 230.64C191.52 230.768 191.872 230.928 192.128 231.12C192.469 231.397 192.64 231.739 192.64 232.144C192.64 232.315 192.576 232.656 192.448 233.168C192.341 233.595 192.256 234.011 192.192 234.416C192.043 235.525 191.893 236.496 191.744 237.328C193.024 236.901 194.144 236.688 195.104 236.688ZM202.048 236.4C203.691 236.464 205.035 236.784 206.08 237.36C207.147 237.936 207.915 238.608 208.384 239.376C208.853 240.144 209.088 240.859 209.088 241.52C209.088 242.267 208.875 242.907 208.448 243.44C208.043 243.952 207.616 244.208 207.168 244.208C206.912 244.208 206.677 244.133 206.464 243.984C206.251 243.813 206.123 243.717 206.08 243.696C205.781 243.483 205.376 243.333 204.864 243.248C204.352 243.163 203.744 243.077 203.04 242.992C202.741 242.949 202.592 242.885 202.592 242.8C202.592 242.693 202.72 242.629 202.976 242.608C204.363 242.459 205.088 242.384 205.152 242.384C205.728 242.277 206.123 242.149 206.336 242C206.571 241.851 206.688 241.605 206.688 241.264C206.688 240.24 206.208 239.301 205.248 238.448C204.288 237.595 203.189 237.019 201.952 236.72C201.76 236.677 201.664 236.613 201.664 236.528C201.664 236.443 201.792 236.4 202.048 236.4ZM230.4 255.504C229.952 255.504 229.611 255.269 229.376 254.8C229.141 254.352 228.864 253.637 228.544 252.656C227.883 250.587 227.328 249.093 226.88 248.176C226.432 247.237 225.845 246.203 225.12 245.072C225.013 244.901 224.779 244.539 224.416 243.984C224.053 243.429 223.808 242.992 223.68 242.672C223.552 242.331 223.488 242.021 223.488 241.744C223.488 241.381 223.584 240.976 223.776 240.528C223.989 240.08 224.341 239.472 224.832 238.704C226.709 235.675 227.989 233.296 228.672 231.568C228.885 231.013 228.992 230.565 228.992 230.224C228.992 229.861 228.885 229.573 228.672 229.36C228.544 229.232 228.352 229.083 228.096 228.912C227.861 228.741 227.744 228.613 227.744 228.528C227.744 228.4 227.883 228.336 228.16 228.336C228.459 228.336 228.864 228.432 229.376 228.624C229.888 228.795 230.347 229.029 230.752 229.328C231.221 229.669 231.456 230.096 231.456 230.608C231.456 230.864 231.371 231.216 231.2 231.664C230.901 232.389 230.571 233.051 230.208 233.648C229.867 234.245 229.333 234.981 228.608 235.856C227.051 237.755 225.803 239.376 224.864 240.72C224.629 241.04 224.512 241.381 224.512 241.744C224.512 242.085 224.661 242.427 224.96 242.768C226.411 244.368 227.829 246.277 229.216 248.496C230.624 250.693 231.328 252.613 231.328 254.256C231.328 254.619 231.253 254.917 231.104 255.152C230.955 255.387 230.72 255.504 230.4 255.504ZM262.272 232.656C260.971 233.552 259.627 234.267 258.24 234.8C257.451 236.955 256.576 239.291 255.616 241.808C254.677 244.304 253.909 246.299 253.312 247.792C253.205 248.048 253.024 248.261 252.768 248.432C252.533 248.603 252.299 248.688 252.064 248.688C251.787 248.688 251.584 248.539 251.456 248.24C251.328 247.941 251.264 247.568 251.264 247.12C251.264 246.885 251.275 246.725 251.296 246.64C251.339 246.555 251.413 246.427 251.52 246.256C251.755 245.829 251.957 245.445 252.128 245.104C252.512 244.272 252.981 243.355 253.536 242.352C254.283 240.901 254.901 239.643 255.392 238.576C255.904 237.488 256.341 236.389 256.704 235.28C256.213 235.387 255.808 235.44 255.488 235.44C254.592 235.44 253.867 235.237 253.312 234.832C252.757 234.427 252.341 233.968 252.064 233.456C251.915 233.221 251.84 233.008 251.84 232.816C251.84 232.688 251.893 232.624 252 232.624C252.085 232.624 252.235 232.731 252.448 232.944C252.917 233.392 253.685 233.616 254.752 233.616C255.392 233.616 256.224 233.456 257.248 233.136C257.333 232.773 257.376 232.357 257.376 231.888C257.376 231.205 257.237 230.661 256.96 230.256C256.789 230 256.544 229.797 256.224 229.648C255.925 229.477 255.776 229.36 255.776 229.296C255.776 229.211 255.84 229.136 255.968 229.072C256.117 229.008 256.288 228.976 256.48 228.976C256.779 228.976 257.077 229.029 257.376 229.136C258.016 229.349 258.475 229.616 258.752 229.936C259.029 230.256 259.168 230.661 259.168 231.152C259.168 231.579 259.093 232.027 258.944 232.496L259.52 232.208C259.691 232.101 259.84 232.005 259.968 231.92C260.096 231.813 260.16 231.717 260.16 231.632C260.16 231.547 260.064 231.429 259.872 231.28C259.787 231.216 259.659 231.141 259.488 231.056C259.339 230.971 259.264 230.896 259.264 230.832C259.264 230.747 259.36 230.704 259.552 230.704L260.704 230.736C260.853 230.736 261.035 230.704 261.248 230.64C261.483 230.576 261.696 230.544 261.888 230.544C262.187 230.544 262.421 230.64 262.592 230.832C262.784 231.003 262.88 231.227 262.88 231.504C262.88 231.717 262.827 231.931 262.72 232.144C262.613 232.357 262.464 232.528 262.272 232.656ZM268.832 237.328C267.872 237.328 267.083 237.659 266.464 238.32C265.867 238.981 265.568 239.973 265.568 241.296C265.568 242.512 265.717 244.251 266.016 246.512C266.144 247.408 266.229 248.08 266.272 248.528C267.317 248.805 268.288 249.147 269.184 249.552C270.101 249.936 270.773 250.331 271.2 250.736C271.669 251.205 271.904 251.632 271.904 252.016C271.904 252.251 271.819 252.453 271.648 252.624C271.499 252.795 271.307 252.88 271.072 252.88C270.88 252.88 270.656 252.816 270.4 252.688C270.165 252.56 269.835 252.357 269.408 252.08C268.427 251.44 267.424 250.949 266.4 250.608C266.421 250.779 266.432 251.045 266.432 251.408C266.432 252.539 265.984 253.424 265.088 254.064C264.213 254.725 263.179 255.056 261.984 255.056C261.259 255.056 260.533 254.907 259.808 254.608C259.104 254.331 258.517 253.925 258.048 253.392C257.6 252.859 257.376 252.229 257.376 251.504C257.376 250.416 257.92 249.573 259.008 248.976C260.096 248.357 261.429 248.048 263.008 248.048C263.52 248.048 264.032 248.091 264.544 248.176C264.395 245.829 264.32 244.261 264.32 243.472C264.32 242 264.427 240.837 264.64 239.984C264.875 239.131 265.344 238.405 266.048 237.808C266.752 237.189 267.829 236.656 269.28 236.208C269.685 236.101 269.888 235.899 269.888 235.6C269.888 235.344 269.728 235.035 269.408 234.672C269.109 234.309 268.8 234.011 268.48 233.776C268.352 233.669 268.288 233.595 268.288 233.552C268.288 233.509 268.363 233.488 268.512 233.488C268.683 233.488 268.928 233.531 269.248 233.616C269.568 233.68 269.845 233.765 270.08 233.872C270.805 234.192 271.509 234.683 272.192 235.344C272.875 235.984 273.216 236.592 273.216 237.168C273.216 237.552 273.067 237.883 272.768 238.16C272.469 238.437 272.128 238.576 271.744 238.576C271.509 238.576 271.296 238.533 271.104 238.448C270.912 238.341 270.677 238.181 270.4 237.968C270.101 237.755 269.835 237.595 269.6 237.488C269.387 237.381 269.131 237.328 268.832 237.328ZM261.536 253.392C262.773 253.392 263.584 253.104 263.968 252.528C264.352 251.931 264.555 251.109 264.576 250.064C263.68 249.872 262.827 249.776 262.016 249.776C261.056 249.776 260.245 249.925 259.584 250.224C258.923 250.523 258.592 250.96 258.592 251.536C258.592 252.133 258.88 252.592 259.456 252.912C260.053 253.232 260.747 253.392 261.536 253.392ZM291.616 255.152C291.339 255.152 291.2 255.088 291.2 254.96C291.2 254.853 291.253 254.779 291.36 254.736C291.488 254.693 291.669 254.651 291.904 254.608C295.296 254.032 297.867 253.115 299.616 251.856C301.387 250.597 302.272 248.987 302.272 247.024C302.272 245.829 301.984 244.891 301.408 244.208C300.853 243.525 300.053 243.184 299.008 243.184C298.048 243.184 297.152 243.568 296.32 244.336C295.509 245.104 294.592 246.267 293.568 247.824C293.376 248.123 293.088 248.389 292.704 248.624C292.341 248.837 292.053 248.944 291.84 248.944C289.856 248.944 288.864 247.76 288.864 245.392C288.864 244.389 288.981 242.459 289.216 239.6C289.344 237.936 289.408 237.072 289.408 237.008C289.408 236.88 289.376 236.56 289.312 236.048C289.248 235.856 289.216 235.643 289.216 235.408C289.216 235.003 289.312 234.683 289.504 234.448C289.696 234.192 290.005 233.872 290.432 233.488C290.752 233.211 291.115 232.965 291.52 232.752C291.925 232.539 292.448 232.293 293.088 232.016C293.685 231.781 294.123 231.589 294.4 231.44C294.677 231.269 294.816 231.099 294.816 230.928C294.816 230.715 294.635 230.448 294.272 230.128C293.909 229.808 293.525 229.531 293.12 229.296C293.056 229.253 292.96 229.211 292.832 229.168C292.725 229.104 292.672 229.04 292.672 228.976C292.672 228.912 292.8 228.869 293.056 228.848C293.333 228.805 293.547 228.784 293.696 228.784C294.528 228.784 295.253 228.955 295.872 229.296C296.512 229.616 297.045 230.181 297.472 230.992C297.643 231.291 297.728 231.632 297.728 232.016C297.728 232.4 297.621 232.731 297.408 233.008C297.195 233.264 296.971 233.392 296.736 233.392C296.565 233.392 296.405 233.349 296.256 233.264C296.128 233.157 296.043 233.093 296 233.072C295.765 232.901 295.541 232.773 295.328 232.688C295.115 232.603 294.837 232.56 294.496 232.56C293.493 232.56 292.427 232.944 291.296 233.712C291.04 233.883 290.848 234.096 290.72 234.352C290.592 234.608 290.528 234.864 290.528 235.12C290.528 235.312 290.603 235.536 290.752 235.792C290.965 236.219 291.072 236.624 291.072 237.008C291.072 237.243 290.997 237.979 290.848 239.216C290.549 241.712 290.4 243.227 290.4 243.76C290.4 244.336 290.485 244.869 290.656 245.36C290.848 245.851 291.093 246.096 291.392 246.096C291.563 246.096 291.765 246.032 292 245.904C292.256 245.755 292.523 245.584 292.8 245.392C293.077 245.2 293.28 245.061 293.408 244.976C294.56 244.144 295.595 243.493 296.512 243.024C297.451 242.555 298.443 242.32 299.488 242.32C300.448 242.32 301.301 242.587 302.048 243.12C302.795 243.632 303.371 244.304 303.776 245.136C304.203 245.968 304.416 246.832 304.416 247.728C304.416 248.645 304.203 249.531 303.776 250.384C303.371 251.237 302.261 252.112 300.448 253.008C298.656 253.904 295.915 254.597 292.224 255.088C291.968 255.131 291.765 255.152 291.616 255.152ZM320.256 255.088C318.955 252.741 317.547 250.949 316.032 249.712C315.947 249.648 315.829 249.563 315.68 249.456C315.552 249.349 315.488 249.264 315.488 249.2C315.488 249.093 315.563 249.04 315.712 249.04C315.797 249.04 315.989 249.083 316.288 249.168C316.949 249.339 317.824 249.701 318.912 250.256C320 250.811 320.96 251.472 321.792 252.24C322.645 252.987 323.072 253.744 323.072 254.512C323.072 255.088 322.923 255.515 322.624 255.792C322.347 256.069 322.027 256.208 321.664 256.208C321.131 256.208 320.661 255.835 320.256 255.088ZM353.152 238.672C351.979 240.613 350.699 242.309 349.312 243.76L348.896 243.44C350.688 240.773 352.288 237.552 353.696 233.776C354.08 232.709 354.443 231.515 354.784 230.192C355.125 228.869 355.328 227.781 355.392 226.928C357.568 227.611 358.656 228.101 358.656 228.4C358.656 228.485 358.56 228.56 358.368 228.624L357.792 228.848C356.896 231.323 355.915 233.605 354.848 235.696C355.531 236.229 355.872 236.624 355.872 236.88C355.872 236.987 355.776 237.093 355.584 237.2L355.136 237.392V248.08C355.179 250.725 355.264 253.232 355.392 255.6C355.243 255.792 354.976 255.984 354.592 256.176C354.229 256.368 353.877 256.464 353.536 256.464C353.344 256.464 353.173 256.4 353.024 256.272C352.875 256.144 352.8 255.995 352.8 255.824C352.885 254.565 352.96 253.349 353.024 252.176C353.088 250.981 353.131 249.424 353.152 247.504V238.672ZM371.52 228.336C371.605 228.229 371.701 228.091 371.808 227.92C371.936 227.728 372.043 227.589 372.128 227.504C372.213 227.419 372.299 227.376 372.384 227.376C372.512 227.376 372.779 227.547 373.184 227.888C373.611 228.208 374.005 228.56 374.368 228.944C374.731 229.307 374.912 229.563 374.912 229.712C374.827 230.053 374.56 230.224 374.112 230.224H365.632C364.117 230.245 362.517 230.395 360.832 230.672L360.032 229.008C361.205 229.136 362.624 229.221 364.288 229.264H370.88L371.52 228.336ZM363.264 234.672C361.749 234.693 360.149 234.843 358.464 235.12L357.632 233.488C358.805 233.616 360.224 233.701 361.888 233.744H373.536L374.176 232.784C374.261 232.656 374.357 232.507 374.464 232.336C374.592 232.144 374.699 232.005 374.784 231.92C374.869 231.835 374.955 231.792 375.04 231.792C375.168 231.792 375.435 231.963 375.84 232.304C376.267 232.624 376.661 232.976 377.024 233.36C377.387 233.744 377.568 234.011 377.568 234.16C377.483 234.501 377.227 234.672 376.8 234.672H363.264ZM365.024 238.928C363.573 238.949 362.059 239.099 360.48 239.376L359.648 237.712C360.821 237.84 362.24 237.925 363.904 237.968H371.648L372.256 237.04C372.341 236.933 372.427 236.805 372.512 236.656C372.619 236.507 372.725 236.379 372.832 236.272C372.939 236.165 373.035 236.112 373.12 236.112C373.248 236.112 373.515 236.272 373.92 236.592C374.347 236.912 374.731 237.264 375.072 237.648C375.435 238.011 375.616 238.267 375.616 238.416C375.552 238.757 375.275 238.928 374.784 238.928H365.024ZM365.024 243.152C363.573 243.173 362.059 243.323 360.48 243.6L359.648 241.936C360.821 242.064 362.24 242.149 363.904 242.192H371.648L372.256 241.264C372.341 241.157 372.427 241.029 372.512 240.88C372.619 240.731 372.725 240.603 372.832 240.496C372.939 240.389 373.035 240.336 373.12 240.336C373.248 240.336 373.515 240.496 373.92 240.816C374.347 241.136 374.731 241.488 375.072 241.872C375.435 242.235 375.616 242.491 375.616 242.64C375.552 242.981 375.275 243.152 374.784 243.152H365.024ZM362.144 255.664C362.144 255.792 361.963 255.941 361.6 256.112C361.237 256.283 360.864 256.368 360.48 256.368C360.352 256.368 360.235 256.304 360.128 256.176C360.043 256.048 360 255.899 360 255.728C360.085 254.917 360.149 253.925 360.192 252.752V250.928C360.192 248.581 360.075 246.715 359.84 245.328L362.304 246.48H372.416L372.896 245.84C372.96 245.776 373.067 245.659 373.216 245.488C373.365 245.296 373.504 245.2 373.632 245.2C373.76 245.2 374.016 245.339 374.4 245.616C374.784 245.872 375.136 246.16 375.456 246.48C375.776 246.8 375.936 247.035 375.936 247.184C375.851 247.291 375.691 247.408 375.456 247.536C375.221 247.643 374.976 247.717 374.72 247.76V250.384C374.763 252.496 374.827 254.171 374.912 255.408C374.784 255.6 374.517 255.792 374.112 255.984C373.707 256.176 373.344 256.272 373.024 256.272C372.896 256.272 372.789 256.208 372.704 256.08C372.64 255.952 372.608 255.803 372.608 255.632C372.608 255.611 372.651 255.365 372.736 254.896V254.192H362.144V255.664ZM362.144 247.408V253.232H372.736V247.408H362.144ZM393.696 235.408C393.76 235.323 393.856 235.195 393.984 235.024C394.112 234.832 394.24 234.736 394.368 234.736C394.581 234.736 394.987 235.013 395.584 235.568C396.181 236.101 396.48 236.485 396.48 236.72C396.395 236.827 396.245 236.933 396.032 237.04C395.819 237.147 395.595 237.221 395.36 237.264V239.44L395.392 240.784C395.413 241.744 395.456 242.672 395.52 243.568C395.413 243.739 395.168 243.92 394.784 244.112C394.421 244.283 394.091 244.368 393.792 244.368H393.504V243.184H390.624V245.232C392.395 245.851 393.696 246.576 394.528 247.408C395.381 248.24 395.808 248.997 395.808 249.68C395.808 250 395.723 250.256 395.552 250.448C395.403 250.64 395.2 250.736 394.944 250.736C394.709 250.736 394.443 250.64 394.144 250.448C393.888 249.808 393.419 249.072 392.736 248.24C392.075 247.387 391.371 246.597 390.624 245.872V249.136C390.688 251.867 390.763 253.989 390.848 255.504C390.741 255.739 390.517 255.952 390.176 256.144C389.835 256.357 389.493 256.464 389.152 256.464C388.96 256.464 388.8 256.4 388.672 256.272C388.565 256.144 388.512 255.995 388.512 255.824C388.64 254.011 388.725 252.165 388.768 250.288V247.184C387.253 249.979 385.227 252.389 382.688 254.416L382.304 253.936C383.648 252.528 384.821 250.896 385.824 249.04C386.848 247.184 387.659 245.232 388.256 243.184H385.92V244.304C385.92 244.411 385.749 244.539 385.408 244.688C385.088 244.816 384.757 244.88 384.416 244.88C384.288 244.88 384.181 244.816 384.096 244.688C384.011 244.56 383.968 244.411 383.968 244.24C384.032 243.643 384.075 243.045 384.096 242.448C384.096 242.107 384.107 241.829 384.128 241.616V239.984C384.128 237.936 384.021 236.261 383.808 234.96L386.08 236.048H388.768V232.912H386.88C385.813 232.933 384.704 233.083 383.552 233.36L382.72 231.728C383.851 231.856 385.216 231.941 386.816 231.984H388.768C388.768 229.957 388.661 228.304 388.448 227.024C389.579 227.365 390.357 227.643 390.784 227.856C391.232 228.048 391.456 228.219 391.456 228.368C391.456 228.453 391.36 228.571 391.168 228.72L390.624 229.072V231.984H393.088L393.728 231.024C393.813 230.917 393.909 230.779 394.016 230.608C394.144 230.416 394.251 230.277 394.336 230.192C394.421 230.107 394.507 230.064 394.592 230.064C394.72 230.064 394.987 230.235 395.392 230.576C395.819 230.896 396.203 231.248 396.544 231.632C396.907 231.995 397.088 232.251 397.088 232.4C397.024 232.741 396.757 232.912 396.288 232.912H390.624V236.048H393.248L393.696 235.408ZM407.296 233.264C407.36 233.179 407.435 233.072 407.52 232.944C407.627 232.816 407.712 232.72 407.776 232.656C407.861 232.592 407.947 232.56 408.032 232.56C408.245 232.56 408.651 232.837 409.248 233.392C409.867 233.947 410.176 234.341 410.176 234.576C410.069 234.704 409.909 234.821 409.696 234.928C409.483 235.035 409.259 235.109 409.024 235.152V241.808C409.067 244.453 409.152 246.96 409.28 249.328C409.131 249.52 408.853 249.712 408.448 249.904C408.064 250.096 407.712 250.192 407.392 250.192H407.104V249.104H399.68V249.872C399.68 249.979 399.509 250.117 399.168 250.288C398.827 250.459 398.464 250.544 398.08 250.544C397.931 250.544 397.792 250.48 397.664 250.352C397.557 250.203 397.504 250.053 397.504 249.904C397.653 247.835 397.749 245.563 397.792 243.088V239.344C397.792 236.656 397.653 234.469 397.376 232.784L399.84 233.968H401.6C401.835 232.752 402.016 231.557 402.144 230.384H400.192C399.104 230.405 397.952 230.555 396.736 230.832L395.904 229.168C397.077 229.296 398.496 229.381 400.16 229.424H406.976L407.616 228.464C407.68 228.379 407.776 228.251 407.904 228.08C408.032 227.888 408.139 227.749 408.224 227.664C408.331 227.557 408.427 227.504 408.512 227.504C408.64 227.504 408.917 227.675 409.344 228.016C409.771 228.336 410.165 228.688 410.528 229.072C410.912 229.456 411.104 229.723 411.104 229.872C411.019 230.213 410.752 230.384 410.304 230.384H404.48C403.819 231.813 403.179 233.008 402.56 233.968H406.816L407.296 233.264ZM407.104 238.576V234.864H399.68V238.576H407.104ZM388.768 236.976H385.92V242.256H388.768V236.976ZM393.504 242.256V236.976H390.624V242.256H393.504ZM407.104 239.472H399.68V243.312H407.104V239.472ZM399.68 244.272V248.144H407.104V244.272H399.68ZM402.048 250.992C402.773 251.333 403.136 251.6 403.136 251.792C403.136 251.899 403.04 251.952 402.848 251.952H402.368C401.515 252.805 400.341 253.648 398.848 254.48C397.355 255.333 395.872 256.016 394.4 256.528L394.112 256.08C395.093 255.461 395.797 255.003 396.224 254.704C397.12 254.043 397.973 253.264 398.784 252.368C399.595 251.472 400.171 250.64 400.512 249.872L402.048 250.992ZM404.448 250.352C405.899 250.757 407.083 251.248 408 251.824C408.917 252.4 409.579 252.987 409.984 253.584C410.389 254.181 410.592 254.736 410.592 255.248C410.592 255.589 410.507 255.867 410.336 256.08C410.165 256.293 409.931 256.4 409.632 256.4C409.376 256.4 409.131 256.325 408.896 256.176C408.576 255.323 407.947 254.373 407.008 253.328C406.069 252.283 405.109 251.387 404.128 250.64L404.448 250.352ZM133.92 286.768C134.645 286.768 135.317 286.971 135.936 287.376C136.576 287.76 136.896 288.229 136.896 288.784C136.896 289.019 136.821 289.2 136.672 289.328C136.544 289.435 136.373 289.488 136.16 289.488C135.712 289.488 135.115 289.413 134.368 289.264C134.219 289.243 133.931 289.2 133.504 289.136C133.077 289.072 132.725 289.04 132.448 289.04C131.808 289.04 131.189 289.125 130.592 289.296C130.016 289.445 129.6 289.584 129.344 289.712C128.469 290.181 127.68 291.12 126.976 292.528C126.293 293.936 125.76 295.493 125.376 297.2C125.013 298.907 124.832 300.4 124.832 301.68C124.832 303.835 125.195 305.349 125.92 306.224C126.667 307.077 127.787 307.504 129.28 307.504L130.176 307.44C130.816 307.355 131.307 307.312 131.648 307.312C133.184 307.312 133.952 307.685 133.952 308.432C133.952 308.987 133.515 309.36 132.64 309.552C131.787 309.723 130.923 309.808 130.048 309.808C128.277 309.808 126.88 309.52 125.856 308.944C124.853 308.368 124.139 307.493 123.712 306.32C123.285 305.147 123.072 303.611 123.072 301.712C123.072 299.28 123.541 296.987 124.48 294.832C125.44 292.656 126.645 290.875 128.096 289.488L127.84 289.552C127.243 289.68 126.389 289.968 125.28 290.416C124.192 290.843 122.795 291.419 121.088 292.144L119.712 292.72C119.541 292.805 119.168 292.997 118.592 293.296C118.187 293.509 117.867 293.669 117.632 293.776C117.397 293.883 117.152 293.936 116.896 293.936C116.363 293.936 115.787 293.691 115.168 293.2C114.571 292.709 114.112 292.219 113.792 291.728C113.685 291.579 113.632 291.451 113.632 291.344C113.632 291.259 113.664 291.184 113.728 291.12C113.792 291.056 113.867 291.024 113.952 291.024C114.08 291.024 114.219 291.067 114.368 291.152C114.411 291.173 114.592 291.28 114.912 291.472C115.232 291.643 115.627 291.728 116.096 291.728C116.203 291.728 116.384 291.707 116.64 291.664C116.704 291.643 117.355 291.429 118.592 291.024C120.981 290.213 123.168 289.52 125.152 288.944C127.157 288.347 129.003 287.941 130.688 287.728C131.008 287.685 131.317 287.611 131.616 287.504C131.915 287.376 132.107 287.291 132.192 287.248C132.832 286.928 133.408 286.768 133.92 286.768ZM142.56 286.416C142.368 286.416 142.165 286.352 141.952 286.224C141.76 286.075 141.6 285.861 141.472 285.584C141.216 285.029 140.939 284.592 140.64 284.272C140.363 283.931 139.968 283.6 139.456 283.28C139.328 283.195 139.189 283.12 139.04 283.056C138.912 282.971 138.795 282.896 138.688 282.832C138.603 282.747 138.56 282.661 138.56 282.576C138.56 282.448 138.688 282.384 138.944 282.384C139.413 282.384 140.011 282.512 140.736 282.768C141.483 283.003 142.133 283.355 142.688 283.824C143.264 284.272 143.552 284.805 143.552 285.424C143.552 285.787 143.445 286.043 143.232 286.192C143.04 286.341 142.816 286.416 142.56 286.416ZM139.04 288.496C138.827 288.496 138.603 288.432 138.368 288.304C138.133 288.155 137.963 287.92 137.856 287.6C137.643 286.981 137.376 286.459 137.056 286.032C136.757 285.584 136.352 285.2 135.84 284.88C135.776 284.837 135.669 284.773 135.52 284.688C135.392 284.603 135.296 284.528 135.232 284.464C135.168 284.4 135.136 284.336 135.136 284.272C135.136 284.123 135.243 284.048 135.456 284.048C135.691 284.048 136.192 284.176 136.96 284.432C137.749 284.688 138.464 285.061 139.104 285.552C139.765 286.043 140.096 286.651 140.096 287.376C140.096 287.739 139.989 288.016 139.776 288.208C139.563 288.4 139.317 288.496 139.04 288.496ZM169.824 293.168C169.824 293.68 169.483 294.192 168.8 294.704C168.096 295.259 167.008 295.813 165.536 296.368C166.923 298.672 167.733 299.984 167.968 300.304C168.331 300.816 168.587 301.275 168.736 301.68C168.907 302.064 168.992 302.469 168.992 302.896C168.992 303.216 168.885 303.579 168.672 303.984C168.48 304.368 168.256 304.699 168 304.976C167.744 305.232 167.531 305.36 167.36 305.36C167.211 305.36 167.051 305.307 166.88 305.2C166.709 305.072 166.485 304.891 166.208 304.656C165.461 304.016 164.555 303.536 163.488 303.216C162.443 302.896 161.387 302.736 160.32 302.736C158.891 302.736 157.685 303.013 156.704 303.568C155.723 304.123 155.232 304.88 155.232 305.84C155.232 306.885 155.616 307.643 156.384 308.112C157.152 308.56 158.08 308.784 159.168 308.784C159.637 308.784 160.171 308.741 160.768 308.656C161.088 308.592 161.355 308.56 161.568 308.56C162.272 308.56 162.88 308.677 163.392 308.912C163.925 309.147 164.192 309.488 164.192 309.936C164.192 310.171 164.117 310.373 163.968 310.544C163.84 310.736 163.637 310.853 163.36 310.896C162.656 311.024 161.643 311.088 160.32 311.088C158.208 311.045 156.608 310.587 155.52 309.712C154.453 308.837 153.92 307.781 153.92 306.544C153.92 304.944 154.613 303.739 156 302.928C157.408 302.096 159.168 301.68 161.28 301.68C161.835 301.68 162.773 301.787 164.096 302C164.629 302.107 165.003 302.16 165.216 302.16C166.027 302.16 166.432 301.936 166.432 301.488C166.432 301.275 166.336 300.976 166.144 300.592L164.128 296.848C162.357 297.381 160.779 297.648 159.392 297.648C157.259 297.648 155.424 296.965 153.888 295.6C153.653 295.387 153.451 295.173 153.28 294.96C153.131 294.725 153.056 294.555 153.056 294.448C153.056 294.384 153.099 294.352 153.184 294.352C153.291 294.352 153.451 294.416 153.664 294.544C154.005 294.8 154.645 295.12 155.584 295.504C156.523 295.867 157.504 296.048 158.528 296.048C159.125 296.048 159.851 295.973 160.704 295.824C161.579 295.675 162.421 295.483 163.232 295.248L161.376 291.792L160.992 291.088C159.797 291.472 158.805 291.664 158.016 291.664C157.312 291.664 156.64 291.461 156 291.056C155.381 290.651 154.816 290.096 154.304 289.392C154.261 289.328 154.197 289.253 154.112 289.168C154.048 289.061 154.016 288.976 154.016 288.912C154.016 288.827 154.059 288.784 154.144 288.784C154.251 288.784 154.411 288.859 154.624 289.008C154.859 289.136 154.997 289.211 155.04 289.232C156.021 289.787 156.896 290.064 157.664 290.064C158.197 290.064 158.965 289.872 159.968 289.488C159.2 288.421 158.453 287.611 157.728 287.056C157.003 286.48 156.373 286.096 155.84 285.904C155.584 285.819 155.371 285.723 155.2 285.616C155.051 285.509 154.976 285.381 154.976 285.232C154.976 285.019 155.168 284.859 155.552 284.752C155.957 284.645 156.341 284.592 156.704 284.592C157.237 284.592 157.675 284.699 158.016 284.912C158.379 285.104 158.699 285.371 158.976 285.712C159.104 285.861 159.808 286.971 161.088 289.04L162.048 288.688C162.219 288.624 162.411 288.592 162.624 288.592C162.987 288.592 163.285 288.688 163.52 288.88C163.776 289.051 163.904 289.243 163.904 289.456C163.904 289.648 163.712 289.872 163.328 290.128C163.115 290.277 162.699 290.459 162.08 290.672L162.848 291.952C164.213 292.272 165.408 292.432 166.432 292.432L167.552 292.368L168.288 292.336C168.8 292.336 169.184 292.4 169.44 292.528C169.696 292.635 169.824 292.848 169.824 293.168ZM165.152 294.48C165.643 294.16 165.888 293.893 165.888 293.68C165.888 293.488 165.728 293.349 165.408 293.264C164.661 293.072 163.947 292.859 163.264 292.624L164.576 294.768L165.152 294.48ZM196.448 296.848C197.621 296.848 198.741 297.072 199.808 297.52C200.875 297.968 201.749 298.661 202.432 299.6C203.115 300.539 203.456 301.691 203.456 303.056C203.456 304.379 203.061 305.552 202.272 306.576C201.483 307.6 200.459 308.4 199.2 308.976C197.963 309.531 196.672 309.808 195.328 309.808C194.197 309.808 193.184 309.563 192.288 309.072C191.392 308.56 190.944 307.867 190.944 306.992C190.944 306.267 191.232 305.691 191.808 305.264C192.384 304.816 193.045 304.592 193.792 304.592C194.645 304.592 195.435 304.869 196.16 305.424C196.885 305.979 197.419 306.779 197.76 307.824C198.827 307.312 199.712 306.597 200.416 305.68C201.12 304.763 201.472 303.749 201.472 302.64C201.472 300.976 200.917 299.76 199.808 298.992C198.699 298.203 197.408 297.808 195.936 297.808C194.571 297.808 193.312 298.235 192.16 299.088C191.008 299.92 189.835 301.349 188.64 303.376C188.533 303.547 188.373 303.824 188.16 304.208C187.947 304.571 187.744 304.837 187.552 305.008C187.36 305.179 187.147 305.264 186.912 305.264C186.528 305.264 186.24 305.147 186.048 304.912C185.877 304.677 185.792 304.4 185.792 304.08C185.792 303.483 186.037 302.832 186.528 302.128C187.04 301.403 187.808 300.453 188.832 299.28C189.877 298.085 191.125 296.581 192.576 294.768C194.027 292.955 194.912 291.845 195.232 291.44L196.224 290.192C196.331 290.064 196.459 289.904 196.608 289.712C196.779 289.52 196.896 289.36 196.96 289.232C197.045 289.083 197.088 288.944 197.088 288.816C197.088 288.603 197.003 288.4 196.832 288.208C196.683 288.016 196.523 287.92 196.352 287.92C196.096 287.92 195.819 288.101 195.52 288.464C194.901 289.232 194.208 289.872 193.44 290.384C192.672 290.875 191.947 291.12 191.264 291.12C190.112 291.12 189.451 290.331 189.28 288.752L189.248 288.144C189.248 287.973 189.291 287.888 189.376 287.888C189.44 287.888 189.621 288.059 189.92 288.4C190.197 288.699 190.485 288.848 190.784 288.848C191.083 288.848 191.637 288.688 192.448 288.368C193.259 288.027 194.101 287.6 194.976 287.088C195.467 286.789 195.904 286.64 196.288 286.64C196.651 286.64 197.099 286.757 197.632 286.992C198.187 287.227 198.667 287.536 199.072 287.92C199.477 288.304 199.68 288.709 199.68 289.136C199.68 289.669 199.424 290.128 198.912 290.512C195.947 292.901 193.323 295.611 191.04 298.64C192.832 297.445 194.635 296.848 196.448 296.848ZM195.168 308.432C195.36 308.432 195.605 308.411 195.904 308.368C195.755 307.707 195.477 307.141 195.072 306.672C194.688 306.203 194.144 305.968 193.44 305.968C193.056 305.968 192.768 306.064 192.576 306.256C192.384 306.427 192.288 306.64 192.288 306.896C192.288 307.301 192.587 307.664 193.184 307.984C193.803 308.283 194.464 308.432 195.168 308.432ZM203.552 347.76C204.256 347.76 204.875 347.984 205.408 348.432C205.963 348.88 206.24 349.477 206.24 350.224C206.24 351.184 205.824 352.005 204.992 352.688C204.16 353.349 203.029 353.989 201.6 354.608L199.232 355.568C197.653 356.187 196.597 356.613 196.064 356.848C196 357.296 195.968 358 195.968 358.96C195.968 360.475 195.957 361.328 195.936 361.52C195.915 361.84 195.776 362.117 195.52 362.352C195.285 362.565 195.029 362.672 194.752 362.672C194.496 362.672 194.272 362.555 194.08 362.32C193.888 362.085 193.792 361.819 193.792 361.52C193.792 361.285 193.824 360.869 193.888 360.272L194.08 357.808C192.843 358.491 191.872 359.205 191.168 359.952C190.485 360.699 190.144 361.531 190.144 362.448C190.144 364.069 191.765 364.88 195.008 364.88C195.499 364.88 196 364.837 196.512 364.752C197.024 364.667 197.504 364.571 197.952 364.464C198.805 364.272 199.467 364.176 199.936 364.176C200.768 364.176 201.184 364.464 201.184 365.04C201.184 365.68 200.587 366.128 199.392 366.384C198.197 366.64 196.949 366.768 195.648 366.768C192.981 366.768 191.2 366.373 190.304 365.584C189.408 364.773 188.96 363.792 188.96 362.64C188.96 361.445 189.408 360.4 190.304 359.504C191.221 358.587 192.501 357.701 194.144 356.848C194.165 356.613 194.176 356.283 194.176 355.856C194.176 353.616 193.515 352.496 192.192 352.496C191.424 352.496 190.613 352.955 189.76 353.872C188.928 354.789 188.117 355.792 187.328 356.88C187.264 356.965 187.115 357.189 186.88 357.552C186.645 357.893 186.421 358.171 186.208 358.384C185.995 358.597 185.813 358.704 185.664 358.704C185.301 358.704 185.024 358.565 184.832 358.288C184.64 358.011 184.544 357.68 184.544 357.296C184.544 356.784 184.661 356.4 184.896 356.144L185.472 355.632C186.155 354.992 186.741 354.416 187.232 353.904C187.723 353.392 188.16 352.805 188.544 352.144C189.632 350.288 190.507 348.304 191.168 346.192C190.336 346.427 189.515 346.544 188.704 346.544C188 346.544 187.403 346.427 186.912 346.192C186.421 345.957 185.835 345.573 185.152 345.04C185.067 344.976 185.024 344.912 185.024 344.848C185.024 344.763 185.077 344.72 185.184 344.72C185.269 344.72 185.419 344.752 185.632 344.816C186.315 345.072 187.04 345.2 187.808 345.2C188.192 345.2 188.725 345.157 189.408 345.072C190.091 344.965 190.837 344.763 191.648 344.464C191.797 343.867 191.872 343.344 191.872 342.896C191.872 342.043 191.541 341.349 190.88 340.816C190.773 340.731 190.72 340.645 190.72 340.56C190.741 340.24 190.912 340.08 191.232 340.08C191.424 340.08 191.787 340.144 192.32 340.272C192.853 340.4 193.184 340.549 193.312 340.72C193.419 340.848 193.472 341.083 193.472 341.424C193.472 341.552 193.451 341.765 193.408 342.064C193.749 342.299 194.208 342.416 194.784 342.416C195.083 342.416 195.307 342.384 195.456 342.32C195.669 342.277 195.883 342.256 196.096 342.256C196.587 342.256 196.832 342.437 196.832 342.8C196.832 343.077 196.661 343.387 196.32 343.728C196 344.069 195.595 344.368 195.104 344.624C194.421 345.008 193.536 345.403 192.448 345.808C191.68 348.283 190.923 350.341 190.176 351.984C190.795 351.621 191.403 351.44 192 351.44C193.045 351.44 193.856 351.728 194.432 352.304C195.029 352.88 195.424 353.659 195.616 354.64C196 353.744 196.416 352.965 196.864 352.304C197.312 351.621 197.856 350.939 198.496 350.256C199.136 349.573 199.925 348.987 200.864 348.496C201.803 348.005 202.699 347.76 203.552 347.76ZM193.312 342.672C193.312 342.736 193.216 343.131 193.024 343.856C193.173 343.792 193.301 343.728 193.408 343.664C193.515 343.579 193.611 343.515 193.696 343.472C193.845 343.387 193.92 343.301 193.92 343.216C193.92 343.131 193.835 343.024 193.664 342.896L193.312 342.672ZM200.832 353.456C201.877 352.837 202.72 352.165 203.36 351.44C204.021 350.693 204.352 350.085 204.352 349.616C204.352 348.997 203.947 348.688 203.136 348.688C202.56 348.688 201.899 348.891 201.152 349.296C200.405 349.701 199.712 350.224 199.072 350.864C198.496 351.44 197.941 352.219 197.408 353.2C196.875 354.16 196.491 355.013 196.256 355.76V355.792L196.672 355.6L197.344 355.28C199.072 354.427 200.235 353.819 200.832 353.456ZM239.136 340.016C239.2 339.952 239.275 339.856 239.36 339.728C239.445 339.6 239.52 339.515 239.584 339.472C239.648 339.408 239.723 339.376 239.808 339.376C240.021 339.376 240.405 339.643 240.96 340.176C241.536 340.688 241.824 341.061 241.824 341.296C241.611 341.552 241.259 341.723 240.768 341.808V342.96C240.789 343.216 240.8 343.525 240.8 343.888L240.896 345.072C240.811 345.264 240.587 345.456 240.224 345.648C239.883 345.819 239.541 345.904 239.2 345.904H238.944V344.88H234.976V347.44C234.976 347.611 235.019 347.728 235.104 347.792C235.211 347.835 235.445 347.856 235.808 347.856H237.952C239.125 347.856 239.797 347.845 239.968 347.824C240.181 347.824 240.331 347.76 240.416 347.632C240.587 347.376 240.811 346.757 241.088 345.776H241.472L241.536 347.6C241.835 347.707 242.037 347.813 242.144 347.92C242.251 348.027 242.304 348.165 242.304 348.336C242.304 348.613 242.176 348.827 241.92 348.976C241.685 349.104 241.248 349.2 240.608 349.264C239.989 349.328 239.072 349.36 237.856 349.36H235.392C234.475 349.36 233.877 349.253 233.6 349.04C233.323 348.805 233.184 348.368 233.184 347.728V345.36C233.184 344.336 233.141 343.493 233.056 342.832L235.328 343.952H238.944V341.584H236.96C235.808 341.605 234.592 341.755 233.312 342.032L232.448 340.4C233.621 340.528 235.029 340.613 236.672 340.656H238.688L239.136 340.016ZM229.184 340.048C229.248 339.984 229.323 339.888 229.408 339.76C229.493 339.632 229.568 339.547 229.632 339.504C229.696 339.44 229.771 339.408 229.856 339.408C230.069 339.408 230.453 339.664 231.008 340.176C231.584 340.667 231.872 341.029 231.872 341.264C231.68 341.541 231.317 341.723 230.784 341.808V342.96C230.805 343.216 230.816 343.525 230.816 343.888L230.912 345.072C230.848 345.264 230.635 345.456 230.272 345.648C229.909 345.819 229.568 345.904 229.248 345.904H228.992V344.88H225.056V347.44C225.056 347.611 225.099 347.728 225.184 347.792C225.291 347.835 225.525 347.856 225.888 347.856H227.84C228.928 347.856 229.568 347.845 229.76 347.824C229.952 347.824 230.101 347.76 230.208 347.632C230.421 347.312 230.624 346.747 230.816 345.936H231.2L231.296 347.632C231.595 347.739 231.797 347.845 231.904 347.952C232.011 348.037 232.064 348.165 232.064 348.336C232.064 348.613 231.947 348.827 231.712 348.976C231.477 349.104 231.051 349.2 230.432 349.264C229.835 349.328 228.949 349.36 227.776 349.36H225.472C224.853 349.36 224.395 349.307 224.096 349.2C223.797 349.093 223.595 348.933 223.488 348.72C223.381 348.485 223.328 348.155 223.328 347.728V345.36C223.328 344.336 223.285 343.493 223.2 342.832L225.44 343.952H228.992V341.584H227.04C225.909 341.605 224.736 341.755 223.52 342.032L222.688 340.4C223.819 340.528 225.184 340.613 226.784 340.656H228.736L229.184 340.048ZM215.552 340.144C217.365 340.805 218.699 341.616 219.552 342.576C220.427 343.515 220.864 344.4 220.864 345.232C220.864 345.637 220.768 345.968 220.576 346.224C220.384 346.48 220.139 346.608 219.84 346.608C219.541 346.608 219.243 346.491 218.944 346.256C218.752 345.317 218.293 344.293 217.568 343.184C216.843 342.075 216.064 341.147 215.232 340.4L215.552 340.144ZM238.432 351.984C238.496 351.92 238.581 351.803 238.688 351.632C238.816 351.461 238.923 351.344 239.008 351.28C239.093 351.195 239.179 351.152 239.264 351.152C239.392 351.152 239.637 351.301 240 351.6C240.384 351.877 240.736 352.187 241.056 352.528C241.376 352.848 241.536 353.083 241.536 353.232C241.472 353.573 241.205 353.744 240.736 353.744H236.256V357.552H238.912L239.52 356.656C239.605 356.549 239.691 356.421 239.776 356.272C239.883 356.123 239.989 355.995 240.096 355.888C240.203 355.781 240.299 355.728 240.384 355.728C240.512 355.728 240.779 355.888 241.184 356.208C241.611 356.507 242.005 356.837 242.368 357.2C242.731 357.563 242.912 357.819 242.912 357.968C242.827 358.309 242.56 358.48 242.112 358.48H227.52C226.005 358.501 224.405 358.651 222.72 358.928L221.92 357.296C223.051 357.424 224.395 357.509 225.952 357.552H227.84V353.744H226.432C225.643 353.765 224.832 353.915 224 354.192L223.168 352.56C224.043 352.688 225.109 352.773 226.368 352.816H227.84C227.84 351.621 227.776 350.576 227.648 349.68C229.461 350.256 230.368 350.683 230.368 350.96C230.368 351.045 230.304 351.131 230.176 351.216L229.792 351.472V352.816H234.368C234.368 351.621 234.304 350.576 234.176 349.68C235.947 350.256 236.832 350.683 236.832 350.96C236.832 351.045 236.768 351.131 236.64 351.216L236.256 351.472V352.816H237.856L238.432 351.984ZM218.944 351.952C219.008 351.867 219.093 351.739 219.2 351.568C219.307 351.376 219.392 351.237 219.456 351.152C219.541 351.067 219.627 351.024 219.712 351.024C219.84 351.024 220.107 351.205 220.512 351.568C220.939 351.909 221.333 352.283 221.696 352.688C222.059 353.072 222.24 353.339 222.24 353.488C221.941 353.787 221.44 353.979 220.736 354.064V362.672C221.461 363.525 222.24 364.165 223.072 364.592C223.925 365.019 224.928 365.307 226.08 365.456C227.232 365.584 228.779 365.648 230.72 365.648C236.501 365.648 240.651 365.605 243.168 365.52V365.968C242.272 366.117 241.76 366.693 241.632 367.696H230.72C228.715 367.696 227.093 367.579 225.856 367.344C224.64 367.109 223.584 366.683 222.688 366.064C221.813 365.445 221.013 364.528 220.288 363.312C219.776 363.995 219.136 364.752 218.368 365.584C217.6 366.416 216.928 367.099 216.352 367.632C216.373 367.696 216.384 367.771 216.384 367.856C216.384 368.069 216.277 368.251 216.064 368.4L214.592 365.84C215.637 365.328 217.056 364.496 218.848 363.344V353.776H217.536C216.811 353.797 216.043 353.947 215.232 354.224L214.496 352.592C215.243 352.72 216.139 352.805 217.184 352.848H218.432L218.944 351.952ZM234.368 353.744H229.792V357.552H234.368V353.744ZM230.112 359.664C230.859 359.963 231.232 360.208 231.232 360.4C231.232 360.507 231.072 360.581 230.752 360.624L230.048 360.688C229.216 361.392 228.139 362.096 226.816 362.8C225.493 363.483 224.171 364.016 222.848 364.4L222.592 363.92C223.019 363.728 223.499 363.451 224.032 363.088C224.971 362.512 225.856 361.797 226.688 360.944C227.541 360.091 228.149 359.28 228.512 358.512L230.112 359.664ZM233.632 359.344C236.299 359.856 238.219 360.507 239.392 361.296C240.587 362.064 241.184 362.8 241.184 363.504C241.184 363.824 241.077 364.08 240.864 364.272C240.672 364.464 240.416 364.56 240.096 364.56C239.733 364.56 239.403 364.411 239.104 364.112C238.592 363.408 237.845 362.683 236.864 361.936C235.883 361.168 234.741 360.464 233.44 359.824L233.632 359.344ZM273.536 339.6C273.984 339.6 274.517 339.685 275.136 339.856C275.776 340.005 276.331 340.251 276.8 340.592C277.291 340.933 277.536 341.381 277.536 341.936C277.536 342.235 277.44 342.448 277.248 342.576C277.056 342.704 276.864 342.768 276.672 342.768C276.267 342.768 275.915 342.576 275.616 342.192C275.296 341.744 274.987 341.403 274.688 341.168C274.389 340.933 273.952 340.677 273.376 340.4C273.184 340.315 273.013 340.251 272.864 340.208C272.736 340.165 272.629 340.123 272.544 340.08C272.459 340.037 272.416 339.984 272.416 339.92C272.416 339.707 272.789 339.6 273.536 339.6ZM270.976 342.992C270.933 342.971 270.805 342.907 270.592 342.8C270.379 342.672 270.272 342.555 270.272 342.448C270.272 342.299 270.443 342.224 270.784 342.224C271.104 342.224 271.616 342.331 272.32 342.544C273.024 342.757 273.664 343.077 274.24 343.504C274.837 343.931 275.136 344.475 275.136 345.136C275.136 345.456 275.04 345.701 274.848 345.872C274.677 346.043 274.464 346.128 274.208 346.128C273.995 346.128 273.771 346.064 273.536 345.936C273.323 345.808 273.163 345.616 273.056 345.36C272.8 344.805 272.512 344.347 272.192 343.984C271.893 343.6 271.488 343.269 270.976 342.992ZM274.656 353.84C275.125 354.181 275.36 354.587 275.36 355.056C275.36 355.675 275.061 355.984 274.464 355.984C273.995 355.984 273.547 355.813 273.12 355.472C272.096 354.619 271.232 353.723 270.528 352.784C269.845 351.845 269.109 350.576 268.32 348.976L268.448 349.808C268.64 350.981 268.768 351.92 268.832 352.624C268.917 353.328 268.96 354.032 268.96 354.736C268.96 356.72 268.683 358.629 268.128 360.464C267.595 362.277 266.656 363.803 265.312 365.04C263.989 366.256 262.229 366.864 260.032 366.864C258.517 366.864 257.163 366.533 255.968 365.872C254.795 365.211 253.877 364.293 253.216 363.12C252.576 361.947 252.256 360.603 252.256 359.088C252.256 357.275 252.736 355.333 253.696 353.264C254.656 351.195 255.947 349.147 257.568 347.12C256.757 347.589 255.925 347.824 255.072 347.824C254.539 347.824 253.973 347.653 253.376 347.312C253.099 347.163 252.832 346.885 252.576 346.48C252.341 346.053 252.224 345.755 252.224 345.584C252.224 345.541 252.245 345.52 252.288 345.52C252.331 345.52 252.373 345.541 252.416 345.584C252.459 345.605 252.523 345.627 252.608 345.648C252.693 345.669 252.928 345.744 253.312 345.872C253.696 346 254.112 346.064 254.56 346.064C255.307 346.064 255.989 345.925 256.608 345.648C257.248 345.371 257.941 345.008 258.688 344.56C259.264 344.197 259.637 344.016 259.808 344.016C260.384 344.016 260.843 344.133 261.184 344.368C261.547 344.603 261.728 344.837 261.728 345.072C261.728 345.179 261.643 345.285 261.472 345.392C261.323 345.499 261.152 345.605 260.96 345.712C260.448 345.989 260.075 346.224 259.84 346.416C258.091 347.995 256.704 349.872 255.68 352.048C254.677 354.224 254.176 356.293 254.176 358.256C254.176 360.176 254.667 361.733 255.648 362.928C256.651 364.123 258.133 364.72 260.096 364.72C262.635 364.72 264.565 363.739 265.888 361.776C267.211 359.813 267.872 357.051 267.872 353.488C267.872 351.589 267.68 349.488 267.296 347.184L267.008 345.584C266.816 344.517 266.72 343.888 266.72 343.696C266.72 343.333 266.784 343.035 266.912 342.8C267.061 342.544 267.264 342.416 267.52 342.416C267.861 342.416 268.117 342.523 268.288 342.736C268.459 342.949 268.565 343.205 268.608 343.504C268.651 343.781 268.704 344.283 268.768 345.008C268.939 346.693 269.216 348.005 269.6 348.944C270.005 349.861 270.549 350.629 271.232 351.248C271.915 351.867 273.056 352.731 274.656 353.84ZM293.856 345.584C294.219 345.712 294.475 345.829 294.624 345.936C294.795 346.043 294.88 346.213 294.88 346.448C294.88 346.768 294.656 347.099 294.208 347.44C292.864 348.4 291.488 349.179 290.08 349.776C288.267 358.331 287.189 363.141 286.848 364.208C286.613 364.912 286.389 365.413 286.176 365.712C285.963 365.989 285.717 366.128 285.44 366.128C285.099 366.128 284.8 366.011 284.544 365.776C284.288 365.52 284.16 365.179 284.16 364.752C284.16 364.432 284.245 364.101 284.416 363.76C286.187 359.963 287.552 355.504 288.512 350.384C287.403 350.704 286.464 350.864 285.696 350.864C284.715 350.864 283.701 350.352 282.656 349.328C282.507 349.179 282.432 349.051 282.432 348.944C282.432 348.816 282.496 348.752 282.624 348.752C282.731 348.752 282.891 348.805 283.104 348.912C283.659 349.147 284.256 349.264 284.896 349.264C285.493 349.264 286.144 349.157 286.848 348.944C287.445 348.773 288.117 348.539 288.864 348.24C288.992 347.472 289.131 346.491 289.28 345.296C289.323 344.955 289.344 344.624 289.344 344.304C289.344 343.643 289.248 343.173 289.056 342.896C288.885 342.597 288.501 342.245 287.904 341.84C287.733 341.733 287.648 341.627 287.648 341.52C287.648 341.392 287.787 341.328 288.064 341.328C288.299 341.328 288.597 341.371 288.96 341.456C289.344 341.541 289.675 341.648 289.952 341.776C290.421 342.011 290.773 342.245 291.008 342.48C291.243 342.715 291.36 343.077 291.36 343.568C291.36 343.653 291.339 343.824 291.296 344.08C291.765 344.549 292.213 344.901 292.64 345.136C292.853 345.243 293.259 345.392 293.856 345.584ZM290.592 347.472C291.637 346.896 292.16 346.459 292.16 346.16C292.16 345.989 292.075 345.797 291.904 345.584C291.755 345.371 291.509 345.061 291.168 344.656L290.848 346.256L290.592 347.472ZM305.632 347.92C306.059 348.219 306.389 348.592 306.624 349.04C306.88 349.488 307.008 349.861 307.008 350.16C307.008 350.587 306.592 350.896 305.76 351.088C305.376 351.173 305.077 351.227 304.864 351.248C304.544 351.291 304.16 351.376 303.712 351.504C303.392 351.611 303.04 351.76 302.656 351.952C302.272 352.144 301.984 352.315 301.792 352.464C301.643 352.549 301.515 352.592 301.408 352.592C301.301 352.592 301.248 352.549 301.248 352.464C301.248 352.357 301.301 352.24 301.408 352.112C301.515 352.005 301.803 351.771 302.272 351.408C303.445 350.555 304.032 349.936 304.032 349.552C304.032 349.339 303.883 349.125 303.584 348.912C303.115 348.571 302.624 348.325 302.112 348.176C301.6 348.027 301.141 347.952 300.736 347.952C300.48 347.952 300.267 347.973 300.096 348.016C299.925 348.037 299.829 348.048 299.808 348.048C299.509 348.048 299.36 347.963 299.36 347.792C299.36 347.643 299.499 347.515 299.776 347.408C300.544 347.131 301.344 346.992 302.176 346.992C302.88 346.992 303.531 347.077 304.128 347.248C304.747 347.419 305.248 347.643 305.632 347.92ZM304.544 363.728C305.333 363.728 305.824 363.899 306.016 364.24C306.165 364.432 306.24 364.656 306.24 364.912C306.24 365.467 305.92 365.84 305.28 366.032C304.661 366.224 303.808 366.32 302.72 366.32C300.459 366.32 298.603 365.925 297.152 365.136C295.701 364.325 294.976 363.024 294.976 361.232C294.976 360.827 295.008 360.453 295.072 360.112C295.157 359.771 295.232 359.536 295.296 359.408C295.381 359.195 295.477 359.003 295.584 358.832C295.691 358.661 295.797 358.576 295.904 358.576C295.989 358.576 296.032 358.651 296.032 358.8L295.968 359.376C295.947 359.525 295.936 359.696 295.936 359.888C295.936 360.315 296.021 360.784 296.192 361.296C296.363 361.808 296.683 362.277 297.152 362.704C297.536 363.067 298.091 363.365 298.816 363.6C299.563 363.835 300.416 363.952 301.376 363.952C301.611 363.952 302.176 363.909 303.072 363.824C303.371 363.803 303.648 363.781 303.904 363.76C304.16 363.739 304.373 363.728 304.544 363.728ZM326.24 364.976C325.813 364.976 325.259 364.816 324.576 364.496C323.893 364.176 323.147 363.653 322.336 362.928C320.267 361.051 319.232 358.384 319.232 354.928C319.232 353.861 319.349 352.549 319.584 350.992C319.712 350.053 319.776 349.413 319.776 349.072C319.776 348.56 319.68 348.101 319.488 347.696C319.317 347.269 319.008 346.853 318.56 346.448C318.432 346.341 318.368 346.256 318.368 346.192C318.368 346.128 318.411 346.085 318.496 346.064C318.581 346.021 318.667 346 318.752 346C319.179 346 319.659 346.139 320.192 346.416C320.747 346.672 321.216 347.024 321.6 347.472C321.984 347.899 322.176 348.336 322.176 348.784C322.176 349.061 322.123 349.381 322.016 349.744C321.931 350.085 321.824 350.448 321.696 350.832C321.419 351.728 321.205 352.496 321.056 353.136C320.928 353.776 320.864 354.523 320.864 355.376C320.864 356.528 321.077 357.573 321.504 358.512C321.952 359.429 322.464 360.155 323.04 360.688C323.637 361.2 324.149 361.456 324.576 361.456C324.832 361.456 325.003 361.232 325.088 360.784C325.28 359.867 325.483 359.056 325.696 358.352C325.931 357.648 326.112 357.168 326.24 356.912C326.304 356.763 326.379 356.635 326.464 356.528C326.549 356.4 326.624 356.336 326.688 356.336C326.752 356.336 326.784 356.4 326.784 356.528C326.784 356.635 326.763 356.816 326.72 357.072C326.507 358.16 326.4 359.152 326.4 360.048C326.4 360.368 326.411 360.677 326.432 360.976C326.453 361.253 326.475 361.477 326.496 361.648C326.517 362.053 326.635 362.512 326.848 363.024C327.019 363.536 327.104 363.888 327.104 364.08C327.104 364.357 327.029 364.581 326.88 364.752C326.731 364.901 326.517 364.976 326.24 364.976ZM339.52 356.464C339.093 356.464 338.795 356.379 338.624 356.208C338.475 356.037 338.347 355.803 338.24 355.504C338.219 355.461 338.027 354.779 337.664 353.456C337.323 352.112 336.64 351.184 335.616 350.672C335.125 350.416 334.464 350.288 333.632 350.288H333.248C333.056 350.288 332.96 350.224 332.96 350.096C332.96 350.011 333.067 349.925 333.28 349.84C333.365 349.797 333.568 349.744 333.888 349.68C334.229 349.616 334.603 349.584 335.008 349.584C336.501 349.584 337.792 350.107 338.88 351.152C339.648 351.877 340.171 352.603 340.448 353.328C340.725 354.032 340.864 354.576 340.864 354.96C340.864 355.344 340.736 355.696 340.48 356.016C340.245 356.315 339.925 356.464 339.52 356.464ZM353.376 367.92C352.629 367.92 351.925 367.728 351.264 367.344C350.624 366.981 350.112 366.48 349.728 365.84C349.365 365.2 349.184 364.496 349.184 363.728C349.184 362.981 349.365 362.288 349.728 361.648C350.112 361.008 350.624 360.507 351.264 360.144C351.925 359.76 352.629 359.568 353.376 359.568C354.123 359.568 354.816 359.76 355.456 360.144C356.096 360.507 356.597 361.008 356.96 361.648C357.344 362.288 357.536 362.981 357.536 363.728C357.536 364.496 357.344 365.2 356.96 365.84C356.597 366.48 356.096 366.981 355.456 367.344C354.816 367.728 354.123 367.92 353.376 367.92ZM353.376 367.12C354.315 367.12 355.115 366.789 355.776 366.128C356.437 365.467 356.768 364.667 356.768 363.728C356.768 362.811 356.437 362.021 355.776 361.36C355.115 360.699 354.315 360.368 353.376 360.368C352.437 360.368 351.637 360.699 350.976 361.36C350.315 362.021 349.984 362.811 349.984 363.728C349.984 364.667 350.315 365.467 350.976 366.128C351.637 366.789 352.437 367.12 353.376 367.12Z" fill="#422B1A"/>
<path d="M239.232 287.024C239.339 286.917 239.499 286.747 239.712 286.512C239.925 286.277 240.096 286.16 240.224 286.16C240.352 286.16 240.64 286.373 241.088 286.8C241.557 287.205 241.995 287.643 242.4 288.112C242.805 288.581 243.008 288.891 243.008 289.04C242.88 289.168 242.731 289.253 242.56 289.296C242.389 289.339 242.144 289.371 241.824 289.392C241.248 289.989 240.544 290.64 239.712 291.344C238.901 292.048 238.155 292.613 237.472 293.04L237.152 292.816C237.664 291.579 238.133 290.245 238.56 288.816H219.36C219.424 289.819 219.307 290.683 219.008 291.408C218.709 292.133 218.304 292.688 217.792 293.072C217.387 293.371 216.971 293.52 216.544 293.52C216.139 293.52 215.776 293.392 215.456 293.136C215.157 292.859 215.008 292.485 215.008 292.016C215.008 291.653 215.104 291.333 215.296 291.056C215.509 290.757 215.787 290.501 216.128 290.288C216.747 289.904 217.28 289.285 217.728 288.432C218.176 287.579 218.357 286.683 218.272 285.744L218.72 285.712C219.019 286.523 219.2 287.248 219.264 287.888H227.232C227.232 285.797 227.125 284.101 226.912 282.8C228.491 283.141 229.579 283.419 230.176 283.632C230.773 283.845 231.072 284.027 231.072 284.176C231.072 284.283 230.987 284.389 230.816 284.496L230.24 284.848V287.888H238.464L239.232 287.024ZM238.752 294.512C238.859 294.363 238.976 294.203 239.104 294.032C239.232 293.84 239.36 293.68 239.488 293.552C239.616 293.403 239.723 293.328 239.808 293.328C239.936 293.328 240.256 293.531 240.768 293.936C241.301 294.341 241.792 294.768 242.24 295.216C242.709 295.664 242.944 295.963 242.944 296.112C242.859 296.453 242.571 296.624 242.08 296.624H236.384C235.979 298.437 235.488 300.048 234.912 301.456C234.357 302.864 233.675 304.112 232.864 305.2C234.763 305.819 236.309 306.501 237.504 307.248C238.72 307.973 239.595 308.699 240.128 309.424C240.661 310.128 240.928 310.768 240.928 311.344C240.928 311.749 240.8 312.069 240.544 312.304C240.309 312.539 240 312.656 239.616 312.656C239.317 312.656 239.008 312.592 238.688 312.464C237.92 311.653 236.875 310.789 235.552 309.872C234.251 308.955 232.747 308.059 231.04 307.184C229.376 308.656 227.221 309.829 224.576 310.704C221.952 311.579 218.624 312.229 214.592 312.656L214.464 312.176C217.813 311.515 220.629 310.693 222.912 309.712C225.195 308.709 227.072 307.461 228.544 305.968C226.965 305.243 225.216 304.571 223.296 303.952C223.125 304.357 222.773 305.125 222.24 306.256C221.92 306.384 221.536 306.448 221.088 306.448C220.405 306.448 219.744 306.309 219.104 306.032C219.68 304.923 220.352 303.515 221.12 301.808C221.888 300.08 222.613 298.352 223.296 296.624H220.096C218.581 296.645 216.981 296.795 215.296 297.072L214.464 295.44C215.637 295.568 217.056 295.653 218.72 295.696H223.68C224.085 294.629 224.448 293.52 224.768 292.368C225.109 291.216 225.333 290.213 225.44 289.36C226.933 289.701 227.979 289.979 228.576 290.192C229.173 290.384 229.472 290.544 229.472 290.672C229.472 290.779 229.365 290.864 229.152 290.928L228.544 291.216C228.16 292.283 227.595 293.776 226.848 295.696H237.92L238.752 294.512ZM226.464 296.624L226.016 297.712C224.843 300.485 224.043 302.341 223.616 303.28C225.749 303.536 227.861 303.899 229.952 304.368C231.424 302.32 232.448 299.739 233.024 296.624H226.464ZM256.8 283.664C259.104 283.92 260.981 284.368 262.432 285.008C263.904 285.627 264.96 286.32 265.6 287.088C266.24 287.856 266.56 288.603 266.56 289.328C266.56 289.84 266.411 290.267 266.112 290.608C265.813 290.949 265.44 291.12 264.992 291.12C264.629 291.12 264.277 291.013 263.936 290.8C263.424 289.755 262.528 288.613 261.248 287.376C259.968 286.117 258.432 285.029 256.64 284.112L256.704 283.888L256.8 283.664ZM256.256 296.624C256.256 293.936 256.117 291.749 255.84 290.064C257.397 290.448 258.475 290.757 259.072 290.992C259.669 291.205 259.968 291.387 259.968 291.536C259.968 291.6 259.883 291.696 259.712 291.824L259.168 292.176V307.632C259.168 308.016 259.285 308.283 259.52 308.432C259.755 308.56 260.213 308.624 260.896 308.624H264.576C266.219 308.624 267.307 308.592 267.84 308.528C268.075 308.507 268.256 308.464 268.384 308.4C268.533 308.315 268.651 308.176 268.736 307.984C269.056 307.365 269.525 305.637 270.144 302.8H270.496L270.592 308.208C271.061 308.4 271.381 308.592 271.552 308.784C271.723 308.976 271.808 309.232 271.808 309.552C271.808 310.085 271.605 310.501 271.2 310.8C270.795 311.099 270.059 311.312 268.992 311.44C267.925 311.589 266.379 311.664 264.352 311.664H260.448C259.339 311.664 258.485 311.568 257.888 311.376C257.291 311.205 256.864 310.896 256.608 310.448C256.373 310 256.256 309.339 256.256 308.464V296.624ZM269.856 292.848C272.245 294.064 273.984 295.451 275.072 297.008C276.181 298.565 276.736 300.059 276.736 301.488C276.736 302.384 276.555 303.131 276.192 303.728C275.829 304.304 275.392 304.592 274.88 304.592C274.389 304.592 273.931 304.315 273.504 303.76C273.504 302.011 273.195 300.155 272.576 298.192C271.957 296.229 270.976 294.555 269.632 293.168L269.856 292.848ZM252.48 293.2C253.056 294.992 253.344 296.677 253.344 298.256C253.344 299.621 253.152 300.827 252.768 301.872C252.384 302.896 251.904 303.707 251.328 304.304C250.731 304.965 250.091 305.296 249.408 305.296C248.875 305.296 248.469 305.093 248.192 304.688C248 304.432 247.904 304.133 247.904 303.792C247.904 303.216 248.181 302.683 248.736 302.192C249.675 301.445 250.464 300.251 251.104 298.608C251.765 296.944 252.075 295.141 252.032 293.2H252.48ZM296 300.72C295.189 300.72 294.496 300.443 293.92 299.888C293.365 299.312 293.088 298.629 293.088 297.84C293.088 297.029 293.365 296.347 293.92 295.792C294.496 295.216 295.189 294.928 296 294.928C296.811 294.928 297.493 295.216 298.048 295.792C298.624 296.347 298.912 297.029 298.912 297.84C298.912 298.629 298.624 299.312 298.048 299.888C297.493 300.443 296.811 300.72 296 300.72ZM340.032 287.024C340.139 286.917 340.299 286.747 340.512 286.512C340.725 286.277 340.896 286.16 341.024 286.16C341.152 286.16 341.44 286.373 341.888 286.8C342.357 287.205 342.795 287.643 343.2 288.112C343.605 288.581 343.808 288.891 343.808 289.04C343.68 289.168 343.531 289.253 343.36 289.296C343.189 289.339 342.944 289.371 342.624 289.392C342.048 289.989 341.344 290.64 340.512 291.344C339.701 292.048 338.955 292.613 338.272 293.04L337.952 292.816C338.464 291.579 338.933 290.245 339.36 288.816H320.16C320.224 289.819 320.107 290.683 319.808 291.408C319.509 292.133 319.104 292.688 318.592 293.072C318.187 293.371 317.771 293.52 317.344 293.52C316.939 293.52 316.576 293.392 316.256 293.136C315.957 292.859 315.808 292.485 315.808 292.016C315.808 291.653 315.904 291.333 316.096 291.056C316.309 290.757 316.587 290.501 316.928 290.288C317.547 289.904 318.08 289.285 318.528 288.432C318.976 287.579 319.157 286.683 319.072 285.744L319.52 285.712C319.819 286.523 320 287.248 320.064 287.888H328.032C328.032 285.797 327.925 284.101 327.712 282.8C329.291 283.141 330.379 283.419 330.976 283.632C331.573 283.845 331.872 284.027 331.872 284.176C331.872 284.283 331.787 284.389 331.616 284.496L331.04 284.848V287.888H339.264L340.032 287.024ZM339.552 294.512C339.659 294.363 339.776 294.203 339.904 294.032C340.032 293.84 340.16 293.68 340.288 293.552C340.416 293.403 340.523 293.328 340.608 293.328C340.736 293.328 341.056 293.531 341.568 293.936C342.101 294.341 342.592 294.768 343.04 295.216C343.509 295.664 343.744 295.963 343.744 296.112C343.659 296.453 343.371 296.624 342.88 296.624H337.184C336.779 298.437 336.288 300.048 335.712 301.456C335.157 302.864 334.475 304.112 333.664 305.2C335.563 305.819 337.109 306.501 338.304 307.248C339.52 307.973 340.395 308.699 340.928 309.424C341.461 310.128 341.728 310.768 341.728 311.344C341.728 311.749 341.6 312.069 341.344 312.304C341.109 312.539 340.8 312.656 340.416 312.656C340.117 312.656 339.808 312.592 339.488 312.464C338.72 311.653 337.675 310.789 336.352 309.872C335.051 308.955 333.547 308.059 331.84 307.184C330.176 308.656 328.021 309.829 325.376 310.704C322.752 311.579 319.424 312.229 315.392 312.656L315.264 312.176C318.613 311.515 321.429 310.693 323.712 309.712C325.995 308.709 327.872 307.461 329.344 305.968C327.765 305.243 326.016 304.571 324.096 303.952C323.925 304.357 323.573 305.125 323.04 306.256C322.72 306.384 322.336 306.448 321.888 306.448C321.205 306.448 320.544 306.309 319.904 306.032C320.48 304.923 321.152 303.515 321.92 301.808C322.688 300.08 323.413 298.352 324.096 296.624H320.896C319.381 296.645 317.781 296.795 316.096 297.072L315.264 295.44C316.437 295.568 317.856 295.653 319.52 295.696H324.48C324.885 294.629 325.248 293.52 325.568 292.368C325.909 291.216 326.133 290.213 326.24 289.36C327.733 289.701 328.779 289.979 329.376 290.192C329.973 290.384 330.272 290.544 330.272 290.672C330.272 290.779 330.165 290.864 329.952 290.928L329.344 291.216C328.96 292.283 328.395 293.776 327.648 295.696H338.72L339.552 294.512ZM327.264 296.624L326.816 297.712C325.643 300.485 324.843 302.341 324.416 303.28C326.549 303.536 328.661 303.899 330.752 304.368C332.224 302.32 333.248 299.739 333.824 296.624H327.264ZM364.224 285.2C362.752 287.653 360.587 290.096 357.728 292.528C354.869 294.96 351.936 296.88 348.928 298.288L348.704 297.872C350.411 296.741 352.149 295.291 353.92 293.52C355.712 291.749 357.28 289.915 358.624 288.016C359.968 286.117 360.875 284.4 361.344 282.864L366.176 284.176C366.133 284.368 366.005 284.517 365.792 284.624C365.579 284.731 365.237 284.805 364.768 284.848C366.027 286.725 367.829 288.4 370.176 289.872C372.523 291.344 375.125 292.624 377.984 293.712L377.952 294.16C377.312 294.331 376.757 294.693 376.288 295.248C375.84 295.803 375.552 296.4 375.424 297.04C372.885 295.611 370.624 293.893 368.64 291.888C366.677 289.861 365.205 287.632 364.224 285.2ZM369.92 301.712C370.027 301.563 370.144 301.403 370.272 301.232C370.4 301.061 370.528 300.912 370.656 300.784C370.784 300.656 370.891 300.592 370.976 300.592C371.104 300.592 371.424 300.784 371.936 301.168C372.469 301.552 372.96 301.957 373.408 302.384C373.856 302.789 374.08 303.067 374.08 303.216C373.995 303.557 373.717 303.728 373.248 303.728H364.64V310.64H371.904L372.736 309.424C372.821 309.317 372.949 309.147 373.12 308.912C373.291 308.677 373.429 308.507 373.536 308.4C373.643 308.272 373.739 308.208 373.824 308.208C373.952 308.208 374.283 308.421 374.816 308.848C375.371 309.253 375.883 309.68 376.352 310.128C376.843 310.597 377.088 310.907 377.088 311.056C377.045 311.227 376.949 311.355 376.8 311.44C376.651 311.525 376.469 311.568 376.256 311.568H355.232C353.717 311.589 352.117 311.739 350.432 312.016L349.568 310.384C350.741 310.512 352.16 310.597 353.824 310.64H361.568V303.728H358.88C357.365 303.749 355.765 303.899 354.08 304.176L353.28 302.576C354.453 302.704 355.872 302.789 357.536 302.832H361.568V296.752H359.2C357.813 296.773 356.341 296.923 354.784 297.2L354.016 295.568C355.189 295.696 356.608 295.781 358.272 295.824H367.84L368.608 294.8C368.715 294.672 368.821 294.533 368.928 294.384C369.056 294.213 369.173 294.064 369.28 293.936C369.408 293.808 369.515 293.744 369.6 293.744C369.728 293.744 370.037 293.925 370.528 294.288C371.019 294.629 371.467 295.003 371.872 295.408C372.299 295.813 372.512 296.091 372.512 296.24C372.491 296.411 372.405 296.539 372.256 296.624C372.107 296.709 371.925 296.752 371.712 296.752H364.64V302.832H369.12L369.92 301.712ZM397.056 289.168C396.544 289.509 395.925 289.861 395.2 290.224C394.496 290.565 393.792 290.853 393.088 291.088C392.512 292.667 391.648 294.96 390.496 297.968C389.365 300.976 388.651 302.843 388.352 303.568C388.16 303.995 387.893 304.325 387.552 304.56C387.211 304.773 386.869 304.88 386.528 304.88C386.101 304.88 385.803 304.667 385.632 304.24C385.483 303.813 385.408 303.227 385.408 302.48C385.408 302.181 385.44 301.957 385.504 301.808C385.568 301.637 385.717 301.392 385.952 301.072C386.016 300.965 386.101 300.837 386.208 300.688C386.336 300.517 386.485 300.293 386.656 300.016C387.531 298.608 388.309 297.243 388.992 295.92C389.675 294.597 390.272 293.2 390.784 291.728C390.656 291.749 390.485 291.76 390.272 291.76C389.184 291.76 388.331 291.472 387.712 290.896C387.093 290.299 386.635 289.68 386.336 289.04C386.208 288.805 386.144 288.613 386.144 288.464C386.144 288.357 386.187 288.304 386.272 288.304C386.357 288.304 386.507 288.411 386.72 288.624C387.019 288.88 387.413 289.093 387.904 289.264C388.416 289.413 388.939 289.488 389.472 289.488C389.835 289.488 390.496 289.392 391.456 289.2C391.541 288.603 391.584 288.165 391.584 287.888C391.584 287.013 391.36 286.363 390.912 285.936C390.72 285.765 390.485 285.605 390.208 285.456C389.931 285.307 389.792 285.189 389.792 285.104C389.792 284.997 389.888 284.912 390.08 284.848C390.272 284.763 390.528 284.72 390.848 284.72C391.275 284.72 391.712 284.795 392.16 284.944C393.184 285.285 393.792 285.819 393.984 286.544C394.069 286.523 394.155 286.523 394.24 286.544C394.347 286.544 394.464 286.533 394.592 286.512C394.933 286.512 395.264 286.501 395.584 286.48C395.904 286.437 396.139 286.416 396.288 286.416H396.736C396.992 286.416 397.205 286.459 397.376 286.544C397.589 286.629 397.749 286.757 397.856 286.928C397.984 287.099 398.048 287.291 398.048 287.504C398.048 287.803 397.941 288.101 397.728 288.4C397.536 288.699 397.312 288.955 397.056 289.168ZM394.048 287.216C394.048 287.536 393.995 287.941 393.888 288.432C393.952 288.411 394.112 288.336 394.368 288.208C394.773 287.973 394.976 287.771 394.976 287.6C394.976 287.472 394.848 287.344 394.592 287.216L394.048 286.96V287.216ZM402.784 293.456C401.995 293.456 401.365 293.787 400.896 294.448C400.448 295.088 400.224 295.995 400.224 297.168C400.224 298.32 400.416 300.027 400.8 302.288C400.928 303.056 401.013 303.621 401.056 303.984C403.104 304.496 404.597 305.115 405.536 305.84C405.92 306.096 406.208 306.395 406.4 306.736C406.592 307.056 406.688 307.365 406.688 307.664C406.688 308.005 406.571 308.304 406.336 308.56C406.123 308.816 405.856 308.944 405.536 308.944C405.237 308.944 404.896 308.848 404.512 308.656C404.128 308.464 403.669 308.187 403.136 307.824C402.645 307.504 402.048 307.173 401.344 306.832V307.088C401.344 308.347 400.853 309.349 399.872 310.096C398.912 310.843 397.749 311.216 396.384 311.216C395.595 311.216 394.827 311.067 394.08 310.768C393.355 310.491 392.757 310.075 392.288 309.52C391.819 308.965 391.584 308.304 391.584 307.536C391.584 306.256 392.192 305.275 393.408 304.592C394.624 303.888 396.075 303.536 397.76 303.536C398.08 303.536 398.336 303.547 398.528 303.568C398.507 302.971 398.496 302.053 398.496 300.816C398.496 299.963 398.507 299.333 398.528 298.928C398.592 297.627 398.773 296.571 399.072 295.76C399.371 294.949 399.872 294.277 400.576 293.744C401.28 293.189 402.293 292.699 403.616 292.272C403.957 292.165 404.128 291.984 404.128 291.728C404.128 291.451 403.989 291.163 403.712 290.864C403.456 290.565 403.072 290.181 402.56 289.712C402.347 289.605 402.24 289.509 402.24 289.424C402.24 289.339 402.357 289.296 402.592 289.296C402.869 289.296 403.243 289.36 403.712 289.488C404.757 289.744 405.717 290.235 406.592 290.96C407.488 291.664 407.936 292.421 407.936 293.232C407.936 293.744 407.776 294.16 407.456 294.48C407.136 294.8 406.752 294.96 406.304 294.96C405.984 294.96 405.707 294.907 405.472 294.8C405.259 294.672 404.949 294.459 404.544 294.16C404.181 293.925 403.861 293.755 403.584 293.648C403.328 293.52 403.061 293.456 402.784 293.456ZM395.744 309.136C396.853 309.136 397.589 308.859 397.952 308.304C398.315 307.749 398.507 306.949 398.528 305.904C397.611 305.733 396.821 305.648 396.16 305.648C395.243 305.648 394.464 305.776 393.824 306.032C393.205 306.288 392.896 306.715 392.896 307.312C392.896 307.888 393.173 308.336 393.728 308.656C394.304 308.976 394.976 309.136 395.744 309.136ZM138.4 340.592C138.485 340.507 138.645 340.347 138.88 340.112C139.115 339.856 139.296 339.728 139.424 339.728C139.552 339.728 139.84 339.941 140.288 340.368C140.757 340.773 141.195 341.211 141.6 341.68C142.005 342.149 142.208 342.459 142.208 342.608C141.995 342.821 141.579 342.939 140.96 342.96C139.765 344.027 138.027 345.211 135.744 346.512C136.213 346.917 136.565 347.344 136.8 347.792C137.035 348.24 137.152 348.667 137.152 349.072C137.152 349.52 137.035 349.893 136.8 350.192C136.565 350.469 136.245 350.608 135.84 350.608C135.541 350.608 135.232 350.523 134.912 350.352C134.571 349.371 133.92 348.357 132.96 347.312C132 346.267 131.008 345.435 129.984 344.816L130.272 344.528C132.171 344.763 133.717 345.232 134.912 345.936C135.915 344.677 136.757 343.483 137.44 342.352H129.056V342.32C128.757 342.597 128.341 342.789 127.808 342.896V351.12H138.464L139.2 350.288C139.285 350.203 139.435 350.043 139.648 349.808C139.883 349.573 140.064 349.456 140.192 349.456C140.32 349.456 140.608 349.659 141.056 350.064C141.504 350.469 141.92 350.907 142.304 351.376C142.709 351.824 142.912 352.123 142.912 352.272C142.784 352.4 142.624 352.485 142.432 352.528C142.261 352.571 142.016 352.603 141.696 352.624C141.205 353.435 140.555 354.32 139.744 355.28C138.933 356.24 138.155 357.051 137.408 357.712L137.056 357.456C137.717 355.6 138.251 353.797 138.656 352.048H135.808V364.592C135.808 365.424 135.701 366.107 135.488 366.64C135.296 367.195 134.891 367.643 134.272 367.984C133.675 368.347 132.789 368.581 131.616 368.688C131.552 367.579 131.307 366.832 130.88 366.448C130.325 365.893 129.344 365.52 127.936 365.328V364.88C130.304 365.029 131.733 365.104 132.224 365.104C132.48 365.104 132.661 365.061 132.768 364.976C132.875 364.869 132.928 364.709 132.928 364.496V352.048H127.808V353.296C127.787 353.381 127.648 353.509 127.392 353.68C127.136 353.851 126.827 354 126.464 354.128C126.101 354.256 125.76 354.32 125.44 354.32H124.992V352.912H122.368V357.36H124.448L125.152 356.304C125.237 356.176 125.344 356.016 125.472 355.824C125.621 355.611 125.739 355.461 125.824 355.376C125.909 355.269 125.995 355.216 126.08 355.216C126.208 355.216 126.485 355.397 126.912 355.76C127.36 356.123 127.776 356.517 128.16 356.944C128.544 357.349 128.736 357.627 128.736 357.776C128.651 358.117 128.384 358.288 127.936 358.288H122.368V362.544L127.968 361.488C128.16 361.445 128.523 361.371 129.056 361.264L129.152 361.712C125.803 363.227 121.419 364.965 116 366.928C115.851 367.312 115.595 367.579 115.232 367.728L113.504 364.048C114.507 363.92 116.576 363.579 119.712 363.024V358.288H117.984C116.96 358.309 115.915 358.459 114.848 358.736L114.016 357.104C115.083 357.232 116.363 357.317 117.856 357.36H119.712V352.912H117.152V354.256C117.152 354.427 116.917 354.619 116.448 354.832C116 355.024 115.52 355.12 115.008 355.12C114.816 355.12 114.656 355.056 114.528 354.928C114.421 354.8 114.368 354.651 114.368 354.48C114.496 352.816 114.581 351.152 114.624 349.488V346.672C114.624 343.984 114.485 341.797 114.208 340.112L117.312 341.456H124.672L126.08 339.888L128.992 342.192L128.768 341.424H137.6L138.4 340.592ZM119.712 346.768V342.384H117.152V346.768H119.712ZM124.992 346.768V342.384H122.368V346.768H124.992ZM117.152 347.664V351.984H119.712V347.664H117.152ZM122.368 347.664V351.984H124.992V347.664H122.368ZM171.84 341.264C171.925 341.136 172.043 340.965 172.192 340.752C172.341 340.539 172.459 340.379 172.544 340.272C172.651 340.165 172.747 340.112 172.832 340.112C172.96 340.112 173.269 340.315 173.76 340.72C174.272 341.104 174.741 341.52 175.168 341.968C175.616 342.395 175.84 342.683 175.84 342.832C175.776 343.173 175.509 343.344 175.04 343.344H167.04V344.88C167.04 345.008 166.784 345.147 166.272 345.296C165.76 345.445 165.237 345.52 164.704 345.52C164.277 345.52 164.064 345.307 164.064 344.88C164.064 344.837 164.107 344.571 164.192 344.08V343.344H158.432V344.112C158.496 344.923 158.539 345.371 158.56 345.456C158.496 345.648 158.208 345.84 157.696 346.032C157.184 346.224 156.672 346.32 156.16 346.32C155.733 346.32 155.52 346.107 155.52 345.68C155.52 345.68 155.563 345.232 155.648 344.336V343.344H152.672C151.157 343.365 149.557 343.515 147.872 343.792L147.072 342.16C148.245 342.288 149.664 342.373 151.328 342.416H155.648C155.648 340.965 155.573 339.781 155.424 338.864C156.853 339.205 157.845 339.493 158.4 339.728C158.955 339.941 159.232 340.123 159.232 340.272C159.232 340.357 159.147 340.453 158.976 340.56L158.432 340.88V342.416H164.192C164.192 340.987 164.117 339.813 163.968 338.896C165.44 339.259 166.453 339.547 167.008 339.76C167.563 339.973 167.84 340.155 167.84 340.304C167.84 340.389 167.755 340.485 167.584 340.592L167.04 340.912V342.416H171.072L171.84 341.264ZM172.8 347.504C172.651 347.653 172.437 347.728 172.16 347.728C171.819 347.728 171.445 347.632 171.04 347.44C168.416 347.888 165.387 348.251 161.952 348.528C158.517 348.805 155.136 348.944 151.808 348.944L149.568 348.912L149.504 348.336C153.024 348.08 156.747 347.621 160.672 346.96C164.619 346.277 167.776 345.563 170.144 344.816L171.456 346.16L172.8 347.504ZM170.72 349.392C171.765 349.819 172.288 350.149 172.288 350.384C172.288 350.491 172.16 350.576 171.904 350.64L171.264 350.768C170.411 351.856 169.44 352.88 168.352 353.84C167.285 354.8 166.219 355.611 165.152 356.272L164.8 355.92C165.099 355.536 165.44 355.045 165.824 354.448C166.379 353.552 166.923 352.496 167.456 351.28C167.989 350.043 168.363 348.997 168.576 348.144L170.72 349.392ZM158.816 349.008C160.203 349.413 161.216 349.947 161.856 350.608C162.517 351.248 162.848 351.909 162.848 352.592C162.848 353.061 162.709 353.456 162.432 353.776C162.155 354.096 161.813 354.256 161.408 354.256C160.981 354.256 160.587 354.085 160.224 353.744C160.181 353.019 159.989 352.24 159.648 351.408C159.307 350.555 158.923 349.819 158.496 349.2L158.816 349.008ZM151.616 349.872C153.195 350.363 154.347 350.992 155.072 351.76C155.819 352.528 156.192 353.296 156.192 354.064C156.192 354.555 156.053 354.971 155.776 355.312C155.499 355.632 155.157 355.792 154.752 355.792C154.347 355.792 153.941 355.621 153.536 355.28C153.493 354.427 153.248 353.52 152.8 352.56C152.373 351.6 151.872 350.768 151.296 350.064L151.616 349.872ZM171.424 356.272C171.531 356.123 171.648 355.963 171.776 355.792C171.904 355.6 172.032 355.44 172.16 355.312C172.288 355.163 172.395 355.088 172.48 355.088C172.608 355.088 172.928 355.291 173.44 355.696C173.973 356.101 174.464 356.528 174.912 356.976C175.381 357.424 175.616 357.723 175.616 357.872C175.531 358.213 175.243 358.384 174.752 358.384H164.032C165.355 359.771 167.104 360.976 169.28 362C171.477 363.024 173.717 363.76 176 364.208L175.968 364.56C175.371 364.709 174.859 365.029 174.432 365.52C174.027 366.011 173.739 366.64 173.568 367.408C171.307 366.555 169.291 365.371 167.52 363.856C165.749 362.32 164.32 360.496 163.232 358.384H162.912V361.552C162.976 364.219 163.051 366.277 163.136 367.728C163.029 367.963 162.709 368.187 162.176 368.4C161.643 368.613 161.099 368.72 160.544 368.72C160.288 368.72 160.096 368.656 159.968 368.528C159.84 368.4 159.776 368.251 159.776 368.08C159.861 366.885 159.936 365.264 160 363.216V360.464C158.528 362.085 156.725 363.525 154.592 364.784C152.48 366.043 150.112 367.099 147.488 367.952L147.264 367.472C149.44 366.405 151.424 365.072 153.216 363.472C155.029 361.872 156.512 360.176 157.664 358.384H153.056C151.541 358.405 149.941 358.555 148.256 358.832L147.424 357.2C148.597 357.328 150.016 357.413 151.68 357.456H160C160 356.24 159.936 355.184 159.808 354.288C161.28 354.651 162.293 354.939 162.848 355.152C163.424 355.344 163.712 355.515 163.712 355.664C163.712 355.749 163.627 355.845 163.456 355.952L162.912 356.272V357.456H170.592L171.424 356.272Z" fill="#E25C55"/>
<path d="M287.343 99.5506L289.124 95.3581L286.352 94.1797L283.578 93L281.796 97.1926C279.959 100.741 272.475 96.0118 267.802 102.378C263.58 108.131 261.576 109.319 261.576 109.319C261.576 109.319 269.564 112.096 272.899 108.874C272.899 108.874 272.444 114.559 276.215 118.017C281.321 118.333 285.101 114.062 285.101 114.062C285.425 119.46 292.634 122.525 292.634 122.525C292.634 122.525 291.889 120.213 293.314 113.226C294.825 105.825 285.894 102.955 287.343 99.5506Z" fill="white"/>
<path d="M283.558 119.554C281.117 120.938 278.529 121.584 276.003 121.427C275.223 121.379 274.481 121.063 273.903 120.534C271.684 118.496 270.564 115.94 270.005 113.716C267.274 114.101 265.553 114.126 263.832 113.701C258.738 118.992 247.956 123.923 242.742 126.92C227.061 135.932 225.935 151.079 233.666 159.009C240.289 165.804 251.485 168.658 266.724 157.526C278.978 148.578 284.575 131.648 287.088 123.539C285.67 122.621 284.927 121.563 283.558 119.554ZM234.792 150.827C232.982 134.25 251.002 131.173 251.002 131.173C251.002 131.173 238.973 141.735 234.792 150.827Z" fill="white"/>
</svg>
