<svg width="515" height="510" viewBox="0 0 515 510" fill="none" xmlns="http://www.w3.org/2000/svg">
<rect width="515" height="510" rx="255" fill="#F9EFE3"/>
<path d="M152.608 235.464C152.672 235.379 152.768 235.251 152.896 235.08C153.045 234.888 153.163 234.749 153.248 234.664C153.333 234.579 153.419 234.536 153.504 234.536C153.632 234.536 153.931 234.728 154.4 235.112C154.891 235.475 155.349 235.869 155.776 236.296C156.203 236.723 156.416 237.011 156.416 237.16C156.203 237.459 155.787 237.672 155.168 237.8V241.704C155.211 244.349 155.296 246.856 155.424 249.224C155.253 249.437 154.88 249.672 154.304 249.928C153.728 250.184 153.205 250.312 152.736 250.312C152.352 250.312 152.16 250.099 152.16 249.672C152.16 249.672 152.203 249.459 152.288 249.032V248.36H146.08V249.032C146.101 249.288 146.112 249.523 146.112 249.736C146.133 249.928 146.155 250.067 146.176 250.152C146.133 250.387 145.845 250.632 145.312 250.888C144.8 251.144 144.256 251.272 143.68 251.272C143.467 251.272 143.285 251.208 143.136 251.08C142.987 250.952 142.912 250.803 142.912 250.632C142.997 249.373 143.072 248.157 143.136 246.984C143.2 245.789 143.243 244.232 143.264 242.312V236.328C141.621 238.291 139.893 239.891 138.08 241.128L137.728 240.808C139.584 238.568 141.28 235.763 142.816 232.392C143.264 231.411 143.68 230.248 144.064 228.904C144.448 227.539 144.683 226.429 144.768 225.576C146.389 226.173 147.52 226.632 148.16 226.952C148.8 227.251 149.12 227.475 149.12 227.624C149.12 227.688 149.024 227.763 148.832 227.848L148.224 228.04C147.776 229.171 147.221 230.301 146.56 231.432H161.28L162.048 230.504C162.133 230.397 162.293 230.216 162.528 229.96C162.763 229.704 162.944 229.576 163.072 229.576C163.2 229.576 163.499 229.768 163.968 230.152C164.437 230.536 164.875 230.952 165.28 231.4C165.685 231.827 165.888 232.115 165.888 232.264C165.589 232.563 165.152 232.755 164.576 232.84C164.405 239.176 164.139 244.061 163.776 247.496C163.435 250.931 162.859 253.107 162.048 254.024C161.493 254.621 160.864 255.059 160.16 255.336C159.456 255.613 158.592 255.752 157.568 255.752C157.568 254.728 157.312 253.971 156.8 253.48C156.48 253.224 155.947 252.979 155.2 252.744C154.475 252.509 153.675 252.317 152.8 252.168L152.832 251.656L154.432 251.784C156.565 251.997 157.888 252.104 158.4 252.104C158.72 252.104 158.965 252.072 159.136 252.008C159.307 251.944 159.499 251.816 159.712 251.624C160.288 251.069 160.715 249.117 160.992 245.768C161.291 242.397 161.493 237.928 161.6 232.36H146.048C145.451 233.363 144.768 234.376 144 235.4L146.24 236.392H151.968L152.608 235.464ZM152.288 241.832V237.288H146.08V241.832H152.288ZM146.08 242.76V247.432H152.288V242.76H146.08ZM186.144 230.6C188.021 230.6 189.877 230.973 191.712 231.72C193.547 232.467 195.072 233.672 196.288 235.336C197.504 236.979 198.112 239.069 198.112 241.608C198.112 244.488 197.269 246.813 195.584 248.584C193.92 250.333 191.893 251.571 189.504 252.296C187.136 253.021 184.789 253.384 182.464 253.384C181.931 253.384 181.664 253.331 181.664 253.224C181.664 253.139 181.856 253.064 182.24 253C182.624 252.915 182.848 252.861 182.912 252.84C186.432 252.264 189.323 251.016 191.584 249.096C193.845 247.176 194.976 244.616 194.976 241.416C194.976 238.92 194.453 236.947 193.408 235.496C192.384 234.024 191.168 233.011 189.76 232.456C188.352 231.901 187.019 231.624 185.76 231.624C185.461 231.624 185.237 231.635 185.088 231.656C185.344 232.211 185.568 232.904 185.76 233.736C185.952 234.568 186.048 235.347 186.048 236.072C186.048 236.861 185.952 237.779 185.76 238.824C185.589 239.869 185.291 240.915 184.864 241.96C184.203 243.688 183.424 245.224 182.528 246.568C181.632 247.912 180.747 248.947 179.872 249.672C179.019 250.397 178.304 250.76 177.728 250.76C176.939 250.76 176.181 250.355 175.456 249.544C174.752 248.712 174.176 247.667 173.728 246.408C173.301 245.128 173.088 243.848 173.088 242.568C173.088 240.179 173.717 238.077 174.976 236.264C176.256 234.451 177.899 233.053 179.904 232.072C181.931 231.091 184.011 230.6 186.144 230.6ZM184.864 234.056C184.864 233.288 184.757 232.499 184.544 231.688C182.859 231.88 181.323 232.445 179.936 233.384C178.549 234.323 177.451 235.528 176.64 237C175.829 238.451 175.424 240.019 175.424 241.704C175.424 242.877 175.573 243.88 175.872 244.712C176.171 245.523 176.523 246.131 176.928 246.536C177.333 246.941 177.664 247.144 177.92 247.144C178.411 247.144 179.008 246.771 179.712 246.024C180.416 245.277 181.099 244.381 181.76 243.336C182.869 241.651 183.659 240.083 184.128 238.632C184.619 237.181 184.864 235.656 184.864 234.056ZM213.056 237.48C213.355 236.499 213.6 235.432 213.792 234.28C214.005 233.107 214.123 232.093 214.144 231.24H210.784C209.568 231.283 208.64 231.336 208 231.4C209.131 232.04 209.952 232.733 210.464 233.48C210.976 234.205 211.232 234.899 211.232 235.56C211.232 236.051 211.093 236.467 210.816 236.808C210.56 237.128 210.251 237.288 209.888 237.288C209.504 237.288 209.141 237.096 208.8 236.712C208.821 235.923 208.693 235.059 208.416 234.12C208.16 233.16 207.851 232.285 207.488 231.496L207.552 231.464C206.869 231.549 206.347 231.624 205.984 231.688L205.152 230.056C206.219 230.184 207.52 230.269 209.056 230.312H210.88C210.88 228.456 210.795 226.984 210.624 225.896C212.096 226.259 213.109 226.547 213.664 226.76C214.24 226.952 214.528 227.123 214.528 227.272C214.528 227.357 214.443 227.453 214.272 227.56L213.728 227.912V230.312H215.36L216.032 229.288C216.117 229.181 216.224 229.032 216.352 228.84C216.501 228.648 216.619 228.509 216.704 228.424C216.789 228.317 216.875 228.264 216.96 228.264C217.088 228.264 217.365 228.445 217.792 228.808C218.24 229.149 218.645 229.523 219.008 229.928C219.392 230.312 219.584 230.579 219.584 230.728C219.52 231.069 219.264 231.24 218.816 231.24H214.752C216.843 231.901 217.888 232.349 217.888 232.584C217.888 232.648 217.792 232.723 217.6 232.808L217.056 233C216.672 233.661 216.181 234.408 215.584 235.24C214.987 236.051 214.379 236.797 213.76 237.48H216.16L216.864 236.424C216.971 236.296 217.088 236.136 217.216 235.944C217.344 235.752 217.451 235.613 217.536 235.528C217.621 235.421 217.707 235.368 217.792 235.368C217.92 235.368 218.208 235.549 218.656 235.912C219.104 236.275 219.52 236.659 219.904 237.064C220.288 237.469 220.48 237.747 220.48 237.896C220.416 238.237 220.149 238.408 219.68 238.408H210.208C208.693 238.429 207.093 238.579 205.408 238.856L204.608 237.224C205.781 237.352 207.2 237.437 208.864 237.48H213.056ZM230.784 234.824C230.912 234.824 231.232 235.027 231.744 235.432C232.256 235.837 232.736 236.275 233.184 236.744C233.632 237.192 233.856 237.491 233.856 237.64C233.771 237.981 233.493 238.152 233.024 238.152H230.144V247.176C230.187 249.821 230.272 252.328 230.4 254.696C230.208 254.931 229.877 255.155 229.408 255.368C228.96 255.603 228.405 255.72 227.744 255.72C227.509 255.72 227.307 255.656 227.136 255.528C226.987 255.4 226.912 255.251 226.912 255.08C226.997 253.821 227.072 252.605 227.136 251.432C227.2 250.237 227.243 248.68 227.264 246.76V238.152H223.616V239.272C223.616 241.619 223.445 243.741 223.104 245.64C222.784 247.517 222.08 249.341 220.992 251.112C219.904 252.861 218.304 254.387 216.192 255.688L215.808 255.304C217.792 253.277 219.115 250.973 219.776 248.392C220.459 245.789 220.8 242.728 220.8 239.208V233.864C220.8 231.56 220.683 229.736 220.448 228.392L223.872 229.64C225.024 229.085 226.155 228.477 227.264 227.816C228.395 227.133 229.28 226.525 229.92 225.992C230.987 226.824 231.723 227.432 232.128 227.816C232.555 228.2 232.768 228.467 232.768 228.616C232.768 228.723 232.608 228.776 232.288 228.776L231.456 228.744C230.432 229.107 229.216 229.448 227.808 229.768C226.4 230.088 225.003 230.344 223.616 230.536V237.224H228.928L229.728 236.04C229.835 235.912 229.963 235.731 230.112 235.496C230.283 235.261 230.411 235.091 230.496 234.984C230.603 234.877 230.699 234.824 230.784 234.824ZM213.6 248.328C213.664 251.059 213.739 253.181 213.824 254.696C213.717 254.952 213.397 255.187 212.864 255.4C212.352 255.613 211.84 255.72 211.328 255.72C211.093 255.72 210.912 255.656 210.784 255.528C210.656 255.4 210.592 255.251 210.592 255.08C210.699 253.907 210.773 252.339 210.816 250.376V247.688C209.344 249.736 207.445 251.571 205.12 253.192L204.8 252.744C205.909 251.549 206.901 250.141 207.776 248.52C208.672 246.899 209.429 245.192 210.048 243.4H208.48C207.584 243.421 206.667 243.571 205.728 243.848L204.896 242.216C206.005 242.344 207.349 242.429 208.928 242.472H210.816C210.816 240.957 210.741 239.709 210.592 238.728C212 239.091 212.971 239.379 213.504 239.592C214.037 239.805 214.304 239.987 214.304 240.136C214.304 240.2 214.229 240.285 214.08 240.392L213.6 240.712V242.472H215.744L216.416 241.48C216.501 241.373 216.608 241.224 216.736 241.032C216.885 240.84 217.003 240.701 217.088 240.616C217.173 240.509 217.259 240.456 217.344 240.456C217.472 240.456 217.739 240.627 218.144 240.968C218.571 241.309 218.965 241.683 219.328 242.088C219.691 242.472 219.872 242.739 219.872 242.888C219.787 243.229 219.531 243.4 219.104 243.4H213.6V244.68L213.696 244.616C215.403 245 216.651 245.565 217.44 246.312C218.251 247.037 218.656 247.773 218.656 248.52C218.656 248.925 218.528 249.277 218.272 249.576C218.016 249.853 217.707 249.992 217.344 249.992C217.024 249.992 216.672 249.864 216.288 249.608C216.16 248.861 215.829 248.072 215.296 247.24C214.784 246.387 214.219 245.651 213.6 245.032V248.328ZM264.672 243.816C264.8 243.816 265.099 244.008 265.568 244.392C266.037 244.755 266.475 245.149 266.88 245.576C267.307 246.003 267.52 246.291 267.52 246.44C267.435 246.781 267.157 246.952 266.688 246.952H260.576V249.608C260.619 251.763 260.683 253.459 260.768 254.696C260.661 254.931 260.373 255.144 259.904 255.336C259.456 255.549 258.912 255.656 258.272 255.656C258.037 255.656 257.856 255.592 257.728 255.464C257.6 255.336 257.536 255.187 257.536 255.016C257.664 253.331 257.749 251.613 257.792 249.864V246.952H256.096C255.136 246.973 254.133 247.123 253.088 247.4L252.288 245.832L252.352 246.76C252.16 246.952 251.84 247.144 251.392 247.336C250.965 247.507 250.539 247.592 250.112 247.592H249.632V246.312H242.752V247.368C242.752 247.432 242.656 247.539 242.464 247.688C242.293 247.816 242.048 247.933 241.728 248.04C241.429 248.125 241.088 248.168 240.704 248.168C240.491 248.168 240.309 248.104 240.16 247.976C240.032 247.848 239.968 247.699 239.968 247.528C240.053 246.376 240.117 245.245 240.16 244.136C240.224 243.027 240.267 241.619 240.288 239.912V235.752C239.712 236.349 239.147 236.872 238.592 237.32L238.176 237.064C239.072 235.741 239.904 234.163 240.672 232.328C241.099 231.368 241.493 230.237 241.856 228.936C242.219 227.613 242.432 226.504 242.496 225.608C243.925 226.077 244.917 226.44 245.472 226.696C246.027 226.952 246.304 227.144 246.304 227.272C246.304 227.379 246.219 227.464 246.048 227.528L245.472 227.752C245.365 228.008 245.184 228.392 244.928 228.904L244.544 229.736H246.784L247.456 228.968C247.563 228.861 247.712 228.701 247.904 228.488C248.096 228.275 248.256 228.168 248.384 228.168C248.512 228.168 248.779 228.349 249.184 228.712C249.589 229.075 249.973 229.469 250.336 229.896C250.699 230.301 250.88 230.579 250.88 230.728C250.773 230.856 250.635 230.941 250.464 230.984C250.293 231.005 250.037 231.027 249.696 231.048C249.589 231.176 249.163 231.645 248.416 232.456C247.691 233.267 246.997 233.981 246.336 234.6H249.696L250.24 233.832C250.283 233.768 250.357 233.661 250.464 233.512C250.571 233.363 250.667 233.256 250.752 233.192C250.837 233.107 250.923 233.064 251.008 233.064C251.2 233.064 251.605 233.395 252.224 234.056C252.864 234.717 253.184 235.165 253.184 235.4C252.971 235.699 252.608 235.891 252.096 235.976V239.624C252.16 242.504 252.224 244.563 252.288 245.8C253.312 245.928 254.549 246.013 256 246.056H257.792V240.2H256.32C255.467 240.221 254.592 240.371 253.696 240.648L252.896 239.016C253.813 239.144 254.923 239.229 256.224 239.272H257.792V233.896H256.128C255.168 233.917 254.187 234.067 253.184 234.344L252.384 232.712C253.557 232.84 254.976 232.925 256.64 232.968H259.456L259.776 232.168C260.139 231.123 260.448 230.003 260.704 228.808C260.981 227.592 261.131 226.568 261.152 225.736C263.776 226.44 265.088 226.931 265.088 227.208C265.088 227.293 264.992 227.379 264.8 227.464L264.224 227.72C263.733 228.531 263.125 229.416 262.4 230.376C261.675 231.336 260.96 232.2 260.256 232.968H262.496L263.232 231.912C263.317 231.805 263.424 231.656 263.552 231.464C263.701 231.251 263.819 231.101 263.904 231.016C264.011 230.909 264.107 230.856 264.192 230.856C264.32 230.856 264.619 231.037 265.088 231.4C265.557 231.763 265.995 232.147 266.4 232.552C266.805 232.957 267.008 233.235 267.008 233.384C266.944 233.725 266.677 233.896 266.208 233.896H260.576V239.272H262.176L262.912 238.184C263.019 238.035 263.136 237.864 263.264 237.672C263.413 237.459 263.531 237.309 263.616 237.224C263.723 237.117 263.819 237.064 263.904 237.064C264.032 237.064 264.331 237.256 264.8 237.64C265.269 238.003 265.707 238.397 266.112 238.824C266.517 239.251 266.72 239.539 266.72 239.688C266.635 240.029 266.357 240.2 265.888 240.2H260.576V246.056H262.944L263.68 244.936C263.787 244.787 263.904 244.616 264.032 244.424C264.181 244.211 264.299 244.061 264.384 243.976C264.491 243.869 264.587 243.816 264.672 243.816ZM256.512 232.296C256.085 232.296 255.701 232.136 255.36 231.816C255.339 230.963 255.115 230.045 254.688 229.064C254.261 228.061 253.76 227.176 253.184 226.408L253.536 226.216C255.029 226.771 256.128 227.453 256.832 228.264C257.536 229.053 257.888 229.832 257.888 230.6C257.888 231.091 257.749 231.496 257.472 231.816C257.216 232.136 256.896 232.296 256.512 232.296ZM243.168 234.6H245.6C245.749 234.216 246.048 233.309 246.496 231.88L246.88 230.664H244C243.339 231.88 242.603 233 241.792 234.024L243.168 234.6ZM242.752 239.848H245.024V235.528H242.752V239.848ZM247.168 239.848H249.632V235.528H247.168V239.848ZM242.752 245.416H245.024V240.744H242.752V245.416ZM247.168 245.416H249.632V240.744H247.168V245.416ZM249.76 248.072C251.147 248.563 252.16 249.192 252.8 249.96C253.44 250.707 253.76 251.443 253.76 252.168C253.76 252.637 253.643 253.021 253.408 253.32C253.173 253.619 252.875 253.768 252.512 253.768C252.171 253.768 251.851 253.629 251.552 253.352C251.552 252.52 251.339 251.635 250.912 250.696C250.507 249.757 250.005 248.957 249.408 248.296L249.76 248.072ZM246.72 248.392C247.808 249.075 248.597 249.8 249.088 250.568C249.6 251.336 249.856 252.061 249.856 252.744C249.856 253.235 249.739 253.629 249.504 253.928C249.269 254.248 248.981 254.408 248.64 254.408C248.32 254.408 248 254.248 247.68 253.928C247.701 253.117 247.573 252.221 247.296 251.24C247.04 250.259 246.72 249.363 246.336 248.552L246.72 248.392ZM241.568 248.488C241.909 249.512 242.08 250.547 242.08 251.592C242.08 252.424 241.963 253.149 241.728 253.768C241.515 254.387 241.227 254.867 240.864 255.208C240.501 255.528 240.085 255.688 239.616 255.688C239.083 255.688 238.709 255.485 238.496 255.08C238.411 254.909 238.368 254.717 238.368 254.504C238.368 254.227 238.453 253.949 238.624 253.672C238.795 253.395 239.029 253.16 239.328 252.968C239.797 252.563 240.213 251.933 240.576 251.08C240.939 250.205 241.109 249.331 241.088 248.456L241.568 248.488ZM243.872 248.616C244.619 249.341 245.163 250.077 245.504 250.824C245.845 251.549 246.016 252.221 246.016 252.84C246.016 253.459 245.877 253.96 245.6 254.344C245.344 254.749 245.024 254.952 244.64 254.952C244.277 254.952 243.947 254.76 243.648 254.376C243.755 253.821 243.808 253.107 243.808 252.232C243.808 250.867 243.68 249.704 243.424 248.744L243.872 248.616ZM286.656 232.168C286.144 232.509 285.525 232.861 284.8 233.224C284.096 233.565 283.392 233.853 282.688 234.088C282.112 235.667 281.248 237.96 280.096 240.968C278.965 243.976 278.251 245.843 277.952 246.568C277.76 246.995 277.493 247.325 277.152 247.56C276.811 247.773 276.469 247.88 276.128 247.88C275.701 247.88 275.403 247.667 275.232 247.24C275.083 246.813 275.008 246.227 275.008 245.48C275.008 245.181 275.04 244.957 275.104 244.808C275.168 244.637 275.317 244.392 275.552 244.072C275.616 243.965 275.701 243.837 275.808 243.688C275.936 243.517 276.085 243.293 276.256 243.016C277.131 241.608 277.909 240.243 278.592 238.92C279.275 237.597 279.872 236.2 280.384 234.728C280.256 234.749 280.085 234.76 279.872 234.76C278.784 234.76 277.931 234.472 277.312 233.896C276.693 233.299 276.235 232.68 275.936 232.04C275.808 231.805 275.744 231.613 275.744 231.464C275.744 231.357 275.787 231.304 275.872 231.304C275.957 231.304 276.107 231.411 276.32 231.624C276.619 231.88 277.013 232.093 277.504 232.264C278.016 232.413 278.539 232.488 279.072 232.488C279.435 232.488 280.096 232.392 281.056 232.2C281.141 231.603 281.184 231.165 281.184 230.888C281.184 230.013 280.96 229.363 280.512 228.936C280.32 228.765 280.085 228.605 279.808 228.456C279.531 228.307 279.392 228.189 279.392 228.104C279.392 227.997 279.488 227.912 279.68 227.848C279.872 227.763 280.128 227.72 280.448 227.72C280.875 227.72 281.312 227.795 281.76 227.944C282.784 228.285 283.392 228.819 283.584 229.544C283.669 229.523 283.755 229.523 283.84 229.544C283.947 229.544 284.064 229.533 284.192 229.512C284.533 229.512 284.864 229.501 285.184 229.48C285.504 229.437 285.739 229.416 285.888 229.416H286.336C286.592 229.416 286.805 229.459 286.976 229.544C287.189 229.629 287.349 229.757 287.456 229.928C287.584 230.099 287.648 230.291 287.648 230.504C287.648 230.803 287.541 231.101 287.328 231.4C287.136 231.699 286.912 231.955 286.656 232.168ZM283.648 230.216C283.648 230.536 283.595 230.941 283.488 231.432C283.552 231.411 283.712 231.336 283.968 231.208C284.373 230.973 284.576 230.771 284.576 230.6C284.576 230.472 284.448 230.344 284.192 230.216L283.648 229.96V230.216ZM292.384 236.456C291.595 236.456 290.965 236.787 290.496 237.448C290.048 238.088 289.824 238.995 289.824 240.168C289.824 241.32 290.016 243.027 290.4 245.288C290.528 246.056 290.613 246.621 290.656 246.984C292.704 247.496 294.197 248.115 295.136 248.84C295.52 249.096 295.808 249.395 296 249.736C296.192 250.056 296.288 250.365 296.288 250.664C296.288 251.005 296.171 251.304 295.936 251.56C295.723 251.816 295.456 251.944 295.136 251.944C294.837 251.944 294.496 251.848 294.112 251.656C293.728 251.464 293.269 251.187 292.736 250.824C292.245 250.504 291.648 250.173 290.944 249.832V250.088C290.944 251.347 290.453 252.349 289.472 253.096C288.512 253.843 287.349 254.216 285.984 254.216C285.195 254.216 284.427 254.067 283.68 253.768C282.955 253.491 282.357 253.075 281.888 252.52C281.419 251.965 281.184 251.304 281.184 250.536C281.184 249.256 281.792 248.275 283.008 247.592C284.224 246.888 285.675 246.536 287.36 246.536C287.68 246.536 287.936 246.547 288.128 246.568C288.107 245.971 288.096 245.053 288.096 243.816C288.096 242.963 288.107 242.333 288.128 241.928C288.192 240.627 288.373 239.571 288.672 238.76C288.971 237.949 289.472 237.277 290.176 236.744C290.88 236.189 291.893 235.699 293.216 235.272C293.557 235.165 293.728 234.984 293.728 234.728C293.728 234.451 293.589 234.163 293.312 233.864C293.056 233.565 292.672 233.181 292.16 232.712C291.947 232.605 291.84 232.509 291.84 232.424C291.84 232.339 291.957 232.296 292.192 232.296C292.469 232.296 292.843 232.36 293.312 232.488C294.357 232.744 295.317 233.235 296.192 233.96C297.088 234.664 297.536 235.421 297.536 236.232C297.536 236.744 297.376 237.16 297.056 237.48C296.736 237.8 296.352 237.96 295.904 237.96C295.584 237.96 295.307 237.907 295.072 237.8C294.859 237.672 294.549 237.459 294.144 237.16C293.781 236.925 293.461 236.755 293.184 236.648C292.928 236.52 292.661 236.456 292.384 236.456ZM285.344 252.136C286.453 252.136 287.189 251.859 287.552 251.304C287.915 250.749 288.107 249.949 288.128 248.904C287.211 248.733 286.421 248.648 285.76 248.648C284.843 248.648 284.064 248.776 283.424 249.032C282.805 249.288 282.496 249.715 282.496 250.312C282.496 250.888 282.773 251.336 283.328 251.656C283.904 251.976 284.576 252.136 285.344 252.136ZM320.928 228.072C320.032 229.203 318.869 230.365 317.44 231.56C316.011 232.733 314.443 233.843 312.736 234.888L315.072 235.912H318.592C318.592 234.248 318.507 232.915 318.336 231.912C319.808 232.253 320.821 232.531 321.376 232.744C321.931 232.957 322.208 233.139 322.208 233.288C322.208 233.352 322.133 233.437 321.984 233.544L321.504 233.864V235.912H324.96L325.568 235.048C325.653 234.941 325.739 234.824 325.824 234.696C325.931 234.568 326.037 234.451 326.144 234.344C326.251 234.237 326.347 234.184 326.432 234.184C326.56 234.184 326.848 234.365 327.296 234.728C327.765 235.069 328.203 235.443 328.608 235.848C329.013 236.253 329.216 236.531 329.216 236.68C328.981 236.915 328.64 237.075 328.192 237.16V239.72C328.256 241.811 328.32 243.411 328.384 244.52C330.453 246.035 331.488 246.941 331.488 247.24C331.488 247.347 331.392 247.4 331.2 247.4L330.624 247.432C329.899 247.837 329.013 248.253 327.968 248.68C326.923 249.085 325.867 249.448 324.8 249.768C327.125 251.133 330.229 252.061 334.112 252.552L334.08 252.936C333.483 253.085 332.981 253.405 332.576 253.896C332.171 254.387 331.883 255.005 331.712 255.752C328.469 254.856 325.845 253.565 323.84 251.88C321.835 250.195 320.352 247.848 319.392 244.84H314.912V251.24C316.384 251.048 318.763 250.717 322.048 250.248L322.112 250.696C319.339 251.848 315.296 253.299 309.984 255.048C309.835 255.411 309.579 255.645 309.216 255.752L307.36 252.168C308.427 252.061 309.973 251.88 312 251.624V235.336C309.931 236.552 307.968 237.491 306.112 238.152L305.888 237.736C307.445 236.904 309.024 235.848 310.624 234.568C312.245 233.267 313.685 231.923 314.944 230.536C316.48 228.851 317.451 227.187 317.856 225.544L322.816 227.048C322.773 227.261 322.645 227.421 322.432 227.528C322.219 227.613 321.877 227.677 321.408 227.72C322.731 229.043 324.544 230.216 326.848 231.24C329.173 232.243 331.659 233.075 334.304 233.736V234.248C333.707 234.419 333.195 234.781 332.768 235.336C332.341 235.869 332.075 236.445 331.968 237.064C329.579 236.04 327.392 234.749 325.408 233.192C323.445 231.635 321.952 229.928 320.928 228.072ZM325.216 236.84H314.912V239.88H325.216V236.84ZM325.216 240.808H314.912V243.912H325.216V240.808ZM325.216 245.864V244.84H320.032C320.928 246.611 322.24 248.083 323.968 249.256C324.651 248.701 325.333 248.061 326.016 247.336C326.72 246.589 327.307 245.875 327.776 245.192C327.477 245.384 327.136 245.544 326.752 245.672C326.389 245.8 326.048 245.864 325.728 245.864H325.216ZM360.48 239.528C357.899 243.901 354.357 247.485 349.856 250.28L349.504 249.896C351.68 247.997 353.632 245.672 355.36 242.92C357.088 240.168 358.432 237.352 359.392 234.472H357.408C356.256 234.493 355.061 234.643 353.824 234.92L352.992 233.288C354.165 233.416 355.584 233.501 357.248 233.544H360.48V232.392C360.48 229.704 360.341 227.517 360.064 225.832C361.6 226.216 362.667 226.525 363.264 226.76C363.861 226.973 364.16 227.155 364.16 227.304C364.16 227.389 364.075 227.485 363.904 227.592L363.328 227.944V233.544H364.064L364.736 232.424C364.8 232.317 364.896 232.157 365.024 231.944C365.152 231.709 365.259 231.539 365.344 231.432C365.451 231.325 365.547 231.272 365.632 231.272C365.76 231.272 366.027 231.464 366.432 231.848C366.837 232.232 367.221 232.648 367.584 233.096C367.947 233.523 368.128 233.811 368.128 233.96C368.043 234.301 367.776 234.472 367.328 234.472H363.328V251.944C363.328 252.733 363.221 253.373 363.008 253.864C362.816 254.355 362.421 254.749 361.824 255.048C361.227 255.347 360.331 255.549 359.136 255.656C359.072 255.187 358.976 254.792 358.848 254.472C358.72 254.173 358.539 253.928 358.304 253.736C358.048 253.48 357.685 253.267 357.216 253.096C356.768 252.947 356.128 252.808 355.296 252.68V252.232C357.771 252.403 359.243 252.488 359.712 252.488C359.989 252.488 360.181 252.435 360.288 252.328C360.416 252.221 360.48 252.04 360.48 251.784V239.528ZM349.504 232.456C349.589 232.328 349.696 232.168 349.824 231.976C349.973 231.763 350.091 231.613 350.176 231.528C350.261 231.421 350.347 231.368 350.432 231.368C350.56 231.368 350.848 231.549 351.296 231.912C351.765 232.275 352.192 232.669 352.576 233.096C352.981 233.501 353.184 233.779 353.184 233.928C353.099 234.269 352.832 234.44 352.384 234.44H347.648V237.448C349.312 238.045 350.528 238.76 351.296 239.592C352.085 240.424 352.48 241.224 352.48 241.992C352.48 242.461 352.352 242.845 352.096 243.144C351.84 243.443 351.52 243.592 351.136 243.592C350.731 243.592 350.325 243.421 349.92 243.08C349.813 242.333 349.547 241.512 349.12 240.616C348.693 239.72 348.203 238.877 347.648 238.088V247.144C347.691 249.789 347.776 252.296 347.904 254.664C347.776 254.899 347.445 255.133 346.912 255.368C346.379 255.624 345.867 255.752 345.376 255.752C345.099 255.752 344.875 255.688 344.704 255.56C344.533 255.432 344.448 255.283 344.448 255.112C344.533 253.853 344.608 252.637 344.672 251.464C344.736 250.269 344.779 248.712 344.8 246.792V241.768C343.349 244.499 341.536 246.845 339.36 248.808L338.944 248.424C340.245 246.632 341.355 244.531 342.272 242.12C343.211 239.688 343.936 237.128 344.448 234.44H342.912C342.059 234.461 341.163 234.611 340.224 234.888L339.392 233.288C340.395 233.416 341.611 233.501 343.04 233.544H344.8V232.424C344.8 229.736 344.661 227.549 344.384 225.864C345.899 226.227 346.955 226.525 347.552 226.76C348.149 226.973 348.448 227.155 348.448 227.304C348.448 227.411 348.363 227.517 348.192 227.624L347.648 228.008V233.544H348.832L349.504 232.456Z" fill="#E25C55"/>
<path d="M395.552 234.76C396.256 234.76 396.875 234.984 397.408 235.432C397.963 235.88 398.24 236.477 398.24 237.224C398.24 238.184 397.824 239.005 396.992 239.688C396.16 240.349 395.029 240.989 393.6 241.608L391.232 242.568C389.653 243.187 388.597 243.613 388.064 243.848C388 244.296 387.968 245 387.968 245.96C387.968 247.475 387.957 248.328 387.936 248.52C387.915 248.84 387.776 249.117 387.52 249.352C387.285 249.565 387.029 249.672 386.752 249.672C386.496 249.672 386.272 249.555 386.08 249.32C385.888 249.085 385.792 248.819 385.792 248.52C385.792 248.285 385.824 247.869 385.888 247.272L386.08 244.808C384.843 245.491 383.872 246.205 383.168 246.952C382.485 247.699 382.144 248.531 382.144 249.448C382.144 251.069 383.765 251.88 387.008 251.88C387.499 251.88 388 251.837 388.512 251.752C389.024 251.667 389.504 251.571 389.952 251.464C390.805 251.272 391.467 251.176 391.936 251.176C392.768 251.176 393.184 251.464 393.184 252.04C393.184 252.68 392.587 253.128 391.392 253.384C390.197 253.64 388.949 253.768 387.648 253.768C384.981 253.768 383.2 253.373 382.304 252.584C381.408 251.773 380.96 250.792 380.96 249.64C380.96 248.445 381.408 247.4 382.304 246.504C383.221 245.587 384.501 244.701 386.144 243.848C386.165 243.613 386.176 243.283 386.176 242.856C386.176 240.616 385.515 239.496 384.192 239.496C383.424 239.496 382.613 239.955 381.76 240.872C380.928 241.789 380.117 242.792 379.328 243.88C379.264 243.965 379.115 244.189 378.88 244.552C378.645 244.893 378.421 245.171 378.208 245.384C377.995 245.597 377.813 245.704 377.664 245.704C377.301 245.704 377.024 245.565 376.832 245.288C376.64 245.011 376.544 244.68 376.544 244.296C376.544 243.784 376.661 243.4 376.896 243.144L377.472 242.632C378.155 241.992 378.741 241.416 379.232 240.904C379.723 240.392 380.16 239.805 380.544 239.144C381.632 237.288 382.507 235.304 383.168 233.192C382.336 233.427 381.515 233.544 380.704 233.544C380 233.544 379.403 233.427 378.912 233.192C378.421 232.957 377.835 232.573 377.152 232.04C377.067 231.976 377.024 231.912 377.024 231.848C377.024 231.763 377.077 231.72 377.184 231.72C377.269 231.72 377.419 231.752 377.632 231.816C378.315 232.072 379.04 232.2 379.808 232.2C380.192 232.2 380.725 232.157 381.408 232.072C382.091 231.965 382.837 231.763 383.648 231.464C383.797 230.867 383.872 230.344 383.872 229.896C383.872 229.043 383.541 228.349 382.88 227.816C382.773 227.731 382.72 227.645 382.72 227.56C382.741 227.24 382.912 227.08 383.232 227.08C383.424 227.08 383.787 227.144 384.32 227.272C384.853 227.4 385.184 227.549 385.312 227.72C385.419 227.848 385.472 228.083 385.472 228.424C385.472 228.552 385.451 228.765 385.408 229.064C385.749 229.299 386.208 229.416 386.784 229.416C387.083 229.416 387.307 229.384 387.456 229.32C387.669 229.277 387.883 229.256 388.096 229.256C388.587 229.256 388.832 229.437 388.832 229.8C388.832 230.077 388.661 230.387 388.32 230.728C388 231.069 387.595 231.368 387.104 231.624C386.421 232.008 385.536 232.403 384.448 232.808C383.68 235.283 382.923 237.341 382.176 238.984C382.795 238.621 383.403 238.44 384 238.44C385.045 238.44 385.856 238.728 386.432 239.304C387.029 239.88 387.424 240.659 387.616 241.64C388 240.744 388.416 239.965 388.864 239.304C389.312 238.621 389.856 237.939 390.496 237.256C391.136 236.573 391.925 235.987 392.864 235.496C393.803 235.005 394.699 234.76 395.552 234.76ZM385.312 229.672C385.312 229.736 385.216 230.131 385.024 230.856C385.173 230.792 385.301 230.728 385.408 230.664C385.515 230.579 385.611 230.515 385.696 230.472C385.845 230.387 385.92 230.301 385.92 230.216C385.92 230.131 385.835 230.024 385.664 229.896L385.312 229.672ZM392.832 240.456C393.877 239.837 394.72 239.165 395.36 238.44C396.021 237.693 396.352 237.085 396.352 236.616C396.352 235.997 395.947 235.688 395.136 235.688C394.56 235.688 393.899 235.891 393.152 236.296C392.405 236.701 391.712 237.224 391.072 237.864C390.496 238.44 389.941 239.219 389.408 240.2C388.875 241.16 388.491 242.013 388.256 242.76V242.792L388.672 242.6L389.344 242.28C391.072 241.427 392.235 240.819 392.832 240.456ZM141.952 293.576C140.715 295.56 139.445 297.213 138.144 298.536L137.728 298.216C139.499 295.592 141.077 292.445 142.464 288.776C142.869 287.731 143.243 286.547 143.584 285.224C143.925 283.88 144.128 282.781 144.192 281.928C146.347 282.611 147.424 283.091 147.424 283.368C147.424 283.453 147.328 283.528 147.136 283.592L146.56 283.816C145.728 286.184 144.757 288.456 143.648 290.632C144.011 290.931 144.267 291.176 144.416 291.368C144.587 291.539 144.672 291.688 144.672 291.816C144.672 291.923 144.576 292.029 144.384 292.136L143.936 292.36V303.08C143.979 305.725 144.064 308.232 144.192 310.6C144.021 310.813 143.755 311.005 143.392 311.176C143.051 311.368 142.699 311.464 142.336 311.464C142.144 311.464 141.973 311.4 141.824 311.272C141.675 311.144 141.6 310.995 141.6 310.824C141.685 309.565 141.76 308.349 141.824 307.176C141.888 305.981 141.931 304.424 141.952 302.504V293.576ZM162.304 290.184C162.368 290.099 162.475 289.96 162.624 289.768C162.773 289.555 162.912 289.448 163.04 289.448C163.168 289.448 163.424 289.597 163.808 289.896C164.213 290.195 164.576 290.525 164.896 290.888C165.237 291.229 165.408 291.475 165.408 291.624C165.131 291.901 164.683 292.104 164.064 292.232V294.664C164.107 296.627 164.171 298.173 164.256 299.304C164.128 299.475 163.861 299.656 163.456 299.848C163.072 300.019 162.72 300.104 162.4 300.104C162.144 300.104 162.016 299.891 162.016 299.464C162.037 299.4 162.048 299.336 162.048 299.272C162.069 299.187 162.091 299.101 162.112 299.016V298.44H156.736C156.565 301.363 155.819 303.763 154.496 305.64C157.397 307.709 161.408 308.84 166.528 309.032V309.384C166.08 309.512 165.696 309.757 165.376 310.12C165.056 310.483 164.853 310.931 164.768 311.464C162.251 311.144 160.064 310.611 158.208 309.864C156.373 309.117 154.805 308.115 153.504 306.856C151.584 308.883 148.651 310.419 144.704 311.464L144.48 310.92C148.192 309.64 150.848 307.901 152.448 305.704C151.595 304.595 150.816 303.229 150.112 301.608L148.32 304.232C148.363 304.36 148.384 304.456 148.384 304.52C148.384 304.669 148.32 304.808 148.192 304.936L146.816 302.92C147.307 302.621 147.861 302.259 148.48 301.832C149.12 301.405 149.632 301.032 150.016 300.712L150.4 299.496L151.456 300.008L150.56 301C151.179 302.323 152.053 303.517 153.184 304.584C154.123 302.877 154.645 300.829 154.752 298.44H149.44V299.624C149.44 299.731 149.248 299.869 148.864 300.04C148.501 300.189 148.139 300.264 147.776 300.264C147.648 300.264 147.541 300.2 147.456 300.072C147.371 299.944 147.328 299.795 147.328 299.624C147.413 298.899 147.477 297.96 147.52 296.808V295.08C147.52 292.904 147.413 291.133 147.2 289.768L149.6 290.92H154.784V287.432H151.744C150.229 287.453 148.629 287.603 146.944 287.88L146.112 286.216C147.285 286.344 148.704 286.429 150.368 286.472H154.784C154.784 284.616 154.699 283.144 154.528 282.056C156.555 282.653 157.568 283.112 157.568 283.432C157.568 283.539 157.483 283.645 157.312 283.752L156.8 284.104V286.472H162.048L162.688 285.512C162.752 285.427 162.848 285.299 162.976 285.128C163.104 284.936 163.211 284.797 163.296 284.712C163.403 284.605 163.499 284.552 163.584 284.552C163.712 284.552 163.989 284.723 164.416 285.064C164.864 285.384 165.269 285.736 165.632 286.12C166.016 286.504 166.208 286.771 166.208 286.92C166.123 287.261 165.856 287.432 165.408 287.432H156.8V290.92H161.792L162.304 290.184ZM149.44 291.848V297.48H154.784V291.848H149.44ZM162.112 297.48V291.848H156.8V297.48H162.112ZM182.016 309.64C181.931 309.64 181.856 309.608 181.792 309.544C181.728 309.501 181.696 309.448 181.696 309.384C181.696 309.192 181.835 309.085 182.112 309.064C184.117 308.893 185.952 308.413 187.616 307.624C189.28 306.835 190.592 305.853 191.552 304.68C192.533 303.507 193.024 302.269 193.024 300.968C193.024 299.987 192.8 299.155 192.352 298.472C191.925 297.789 191.36 297.277 190.656 296.936C189.973 296.573 189.259 296.392 188.512 296.392C187.083 296.392 185.621 296.84 184.128 297.736C182.656 298.611 181.515 299.411 180.704 300.136C180.107 300.648 179.563 301.064 179.072 301.384C178.603 301.704 178.133 301.864 177.664 301.864C177.003 301.864 176.171 301.448 175.168 300.616C174.869 300.381 174.72 300.179 174.72 300.008C174.72 299.816 174.837 299.72 175.072 299.72C175.2 299.72 175.413 299.741 175.712 299.784C176.032 299.827 176.331 299.848 176.608 299.848C177.056 299.848 177.525 299.731 178.016 299.496C178.528 299.24 179.275 298.835 180.256 298.28C181.728 297.384 183.061 296.691 184.256 296.2C185.472 295.688 186.773 295.432 188.16 295.432C189.248 295.432 190.304 295.677 191.328 296.168C192.373 296.637 193.216 297.341 193.856 298.28C194.517 299.197 194.848 300.296 194.848 301.576C194.848 302.451 194.592 303.432 194.08 304.52C193.568 305.587 192.395 306.632 190.56 307.656C188.747 308.68 186.08 309.331 182.56 309.608L182.016 309.64ZM226.784 285.768C227.509 285.768 228.181 285.971 228.8 286.376C229.44 286.76 229.76 287.229 229.76 287.784C229.76 288.019 229.685 288.2 229.536 288.328C229.408 288.435 229.237 288.488 229.024 288.488C228.576 288.488 227.979 288.413 227.232 288.264C227.083 288.243 226.795 288.2 226.368 288.136C225.941 288.072 225.589 288.04 225.312 288.04C224.672 288.04 224.053 288.125 223.456 288.296C222.88 288.445 222.464 288.584 222.208 288.712C221.333 289.181 220.544 290.12 219.84 291.528C219.157 292.936 218.624 294.493 218.24 296.2C217.877 297.907 217.696 299.4 217.696 300.68C217.696 302.835 218.059 304.349 218.784 305.224C219.531 306.077 220.651 306.504 222.144 306.504L223.04 306.44C223.68 306.355 224.171 306.312 224.512 306.312C226.048 306.312 226.816 306.685 226.816 307.432C226.816 307.987 226.379 308.36 225.504 308.552C224.651 308.723 223.787 308.808 222.912 308.808C221.141 308.808 219.744 308.52 218.72 307.944C217.717 307.368 217.003 306.493 216.576 305.32C216.149 304.147 215.936 302.611 215.936 300.712C215.936 298.28 216.405 295.987 217.344 293.832C218.304 291.656 219.509 289.875 220.96 288.488L220.704 288.552C220.107 288.68 219.253 288.957 218.144 289.384C217.056 289.811 215.659 290.397 213.952 291.144L212.576 291.72C212.405 291.805 212.032 291.997 211.456 292.296C211.051 292.509 210.731 292.669 210.496 292.776C210.261 292.883 210.016 292.936 209.76 292.936C209.227 292.936 208.651 292.691 208.032 292.2C207.435 291.709 206.976 291.219 206.656 290.728C206.549 290.579 206.496 290.451 206.496 290.344C206.496 290.259 206.528 290.184 206.592 290.12C206.656 290.056 206.731 290.024 206.816 290.024C206.944 290.024 207.083 290.067 207.232 290.152C207.275 290.173 207.456 290.28 207.776 290.472C208.096 290.643 208.491 290.728 208.96 290.728C209.067 290.728 209.248 290.707 209.504 290.664C209.568 290.643 210.219 290.429 211.456 290.024C213.845 289.213 216.032 288.52 218.016 287.944C220.021 287.347 221.867 286.941 223.552 286.728C223.872 286.685 224.181 286.611 224.48 286.504C224.779 286.376 224.971 286.291 225.056 286.248C225.696 285.928 226.272 285.768 226.784 285.768ZM243.456 310.088C242.155 307.741 240.747 305.949 239.232 304.712C239.147 304.648 239.029 304.563 238.88 304.456C238.752 304.349 238.688 304.264 238.688 304.2C238.688 304.093 238.763 304.04 238.912 304.04C238.997 304.04 239.189 304.083 239.488 304.168C240.149 304.339 241.024 304.701 242.112 305.256C243.2 305.811 244.16 306.472 244.992 307.24C245.845 307.987 246.272 308.744 246.272 309.512C246.272 310.088 246.123 310.515 245.824 310.792C245.547 311.069 245.227 311.208 244.864 311.208C244.331 311.208 243.861 310.835 243.456 310.088ZM297.28 285.352C297.365 285.245 297.483 285.085 297.632 284.872C297.803 284.659 297.952 284.552 298.08 284.552C298.272 284.552 298.688 284.925 299.328 285.672C299.989 286.397 300.32 286.877 300.32 287.112C300.213 287.219 300.075 287.293 299.904 287.336C299.733 287.379 299.477 287.411 299.136 287.432C298.709 287.901 298.144 288.424 297.44 289C296.757 289.576 296.096 290.067 295.456 290.472C295.435 290.451 295.765 290.749 296.448 291.368C296.384 291.688 296.117 291.848 295.648 291.848H288.352C289.013 294.451 289.931 296.744 291.104 298.728L292.128 297.864C292.939 297.139 293.728 296.317 294.496 295.4C295.264 294.461 295.851 293.608 296.256 292.84C297.984 294.035 298.848 294.76 298.848 295.016C298.848 295.123 298.752 295.176 298.56 295.176L298.016 295.208C297.269 295.869 296.299 296.573 295.104 297.32C293.909 298.067 292.693 298.739 291.456 299.336C292.565 301.128 293.888 302.707 295.424 304.072C296.96 305.416 298.656 306.525 300.512 307.4L300.416 307.656C299.968 307.699 299.552 307.869 299.168 308.168C298.805 308.445 298.517 308.84 298.304 309.352C292.672 305.811 289.152 299.976 287.744 291.848H287.168C286.187 292.744 285.035 293.587 283.712 294.376C285.504 295.827 286.837 297.555 287.712 299.56C288.587 301.565 289.024 303.549 289.024 305.512C289.024 306.579 288.896 307.539 288.64 308.392C288.384 309.245 288.043 309.917 287.616 310.408C286.997 311.176 285.867 311.549 284.224 311.528C284.203 310.931 283.989 310.472 283.584 310.152C283.371 310.024 283.008 309.885 282.496 309.736C282.005 309.587 281.493 309.469 280.96 309.384L280.928 308.84C281.653 308.904 282.4 308.957 283.168 309C283.957 309.064 284.619 309.096 285.152 309.096C285.579 309.096 285.867 308.989 286.016 308.776C286.315 308.413 286.539 307.891 286.688 307.208C286.859 306.504 286.944 305.715 286.944 304.84C286.944 304.029 286.891 303.315 286.784 302.696C284.971 304.189 282.784 305.576 280.224 306.856C277.664 308.115 275.061 309.085 272.416 309.768L272.192 309.224C274.901 308.285 277.536 306.995 280.096 305.352C282.656 303.709 284.693 301.949 286.208 300.072C286.016 299.475 285.771 298.856 285.472 298.216C283.915 299.368 282.048 300.477 279.872 301.544C277.717 302.611 275.605 303.453 273.536 304.072L273.28 303.56C275.307 302.749 277.355 301.683 279.424 300.36C281.493 299.016 283.157 297.661 284.416 296.296C283.904 295.571 283.488 295.048 283.168 294.728C280.565 296.264 277.493 297.544 273.952 298.568L273.696 298.024C275.659 297.256 277.557 296.328 279.392 295.24C281.227 294.152 282.816 293.021 284.16 291.848H281.76C280.309 291.869 278.816 292.019 277.28 292.296L276.48 290.696C277.653 290.824 279.072 290.909 280.736 290.952H292.512L293.856 289.128L295.072 290.12C295.413 289.544 295.936 288.52 296.64 287.048H276.704C276.683 288.008 276.501 288.851 276.16 289.576C275.819 290.28 275.413 290.824 274.944 291.208C274.517 291.528 274.08 291.688 273.632 291.688C273.184 291.688 272.864 291.517 272.672 291.176C272.608 291.005 272.576 290.845 272.576 290.696C272.576 290.44 272.651 290.205 272.8 289.992C272.949 289.757 273.152 289.555 273.408 289.384C274.069 289 274.645 288.317 275.136 287.336C275.627 286.333 275.851 285.288 275.808 284.2H276.352C276.501 284.776 276.619 285.427 276.704 286.152H285.344C285.344 284.424 285.259 283.059 285.088 282.056C287.179 282.653 288.224 283.101 288.224 283.4C288.224 283.507 288.139 283.613 287.968 283.72L287.424 284.072V286.152H296.704L297.28 285.352ZM330.72 286.504C330.784 286.419 330.88 286.291 331.008 286.12C331.136 285.928 331.243 285.789 331.328 285.704C331.435 285.597 331.531 285.544 331.616 285.544C331.744 285.544 332.021 285.715 332.448 286.056C332.875 286.376 333.269 286.728 333.632 287.112C333.995 287.475 334.176 287.731 334.176 287.88C334.091 288.221 333.824 288.392 333.376 288.392H321.312C320.139 290.312 318.816 291.848 317.344 293L316.928 292.616C317.803 291.507 318.613 290.205 319.36 288.712C319.851 287.752 320.288 286.621 320.672 285.32C321.056 283.997 321.269 282.888 321.312 281.992C323.381 282.653 324.416 283.123 324.416 283.4C324.416 283.464 324.32 283.539 324.128 283.624L323.552 283.816C323.019 285.245 322.464 286.461 321.888 287.464H330.08L330.72 286.504ZM315.776 287.464C315.84 287.357 315.936 287.219 316.064 287.048C316.213 286.856 316.331 286.717 316.416 286.632C316.501 286.525 316.587 286.472 316.672 286.472C316.8 286.472 317.067 286.643 317.472 286.984C317.899 287.325 318.293 287.688 318.656 288.072C319.019 288.456 319.2 288.723 319.2 288.872C319.136 289.192 318.869 289.352 318.4 289.352H311.84C311.797 291.528 311.744 293.16 311.68 294.248H314.784L315.264 293.608C315.328 293.544 315.424 293.416 315.552 293.224C315.701 293.032 315.84 292.936 315.968 292.936C316.181 292.936 316.597 293.203 317.216 293.736C317.856 294.269 318.176 294.653 318.176 294.888C317.984 295.123 317.568 295.293 316.928 295.4C316.821 299.795 316.597 303.123 316.256 305.384C315.915 307.624 315.435 309.085 314.816 309.768C314.091 310.515 313.12 310.888 311.904 310.888C311.904 310.205 311.744 309.725 311.424 309.448C311.168 309.149 310.453 308.904 309.28 308.712L309.312 308.136C311.083 308.307 312.128 308.392 312.448 308.392C312.704 308.392 312.896 308.371 313.024 308.328C313.173 308.264 313.323 308.168 313.472 308.04C314.325 307.187 314.848 302.899 315.04 295.176H311.616C311.403 298.653 310.891 301.715 310.08 304.36C309.269 307.005 307.915 309.363 306.016 311.432L305.504 310.92C306.784 309.021 307.723 306.92 308.32 304.616C308.917 302.291 309.28 300.019 309.408 297.8C309.557 295.56 309.643 292.744 309.664 289.352H308.48C307.819 289.373 307.136 289.523 306.432 289.8L305.632 288.168C306.677 288.296 307.936 288.381 309.408 288.424H311.168C311.168 285.949 311.04 283.901 310.784 282.28C311.957 282.621 312.768 282.899 313.216 283.112C313.685 283.304 313.92 283.475 313.92 283.624C313.92 283.688 313.835 283.784 313.664 283.912L313.184 284.232V288.424H315.136L315.776 287.464ZM331.072 298.824C331.136 298.739 331.232 298.611 331.36 298.44C331.509 298.248 331.627 298.109 331.712 298.024C331.797 297.939 331.883 297.896 331.968 297.896C332.096 297.896 332.363 298.056 332.768 298.376C333.173 298.696 333.547 299.037 333.888 299.4C334.251 299.763 334.432 300.019 334.432 300.168C334.347 300.509 334.08 300.68 333.632 300.68H327.008C327.392 302.643 328.171 304.36 329.344 305.832C330.539 307.304 332.331 308.499 334.72 309.416L334.688 309.8C334.155 309.907 333.749 310.077 333.472 310.312C333.195 310.547 333.003 310.941 332.896 311.496C330.848 310.451 329.333 309 328.352 307.144C327.392 305.267 326.741 303.112 326.4 300.68H326.368C326.091 302.365 325.611 303.848 324.928 305.128C324.245 306.408 323.211 307.581 321.824 308.648C320.459 309.715 318.645 310.664 316.384 311.496L316.032 310.92C318.763 309.704 320.736 308.275 321.952 306.632C323.189 304.989 323.968 303.005 324.288 300.68H322.144C320.885 300.701 319.584 300.851 318.24 301.128L317.408 299.496C318.581 299.624 320 299.709 321.664 299.752H324.416C324.544 298.664 324.629 296.947 324.672 294.6H322.08C321.056 296.307 319.861 297.693 318.496 298.76L318.08 298.408C318.677 297.64 319.232 296.765 319.744 295.784C320.213 294.845 320.629 293.725 320.992 292.424C321.376 291.101 321.589 289.992 321.632 289.096C323.659 289.736 324.672 290.195 324.672 290.472C324.672 290.557 324.576 290.643 324.384 290.728L323.808 290.952C323.467 291.869 323.061 292.787 322.592 293.704H329.76L330.368 292.776C330.453 292.669 330.549 292.531 330.656 292.36C330.784 292.168 330.891 292.029 330.976 291.944C331.061 291.859 331.147 291.816 331.232 291.816C331.36 291.816 331.627 291.976 332.032 292.296C332.459 292.616 332.843 292.968 333.184 293.352C333.547 293.715 333.728 293.971 333.728 294.12C333.643 294.44 333.365 294.6 332.896 294.6H326.784C326.741 296.691 326.656 298.408 326.528 299.752H330.432L331.072 298.824ZM346.048 309.192C345.749 309.192 345.419 309.032 345.056 308.712C344.715 308.371 344.469 307.976 344.32 307.528C343.531 305.416 343.136 302.781 343.136 299.624C343.136 298.195 343.243 296.915 343.456 295.784C343.669 294.653 343.957 293.48 344.32 292.264C344.469 291.688 344.608 291.123 344.736 290.568C344.864 290.013 344.928 289.533 344.928 289.128C344.928 288.723 344.853 288.307 344.704 287.88C344.555 287.453 344.363 287.112 344.128 286.856C343.957 286.621 343.872 286.461 343.872 286.376C343.872 286.269 343.915 286.216 344 286.216C344.128 286.216 344.299 286.28 344.512 286.408C345.216 286.856 345.771 287.389 346.176 288.008C346.603 288.627 346.816 289.416 346.816 290.376C346.816 290.781 346.752 291.197 346.624 291.624C346.496 292.051 346.347 292.467 346.176 292.872C346.005 293.277 345.899 293.544 345.856 293.672C345.365 294.781 345.035 295.688 344.864 296.392C344.651 297.224 344.544 298.067 344.544 298.92C344.544 299.475 344.587 299.997 344.672 300.488C344.757 300.957 344.885 301.192 345.056 301.192C345.163 301.192 345.344 300.979 345.6 300.552L346.176 299.368L347.264 297.192C347.413 296.957 347.52 296.84 347.584 296.84C347.648 296.84 347.68 296.883 347.68 296.968L347.584 297.352C347.307 298.099 346.997 299.069 346.656 300.264C346.315 301.437 346.144 302.419 346.144 303.208C346.144 304.125 346.325 305.491 346.688 307.304C346.795 307.88 346.848 308.221 346.848 308.328C346.848 308.605 346.763 308.819 346.592 308.968C346.421 309.117 346.24 309.192 346.048 309.192ZM357.632 291.176C356.693 291.176 355.925 291.091 355.328 290.92C354.624 290.728 353.995 290.451 353.44 290.088C352.907 289.725 352.544 289.352 352.352 288.968C352.267 288.797 352.224 288.669 352.224 288.584C352.224 288.52 352.256 288.488 352.32 288.488C352.384 288.488 352.491 288.541 352.64 288.648C352.811 288.755 352.971 288.84 353.12 288.904C353.803 289.181 354.571 289.32 355.424 289.32C356.021 289.32 356.832 289.256 357.856 289.128C358.901 289 359.765 288.861 360.448 288.712C360.704 288.627 360.907 288.584 361.056 288.584C361.461 288.584 361.835 288.712 362.176 288.968C362.517 289.203 362.688 289.459 362.688 289.736C362.688 290.227 362.144 290.589 361.056 290.824C359.968 291.059 358.827 291.176 357.632 291.176ZM358.752 307.688C357.109 307.688 355.669 307.475 354.432 307.048C353.195 306.6 352.32 305.725 351.808 304.424C351.68 304.104 351.616 303.912 351.616 303.848C351.616 303.763 351.659 303.72 351.744 303.72C351.808 303.72 351.883 303.763 351.968 303.848C352.075 303.912 352.16 303.965 352.224 304.008C353.056 304.648 353.984 305.096 355.008 305.352C355.499 305.48 356.235 305.544 357.216 305.544C358.304 305.544 359.723 305.416 361.472 305.16C362.197 305.075 362.56 305.032 362.56 305.032C363.051 305.032 363.445 305.16 363.744 305.416C364.064 305.672 364.224 305.949 364.224 306.248C364.224 306.824 363.712 307.208 362.688 307.4C361.685 307.592 360.373 307.688 358.752 307.688ZM393.6 296.232C396.053 296.232 397.28 297.384 397.28 299.688C397.28 300.84 396.853 302.024 396 303.24C395.147 304.435 394.091 305.427 392.832 306.216C391.573 307.005 390.389 307.4 389.28 307.4C388.533 307.4 387.915 307.176 387.424 306.728C386.955 306.259 386.72 305.619 386.72 304.808C386.72 303.635 387.243 302.259 388.288 300.68C388.459 300.445 388.597 300.328 388.704 300.328C388.789 300.328 388.832 300.381 388.832 300.488C388.832 300.616 388.725 300.893 388.512 301.32C388.341 301.683 388.181 302.131 388.032 302.664C387.904 303.197 387.84 303.688 387.84 304.136C387.84 305.117 388.192 305.608 388.896 305.608C389.685 305.608 390.592 305.277 391.616 304.616C392.661 303.933 393.547 303.112 394.272 302.152C395.019 301.192 395.392 300.317 395.392 299.528C395.392 298.056 394.571 297.32 392.928 297.32C391.627 297.32 389.76 297.811 387.328 298.792C386.453 299.133 385.312 299.731 383.904 300.584C383.904 300.797 383.947 301.779 384.032 303.528L384.064 304.36C384.064 304.893 384.011 305.48 383.904 306.12C383.797 306.739 383.691 307.155 383.584 307.368C383.477 307.603 383.307 307.827 383.072 308.04C382.859 308.232 382.677 308.328 382.528 308.328C382.379 308.328 382.24 308.285 382.112 308.2C381.984 308.115 381.867 307.933 381.76 307.656C381.419 306.867 380.992 306.184 380.48 305.608C380.288 305.395 380.032 305.192 379.712 305C379.392 304.808 378.997 304.595 378.528 304.36L377.696 304.904C377.504 305.053 377.312 305.181 377.12 305.288C376.949 305.373 376.8 305.416 376.672 305.416C376.181 305.416 375.744 305.203 375.36 304.776C374.997 304.328 374.816 303.859 374.816 303.368C374.816 302.984 374.923 302.707 375.136 302.536C375.371 302.344 375.573 302.248 375.744 302.248C375.851 302.248 376.053 302.312 376.352 302.44C376.672 302.547 376.875 302.6 376.96 302.6C377.045 302.6 377.12 302.589 377.184 302.568C377.675 302.419 378.283 302.163 379.008 301.8C379.733 301.437 380.32 301.139 380.768 300.904C381.237 300.648 381.557 300.477 381.728 300.392L382.432 300.008L382.464 294.664C381.205 295.133 380.309 295.432 379.776 295.56C379.52 295.603 379.307 295.624 379.136 295.624C378.475 295.624 377.899 295.453 377.408 295.112C377.067 294.877 376.736 294.621 376.416 294.344C376.096 294.045 375.872 293.821 375.744 293.672C375.573 293.501 375.488 293.363 375.488 293.256C375.488 293.171 375.541 293.128 375.648 293.128C375.776 293.128 375.957 293.181 376.192 293.288C376.427 293.395 376.565 293.459 376.608 293.48C376.843 293.587 377.163 293.683 377.568 293.768C377.973 293.832 378.389 293.864 378.816 293.864C379.093 293.864 379.296 293.853 379.424 293.832C380.085 293.768 381.099 293.501 382.464 293.032C382.464 290.792 382.336 289.341 382.08 288.68C381.931 288.296 381.707 288.008 381.408 287.816C381.109 287.624 380.821 287.475 380.544 287.368C380.267 287.261 380.085 287.187 380 287.144C379.936 287.123 379.851 287.091 379.744 287.048C379.637 287.005 379.584 286.952 379.584 286.888C379.584 286.803 379.637 286.728 379.744 286.664C379.872 286.579 380.011 286.515 380.16 286.472C380.48 286.365 380.789 286.312 381.088 286.312C381.536 286.312 381.984 286.397 382.432 286.568C382.901 286.717 383.275 286.909 383.552 287.144C383.893 287.421 384.064 287.891 384.064 288.552L384.032 289.224L383.968 289.832C384.288 290.237 384.544 290.504 384.736 290.632C385.397 291.08 385.92 291.347 386.304 291.432C386.368 291.453 386.507 291.485 386.72 291.528C386.955 291.549 387.136 291.613 387.264 291.72C387.392 291.827 387.456 291.976 387.456 292.168C387.456 292.445 387.403 292.648 387.296 292.776C387.189 292.904 386.997 293.021 386.72 293.128L383.84 294.184V296.744C383.84 297.853 383.851 298.685 383.872 299.24C385.088 298.6 386.016 298.163 386.656 297.928C387.979 297.437 389.216 297.032 390.368 296.712C391.52 296.392 392.597 296.232 393.6 296.232ZM383.936 290.472C383.893 291.069 383.872 291.517 383.872 291.816L383.84 292.488C384.139 292.339 384.32 292.232 384.384 292.168C384.533 292.019 384.608 291.891 384.608 291.784C384.608 291.656 384.544 291.496 384.416 291.304C384.245 291.048 384.085 290.771 383.936 290.472ZM397.824 291.112C398.485 291.112 399.072 291.251 399.584 291.528C400.117 291.805 400.533 292.147 400.832 292.552C401.131 292.957 401.28 293.363 401.28 293.768C401.28 294.173 401.173 294.483 400.96 294.696C400.747 294.909 400.491 295.016 400.192 295.016C399.808 295.016 399.477 294.845 399.2 294.504C398.731 293.907 398.24 293.448 397.728 293.128C397.216 292.808 396.715 292.648 396.224 292.648C395.883 292.648 395.52 292.744 395.136 292.936C394.859 293.064 394.581 293.245 394.304 293.48C394.048 293.693 393.888 293.8 393.824 293.8C393.675 293.8 393.6 293.736 393.6 293.608C393.6 293.523 393.653 293.405 393.76 293.256C394.485 292.403 395.157 291.837 395.776 291.56C396.395 291.261 397.077 291.112 397.824 291.112ZM382.336 304.776C382.4 304.392 382.432 303.315 382.432 301.544C381.387 302.227 380.288 303.005 379.136 303.88C379.52 304.115 380.053 304.392 380.736 304.712C381.44 305.032 381.867 305.192 382.016 305.192C382.208 305.192 382.315 305.053 382.336 304.776ZM148.64 363.976C148.213 363.976 147.659 363.816 146.976 363.496C146.293 363.176 145.547 362.653 144.736 361.928C142.667 360.051 141.632 357.384 141.632 353.928C141.632 352.861 141.749 351.549 141.984 349.992C142.112 349.053 142.176 348.413 142.176 348.072C142.176 347.56 142.08 347.101 141.888 346.696C141.717 346.269 141.408 345.853 140.96 345.448C140.832 345.341 140.768 345.256 140.768 345.192C140.768 345.128 140.811 345.085 140.896 345.064C140.981 345.021 141.067 345 141.152 345C141.579 345 142.059 345.139 142.592 345.416C143.147 345.672 143.616 346.024 144 346.472C144.384 346.899 144.576 347.336 144.576 347.784C144.576 348.061 144.523 348.381 144.416 348.744C144.331 349.085 144.224 349.448 144.096 349.832C143.819 350.728 143.605 351.496 143.456 352.136C143.328 352.776 143.264 353.523 143.264 354.376C143.264 355.528 143.477 356.573 143.904 357.512C144.352 358.429 144.864 359.155 145.44 359.688C146.037 360.2 146.549 360.456 146.976 360.456C147.232 360.456 147.403 360.232 147.488 359.784C147.68 358.867 147.883 358.056 148.096 357.352C148.331 356.648 148.512 356.168 148.64 355.912C148.704 355.763 148.779 355.635 148.864 355.528C148.949 355.4 149.024 355.336 149.088 355.336C149.152 355.336 149.184 355.4 149.184 355.528C149.184 355.635 149.163 355.816 149.12 356.072C148.907 357.16 148.8 358.152 148.8 359.048C148.8 359.368 148.811 359.677 148.832 359.976C148.853 360.253 148.875 360.477 148.896 360.648C148.917 361.053 149.035 361.512 149.248 362.024C149.419 362.536 149.504 362.888 149.504 363.08C149.504 363.357 149.429 363.581 149.28 363.752C149.131 363.901 148.917 363.976 148.64 363.976ZM161.92 355.464C161.493 355.464 161.195 355.379 161.024 355.208C160.875 355.037 160.747 354.803 160.64 354.504C160.619 354.461 160.427 353.779 160.064 352.456C159.723 351.112 159.04 350.184 158.016 349.672C157.525 349.416 156.864 349.288 156.032 349.288H155.648C155.456 349.288 155.36 349.224 155.36 349.096C155.36 349.011 155.467 348.925 155.68 348.84C155.765 348.797 155.968 348.744 156.288 348.68C156.629 348.616 157.003 348.584 157.408 348.584C158.901 348.584 160.192 349.107 161.28 350.152C162.048 350.877 162.571 351.603 162.848 352.328C163.125 353.032 163.264 353.576 163.264 353.96C163.264 354.344 163.136 354.696 162.88 355.016C162.645 355.315 162.325 355.464 161.92 355.464ZM184.832 365.64C183.104 365.64 181.739 365.299 180.736 364.616C179.755 363.912 179.061 362.909 178.656 361.608C178.272 360.285 178.08 358.611 178.08 356.584C178.08 354.557 178.219 352.179 178.496 349.448C178.667 347.656 178.752 346.472 178.752 345.896C178.752 344.829 178.667 344.008 178.496 343.432C178.347 342.835 177.995 342.365 177.44 342.024C177.269 341.917 177.184 341.8 177.184 341.672C177.184 341.437 177.483 341.32 178.08 341.32C179.189 341.32 179.947 341.629 180.352 342.248C180.779 342.867 180.992 343.709 180.992 344.776C180.992 345.48 180.843 347.08 180.544 349.576C180.203 352.413 180.032 354.813 180.032 356.776C180.032 358.589 180.192 359.997 180.512 361C180.853 361.981 181.419 362.696 182.208 363.144C182.997 363.571 184.107 363.784 185.536 363.784C188.096 363.784 191.488 362.237 195.712 359.144C195.755 359.123 195.851 359.059 196 358.952C196.171 358.845 196.299 358.792 196.384 358.792C196.448 358.792 196.48 358.835 196.48 358.92C196.48 359.069 196.341 359.283 196.064 359.56C194.229 361.395 192.373 362.867 190.496 363.976C188.64 365.085 186.752 365.64 184.832 365.64ZM215.84 363.976C215.413 363.976 214.859 363.816 214.176 363.496C213.493 363.176 212.747 362.653 211.936 361.928C209.867 360.051 208.832 357.384 208.832 353.928C208.832 352.861 208.949 351.549 209.184 349.992C209.312 349.053 209.376 348.413 209.376 348.072C209.376 347.56 209.28 347.101 209.088 346.696C208.917 346.269 208.608 345.853 208.16 345.448C208.032 345.341 207.968 345.256 207.968 345.192C207.968 345.128 208.011 345.085 208.096 345.064C208.181 345.021 208.267 345 208.352 345C208.779 345 209.259 345.139 209.792 345.416C210.347 345.672 210.816 346.024 211.2 346.472C211.584 346.899 211.776 347.336 211.776 347.784C211.776 348.061 211.723 348.381 211.616 348.744C211.531 349.085 211.424 349.448 211.296 349.832C211.019 350.728 210.805 351.496 210.656 352.136C210.528 352.776 210.464 353.523 210.464 354.376C210.464 355.528 210.677 356.573 211.104 357.512C211.552 358.429 212.064 359.155 212.64 359.688C213.237 360.2 213.749 360.456 214.176 360.456C214.432 360.456 214.603 360.232 214.688 359.784C214.88 358.867 215.083 358.056 215.296 357.352C215.531 356.648 215.712 356.168 215.84 355.912C215.904 355.763 215.979 355.635 216.064 355.528C216.149 355.4 216.224 355.336 216.288 355.336C216.352 355.336 216.384 355.4 216.384 355.528C216.384 355.635 216.363 355.816 216.32 356.072C216.107 357.16 216 358.152 216 359.048C216 359.368 216.011 359.677 216.032 359.976C216.053 360.253 216.075 360.477 216.096 360.648C216.117 361.053 216.235 361.512 216.448 362.024C216.619 362.536 216.704 362.888 216.704 363.08C216.704 363.357 216.629 363.581 216.48 363.752C216.331 363.901 216.117 363.976 215.84 363.976ZM229.12 355.464C228.693 355.464 228.395 355.379 228.224 355.208C228.075 355.037 227.947 354.803 227.84 354.504C227.819 354.461 227.627 353.779 227.264 352.456C226.923 351.112 226.24 350.184 225.216 349.672C224.725 349.416 224.064 349.288 223.232 349.288H222.848C222.656 349.288 222.56 349.224 222.56 349.096C222.56 349.011 222.667 348.925 222.88 348.84C222.965 348.797 223.168 348.744 223.488 348.68C223.829 348.616 224.203 348.584 224.608 348.584C226.101 348.584 227.392 349.107 228.48 350.152C229.248 350.877 229.771 351.603 230.048 352.328C230.325 353.032 230.464 353.576 230.464 353.96C230.464 354.344 230.336 354.696 230.08 355.016C229.845 355.315 229.525 355.464 229.12 355.464ZM258.88 346.984C258.923 346.92 258.987 346.824 259.072 346.696C259.179 346.547 259.264 346.44 259.328 346.376C259.413 346.312 259.499 346.28 259.584 346.28C259.797 346.28 260.213 346.557 260.832 347.112C261.451 347.667 261.76 348.061 261.76 348.296C261.696 348.403 261.568 348.509 261.376 348.616C261.184 348.723 260.96 348.797 260.704 348.84V351.592C260.747 353.811 260.811 355.581 260.896 356.904C260.789 357.096 260.523 357.299 260.096 357.512C259.691 357.725 259.328 357.832 259.008 357.832H258.688V356.872H252.992C253.888 358.6 255.147 360.093 256.768 361.352L257.088 361.128C258.005 360.509 258.901 359.784 259.776 358.952C260.651 358.099 261.312 357.309 261.76 356.584C263.424 357.821 264.256 358.568 264.256 358.824C264.256 358.931 264.149 358.984 263.936 358.984H263.392C262.667 359.432 261.76 359.923 260.672 360.456C259.605 360.968 258.528 361.427 257.44 361.832C259.915 363.475 263.061 364.616 266.88 365.256L266.816 365.64C265.941 365.811 265.355 366.429 265.056 367.496C261.835 366.643 259.168 365.363 257.056 363.656C254.944 361.949 253.355 359.688 252.288 356.872H247.104V363.816L254.912 362.472L255.008 363.016C250.827 364.381 246.645 365.629 242.464 366.76C242.379 367.123 242.155 367.368 241.792 367.496L240.32 364.84C241.131 364.755 242.741 364.52 245.152 364.136V346.824C243.211 348.061 241.216 349.117 239.168 349.992L238.912 349.544C240.469 348.733 242.091 347.699 243.776 346.44C245.461 345.181 246.965 343.88 248.288 342.536C249.931 340.872 250.955 339.24 251.36 337.64L255.328 338.792C255.307 338.984 255.189 339.123 254.976 339.208C254.763 339.293 254.453 339.357 254.048 339.4C255.435 340.851 257.291 342.216 259.616 343.496C261.941 344.776 264.427 345.853 267.072 346.728L267.008 347.24C266.581 347.325 266.208 347.528 265.888 347.848C265.568 348.168 265.355 348.531 265.248 348.936C262.837 347.869 260.565 346.525 258.432 344.904C256.32 343.261 254.688 341.555 253.536 339.784C252.619 340.915 251.435 342.088 249.984 343.304C248.555 344.499 247.008 345.629 245.344 346.696L247.264 347.656H251.84C251.84 345.928 251.755 344.563 251.584 343.56C252.693 343.901 253.461 344.179 253.888 344.392C254.336 344.584 254.56 344.755 254.56 344.904C254.56 344.989 254.485 345.085 254.336 345.192L253.888 345.512V347.656H258.432L258.88 346.984ZM258.688 351.72V348.552H247.104V351.72H258.688ZM247.104 352.68V355.944H258.688V352.68H247.104ZM294.336 352.264C294.4 352.179 294.475 352.072 294.56 351.944C294.667 351.816 294.752 351.72 294.816 351.656C294.901 351.592 294.987 351.56 295.072 351.56C295.2 351.56 295.456 351.709 295.84 352.008C296.224 352.285 296.576 352.595 296.896 352.936C297.237 353.277 297.408 353.523 297.408 353.672C297.152 353.971 296.704 354.184 296.064 354.312V356.872H296.832L297.44 355.912C297.525 355.805 297.621 355.667 297.728 355.496C297.856 355.304 297.963 355.165 298.048 355.08C298.133 354.995 298.219 354.952 298.304 354.952C298.432 354.952 298.699 355.123 299.104 355.464C299.509 355.784 299.883 356.136 300.224 356.52C300.565 356.904 300.736 357.171 300.736 357.32C300.651 357.661 300.384 357.832 299.936 357.832H296.064V359.496L296.096 360.488C296.117 361.235 296.16 361.939 296.224 362.6C296.117 362.792 295.872 362.995 295.488 363.208C295.104 363.4 294.752 363.496 294.432 363.496C294.304 363.496 294.197 363.432 294.112 363.304C294.048 363.176 294.016 363.027 294.016 362.856C294.016 362.856 294.059 362.685 294.144 362.344V361.736H287.36V364.424C287.36 365.064 287.275 365.576 287.104 365.96C286.955 366.365 286.624 366.696 286.112 366.952C285.6 367.229 284.832 367.421 283.808 367.528C283.701 366.824 283.424 366.344 282.976 366.088C282.421 365.704 281.397 365.427 279.904 365.256V364.744C282.464 364.957 283.989 365.064 284.48 365.064C284.8 365.064 285.013 365.011 285.12 364.904C285.248 364.776 285.312 364.573 285.312 364.296V361.736H281.152C279.637 361.757 278.037 361.907 276.352 362.184L275.52 360.584C276.693 360.712 278.112 360.797 279.776 360.84H285.312V357.832H277.728C276.213 357.853 274.613 358.003 272.928 358.28L272.128 356.616C273.301 356.744 274.72 356.829 276.384 356.872H285.312V353.928H281.344C279.829 353.949 278.229 354.099 276.544 354.376L275.712 352.712C276.885 352.84 278.304 352.925 279.968 352.968H285.312V350.024H278.656V351.048C278.656 351.155 278.464 351.293 278.08 351.464C277.717 351.613 277.355 351.688 276.992 351.688C276.864 351.688 276.757 351.624 276.672 351.496C276.587 351.368 276.544 351.219 276.544 351.048C276.587 350.792 276.64 350.152 276.704 349.128V347.816C276.704 346.131 276.619 344.787 276.448 343.784L278.88 344.968H285.312V342.44H277.792C276.277 342.461 274.677 342.611 272.992 342.888L272.16 341.224C273.333 341.352 274.752 341.437 276.416 341.48H285.312C285.312 340.136 285.248 338.984 285.12 338.024C287.147 338.621 288.16 339.08 288.16 339.4C288.16 339.507 288.075 339.613 287.904 339.72L287.36 340.072V341.48H296L296.704 340.52C296.789 340.413 296.896 340.275 297.024 340.104C297.173 339.912 297.291 339.773 297.376 339.688C297.483 339.581 297.579 339.528 297.664 339.528C297.792 339.528 298.08 339.699 298.528 340.04C298.976 340.381 299.392 340.744 299.776 341.128C300.181 341.512 300.384 341.779 300.384 341.928C300.32 342.269 300.064 342.44 299.616 342.44H287.36V344.968H293.696L294.208 344.36C294.272 344.296 294.379 344.179 294.528 344.008C294.677 343.816 294.816 343.72 294.944 343.72C295.072 343.72 295.328 343.848 295.712 344.104C296.117 344.36 296.491 344.648 296.832 344.968C297.173 345.267 297.344 345.491 297.344 345.64C297.088 345.939 296.651 346.152 296.032 346.28V347.688L296.096 348.84C296.096 349.139 296.117 349.629 296.16 350.312C296.075 350.483 295.829 350.664 295.424 350.856C295.04 351.048 294.688 351.144 294.368 351.144H294.016V350.024H287.36V352.968H293.824L294.336 352.264ZM278.656 345.896V349.096H285.312V345.896H278.656ZM294.016 349.096V345.896H287.36V349.096H294.016ZM294.144 353.928H287.36V356.872H294.144V353.928ZM287.36 360.84H294.144V357.832H287.36V360.84ZM328.352 346.76C329.056 346.76 329.675 346.984 330.208 347.432C330.763 347.88 331.04 348.477 331.04 349.224C331.04 350.184 330.624 351.005 329.792 351.688C328.96 352.349 327.829 352.989 326.4 353.608L324.032 354.568C322.453 355.187 321.397 355.613 320.864 355.848C320.8 356.296 320.768 357 320.768 357.96C320.768 359.475 320.757 360.328 320.736 360.52C320.715 360.84 320.576 361.117 320.32 361.352C320.085 361.565 319.829 361.672 319.552 361.672C319.296 361.672 319.072 361.555 318.88 361.32C318.688 361.085 318.592 360.819 318.592 360.52C318.592 360.285 318.624 359.869 318.688 359.272L318.88 356.808C317.643 357.491 316.672 358.205 315.968 358.952C315.285 359.699 314.944 360.531 314.944 361.448C314.944 363.069 316.565 363.88 319.808 363.88C320.299 363.88 320.8 363.837 321.312 363.752C321.824 363.667 322.304 363.571 322.752 363.464C323.605 363.272 324.267 363.176 324.736 363.176C325.568 363.176 325.984 363.464 325.984 364.04C325.984 364.68 325.387 365.128 324.192 365.384C322.997 365.64 321.749 365.768 320.448 365.768C317.781 365.768 316 365.373 315.104 364.584C314.208 363.773 313.76 362.792 313.76 361.64C313.76 360.445 314.208 359.4 315.104 358.504C316.021 357.587 317.301 356.701 318.944 355.848C318.965 355.613 318.976 355.283 318.976 354.856C318.976 352.616 318.315 351.496 316.992 351.496C316.224 351.496 315.413 351.955 314.56 352.872C313.728 353.789 312.917 354.792 312.128 355.88C312.064 355.965 311.915 356.189 311.68 356.552C311.445 356.893 311.221 357.171 311.008 357.384C310.795 357.597 310.613 357.704 310.464 357.704C310.101 357.704 309.824 357.565 309.632 357.288C309.44 357.011 309.344 356.68 309.344 356.296C309.344 355.784 309.461 355.4 309.696 355.144L310.272 354.632C310.955 353.992 311.541 353.416 312.032 352.904C312.523 352.392 312.96 351.805 313.344 351.144C314.432 349.288 315.307 347.304 315.968 345.192C315.136 345.427 314.315 345.544 313.504 345.544C312.8 345.544 312.203 345.427 311.712 345.192C311.221 344.957 310.635 344.573 309.952 344.04C309.867 343.976 309.824 343.912 309.824 343.848C309.824 343.763 309.877 343.72 309.984 343.72C310.069 343.72 310.219 343.752 310.432 343.816C311.115 344.072 311.84 344.2 312.608 344.2C312.992 344.2 313.525 344.157 314.208 344.072C314.891 343.965 315.637 343.763 316.448 343.464C316.597 342.867 316.672 342.344 316.672 341.896C316.672 341.043 316.341 340.349 315.68 339.816C315.573 339.731 315.52 339.645 315.52 339.56C315.541 339.24 315.712 339.08 316.032 339.08C316.224 339.08 316.587 339.144 317.12 339.272C317.653 339.4 317.984 339.549 318.112 339.72C318.219 339.848 318.272 340.083 318.272 340.424C318.272 340.552 318.251 340.765 318.208 341.064C318.549 341.299 319.008 341.416 319.584 341.416C319.883 341.416 320.107 341.384 320.256 341.32C320.469 341.277 320.683 341.256 320.896 341.256C321.387 341.256 321.632 341.437 321.632 341.8C321.632 342.077 321.461 342.387 321.12 342.728C320.8 343.069 320.395 343.368 319.904 343.624C319.221 344.008 318.336 344.403 317.248 344.808C316.48 347.283 315.723 349.341 314.976 350.984C315.595 350.621 316.203 350.44 316.8 350.44C317.845 350.44 318.656 350.728 319.232 351.304C319.829 351.88 320.224 352.659 320.416 353.64C320.8 352.744 321.216 351.965 321.664 351.304C322.112 350.621 322.656 349.939 323.296 349.256C323.936 348.573 324.725 347.987 325.664 347.496C326.603 347.005 327.499 346.76 328.352 346.76ZM318.112 341.672C318.112 341.736 318.016 342.131 317.824 342.856C317.973 342.792 318.101 342.728 318.208 342.664C318.315 342.579 318.411 342.515 318.496 342.472C318.645 342.387 318.72 342.301 318.72 342.216C318.72 342.131 318.635 342.024 318.464 341.896L318.112 341.672ZM325.632 352.456C326.677 351.837 327.52 351.165 328.16 350.44C328.821 349.693 329.152 349.085 329.152 348.616C329.152 347.997 328.747 347.688 327.936 347.688C327.36 347.688 326.699 347.891 325.952 348.296C325.205 348.701 324.512 349.224 323.872 349.864C323.296 350.44 322.741 351.219 322.208 352.2C321.675 353.16 321.291 354.013 321.056 354.76V354.792L321.472 354.6L322.144 354.28C323.872 353.427 325.035 352.819 325.632 352.456ZM356.896 341.096C356.96 341.011 357.067 340.872 357.216 340.68C357.365 340.467 357.504 340.36 357.632 340.36C357.76 340.36 358.016 340.509 358.4 340.808C358.784 341.107 359.136 341.427 359.456 341.768C359.797 342.109 359.968 342.355 359.968 342.504C359.733 342.781 359.307 342.984 358.688 343.112V346.504C358.752 349.32 358.827 351.507 358.912 353.064C358.784 353.256 358.517 353.448 358.112 353.64C357.707 353.832 357.355 353.928 357.056 353.928H356.736V352.584H350.496V353.544C350.496 353.651 350.315 353.789 349.952 353.96C349.611 354.131 349.259 354.216 348.896 354.216C348.747 354.216 348.619 354.152 348.512 354.024C348.405 353.896 348.352 353.747 348.352 353.576C348.437 352.595 348.512 351.261 348.576 349.576V347.24C348.576 344.552 348.437 342.365 348.16 340.68L350.656 341.832H351.968C352.117 341.192 352.235 340.509 352.32 339.784C352.405 339.037 352.437 338.387 352.416 337.832C354.528 338.216 355.584 338.547 355.584 338.824C355.584 338.909 355.488 339.005 355.296 339.112L354.752 339.4C354.005 340.445 353.632 340.968 353.632 340.968L353.024 341.832H356.416L356.896 341.096ZM365.472 341.096C366.325 341.565 366.752 341.896 366.752 342.088C366.752 342.173 366.645 342.216 366.432 342.216L365.92 342.184C365.045 342.888 363.253 344.157 360.544 345.992C360.416 346.099 360.224 346.237 359.968 346.408L359.616 345.992L360.192 345.288C360.896 344.392 361.579 343.443 362.24 342.44C362.901 341.437 363.403 340.552 363.744 339.784L365.472 341.096ZM341.024 340.52C342.987 341.053 344.427 341.757 345.344 342.632C346.261 343.485 346.72 344.307 346.72 345.096C346.72 345.437 346.624 345.725 346.432 345.96C346.261 346.173 346.027 346.28 345.728 346.28C345.451 346.28 345.184 346.195 344.928 346.024C344.651 345.213 344.096 344.328 343.264 343.368C342.432 342.387 341.579 341.533 340.704 340.808L341.024 340.52ZM356.736 346.664V342.76H350.496V346.664H356.736ZM350.496 347.592V351.656H356.736V347.592H350.496ZM359.52 347.72C361.333 348.019 362.827 348.456 364 349.032C365.173 349.587 366.016 350.184 366.528 350.824C367.061 351.443 367.328 352.008 367.328 352.52C367.328 352.819 367.232 353.064 367.04 353.256C366.869 353.448 366.645 353.544 366.368 353.544C366.155 353.544 365.952 353.501 365.76 353.416C365.205 352.563 364.277 351.624 362.976 350.6C361.696 349.576 360.459 348.744 359.264 348.104L359.52 347.72ZM339.68 351.656C340.427 351.379 341.579 350.877 343.136 350.152C344.715 349.427 346.336 348.637 348 347.784L348.192 348.2C346.208 349.907 344.117 351.581 341.92 353.224C341.856 353.672 341.685 353.971 341.408 354.12L340.544 352.904L339.68 351.656ZM363.968 355.912C364.053 355.805 364.16 355.667 364.288 355.496C364.437 355.304 364.555 355.165 364.64 355.08C364.747 354.973 364.843 354.92 364.928 354.92C365.056 354.92 365.344 355.091 365.792 355.432C366.24 355.773 366.656 356.147 367.04 356.552C367.445 356.936 367.648 357.203 367.648 357.352C367.584 357.693 367.317 357.864 366.848 357.864H355.648C357.056 359.357 358.891 360.68 361.152 361.832C363.413 362.984 365.696 363.816 368 364.328L367.968 364.68C367.541 364.765 367.168 364.968 366.848 365.288C366.528 365.608 366.315 366.013 366.208 366.504C363.883 365.693 361.717 364.541 359.712 363.048C357.707 361.555 356.075 359.827 354.816 357.864H354.624V360.84C354.688 363.315 354.763 365.224 354.848 366.568C354.741 366.803 354.496 367.005 354.112 367.176C353.728 367.347 353.333 367.432 352.928 367.432C352.736 367.432 352.576 367.368 352.448 367.24C352.32 367.112 352.256 366.963 352.256 366.792C352.384 365.043 352.469 363.272 352.512 361.48V358.472C351.019 360.243 349.163 361.821 346.944 363.208C344.725 364.595 342.261 365.736 339.552 366.632L339.296 366.152C341.493 365.149 343.531 363.933 345.408 362.504C347.285 361.053 348.853 359.507 350.112 357.864H344.928C343.413 357.885 341.813 358.035 340.128 358.312L339.296 356.648C340.469 356.776 341.888 356.861 343.552 356.904H352.512C352.512 355.667 352.448 354.589 352.32 353.672C353.493 354.035 354.304 354.323 354.752 354.536C355.2 354.728 355.424 354.899 355.424 355.048C355.424 355.155 355.339 355.261 355.168 355.368L354.624 355.72V356.904H363.264L363.968 355.912ZM386.432 365.64C384.704 365.64 383.339 365.299 382.336 364.616C381.355 363.912 380.661 362.909 380.256 361.608C379.872 360.285 379.68 358.611 379.68 356.584C379.68 354.557 379.819 352.179 380.096 349.448C380.267 347.656 380.352 346.472 380.352 345.896C380.352 344.829 380.267 344.008 380.096 343.432C379.947 342.835 379.595 342.365 379.04 342.024C378.869 341.917 378.784 341.8 378.784 341.672C378.784 341.437 379.083 341.32 379.68 341.32C380.789 341.32 381.547 341.629 381.952 342.248C382.379 342.867 382.592 343.709 382.592 344.776C382.592 345.48 382.443 347.08 382.144 349.576C381.803 352.413 381.632 354.813 381.632 356.776C381.632 358.589 381.792 359.997 382.112 361C382.453 361.981 383.019 362.696 383.808 363.144C384.597 363.571 385.707 363.784 387.136 363.784C389.696 363.784 393.088 362.237 397.312 359.144C397.355 359.123 397.451 359.059 397.6 358.952C397.771 358.845 397.899 358.792 397.984 358.792C398.048 358.792 398.08 358.835 398.08 358.92C398.08 359.069 397.941 359.283 397.664 359.56C395.829 361.395 393.973 362.867 392.096 363.976C390.24 365.085 388.352 365.64 386.432 365.64ZM165.888 410.888C165.973 410.888 166.016 410.973 166.016 411.144C166.016 411.421 165.963 411.699 165.856 411.976C165.216 414.067 164.427 415.773 163.488 417.096C162.549 418.397 161.589 419.336 160.608 419.912C159.627 420.467 158.699 420.744 157.824 420.744C156.565 420.744 155.627 420.36 155.008 419.592C154.411 418.824 154.112 417.896 154.112 416.808C154.112 416.275 154.208 414.973 154.4 412.904C154.507 411.773 154.56 411.037 154.56 410.696C154.56 409.757 154.379 409 154.016 408.424C153.653 407.827 153.045 407.528 152.192 407.528C151.36 407.528 150.411 407.805 149.344 408.36C148.299 408.915 147.328 409.661 146.432 410.6C145.6 411.453 144.939 412.413 144.448 413.48C143.979 414.525 143.68 415.336 143.552 415.912C143.424 416.467 143.243 417.341 143.008 418.536C142.837 419.496 142.688 420.147 142.56 420.488C142.432 420.808 142.219 420.968 141.92 420.968C141.429 420.968 141.045 420.755 140.768 420.328C140.512 419.88 140.384 419.347 140.384 418.728C140.384 418.216 140.469 417.704 140.64 417.192C141.323 415.123 142.219 413.139 143.328 411.24C144.459 409.341 146.016 406.952 148 404.072C149.365 402.088 150.272 400.744 150.72 400.04C151.296 399.165 151.584 398.461 151.584 397.928C151.584 397.587 151.467 397.288 151.232 397.032C151.061 396.819 150.901 396.648 150.752 396.52C150.603 396.371 150.528 396.275 150.528 396.232C150.528 396.104 150.677 396.04 150.976 396.04C151.36 396.04 151.776 396.168 152.224 396.424C152.672 396.68 153.045 397.032 153.344 397.48C153.643 397.928 153.792 398.408 153.792 398.92C153.792 399.539 153.621 400.093 153.28 400.584C152.96 401.053 152.501 401.565 151.904 402.12C151.541 402.483 151.36 402.664 151.36 402.664C150.4 403.624 149.568 404.531 148.864 405.384C148.181 406.216 147.531 407.123 146.912 408.104L146.048 409.576C147.008 408.659 148.021 407.933 149.088 407.4C150.176 406.845 151.264 406.568 152.352 406.568C153.547 406.568 154.549 406.941 155.36 407.688C156.171 408.413 156.576 409.523 156.576 411.016C156.576 411.763 156.491 412.669 156.32 413.736C156.299 413.864 156.256 414.184 156.192 414.696C156.128 415.187 156.096 415.699 156.096 416.232C156.096 417.128 156.267 417.789 156.608 418.216C156.949 418.643 157.515 418.856 158.304 418.856C159.413 418.856 160.576 418.301 161.792 417.192C163.008 416.083 164.181 414.28 165.312 411.784C165.355 411.699 165.408 411.571 165.472 411.4C165.557 411.229 165.632 411.101 165.696 411.016C165.76 410.931 165.824 410.888 165.888 410.888ZM191.52 397.768C192.245 397.768 192.917 397.971 193.536 398.376C194.176 398.76 194.496 399.229 194.496 399.784C194.496 400.019 194.421 400.2 194.272 400.328C194.144 400.435 193.973 400.488 193.76 400.488C193.312 400.488 192.715 400.413 191.968 400.264C191.819 400.243 191.531 400.2 191.104 400.136C190.677 400.072 190.325 400.04 190.048 400.04C189.408 400.04 188.789 400.125 188.192 400.296C187.616 400.445 187.2 400.584 186.944 400.712C186.069 401.181 185.28 402.12 184.576 403.528C183.893 404.936 183.36 406.493 182.976 408.2C182.613 409.907 182.432 411.4 182.432 412.68C182.432 414.835 182.795 416.349 183.52 417.224C184.267 418.077 185.387 418.504 186.88 418.504L187.776 418.44C188.416 418.355 188.907 418.312 189.248 418.312C190.784 418.312 191.552 418.685 191.552 419.432C191.552 419.987 191.115 420.36 190.24 420.552C189.387 420.723 188.523 420.808 187.648 420.808C185.877 420.808 184.48 420.52 183.456 419.944C182.453 419.368 181.739 418.493 181.312 417.32C180.885 416.147 180.672 414.611 180.672 412.712C180.672 410.28 181.141 407.987 182.08 405.832C183.04 403.656 184.245 401.875 185.696 400.488L185.44 400.552C184.843 400.68 183.989 400.968 182.88 401.416C181.792 401.843 180.395 402.419 178.688 403.144L177.312 403.72C177.141 403.805 176.768 403.997 176.192 404.296C175.787 404.509 175.467 404.669 175.232 404.776C174.997 404.883 174.752 404.936 174.496 404.936C173.963 404.936 173.387 404.691 172.768 404.2C172.171 403.709 171.712 403.219 171.392 402.728C171.285 402.579 171.232 402.451 171.232 402.344C171.232 402.259 171.264 402.184 171.328 402.12C171.392 402.056 171.467 402.024 171.552 402.024C171.68 402.024 171.819 402.067 171.968 402.152C172.011 402.173 172.192 402.28 172.512 402.472C172.832 402.643 173.227 402.728 173.696 402.728C173.803 402.728 173.984 402.707 174.24 402.664C174.304 402.643 174.955 402.429 176.192 402.024C178.581 401.213 180.768 400.52 182.752 399.944C184.757 399.347 186.603 398.941 188.288 398.728C188.608 398.685 188.917 398.611 189.216 398.504C189.515 398.376 189.707 398.291 189.792 398.248C190.432 397.928 191.008 397.768 191.52 397.768ZM200.16 397.416C199.968 397.416 199.765 397.352 199.552 397.224C199.36 397.075 199.2 396.861 199.072 396.584C198.816 396.029 198.539 395.592 198.24 395.272C197.963 394.931 197.568 394.6 197.056 394.28C196.928 394.195 196.789 394.12 196.64 394.056C196.512 393.971 196.395 393.896 196.288 393.832C196.203 393.747 196.16 393.661 196.16 393.576C196.16 393.448 196.288 393.384 196.544 393.384C197.013 393.384 197.611 393.512 198.336 393.768C199.083 394.003 199.733 394.355 200.288 394.824C200.864 395.272 201.152 395.805 201.152 396.424C201.152 396.787 201.045 397.043 200.832 397.192C200.64 397.341 200.416 397.416 200.16 397.416ZM196.64 399.496C196.427 399.496 196.203 399.432 195.968 399.304C195.733 399.155 195.563 398.92 195.456 398.6C195.243 397.981 194.976 397.459 194.656 397.032C194.357 396.584 193.952 396.2 193.44 395.88C193.376 395.837 193.269 395.773 193.12 395.688C192.992 395.603 192.896 395.528 192.832 395.464C192.768 395.4 192.736 395.336 192.736 395.272C192.736 395.123 192.843 395.048 193.056 395.048C193.291 395.048 193.792 395.176 194.56 395.432C195.349 395.688 196.064 396.061 196.704 396.552C197.365 397.043 197.696 397.651 197.696 398.376C197.696 398.739 197.589 399.016 197.376 399.208C197.163 399.4 196.917 399.496 196.64 399.496ZM219.872 406.984C222.176 408.008 223.968 409.363 225.248 411.048C226.549 412.712 227.2 414.44 227.2 416.232C227.2 417.491 226.869 418.6 226.208 419.56C225.568 420.52 224.715 421.256 223.648 421.768C222.581 422.28 221.44 422.536 220.224 422.536C218.069 422.536 216.544 421.875 215.648 420.552C214.773 419.208 214.336 417.459 214.336 415.304C214.336 414.387 214.347 413.704 214.368 413.256C213.621 413 213.013 412.68 212.544 412.296C212.096 411.891 211.872 411.411 211.872 410.856C211.872 409.619 212.949 408.04 215.104 406.12C215.296 404.989 215.488 403.965 215.68 403.048C214.955 402.749 214.272 402.419 213.632 402.056C213.013 401.693 212.555 401.363 212.256 401.064C212.213 401.021 212.149 400.957 212.064 400.872C211.979 400.787 211.936 400.712 211.936 400.648C211.936 400.52 212 400.456 212.128 400.456C212.171 400.456 212.32 400.499 212.576 400.584C213.088 400.776 213.739 400.947 214.528 401.096C215.339 401.245 215.829 401.341 216 401.384C216.277 399.955 216.416 398.835 216.416 398.024C216.416 397.277 216.299 396.627 216.064 396.072C215.829 395.539 215.573 395.133 215.296 394.856C215.168 394.728 215.104 394.621 215.104 394.536C215.104 394.387 215.221 394.312 215.456 394.312C215.691 394.312 215.979 394.387 216.32 394.536C216.661 394.685 216.981 394.888 217.28 395.144C218.048 395.784 218.432 396.499 218.432 397.288C218.432 397.544 218.389 397.821 218.304 398.12C218.219 398.419 218.08 398.813 217.888 399.304C217.611 400.008 217.355 400.776 217.12 401.608C217.867 401.779 218.517 401.971 219.072 402.184C219.477 402.355 219.776 402.6 219.968 402.92C220.181 403.24 220.288 403.549 220.288 403.848C220.288 404.104 220.203 404.317 220.032 404.488C219.861 404.659 219.669 404.755 219.456 404.776C218.347 404.861 217.259 405.245 216.192 405.928C215.808 408.04 215.563 409.981 215.456 411.752L215.776 411.784C216.395 411.869 217.195 411.912 218.176 411.912C218.773 411.912 219.243 411.987 219.584 412.136C219.925 412.285 220.096 412.584 220.096 413.032C220.096 413.416 219.925 413.661 219.584 413.768C219.264 413.875 218.891 413.928 218.464 413.928C217.525 413.928 216.501 413.8 215.392 413.544V413.864C215.392 416.061 215.701 417.757 216.32 418.952C216.96 420.147 218.197 420.744 220.032 420.744C220.971 420.744 221.824 420.541 222.592 420.136C223.36 419.709 223.968 419.101 224.416 418.312C224.885 417.523 225.12 416.605 225.12 415.56C225.12 414.173 224.597 412.733 223.552 411.24C222.507 409.725 221.173 408.424 219.552 407.336C219.296 407.165 219.168 407.027 219.168 406.92C219.168 406.856 219.221 406.824 219.328 406.824C219.477 406.824 219.659 406.877 219.872 406.984ZM216.704 403.464L216.512 404.424L216.352 405.128C216.651 404.915 216.928 404.701 217.184 404.488C217.44 404.253 217.568 404.083 217.568 403.976C217.568 403.891 217.504 403.816 217.376 403.752C217.248 403.667 217.12 403.613 216.992 403.592C216.885 403.549 216.811 403.517 216.768 403.496L216.704 403.464ZM213.024 410.184C213.024 410.76 213.504 411.197 214.464 411.496C214.571 410.131 214.741 408.595 214.976 406.888C214.379 407.443 213.899 408.029 213.536 408.648C213.195 409.267 213.024 409.779 213.024 410.184ZM248.416 422.152C248.139 422.152 248 422.088 248 421.96C248 421.853 248.053 421.779 248.16 421.736C248.288 421.693 248.469 421.651 248.704 421.608C252.096 421.032 254.667 420.115 256.416 418.856C258.187 417.597 259.072 415.987 259.072 414.024C259.072 412.829 258.784 411.891 258.208 411.208C257.653 410.525 256.853 410.184 255.808 410.184C254.848 410.184 253.952 410.568 253.12 411.336C252.309 412.104 251.392 413.267 250.368 414.824C250.176 415.123 249.888 415.389 249.504 415.624C249.141 415.837 248.853 415.944 248.64 415.944C246.656 415.944 245.664 414.76 245.664 412.392C245.664 411.389 245.781 409.459 246.016 406.6C246.144 404.936 246.208 404.072 246.208 404.008C246.208 403.88 246.176 403.56 246.112 403.048C246.048 402.856 246.016 402.643 246.016 402.408C246.016 402.003 246.112 401.683 246.304 401.448C246.496 401.192 246.805 400.872 247.232 400.488C247.552 400.211 247.915 399.965 248.32 399.752C248.725 399.539 249.248 399.293 249.888 399.016C250.485 398.781 250.923 398.589 251.2 398.44C251.477 398.269 251.616 398.099 251.616 397.928C251.616 397.715 251.435 397.448 251.072 397.128C250.709 396.808 250.325 396.531 249.92 396.296C249.856 396.253 249.76 396.211 249.632 396.168C249.525 396.104 249.472 396.04 249.472 395.976C249.472 395.912 249.6 395.869 249.856 395.848C250.133 395.805 250.347 395.784 250.496 395.784C251.328 395.784 252.053 395.955 252.672 396.296C253.312 396.616 253.845 397.181 254.272 397.992C254.443 398.291 254.528 398.632 254.528 399.016C254.528 399.4 254.421 399.731 254.208 400.008C253.995 400.264 253.771 400.392 253.536 400.392C253.365 400.392 253.205 400.349 253.056 400.264C252.928 400.157 252.843 400.093 252.8 400.072C252.565 399.901 252.341 399.773 252.128 399.688C251.915 399.603 251.637 399.56 251.296 399.56C250.293 399.56 249.227 399.944 248.096 400.712C247.84 400.883 247.648 401.096 247.52 401.352C247.392 401.608 247.328 401.864 247.328 402.12C247.328 402.312 247.403 402.536 247.552 402.792C247.765 403.219 247.872 403.624 247.872 404.008C247.872 404.243 247.797 404.979 247.648 406.216C247.349 408.712 247.2 410.227 247.2 410.76C247.2 411.336 247.285 411.869 247.456 412.36C247.648 412.851 247.893 413.096 248.192 413.096C248.363 413.096 248.565 413.032 248.8 412.904C249.056 412.755 249.323 412.584 249.6 412.392C249.877 412.2 250.08 412.061 250.208 411.976C251.36 411.144 252.395 410.493 253.312 410.024C254.251 409.555 255.243 409.32 256.288 409.32C257.248 409.32 258.101 409.587 258.848 410.12C259.595 410.632 260.171 411.304 260.576 412.136C261.003 412.968 261.216 413.832 261.216 414.728C261.216 415.645 261.003 416.531 260.576 417.384C260.171 418.237 259.061 419.112 257.248 420.008C255.456 420.904 252.715 421.597 249.024 422.088C248.768 422.131 248.565 422.152 248.416 422.152ZM283.04 419.976C282.613 419.976 282.059 419.816 281.376 419.496C280.693 419.176 279.947 418.653 279.136 417.928C277.067 416.051 276.032 413.384 276.032 409.928C276.032 408.861 276.149 407.549 276.384 405.992C276.512 405.053 276.576 404.413 276.576 404.072C276.576 403.56 276.48 403.101 276.288 402.696C276.117 402.269 275.808 401.853 275.36 401.448C275.232 401.341 275.168 401.256 275.168 401.192C275.168 401.128 275.211 401.085 275.296 401.064C275.381 401.021 275.467 401 275.552 401C275.979 401 276.459 401.139 276.992 401.416C277.547 401.672 278.016 402.024 278.4 402.472C278.784 402.899 278.976 403.336 278.976 403.784C278.976 404.061 278.923 404.381 278.816 404.744C278.731 405.085 278.624 405.448 278.496 405.832C278.219 406.728 278.005 407.496 277.856 408.136C277.728 408.776 277.664 409.523 277.664 410.376C277.664 411.528 277.877 412.573 278.304 413.512C278.752 414.429 279.264 415.155 279.84 415.688C280.437 416.2 280.949 416.456 281.376 416.456C281.632 416.456 281.803 416.232 281.888 415.784C282.08 414.867 282.283 414.056 282.496 413.352C282.731 412.648 282.912 412.168 283.04 411.912C283.104 411.763 283.179 411.635 283.264 411.528C283.349 411.4 283.424 411.336 283.488 411.336C283.552 411.336 283.584 411.4 283.584 411.528C283.584 411.635 283.563 411.816 283.52 412.072C283.307 413.16 283.2 414.152 283.2 415.048C283.2 415.368 283.211 415.677 283.232 415.976C283.253 416.253 283.275 416.477 283.296 416.648C283.317 417.053 283.435 417.512 283.648 418.024C283.819 418.536 283.904 418.888 283.904 419.08C283.904 419.357 283.829 419.581 283.68 419.752C283.531 419.901 283.317 419.976 283.04 419.976ZM296.32 411.464C295.893 411.464 295.595 411.379 295.424 411.208C295.275 411.037 295.147 410.803 295.04 410.504C295.019 410.461 294.827 409.779 294.464 408.456C294.123 407.112 293.44 406.184 292.416 405.672C291.925 405.416 291.264 405.288 290.432 405.288H290.048C289.856 405.288 289.76 405.224 289.76 405.096C289.76 405.011 289.867 404.925 290.08 404.84C290.165 404.797 290.368 404.744 290.688 404.68C291.029 404.616 291.403 404.584 291.808 404.584C293.301 404.584 294.592 405.107 295.68 406.152C296.448 406.877 296.971 407.603 297.248 408.328C297.525 409.032 297.664 409.576 297.664 409.96C297.664 410.344 297.536 410.696 297.28 411.016C297.045 411.315 296.725 411.464 296.32 411.464ZM317.856 400.584C318.219 400.712 318.475 400.829 318.624 400.936C318.795 401.043 318.88 401.213 318.88 401.448C318.88 401.768 318.656 402.099 318.208 402.44C316.864 403.4 315.488 404.179 314.08 404.776C312.267 413.331 311.189 418.141 310.848 419.208C310.613 419.912 310.389 420.413 310.176 420.712C309.963 420.989 309.717 421.128 309.44 421.128C309.099 421.128 308.8 421.011 308.544 420.776C308.288 420.52 308.16 420.179 308.16 419.752C308.16 419.432 308.245 419.101 308.416 418.76C310.187 414.963 311.552 410.504 312.512 405.384C311.403 405.704 310.464 405.864 309.696 405.864C308.715 405.864 307.701 405.352 306.656 404.328C306.507 404.179 306.432 404.051 306.432 403.944C306.432 403.816 306.496 403.752 306.624 403.752C306.731 403.752 306.891 403.805 307.104 403.912C307.659 404.147 308.256 404.264 308.896 404.264C309.493 404.264 310.144 404.157 310.848 403.944C311.445 403.773 312.117 403.539 312.864 403.24C312.992 402.472 313.131 401.491 313.28 400.296C313.323 399.955 313.344 399.624 313.344 399.304C313.344 398.643 313.248 398.173 313.056 397.896C312.885 397.597 312.501 397.245 311.904 396.84C311.733 396.733 311.648 396.627 311.648 396.52C311.648 396.392 311.787 396.328 312.064 396.328C312.299 396.328 312.597 396.371 312.96 396.456C313.344 396.541 313.675 396.648 313.952 396.776C314.421 397.011 314.773 397.245 315.008 397.48C315.243 397.715 315.36 398.077 315.36 398.568C315.36 398.653 315.339 398.824 315.296 399.08C315.765 399.549 316.213 399.901 316.64 400.136C316.853 400.243 317.259 400.392 317.856 400.584ZM314.592 402.472C315.637 401.896 316.16 401.459 316.16 401.16C316.16 400.989 316.075 400.797 315.904 400.584C315.755 400.371 315.509 400.061 315.168 399.656L314.848 401.256L314.592 402.472ZM329.632 402.92C330.059 403.219 330.389 403.592 330.624 404.04C330.88 404.488 331.008 404.861 331.008 405.16C331.008 405.587 330.592 405.896 329.76 406.088C329.376 406.173 329.077 406.227 328.864 406.248C328.544 406.291 328.16 406.376 327.712 406.504C327.392 406.611 327.04 406.76 326.656 406.952C326.272 407.144 325.984 407.315 325.792 407.464C325.643 407.549 325.515 407.592 325.408 407.592C325.301 407.592 325.248 407.549 325.248 407.464C325.248 407.357 325.301 407.24 325.408 407.112C325.515 407.005 325.803 406.771 326.272 406.408C327.445 405.555 328.032 404.936 328.032 404.552C328.032 404.339 327.883 404.125 327.584 403.912C327.115 403.571 326.624 403.325 326.112 403.176C325.6 403.027 325.141 402.952 324.736 402.952C324.48 402.952 324.267 402.973 324.096 403.016C323.925 403.037 323.829 403.048 323.808 403.048C323.509 403.048 323.36 402.963 323.36 402.792C323.36 402.643 323.499 402.515 323.776 402.408C324.544 402.131 325.344 401.992 326.176 401.992C326.88 401.992 327.531 402.077 328.128 402.248C328.747 402.419 329.248 402.643 329.632 402.92ZM328.544 418.728C329.333 418.728 329.824 418.899 330.016 419.24C330.165 419.432 330.24 419.656 330.24 419.912C330.24 420.467 329.92 420.84 329.28 421.032C328.661 421.224 327.808 421.32 326.72 421.32C324.459 421.32 322.603 420.925 321.152 420.136C319.701 419.325 318.976 418.024 318.976 416.232C318.976 415.827 319.008 415.453 319.072 415.112C319.157 414.771 319.232 414.536 319.296 414.408C319.381 414.195 319.477 414.003 319.584 413.832C319.691 413.661 319.797 413.576 319.904 413.576C319.989 413.576 320.032 413.651 320.032 413.8L319.968 414.376C319.947 414.525 319.936 414.696 319.936 414.888C319.936 415.315 320.021 415.784 320.192 416.296C320.363 416.808 320.683 417.277 321.152 417.704C321.536 418.067 322.091 418.365 322.816 418.6C323.563 418.835 324.416 418.952 325.376 418.952C325.611 418.952 326.176 418.909 327.072 418.824C327.371 418.803 327.648 418.781 327.904 418.76C328.16 418.739 328.373 418.728 328.544 418.728ZM350.24 419.976C349.813 419.976 349.259 419.816 348.576 419.496C347.893 419.176 347.147 418.653 346.336 417.928C344.267 416.051 343.232 413.384 343.232 409.928C343.232 408.861 343.349 407.549 343.584 405.992C343.712 405.053 343.776 404.413 343.776 404.072C343.776 403.56 343.68 403.101 343.488 402.696C343.317 402.269 343.008 401.853 342.56 401.448C342.432 401.341 342.368 401.256 342.368 401.192C342.368 401.128 342.411 401.085 342.496 401.064C342.581 401.021 342.667 401 342.752 401C343.179 401 343.659 401.139 344.192 401.416C344.747 401.672 345.216 402.024 345.6 402.472C345.984 402.899 346.176 403.336 346.176 403.784C346.176 404.061 346.123 404.381 346.016 404.744C345.931 405.085 345.824 405.448 345.696 405.832C345.419 406.728 345.205 407.496 345.056 408.136C344.928 408.776 344.864 409.523 344.864 410.376C344.864 411.528 345.077 412.573 345.504 413.512C345.952 414.429 346.464 415.155 347.04 415.688C347.637 416.2 348.149 416.456 348.576 416.456C348.832 416.456 349.003 416.232 349.088 415.784C349.28 414.867 349.483 414.056 349.696 413.352C349.931 412.648 350.112 412.168 350.24 411.912C350.304 411.763 350.379 411.635 350.464 411.528C350.549 411.4 350.624 411.336 350.688 411.336C350.752 411.336 350.784 411.4 350.784 411.528C350.784 411.635 350.763 411.816 350.72 412.072C350.507 413.16 350.4 414.152 350.4 415.048C350.4 415.368 350.411 415.677 350.432 415.976C350.453 416.253 350.475 416.477 350.496 416.648C350.517 417.053 350.635 417.512 350.848 418.024C351.019 418.536 351.104 418.888 351.104 419.08C351.104 419.357 351.029 419.581 350.88 419.752C350.731 419.901 350.517 419.976 350.24 419.976ZM363.52 411.464C363.093 411.464 362.795 411.379 362.624 411.208C362.475 411.037 362.347 410.803 362.24 410.504C362.219 410.461 362.027 409.779 361.664 408.456C361.323 407.112 360.64 406.184 359.616 405.672C359.125 405.416 358.464 405.288 357.632 405.288H357.248C357.056 405.288 356.96 405.224 356.96 405.096C356.96 405.011 357.067 404.925 357.28 404.84C357.365 404.797 357.568 404.744 357.888 404.68C358.229 404.616 358.603 404.584 359.008 404.584C360.501 404.584 361.792 405.107 362.88 406.152C363.648 406.877 364.171 407.603 364.448 408.328C364.725 409.032 364.864 409.576 364.864 409.96C364.864 410.344 364.736 410.696 364.48 411.016C364.245 411.315 363.925 411.464 363.52 411.464ZM377.376 422.92C376.629 422.92 375.925 422.728 375.264 422.344C374.624 421.981 374.112 421.48 373.728 420.84C373.365 420.2 373.184 419.496 373.184 418.728C373.184 417.981 373.365 417.288 373.728 416.648C374.112 416.008 374.624 415.507 375.264 415.144C375.925 414.76 376.629 414.568 377.376 414.568C378.123 414.568 378.816 414.76 379.456 415.144C380.096 415.507 380.597 416.008 380.96 416.648C381.344 417.288 381.536 417.981 381.536 418.728C381.536 419.496 381.344 420.2 380.96 420.84C380.597 421.48 380.096 421.981 379.456 422.344C378.816 422.728 378.123 422.92 377.376 422.92ZM377.376 422.12C378.315 422.12 379.115 421.789 379.776 421.128C380.437 420.467 380.768 419.667 380.768 418.728C380.768 417.811 380.437 417.021 379.776 416.36C379.115 415.699 378.315 415.368 377.376 415.368C376.437 415.368 375.637 415.699 374.976 416.36C374.315 417.021 373.984 417.811 373.984 418.728C373.984 419.667 374.315 420.467 374.976 421.128C375.637 421.789 376.437 422.12 377.376 422.12Z" fill="#422B1A"/>
<path d="M271.13 96.5248C271.13 91.6538 269.167 87.2418 265.99 84.0318C265.644 83.6804 264.617 83.4118 263.964 84.526C263.31 85.6393 261.511 88.4371 261.511 88.4371C261.292 88.7847 260.909 88.9957 260.5 88.9957C260.089 88.9957 259.708 88.7847 259.489 88.4371C259.489 88.4371 257.69 85.6393 257.036 84.526C256.383 83.4118 255.357 83.6804 255.009 84.0318C251.833 87.2418 249.871 91.6538 249.871 96.5248C249.871 103.799 254.242 110.048 260.5 112.799C266.758 110.048 271.13 103.799 271.13 96.5248Z" fill="white"/>
<path d="M253.159 118.133C252.477 111.331 247.883 105.242 240.966 102.994C236.333 101.49 231.53 101.993 227.496 104.022C227.055 104.243 226.481 105.137 227.34 106.102C228.196 107.068 230.301 109.644 230.301 109.644C230.564 109.959 230.647 110.388 230.521 110.778C230.394 111.168 230.074 111.466 229.677 111.566C229.677 111.566 226.46 112.413 225.199 112.691C223.938 112.968 223.876 114.027 224.103 114.465C226.174 118.478 229.763 121.708 234.396 123.214C241.314 125.462 248.609 123.235 253.159 118.133Z" fill="white"/>
<path d="M237.797 133.682C234.934 137.623 233.928 142.346 234.612 146.81C234.687 147.298 235.358 148.119 236.54 147.602C237.725 147.084 240.826 145.878 240.826 145.878C241.206 145.727 241.638 145.78 241.972 146.021C242.304 146.262 242.489 146.658 242.459 147.067C242.459 147.067 242.273 150.388 242.146 151.674C242.02 152.958 243.008 153.344 243.495 153.264C247.951 152.534 252.133 150.119 254.996 146.177C259.272 140.294 259.408 132.667 255.963 126.764C249.283 125.311 242.073 127.797 237.797 133.682Z" fill="white"/>
<path d="M265.037 126.764C261.592 132.667 261.728 140.293 266.004 146.177C268.867 150.119 273.049 152.534 277.505 153.264C277.992 153.344 278.98 152.958 278.855 151.674C278.728 150.388 278.54 147.067 278.54 147.067C278.512 146.658 278.697 146.262 279.029 146.021C279.36 145.78 279.794 145.727 280.175 145.878C280.175 145.878 283.275 147.084 284.459 147.602C285.641 148.118 286.313 147.298 286.388 146.81C287.071 142.346 286.067 137.624 283.203 133.682C278.928 127.797 271.717 125.31 265.037 126.764Z" fill="white"/>
<path d="M295.802 112.69C294.541 112.413 291.324 111.565 291.324 111.565C290.925 111.465 290.607 111.168 290.48 110.777C290.353 110.388 290.436 109.959 290.699 109.644C290.699 109.644 292.803 107.067 293.662 106.102C294.519 105.137 293.946 104.243 293.505 104.022C289.47 101.992 284.669 101.489 280.034 102.994C273.116 105.242 268.523 111.331 267.842 118.133C272.391 123.235 279.685 125.462 286.604 123.214C291.237 121.708 294.827 118.477 296.897 114.465C297.124 114.026 297.064 112.968 295.802 112.69Z" fill="white"/>
</svg>
